<svg xmlns="http://www.w3.org/2000/svg" width="127.675" height="45.382" viewBox="0 0 127.675 45.382">
  <g id="Group_2828" data-name="Group 2828" transform="translate(-422.931 -6135.618)">
    <path id="Path_33682" data-name="Path 33682" d="M7.112,34.568a4.337,4.337,0,0,1,1.573-.283,3.813,3.813,0,0,1,2.532.874,3.615,3.615,0,0,1,1.219,2.261h4.726a7.929,7.929,0,0,0-.741-2.765,6.912,6.912,0,0,0-1.755-2.264,7.782,7.782,0,0,0-2.611-1.438,10.681,10.681,0,0,0-3.331-.494,10.8,10.8,0,0,0-3.6.57,7.121,7.121,0,0,0-2.738,1.718A7.8,7.8,0,0,0,.629,35.719,13.491,13.491,0,0,0,0,40.072a14.039,14.039,0,0,0,.629,4.414,8.883,8.883,0,0,0,1.763,3.15,7.133,7.133,0,0,0,2.7,1.889,9.363,9.363,0,0,0,3.476.626,9.26,9.26,0,0,0,3.171-.531,8.661,8.661,0,0,0,2.6-1.479,8.017,8.017,0,0,0,1.874-2.272,7.839,7.839,0,0,0,.9-2.756H12.4a3.375,3.375,0,0,1-1.248,2.323,4.162,4.162,0,0,1-2.623.85A3.389,3.389,0,0,1,5.8,44.7a7.987,7.987,0,0,1-1.157-4.749A9.669,9.669,0,0,1,4.956,37.3,4.962,4.962,0,0,1,5.82,35.53a3.142,3.142,0,0,1,1.292-.962" transform="translate(422.931 6112.32)" fill="#fff"/>
    <path id="Path_33683" data-name="Path 33683" d="M94.573,33.132A8.576,8.576,0,0,0,91.6,31.161a10.6,10.6,0,0,0-3.958-.7,10.852,10.852,0,0,0-4.017.7,8.589,8.589,0,0,0-3.015,1.991,8.7,8.7,0,0,0-1.915,3.11,11.778,11.778,0,0,0-.666,4.042,11.965,11.965,0,0,0,.648,4,8.311,8.311,0,0,0,4.892,5.119,10.858,10.858,0,0,0,4.075.722,10.614,10.614,0,0,0,3.94-.7,8.379,8.379,0,0,0,2.995-1.989,8.869,8.869,0,0,0,1.9-3.093,11.741,11.741,0,0,0,.666-4.06,11.9,11.9,0,0,0-.667-4.08,8.659,8.659,0,0,0-1.9-3.092M87.638,46.284c-3.172,0-4.781-2.012-4.781-5.98,0-3.943,1.609-5.942,4.781-5.942s4.781,2,4.781,5.942c0,3.968-1.608,5.98-4.781,5.98" transform="translate(363.249 6112.32)" fill="#fff"/>
    <path id="Path_33684" data-name="Path 33684" d="M174.232,30.459a7.354,7.354,0,0,0-3.175.7,7.842,7.842,0,0,0-2.574,1.968,9.616,9.616,0,0,0-1.747,3.078,11.809,11.809,0,0,0-.647,3.985,14.815,14.815,0,0,0,.439,3.594,8.8,8.8,0,0,0,1.4,3.074,7.151,7.151,0,0,0,2.531,2.133,8.413,8.413,0,0,0,3.885.812,7,7,0,0,0,3.19-.7,3.81,3.81,0,0,0,1.872-1.9l.339-.8v4a3.8,3.8,0,0,1-1.46,3.137,5.509,5.509,0,0,1-3.514,1.141,4.793,4.793,0,0,1-3.15-.989,3.428,3.428,0,0,1-1.2-2.649H166.09a7.461,7.461,0,0,0,.678,3.076,7.169,7.169,0,0,0,1.87,2.436,8.587,8.587,0,0,0,2.863,1.554,12.068,12.068,0,0,0,7.28-.019,8.7,8.7,0,0,0,2.959-1.649,7.61,7.61,0,0,0,1.966-2.686,9.137,9.137,0,0,0,.72-3.74V30.962h-4.678v2.8l-.326-.524a5.733,5.733,0,0,0-5.19-2.78m5.671,10.31a5.892,5.892,0,0,1-1.262,3.966,4.076,4.076,0,0,1-3.21,1.473,3.977,3.977,0,0,1-3.214-1.575,6.476,6.476,0,0,1-1.258-4.174c0-3.969,1.5-5.981,4.471-5.981s4.472,2.116,4.472,6.29" transform="translate(295.886 6112.32)" fill="#fff"/>
    <path id="Path_33685" data-name="Path 33685" d="M269.313,32.033a5.19,5.19,0,0,0-1.928-1.179,7.427,7.427,0,0,0-2.457-.4,7.514,7.514,0,0,0-3.706.809,5.968,5.968,0,0,0-2.293,2.388l-.331.6v-3.3h-4.446V49.647h4.678V38.911c0-3.019,1.374-4.549,4.085-4.549a3.548,3.548,0,0,1,2.643.829,4.53,4.53,0,0,1,.784,3.1V49.453h4.717V36.628a7.015,7.015,0,0,0-.471-2.661,5.7,5.7,0,0,0-1.276-1.934" transform="translate(228.523 6112.32)" fill="#fff"/>
    <rect id="Rectangle_1059" data-name="Rectangle 1059" width="4.678" height="18.803" transform="translate(502.063 6143.165)" fill="#fff"/>
    <path id="Path_33686" data-name="Path 33686" d="M371.671,0h-4.6V19.366a9.863,9.863,0,0,0,.418,2.889,6.175,6.175,0,0,0,1.336,2.371,6.582,6.582,0,0,0,2.356,1.62,9.038,9.038,0,0,0,3.492.606,8.668,8.668,0,0,0,3.394-.605,6.5,6.5,0,0,0,2.336-1.638,6.608,6.608,0,0,0,1.357-2.375A9.167,9.167,0,0,0,382.2,19.4V14.164h-4.33V18.94a4.739,4.739,0,0,1-.751,2.853,2.762,2.762,0,0,1-2.367,1.039,2.677,2.677,0,0,1-2.37-1.063,5.117,5.117,0,0,1-.708-2.905V10.87H382.2V7.663H371.671Z" transform="translate(142.15 6135.618)" fill="#fff"/>
    <rect id="Rectangle_1060" data-name="Rectangle 1060" width="4.678" height="19.189" transform="translate(526.634 6143.281)" fill="#fff"/>
    <path id="Path_33687" data-name="Path 33687" d="M477.223,34.568a4.336,4.336,0,0,1,1.573-.283,3.814,3.814,0,0,1,2.532.874,3.615,3.615,0,0,1,1.219,2.261h4.726a7.93,7.93,0,0,0-.741-2.765,6.911,6.911,0,0,0-1.755-2.264,7.777,7.777,0,0,0-2.611-1.438,10.682,10.682,0,0,0-3.331-.494,10.8,10.8,0,0,0-3.6.57,7.121,7.121,0,0,0-2.739,1.718,7.8,7.8,0,0,0-1.758,2.971,13.489,13.489,0,0,0-.629,4.354,14.03,14.03,0,0,0,.63,4.414,8.876,8.876,0,0,0,1.763,3.15,7.131,7.131,0,0,0,2.7,1.889,9.361,9.361,0,0,0,3.476.626,9.258,9.258,0,0,0,3.171-.531,8.66,8.66,0,0,0,2.6-1.479,8.017,8.017,0,0,0,1.874-2.272,7.837,7.837,0,0,0,.9-2.756h-4.712a3.376,3.376,0,0,1-1.248,2.323,4.162,4.162,0,0,1-2.623.85,3.388,3.388,0,0,1-2.734-1.58,7.988,7.988,0,0,1-1.157-4.749,9.665,9.665,0,0,1,.317-2.661,4.959,4.959,0,0,1,.864-1.765,3.14,3.14,0,0,1,1.292-.962" transform="translate(63.333 6112.32)" fill="#fff"/>
    <path id="Path_33688" data-name="Path 33688" d="M254.011,149.985v.316a2.462,2.462,0,0,0,.618,1.838,2.016,2.016,0,0,0,1.492.528,2.526,2.526,0,0,0,1-.173,2.016,2.016,0,0,0,.731-.565l.889.573a2.6,2.6,0,0,1-1.1.889,4.278,4.278,0,0,1-1.642.271,3.009,3.009,0,0,1-2.516-.994,4.15,4.15,0,0,1-.678-2.577v-.648a4,4,0,0,1,.844-2.863,2.958,2.958,0,0,1,2.23-.768,2.8,2.8,0,0,1,2.426.994,4.462,4.462,0,0,1,.648,2.637v.542Zm0-.9h3.8v-.121a2.547,2.547,0,0,0-.407-1.507,1.673,1.673,0,0,0-1.477-.648,2.271,2.271,0,0,0-.979.181,1.441,1.441,0,0,0-.618.588,2.883,2.883,0,0,0-.316,1.386Z" transform="translate(229.554 6024.084)" fill="#fff"/>
    <path id="Path_33689" data-name="Path 33689" d="M288.7,153.526v-7.564h.919l.09.844a2.882,2.882,0,0,1,4.686.467,6.149,6.149,0,0,1,.226,1.914v4.34h-1.19v-4.234a3.19,3.19,0,0,0-.452-1.959,1.823,1.823,0,0,0-2.727.256,4.573,4.573,0,0,0-.362,2.095v3.842Z" transform="translate(202.098 6024.084)" fill="#fff"/>
    <path id="Path_33690" data-name="Path 33690" d="M323.014,139.553H322.1v-.994h.919l.06-2.426h1.13v2.426H325.7v.994H324.2v4.174a1.671,1.671,0,0,0,.272,1.1,1.293,1.293,0,0,0,1.009.286h.256v1.01h-.271a4.277,4.277,0,0,1-1.507-.2,1.275,1.275,0,0,1-.738-.731,4.482,4.482,0,0,1-.211-1.59Z" transform="translate(176.554 6031.488)" fill="#fff"/>
    <path id="Path_33691" data-name="Path 33691" d="M346.119,149.985v.316a2.462,2.462,0,0,0,.618,1.838,2.016,2.016,0,0,0,1.492.528,2.527,2.527,0,0,0,1-.173,2.016,2.016,0,0,0,.731-.565l.889.573a2.6,2.6,0,0,1-1.1.889,4.277,4.277,0,0,1-1.642.271,3.009,3.009,0,0,1-2.516-.994,4.15,4.15,0,0,1-.678-2.577v-.648a4,4,0,0,1,.844-2.863,2.958,2.958,0,0,1,2.23-.768,2.8,2.8,0,0,1,2.426.994,4.462,4.462,0,0,1,.648,2.637v.542Zm0-.9h3.8v-.121a2.547,2.547,0,0,0-.407-1.507,1.673,1.673,0,0,0-1.477-.648,2.271,2.271,0,0,0-.979.181,1.441,1.441,0,0,0-.618.588,2.882,2.882,0,0,0-.316,1.386Z" transform="translate(159.099 6024.084)" fill="#fff"/>
    <path id="Path_33692" data-name="Path 33692" d="M380.81,153.526v-7.564h.934l.121.708a2.062,2.062,0,0,1,1.808-.859,2.981,2.981,0,0,1,1.461.392l-.5,1.024a1.925,1.925,0,0,0-1.07-.362,1.288,1.288,0,0,0-1.25.8,5.613,5.613,0,0,0-.317,2.17v3.692Z" transform="translate(131.642 6024.084)" fill="#fff"/>
    <path id="Path_33693" data-name="Path 33693" d="M406.576,156.915V145.961h.934l.121.633a2.884,2.884,0,0,1,2.2-.784,2.586,2.586,0,0,1,2.245.934,4.056,4.056,0,0,1,.6,2.426v1.145a3.678,3.678,0,0,1-.784,2.637,2.765,2.765,0,0,1-2.064.708,3,3,0,0,1-2.064-.693v3.948Zm4.912-6.675v-.994q0-2.441-1.838-2.441-1.884,0-1.883,2.32v1.236q0,2.305,1.883,2.305,1.839,0,1.838-2.426" transform="translate(111.932 6024.085)" fill="#fff"/>
    <path id="Path_33694" data-name="Path 33694" d="M442.726,153.526v-7.564h.934l.121.708a2.062,2.062,0,0,1,1.808-.859,2.981,2.981,0,0,1,1.461.392l-.5,1.024a1.925,1.925,0,0,0-1.07-.362,1.288,1.288,0,0,0-1.25.8,5.612,5.612,0,0,0-.317,2.17v3.692Z" transform="translate(84.28 6024.084)" fill="#fff"/>
    <path id="Path_33695" data-name="Path 33695" d="M468.429,132.671h1.19v1.6h-1.19Zm0,3.24h1.19v7.564h-1.19Z" transform="translate(64.619 6034.135)" fill="#fff"/>
    <path id="Path_33696" data-name="Path 33696" d="M480.99,152.485l.874-.557a2.4,2.4,0,0,0,.851.572,3.456,3.456,0,0,0,1.183.166q1.914,0,1.914-1.266a.95.95,0,0,0-.512-.934,4.9,4.9,0,0,0-1.4-.317,7.718,7.718,0,0,1-1.205-.256,2.072,2.072,0,0,1-.678-.362,1.83,1.83,0,0,1-.6-1.477,2.056,2.056,0,0,1,.738-1.733,2.768,2.768,0,0,1,1.763-.512,3.136,3.136,0,0,1,2.742,1.205l-.9.558a2.035,2.035,0,0,0-.746-.6,2.533,2.533,0,0,0-1-.173q-1.446,0-1.446,1.19a.955.955,0,0,0,.467.874,4.107,4.107,0,0,0,1.191.286,9.837,9.837,0,0,1,1.326.249,2.3,2.3,0,0,1,.738.354,1.937,1.937,0,0,1,.678,1.673q0,2.23-3.014,2.23a3.346,3.346,0,0,1-2.953-1.175" transform="translate(55.012 6024.085)" fill="#fff"/>
    <path id="Path_33697" data-name="Path 33697" d="M515.206,149.985v.316a2.463,2.463,0,0,0,.618,1.838,2.016,2.016,0,0,0,1.492.528,2.526,2.526,0,0,0,1-.173,2.015,2.015,0,0,0,.731-.565l.889.573a2.6,2.6,0,0,1-1.1.889,4.278,4.278,0,0,1-1.642.271,3.009,3.009,0,0,1-2.516-.994A4.149,4.149,0,0,1,514,150.09v-.648a4,4,0,0,1,.844-2.863,2.958,2.958,0,0,1,2.23-.768,2.8,2.8,0,0,1,2.426.994,4.462,4.462,0,0,1,.648,2.637v.542Zm0-.9H519v-.121a2.546,2.546,0,0,0-.407-1.507,1.672,1.672,0,0,0-1.476-.648,2.271,2.271,0,0,0-.979.181,1.441,1.441,0,0,0-.618.588,2.882,2.882,0,0,0-.316,1.386Z" transform="translate(29.761 6024.084)" fill="#fff"/>
    <path id="Path_33698" data-name="Path 33698" d="M339.046,0h-.173a2.252,2.252,0,1,0,0,4.5h.173a2.252,2.252,0,1,0,0-4.5" transform="translate(165.443 6135.618)" fill="#fff"/>
    <rect id="Rectangle_1061" data-name="Rectangle 1061" width="4.678" height="4.505" transform="translate(526.634 6135.618)" fill="#fff"/>
  </g>
</svg>
