<svg xmlns="http://www.w3.org/2000/svg" width="20" height="20" viewBox="0 0 20 20">
  <g id="Group_2936" data-name="Group 2936" transform="translate(-131.42 -100.744)">
    <g id="Group_2933" data-name="Group 2933">
      <path id="Path_33789" data-name="Path 33789" d="M141.42,120.744a10,10,0,1,1,10-10A10.012,10.012,0,0,1,141.42,120.744Zm0-18a8,8,0,1,0,8,8A8.009,8.009,0,0,0,141.42,102.744Z" fill="#303f9f"/>
    </g>
    <g id="Group_2934" data-name="Group 2934">
      <path id="Path_33790" data-name="Path 33790" d="M138.729,109.043a1,1,0,0,1-.008-2h.008a1,1,0,0,1,0,2Z" fill="#303f9f"/>
    </g>
    <g id="Group_2935" data-name="Group 2935">
      <path id="Path_33791" data-name="Path 33791" d="M144.129,109.043a1,1,0,1,1-.009-2h.009a1,1,0,0,1,0,2Z" fill="#303f9f"/>
    </g>
  </g>
</svg>
