<svg xmlns="http://www.w3.org/2000/svg" width="20" height="20" viewBox="0 0 20 20">
  <g id="Group_2917" data-name="Group 2917" transform="translate(-143.42 -61.177)">
    <g id="Group_2913" data-name="Group 2913">
      <path id="Path_33777" data-name="Path 33777" d="M153.42,81.177a10,10,0,1,1,10-10A10.012,10.012,0,0,1,153.42,81.177Zm0-18a8,8,0,1,0,8,8A8.009,8.009,0,0,0,153.42,63.177Z" fill="#303f9f"/>
    </g>
    <g id="Group_2914" data-name="Group 2914">
      <path id="Path_33778" data-name="Path 33778" d="M153.42,75.776a5.864,5.864,0,0,1-4.4-2.2,1,1,0,0,1,1.6-1.2,3.5,3.5,0,0,0,5.609,0,1,1,0,0,1,1.6,1.206A5.868,5.868,0,0,1,153.42,75.776Z" fill="#303f9f"/>
    </g>
    <g id="Group_2915" data-name="Group 2915">
      <path id="Path_33779" data-name="Path 33779" d="M150.729,69.477a1,1,0,0,1-.008-2h.008a1,1,0,0,1,0,2Z" fill="#303f9f"/>
    </g>
    <g id="Group_2916" data-name="Group 2916">
      <path id="Path_33780" data-name="Path 33780" d="M156.129,69.477a1,1,0,1,1-.009-2h.009a1,1,0,0,1,0,2Z" fill="#303f9f"/>
    </g>
  </g>
</svg>
