<svg xmlns="http://www.w3.org/2000/svg" width="14.56" height="13" viewBox="0 0 14.56 13"><defs><style>.a{fill:#303f9f;}</style></defs><path class="a" d="M14.56,4.68a.5.5,0,0,1-.154.366l-4.16,4.16A.52.52,0,0,1,9.36,8.84V6.76H7.54q-.8,0-1.426.049a10.334,10.334,0,0,0-1.251.175,4.637,4.637,0,0,0-1.08.345,3.849,3.849,0,0,0-.858.564,2.8,2.8,0,0,0-.65.821,4.475,4.475,0,0,0-.394,1.125,6.809,6.809,0,0,0-.142,1.471q0,.447.041,1a1.671,1.671,0,0,0,.02.191,1.652,1.652,0,0,1,.02.215.3.3,0,0,1-.069.2A.237.237,0,0,1,1.56,13a.279.279,0,0,1-.228-.138.905.905,0,0,1-.105-.179q-.048-.105-.109-.244t-.085-.2A9.755,9.755,0,0,1,0,8.58,7.4,7.4,0,0,1,.43,5.874Q1.747,2.6,7.54,2.6H9.36V.52A.5.5,0,0,1,9.514.154a.511.511,0,0,1,.731,0l4.16,4.16a.5.5,0,0,1,.154.366Z"/></svg>