<?xml version="1.0" standalone="no"?>
<!DOCTYPE svg PUBLIC "-//W3C//DTD SVG 1.1//EN" "http://www.w3.org/Graphics/SVG/1.1/DTD/svg11.dtd" >
<svg xmlns="http://www.w3.org/2000/svg">
<metadata>Generated by IcoMoon</metadata>
<defs>
<font id="icomoon" horiz-adv-x="1024">
<font-face units-per-em="1024" ascent="960" descent="-64" />
<missing-glyph horiz-adv-x="1024" />
<glyph unicode="&#x20;" horiz-adv-x="512" d="" />
<glyph unicode="&#xe900;" glyph-name="add" d="M421.66 26.453v331.207h-331.321c-49.893 0-90.34 40.446-90.34 90.34v0c0 49.905 40.439 90.364 90.337 90.396h331.324v331.264c0 49.893 40.446 90.34 90.34 90.34v0c49.893 0 90.34-40.446 90.34-90.34v0-331.264h331.321c49.9-0.032 90.34-40.492 90.34-90.396 0 0 0 0 0 0v0c0-49.893-40.446-90.34-90.34-90.34v0h-331.321v-331.264c0-0.017 0-0.037 0-0.057 0-49.893-40.446-90.34-90.34-90.34v0c-49.893 0-90.34 40.446-90.34 90.34 0 0.020 0 0.040 0 0.060v-0.003z" />
<glyph unicode="&#xe901;" glyph-name="analytics" d="M880.765 960c-79.191 0-143.389-64.197-143.389-143.389v0c0.053-50.552 26.351-94.95 66-120.308l0.573-0.343-97.299-360.776c-25.41-0.973-48.882-8.465-69.036-20.837l0.619 0.353-124.851 110c7.906 17.123 12.541 37.152 12.598 58.257v0.021c0 79.191-64.197 143.389-143.389 143.389v0c-79.191 0-143.389-64.197-143.389-143.389v0c0.103-36.835 14.188-70.36 37.226-95.565l-0.099 0.109-100.116-168.994c-9.856 2.541-21.193 4.048-32.865 4.148h-0.063c-79.191 0-143.389-64.197-143.389-143.389v0c0-79.191 64.197-143.389 143.389-143.389v0c79.191 0 143.389 64.197 143.389 143.389v0c-0.099 36.861-14.206 70.407-37.276 95.615l0.097-0.108 100.116 168.994c9.871-2.538 21.225-4.045 32.914-4.148h0.066c27.448 0.091 53.037 7.973 74.694 21.547l-0.592-0.346 124.799-110c-7.95-17.148-12.605-37.215-12.649-58.364v-0.016c0-79.191 64.197-143.389 143.389-143.389v0c79.191 0 143.389 64.197 143.389 143.389v0c-0.036 50.586-26.336 95.021-66.001 120.411l-0.573 0.343 97.299 360.725c76.636 2.916 137.667 65.703 137.756 142.765v0.009c-0.058 79.129-64.204 143.257-143.335 143.286h-0.003zM143.337 21.367c-32.016 0-57.97 25.954-57.97 57.97v0c0.029 32.025 25.953 57.985 57.962 58.072h0.008c32.044 0 58.021-25.977 58.021-58.021v0c0-32.044-25.977-58.021-58.021-58.021v0zM382.643 424.904c-32.044 0-58.021 25.977-58.021 58.021v0c0.058 32.021 26 57.963 58.016 58.021h0.006c32.016 0 57.97-25.954 57.97-57.97 0-0.018 0-0.036 0-0.054v0.003c0-32.026-25.948-57.992-57.967-58.021h-0.003zM712.13 134.388c-32 0.058-57.919 26.013-57.919 58.021v0c0.116 31.997 26.024 57.905 58.010 58.021h0.011c0 0 0 0 0 0 32.016 0 57.97-25.954 57.97-57.97 0-0.036 0-0.072 0-0.108v0.006c-0.029-32.022-25.995-57.97-58.021-57.97-0.018 0-0.036 0-0.054 0h0.003zM880.509 758.641c-32 0.058-57.919 26.013-57.919 58.021v0c0.058 32.057 26.059 58.021 58.124 58.021 0 0 0 0 0 0v0c32.006-0.087 57.919-26.054 57.919-58.072 0-0.018 0-0.036 0-0.054v0.003c-0.087-32.006-26.054-57.919-58.072-57.919-0.018 0-0.036 0-0.054 0h0.003z" />
<glyph unicode="&#xe902;" glyph-name="apps" d="M356.864 960h-248.206c-59.964-0.065-108.561-48.641-108.658-108.592v-248.215c0.097-59.96 48.694-108.536 108.652-108.601h248.212c59.952 0.065 108.536 48.648 108.601 108.595v248.212c-0.065 59.952-48.648 108.536-108.595 108.601h-0.006zM372.395 603.193c0-8.577-6.953-15.531-15.531-15.531v0h-248.206c0 0 0 0 0 0-8.589 0-15.555 6.946-15.587 15.528v248.209c0.032 8.584 6.999 15.531 15.587 15.531 0 0 0 0 0 0h248.206c8.577 0 15.531-6.953 15.531-15.531v0zM356.864 370.517h-248.206c-59.984-0.065-108.593-48.674-108.658-108.652v-217.151c0.065-59.984 48.674-108.593 108.652-108.658h248.212c59.96 0.097 108.536 48.694 108.601 108.652v217.151c-0.065 59.964-48.641 108.561-108.592 108.658h-0.009zM372.395 44.715c0 0 0 0 0 0 0-8.589-6.946-15.555-15.528-15.587h-248.209c-8.609 0-15.588 6.979-15.588 15.588v0 217.145c0 8.609 6.979 15.588 15.588 15.588v0h248.206c8.584-0.032 15.531-6.999 15.531-15.587 0 0 0 0 0 0v0zM806.855 960c-119.909-0.097-217.097-97.244-217.259-217.129v-31.020c0.129-119.925 97.329-217.105 217.249-217.202h0.010c119.894 0.13 217.048 97.304 217.145 217.193v31.070c-0.162 119.849-97.291 216.958-217.132 217.088h-0.013zM915.399 370.517h-217.202c-59.96-0.097-108.536-48.694-108.601-108.652v-217.151c0.065-59.964 48.641-108.561 108.592-108.658h217.211c59.96 0.097 108.536 48.694 108.601 108.652v217.151c-0.065 59.964-48.641 108.561-108.592 108.658h-0.009zM930.93 44.715c0 0 0 0 0 0 0-8.589-6.946-15.555-15.528-15.587h-217.205c-8.584 0.032-15.531 6.999-15.531 15.587 0 0 0 0 0 0v0 217.145c0 0 0 0 0 0 0 8.589 6.946 15.555 15.528 15.587h217.205c8.584-0.032 15.531-6.999 15.531-15.587 0 0 0 0 0 0v0z" />
<glyph unicode="&#xe903;" glyph-name="arrow-down-fill" horiz-adv-x="1588" d="M896.893-17.25c-25.236-28.699-62.032-46.714-103.035-46.714-34.591 0-66.187 12.821-90.296 33.97l0.156-0.134c-4.594 4.079-8.799 8.284-12.744 12.725l-657.015 749.916c-21.083 23.96-33.949 55.596-33.949 90.236 0 75.572 61.235 136.841 136.793 136.898h1314.296c0.023 0 0.050 0 0.077 0 75.607 0 136.898-61.291 136.898-136.898 0-34.641-12.866-66.276-34.080-90.388l0.131 0.152z" />
<glyph unicode="&#xe904;" glyph-name="arrow-down" horiz-adv-x="1718" d="M0 824.268c0 0.058 0 0.128 0 0.197 0 38.347 15.947 72.97 41.572 97.598l0.045 0.043c24.352 23.415 57.501 37.836 94.018 37.836 38.416 0 73.105-15.96 97.797-41.61l0.041-0.043 625.587-650.977 625.682 650.977c24.706 25.711 59.381 41.685 97.787 41.685 36.509 0 69.646-14.434 94.016-37.907l-0.042 0.041c25.671-24.745 41.614-59.432 41.614-97.841 0-36.509-14.404-69.654-37.84-94.062l0.044 0.046-723.424-752.632c-24.701-25.671-59.349-41.617-97.722-41.617-0.041 0-0.081 0-0.122 0h0.006c-0.030 0-0.066 0-0.101 0-38.347 0-72.97 15.947-97.598 41.572l-0.043 0.045-723.52 752.632c-23.393 24.348-37.799 57.481-37.799 93.98 0 0.014 0 0.028 0 0.042v-0.002z" />
<glyph unicode="&#xe905;" glyph-name="arrow-left-fill" horiz-adv-x="660" d="M30.094 381.611c-18.436 16.3-30.001 40.009-30.001 66.418s11.565 50.117 29.907 66.336l0.094 0.082 483.84 423.708c15.445 13.567 35.826 21.845 58.14 21.845 48.742 0 88.259-39.497 88.292-88.232v-847.647c0-0.037 0-0.081 0-0.126 0-48.731-39.504-88.235-88.235-88.235-22.344 0-42.749 8.306-58.295 21.998l0.097-0.084z" />
<glyph unicode="&#xe906;" glyph-name="arrow-left" horiz-adv-x="610" d="M529.408 960c0.035 0 0.076 0 0.117 0 22.855 0 43.49-9.505 58.168-24.777l0.026-0.027c13.966-14.5 22.569-34.249 22.569-56.008 0-22.89-9.52-43.556-24.817-58.256l-0.027-0.026-387.868-372.907 387.925-372.85c15.314-14.741 24.826-35.416 24.826-58.312 0-21.764-8.595-41.521-22.575-56.061l0.025 0.026c-14.748-15.3-35.421-24.802-58.313-24.802-21.759 0-41.514 8.585-56.061 22.553l0.027-0.026-448.569 431.218c-15.3 14.722-24.804 35.372-24.804 58.242 0 0.004 0 0.008 0 0.013v-0.001c0.008 22.89 9.509 43.56 24.779 58.288l0.024 0.023 448.569 431.161c14.47 13.94 34.181 22.528 55.897 22.528 0.029 0 0.057 0 0.086 0h-0.004z" />
<glyph unicode="&#xe907;" glyph-name="arrow-right-fill" horiz-adv-x="660" d="M630.272 514.446c18.504-16.266 30.119-39.986 30.119-66.418 0-22.328-8.288-42.72-21.955-58.267l0.085 0.099c-2.609-2.946-5.303-5.639-8.15-8.163l-0.098-0.086-483.84-423.708c-15.445-13.567-35.826-21.845-58.14-21.845-48.742 0-88.259 39.497-88.292 88.232v847.363c0 0.017 0 0.037 0 0.057 0 48.762 39.529 88.292 88.292 88.292 22.315 0 42.696-8.278 58.24-21.931l-0.099 0.086z" />
<glyph unicode="&#xe908;" glyph-name="arrow-right" horiz-adv-x="610" d="M81.067-64c-22.884 0.005-43.541 9.532-58.228 24.833l-0.026 0.028c-13.966 14.5-22.569 34.249-22.569 56.008 0 22.89 9.52 43.556 24.817 58.256l0.027 0.026 387.925 372.907-387.925 372.85c-15.314 14.741-24.826 35.416-24.826 58.312 0 21.764 8.595 41.521 22.575 56.061l-0.025-0.026c14.737 15.279 35.388 24.768 58.256 24.768 21.764 0 41.52-8.594 56.060-22.574l-0.027 0.025 448.626-431.161c15.281-14.738 24.779-35.385 24.804-58.249v-0.005c-0.008-22.89-9.509-43.56-24.779-58.288l-0.024-0.023-448.626-431.161c-14.46-13.974-34.18-22.585-55.911-22.585-0.044 0-0.088 0-0.132 0h0.007z" />
<glyph unicode="&#xe909;" glyph-name="arrow-up-fill" horiz-adv-x="1588" d="M690.988 913.246c25.194 28.708 61.96 46.733 102.937 46.733 34.617 0 66.229-12.864 90.317-34.072l-0.151 0.13c4.628-4.027 8.835-8.206 12.753-12.645l0.126-0.146 657.026-749.828c21.038-23.949 33.875-55.554 33.875-90.156 0-75.582-61.246-136.859-136.817-136.91h-1314.409c-0.058 0-0.126 0-0.195 0-75.564 0-136.822 61.257-136.822 136.822 0 34.648 12.879 66.289 34.111 90.395l-0.13-0.151z" />
<glyph unicode="&#xe90a;" glyph-name="arrow-up" horiz-adv-x="1718" d="M1718.121 71.732c0-0.007 0-0.016 0-0.024 0-38.419-15.985-73.105-41.667-97.77l-0.046-0.044c-24.328-23.433-57.465-37.867-93.974-37.867-38.406 0-73.081 15.974-97.744 41.64l-0.043 0.045-625.682 650.881-625.587-650.881c-24.734-25.694-59.422-41.654-97.839-41.654-36.517 0-69.666 14.421-94.063 37.878l0.044-0.042c-25.642 24.741-41.565 59.408-41.565 97.794 0 36.533 14.423 69.696 37.885 94.108l-0.043-0.045 723.424 752.632c24.728 25.64 59.37 41.575 97.734 41.617h0.008c38.407-0.014 73.087-15.955 97.798-41.576l0.039-0.041 723.424-752.632c23.448-24.303 37.894-57.427 37.894-93.925 0-0.033 0-0.066 0-0.099v0.005z" />
<glyph unicode="&#xe90b;" glyph-name="check" horiz-adv-x="1398" d="M1363.493 925.96c21.282-21.277 34.445-50.673 34.445-83.143s-13.163-61.867-34.445-83.143l-789.144-789.074c-21.277-21.282-50.673-34.445-83.143-34.445s-61.867 13.163-83.143 34.445v0l-375.001 375.63c-20.48 21.132-33.104 49.982-33.104 81.781 0 33.154 13.723 63.102 35.799 84.475l0.032 0.031c21.139 20.464 49.987 33.076 81.78 33.076s60.641-12.613 81.812-33.107l-0.032 0.031 292.382-292.452 705.966 705.966c21.248 21.115 50.532 34.166 82.863 34.166 32.367 0 61.678-13.079 82.938-34.241l-0.005 0.005z" />
<glyph unicode="&#xe90c;" glyph-name="choropleth" d="M761.116 960h-498.176c-145.133-0.162-262.746-117.755-262.94-262.865v-498.194c0.194-145.14 117.8-262.746 262.921-262.94h498.195c145.129 0.194 262.722 117.808 262.884 262.925v498.191c-0.162 145.121-117.762 262.722-262.868 262.884h-0.016zM899.868 759.012l-226.361-228.295-316.814 318.578h404.423c61.523-0.128 114.465-36.731 138.364-89.328l0.388-0.955zM210.432 839.396l208.725-209.92-308.452-284.9v352.711c0.258 64.942 41.216 120.251 98.678 141.764l1.049 0.344zM111.218 194.276l178.631 164.978 303.388-312.604h-330.297c-82.265 0.152-149.193 65.606-151.717 147.28l-0.006 0.232zM761.116 46.706h-13.653l-376.263 387.755 126.066 116.452 176.356-177.323 239.673 241.721v-416.37c-0.065-84.031-68.152-152.138-152.169-152.235h-0.009z" />
<glyph unicode="&#xe90d;" glyph-name="close" d="M34.935 139.316l308.647 308.647-308.722 308.722c-21.531 21.553-34.847 51.317-34.847 84.19s13.316 62.637 34.848 84.191l-0.001-0.001c21.536 21.567 51.305 34.909 84.19 34.909s62.654-13.342 84.189-34.907l308.723-308.723 308.722 308.722c21.536 21.567 51.305 34.909 84.19 34.909s62.654-13.342 84.189-34.907l0.001-0.001c21.531-21.553 34.847-51.317 34.847-84.19s-13.316-62.637-34.848-84.191l-308.721-308.721 308.722-308.722c21.531-21.553 34.847-51.317 34.847-84.19s-13.316-62.637-34.848-84.191l0.001 0.001c-21.553-21.531-51.317-34.847-84.19-34.847s-62.637 13.316-84.191 34.848l-308.721 308.721-308.722-308.572c-21.553-21.531-51.317-34.847-84.19-34.847s-62.637 13.316-84.191 34.848l0.001-0.001c-21.531 21.553-34.847 51.317-34.847 84.19s13.316 62.637 34.848 84.191l-0.001-0.001z" />
<glyph unicode="&#xe90e;" glyph-name="comment-cirle" horiz-adv-x="1051" d="M537.6-64c-77.775 0.131-151.411 17.713-217.246 49.036l3.076-1.317-266.854-20.48c-1.267-0.11-2.741-0.172-4.23-0.172-16.725 0-31.611 7.878-41.148 20.125l-0.088 0.117c-6.932 8.841-11.116 20.125-11.116 32.386 0 5.923 0.976 11.618 2.777 16.933l-0.109-0.372 69.018 206.95c-28.13 61.406-44.53 133.21-44.53 208.845 0 282.77 229.23 512 512 512 0.013 0 0.026 0 0.040 0h26.827c261.296-13.338 470.018-221.048 484.904-480.688l0.062-1.36v-29.952c-0.262-282.664-229.336-511.738-511.975-512h-0.025zM333.619 89.6c0.016 0 0.035 0 0.054 0 8.627 0 16.767-2.082 23.947-5.77l-0.295 0.138c52.991-27.118 115.597-43.009 181.914-43.009 158.314 0 295.476 90.564 362.505 222.71l1.065 2.315c27.178 52.746 43.111 115.109 43.111 181.193 0 0.199 0 0.398 0 0.598v-0.031 27.136c-12.744 205.483-176.999 368.762-381.74 379.91l-1.031 0.045h-24.115c-66.258-0.496-128.704-16.324-184.121-44.103l2.412 1.095c-134.574-68.056-225.23-205.278-225.23-363.673 0-66.318 15.892-128.924 44.075-184.218l-1.065 2.303c3.579-6.9 5.678-15.065 5.678-23.719 0-5.949-0.992-11.666-2.819-16.995l0.11 0.369-50.637-151.91 202.138 15.36c1.382 0.358 2.714 0.41 4.045 0.41z" />
<glyph unicode="&#xe90f;" glyph-name="comments-fill" d="M1015.859 547.686c-20.29 124.996-87.485 231.411-182.584 302.586l-1.224 0.877c-85.361 67.891-194.727 108.927-313.677 108.927-32.704 0-64.683-3.102-95.66-9.028l3.167 0.504c-163.522-23.611-299.315-124.332-371.029-263.47l-1.298-2.77c-33.758-63.502-53.581-138.851-53.581-218.83 0-65.412 13.26-127.728 37.238-184.405l-1.167 3.107c5.161-10.427 9.987-22.81 13.759-35.644l0.423-1.68c1.084-10.235 1.702-22.11 1.702-34.13 0-27.962-3.345-55.142-9.658-81.162l0.481 2.345c-12.158-64.614-26.442-119.526-43.975-172.966l2.708 9.535c-0.584-2.097-0.92-4.506-0.92-6.993 0-7.215 2.827-13.771 7.433-18.619l-0.011 0.012c5.556-5.932 13.436-9.628 22.179-9.628 0.123 0 0.245 0.001 0.367 0.002h-0.019c1.418 0.009 2.803 0.102 4.165 0.274l-0.171-0.018c3.586 0.301 6.895 0.954 10.062 1.932l-0.334-0.089c91.012 18.13 171.733 45.73 247.196 82.453l-5.993-2.632c1.008 0.489 2.192 0.775 3.444 0.775 1.654 0 3.192-0.5 4.47-1.357l-0.029 0.018c63.417-30.149 137.803-47.754 216.301-47.754 28.277 0 56.020 2.284 83.055 6.679l-2.959-0.397c140.885 19.365 261.18 94.72 339.636 202.491l0.998 1.439c58.338 77.545 93.428 175.465 93.428 281.581 0 30.421-2.884 60.168-8.393 88.983l0.469-2.947zM484.557 439.040c-6.177-18.338-14.065-34.241-23.769-48.832l0.473 0.756c-19.087-29.733-43.272-54.457-71.559-73.572l-0.889-0.566c-33.088-22.506-73.107-37.288-116.302-40.9l-0.895-0.060c-5.72-0.662-12.348-1.040-19.064-1.040-0.822 0-1.643 0.006-2.462 0.017l0.124-0.001v42.445c52.499 0.545 96.788 35.078 111.948 82.615l0.231 0.841c-58.733 8.567-103.332 58.588-103.332 119.026 0 66.394 53.823 120.218 120.218 120.218 3.644 0 7.251-0.162 10.813-0.48l-0.46 0.033c54.547-5.055 98.211-45.963 107.416-98.713l0.104-0.718c0.91-7.425 1.43-16.020 1.43-24.737 0-27.438-5.146-53.674-14.526-77.795l0.501 1.464zM809.165 491.776c-8.232-62.937-38.961-117.491-83.711-156.308l-0.308-0.261c-11.303-10.388-23.917-19.675-37.476-27.511l-1.026-0.547c-25.39-14.709-55.097-25.248-86.739-29.796l-1.325-0.156c-9.311-1.542-20.041-2.424-30.977-2.424-1.836 0-3.666 0.025-5.491 0.074l0.269-0.006v42.342c52.388 0.499 96.6 34.937 111.743 82.361l0.231 0.839c-11.653 2.161-21.954 5.264-31.749 9.34l1.029-0.38c-35.737 14.673-62.084 45.739-69.912 83.579l-0.129 0.748c-1.806 7.796-2.841 16.748-2.841 25.942 0 56.987 39.77 104.686 93.070 116.854l0.804 0.155h0.512c8.048 2.063 17.287 3.247 26.802 3.247 8.647 0 17.066-0.978 25.152-2.829l-0.754 0.145c32.031-7.421 58.605-26.774 75.331-53.015l0.291-0.489c12.114-19.517 19.294-43.196 19.294-68.552 0-8.254-0.761-16.331-2.216-24.163l0.125 0.811z" />
<glyph unicode="&#xe910;" glyph-name="comments-square" d="M49.408-64c-27.246 0.058-49.321 22.115-49.408 49.348v822.485c0.117 84.010 68.203 152.079 152.209 152.166h719.88c84.004-0.087 152.079-68.162 152.166-152.158v-514.006c-0.087-84.014-68.156-152.101-152.155-152.218h-596.645l-191.181-191.13c-8.928-8.923-21.248-14.453-34.86-14.49h-0.007zM152.218 861.286c-29.509-0.029-53.424-23.943-53.453-53.45v-703.337l121.344 121.395c8.932 8.948 21.278 14.485 34.918 14.49h617.063c29.509 0.029 53.424 23.943 53.453 53.45v514c-0.029 29.509-23.943 53.424-53.45 53.453h-0.003zM756.838 604.262h-452.762c-26.594 0.883-47.818 22.654-47.818 49.382s21.223 48.499 47.737 49.38l0.081 0.002h452.762c26.594-0.883 47.818-22.654 47.818-49.382s-21.223-48.499-47.737-49.38l-0.081-0.002zM587.008 398.746h-282.931c-27.259 0-49.357 22.098-49.357 49.357s22.098 49.357 49.357 49.357h282.931c27.259 0 49.357-22.098 49.357-49.357s-22.098-49.357-49.357-49.357v0z" />
<glyph unicode="&#xe911;" glyph-name="competitive-intelligence" horiz-adv-x="1022" d="M921.253 250.68v404.245c-0.087 93.45-75.82 169.183-169.262 169.27h-163.863l59.778 59.778c9.079 8.017 14.776 19.684 14.776 32.682 0 10.985-4.069 21.020-10.782 28.68l0.043-0.050c-8.025 9.068-19.691 14.755-32.686 14.755-10.98 0-21.012-4.061-28.676-10.762l0.051 0.044c-1.383-1.232-2.651-2.5-3.843-3.837l-0.040-0.046-134.272-134.067c-7.86-7.905-12.719-18.803-12.719-30.834s4.859-22.929 12.721-30.837l-0.002 0.002 134.067-133.863c7.979-7.546 18.776-12.185 30.656-12.185s22.676 4.639 30.677 12.205l-0.021-0.020c7.867 7.883 12.731 18.765 12.731 30.783s-4.864 22.9-12.732 30.784l0.001-0.001-59.727 59.625h163.497c45.397-0.058 82.179-36.858 82.208-82.256v-404.146c-58.897-19.044-100.745-73.396-100.745-137.522 0-15.498 2.444-30.426 6.969-44.418l-0.285 1.021c19.044-58.897 73.396-100.745 137.522-100.745 15.498 0 30.426 2.444 44.418 6.969l-1.021-0.285c58.901 19.022 100.758 73.367 100.758 137.489 0 15.511-2.449 30.45-6.982 44.451l0.286-1.020c-14.49 44.901-49.161 79.571-93.041 93.776l-1.020 0.286zM934.179 113.956c0 0 0 0 0 0 0-31.491-25.528-57.019-57.019-57.019-0.036 0-0.072 0-0.108 0h0.006c-31.497 0.029-57.019 25.569-57.019 57.071 0 0.018 0 0.036 0 0.054v-0.003c0.058 31.486 25.581 56.99 57.068 57.019h0.003c31.525-0.029 57.071-25.592 57.071-57.122v0zM433.419 278.73c-7.668 6.914-17.873 11.144-29.067 11.144-12.772 0-24.257-5.507-32.212-14.275l-0.032-0.036c-7.014-7.693-11.31-17.97-11.31-29.251s4.296-21.558 11.341-29.285l-0.031 0.034 59.778-59.727h-164.212c-45.379 0.058-82.15 36.829-82.208 82.203v403.638c59.624 18.467 102.183 73.115 102.183 137.703 0 14.756-2.221 28.993-6.348 42.396l0.27-1.019c-18.422 59.664-73.081 102.266-137.691 102.266-14.855 0-29.184-2.252-42.664-6.433l1.019 0.272c-59.599-18.441-102.151-73.043-102.185-137.589v-0.004c-0.002-0.26-0.003-0.568-0.003-0.876 0-39.58 16.073-75.405 42.049-101.306l0.003-0.003c15.309-15.36 34.154-27.185 55.212-34.153l0.99-0.284v-404.808c0.116-93.428 75.838-169.132 169.262-169.219h164.169l-59.778-59.778c-7.879-7.878-12.752-18.761-12.752-30.783s4.873-22.906 12.752-30.783v0c7.878-7.879 18.761-12.752 30.783-12.752s22.906 4.873 30.783 12.752l134.118 134.118c7.842 7.895 12.689 18.773 12.689 30.783s-4.847 22.889-12.691 30.786l0.002-0.002zM201.203 780.307c0-0.052 0-0.113 0-0.175 0-15.692-6.431-29.883-16.802-40.079l-0.008-0.008c-10.464-10.009-24.682-16.17-40.338-16.17s-29.873 6.161-40.359 16.19l0.022-0.021c-10.308 10.34-16.682 24.607-16.682 40.363s6.374 30.023 16.683 40.365l-0.001-0.001c10.334 10.32 24.603 16.703 40.363 16.703s30.029-6.382 40.364-16.703l-0.001 0.001c10.292-10.306 16.656-24.537 16.656-40.253 0-0.039 0-0.077 0-0.116v0.006z" />
<glyph unicode="&#xe912;" glyph-name="dashboard" d="M959.659 512.341h-335.644c-35.47-0.161-64.181-28.871-64.341-64.326v-447.731c0.225-35.433 28.904-64.092 64.323-64.284h335.662c35.457 0.193 64.149 28.884 64.341 64.323v447.734c-0.193 35.445-28.891 64.124-64.326 64.284h-0.015zM923.25 411.648v-374.898h-262.997v374.898zM400.043 288.54h-335.644c-35.458-0.161-64.156-28.878-64.284-64.329v-223.87c0.129-35.463 28.826-64.18 64.269-64.341h335.659c35.457 0.193 64.149 28.884 64.341 64.323v223.933c-0.193 35.445-28.891 64.124-64.326 64.284h-0.015zM100.693 36.75v151.097h263.054v-151.097zM959.659 960h-335.644c-35.463-0.129-64.18-28.826-64.341-64.269v-223.702c0.161-35.458 28.878-64.156 64.329-64.284h335.656c35.463 0.129 64.18 28.826 64.341 64.269v223.93c-0.289 35.361-28.958 63.929-64.329 64.057h-0.012zM923.25 859.307v-151.097h-262.997v151.097zM400.043 960h-335.644c-35.451-0.129-64.156-28.833-64.284-64.272v-447.728c0.129-35.451 28.833-64.156 64.272-64.284h335.656c35.463 0.129 64.18 28.826 64.341 64.269v447.731c-0.161 35.458-28.878 64.156-64.329 64.284h-0.012zM100.693 484.295v374.898h263.054v-374.898z" />
<glyph unicode="&#xe913;" glyph-name="dot" d="M512 960c-282.629-0.349-511.65-229.37-512-511.966v-0.034c0.349-282.629 229.37-511.65 511.966-512h0.034c282.641 0.32 511.68 229.359 512 511.969v0.031c-0.32 282.641-229.359 511.68-511.969 512h-0.031zM512 38.4c-226.11 0.262-409.338 183.489-409.6 409.574v0.026c0.262 226.11 183.489 409.338 409.574 409.6h0.026c226.122-0.233 409.367-183.478 409.6-409.578v-0.022c-0.262-226.11-183.489-409.338-409.574-409.6h-0.026z" />
<glyph unicode="&#xe914;" glyph-name="down-circle" d="M512.025 959.949c-282.734-0.029-511.923-229.237-511.923-511.974 0-282.756 229.219-511.974 511.974-511.974 282.738 0 511.945 229.19 511.974 511.921v0.003c-0.319 282.655-229.37 511.706-511.995 512.025h-0.031zM512.025 41.884c-224.25 0-406.040 181.79-406.040 406.040s181.79 406.040 406.040 406.040c224.25 0 406.040-181.79 406.040-406.040v0c-0.261-224.145-181.896-405.779-406.015-406.040h-0.025zM658.202 492.501l-93.184-93.184v232.271c0 29.267-23.726 52.993-52.993 52.993s-52.993-23.726-52.993-52.993v-232.271l-93.184 93.184c-9.581 9.581-22.817 15.507-37.437 15.507-29.24 0-52.943-23.704-52.943-52.943 0-14.62 5.926-27.856 15.507-37.437l183.613-183.613c9.569-9.606 22.809-15.55 37.437-15.55s27.867 5.944 37.435 15.548l183.615 183.615c9.581 9.581 15.507 22.817 15.507 37.437 0 29.24-23.704 52.943-52.943 52.943-14.62 0-27.856-5.926-37.437-15.507v0z" />
<glyph unicode="&#xe915;" glyph-name="down" d="M1000.107 515.698c-14.535 14.684-34.694 23.777-56.978 23.777-22.48 0-42.798-9.254-57.354-24.16l-0.015-0.016-292.864-298.724v661.618c0 44.646-36.193 80.839-80.839 80.839s-80.839-36.193-80.839-80.839v0-661.788l-292.978 298.894c-14.571 14.922-34.889 24.176-57.369 24.176-22.283 0-42.443-9.093-56.971-23.771l-0.007-0.007c-14.767-14.9-23.892-35.414-23.892-58.058 0-22.445 8.964-42.796 23.508-57.669l-0.015 0.015 431.161-439.751c14.549-14.949 34.863-24.224 57.344-24.224s42.795 9.274 57.327 24.206l0.017 0.018 431.161 439.751c14.529 14.857 23.493 35.209 23.493 57.654 0 22.645-9.125 43.158-23.898 58.064l0.006-0.006z" />
<glyph unicode="&#xe916;" glyph-name="external-link" d="M713.956-64h-555.292c-87.595 0.129-158.566 71.12-158.663 158.711v555.188c0.097 87.6 71.068 158.591 158.651 158.72h302.945c31.89 0 57.742-25.852 57.742-57.742v0c0-0.017 0-0.037 0-0.057 0-31.859-25.827-57.685-57.685-57.685-0.020 0-0.040 0-0.060 0h-302.93c-23.841-0.065-43.146-19.39-43.179-43.232v-555.182c0.032-23.845 19.338-43.171 43.172-43.236h555.298c23.841 0.065 43.146 19.39 43.179 43.232v302.823c0 31.859 25.827 57.685 57.685 57.685 0.020 0 0.040 0 0.060 0h-0.003c0.017 0 0.037 0 0.057 0 31.859 0 57.685-25.827 57.685-57.685v0-302.82c-0.097-87.6-71.068-158.591-158.651-158.72h-0.012zM966.315 960h-302.82c-0.017 0-0.037 0-0.057 0-31.859 0-57.685-25.827-57.685-57.685v0c0-0.017 0-0.037 0-0.057 0-31.859 25.827-57.685 57.685-57.685 0.020 0 0.040 0 0.060 0h155.474l-456.761-464.782c-10.267-10.401-16.609-24.699-16.609-40.478 0-16.118 6.617-30.69 17.282-41.149l0.009-0.009c10.387-10.235 24.655-16.555 40.399-16.555 0.017 0 0.034 0 0.051 0h-0.003c0.053 0 0.117 0 0.18 0 16.029 0 30.535 6.525 41.005 17.064l0.003 0.003 464.043 472.178v-171.52c0-31.89 25.852-57.742 57.742-57.742v0c31.859 0 57.685 25.827 57.685 57.685 0 0.020 0 0.040 0 0.060v-0.003 302.876c0 0.051 0 0.111 0 0.171 0 31.827-25.801 57.628-57.628 57.628-0.020 0-0.040 0-0.060 0h0.003z" />
<glyph unicode="&#xe917;" glyph-name="facebook" horiz-adv-x="512" d="M104.648 435.329h-84.527c-16.742 0-20.121 3.328-20.121 19.404v155.231c0 15.359 4.096 19.199 19.557 19.199h83.657c2.662 3.328 1.434 6.809 1.434 9.984 0 41.368-0.614 82.735 0 124.051-0.055 1.69-0.087 3.678-0.087 5.673 0 52.924 22.226 100.657 57.854 134.374l0.086 0.081c32.679 28.494 74.249 47.568 120.046 52.594l0.985 0.088c17.914 2.528 38.608 3.972 59.639 3.972 1.82 0 3.638-0.011 5.453-0.032l-0.276 0.003h144.684c13.567 0 18.329-4.608 18.277-17.561v-164.293c0-15.359-4.096-19.148-19.711-19.25h-106.9c-1.414 0.215-3.045 0.338-4.705 0.338-16.338 0-29.892-11.921-32.439-27.539l-0.026-0.19c-0.193-1.292-0.303-2.784-0.303-4.301s0.11-3.008 0.322-4.467l-0.020 0.166v-82.735c-0.18-0.916-0.282-1.97-0.282-3.047 0-2.756 0.672-5.356 1.862-7.643l-0.044 0.092h146.22c0.531 0.068 1.144 0.107 1.767 0.107 7.431 0 13.573-5.516 14.556-12.676l0.009-0.077c0.064-0.482 0.101-1.040 0.101-1.606 0-1.14-0.149-2.245-0.428-3.296l0.020 0.089c-5.12-46.692-9.216-93.589-16.383-140.025-1.126-7.321-2.099-14.642-3.43-21.913-2.355-12.39-5.12-14.694-18.021-14.694h-114.273c-1.126 0.208-2.421 0.327-3.744 0.327-2.7 0-5.285-0.495-7.668-1.4l0.148 0.049c-0.932-2.354-1.472-5.080-1.472-7.933 0-1.376 0.126-2.723 0.366-4.029l-0.021 0.136v-465.897c0-18.021-2.969-20.837-21.964-20.837h-200.745c-15.666 0-19.711 3.942-19.711 19.045v480.283z" />
<glyph unicode="&#xe918;" glyph-name="fb-comment" horiz-adv-x="970" d="M969.566 764.093c-3.987 57.776-30.61 108.651-70.97 144.35l-0.225 0.195c-35.728 31.879-83.114 51.361-135.052 51.361-4.934 0-9.826-0.176-14.672-0.521l0.651 0.037c-176.397 0-352.903 0-528.168 0-3.89 0.244-8.437 0.384-13.016 0.384s-9.125-0.139-13.635-0.414l0.619 0.030c-57.201-3.503-107.603-29.984-142.553-70.242l-0.214-0.252c-32.582-37.104-52.462-86.061-52.462-139.661 0-4.259 0.126-8.488 0.373-12.685l-0.027 0.579q-0.323-112.371 0-224.687v-112.263c0-147.348 63.111-224.256 204.045-247.592v-153.869c-0.426-2.605-0.67-5.607-0.67-8.666 0-19.857 10.266-37.315 25.78-47.358l0.22-0.134c7.989-4.278 17.477-6.791 27.551-6.791 0.034 0 0.068 0 0.102 0h-0.005c0.355-0.009 0.774-0.013 1.193-0.013 15.204 0 28.91 6.418 38.555 16.693l0.026 0.028c35.428 24.572 66.368 49.353 95.52 76.054l-0.666-0.601c76.591 81.516 185.087 132.289 305.442 132.289 19.434 0 38.559-1.324 57.289-3.886l-2.175 0.244c6.549-0.818 14.127-1.285 21.815-1.285 48.408 0 92.492 18.509 125.562 48.836l-0.137-0.124c43.1 42.46 69.802 101.462 69.802 166.7 0 1.894-0.023 3.782-0.067 5.665l0.005-0.28c0 118.892 0 237.784 0 355.22 0.441 5.214 0.693 11.284 0.693 17.412 0 5.365-0.193 10.686-0.572 15.954l0.041-0.706zM243.82 261.416c-111.293 5.012-140.126 35.463-140.126 148.157v50.553c-0.269 88.711-0.593 177.368 0 268.45-0.504 4.044-0.791 8.726-0.791 13.474s0.287 9.429 0.846 14.027l-0.055-0.553c6.578 56.517 54.149 99.979 111.88 100.029h0.005c4.869-0.024 9.64-0.337 14.326-0.922l-0.583 0.059c169.822 0.485 339.537 0.485 512 0 3.965 0.515 8.55 0.809 13.204 0.809s9.24-0.294 13.739-0.864l-0.535 0.055c56.382-7.434 99.447-55.192 99.447-113.009 0-5.114-0.337-10.15-0.99-15.085l0.063 0.579q1.347-170.685 0-341.261c0.217-2.866 0.341-6.207 0.341-9.578 0-35.794-13.958-68.329-36.728-92.457l0.062 0.066c-17.495-14.661-40.248-23.566-65.080-23.566-6.41 0-12.682 0.593-18.763 1.728l0.629-0.097c-21.703 3.658-46.706 5.748-72.198 5.748-132.873 0-252.48-56.797-335.868-147.437l-0.294-0.324c-9.917-8.785-20.211-17.192-30.828-25.115v11.048c0 31.852-0.431 60.039 0.539 88.333 0.434 2.679 0.682 5.767 0.682 8.913 0 32.355-26.229 58.584-58.584 58.584-2.234 0-4.438-0.125-6.607-0.368l0.266 0.024z" />
<glyph unicode="&#xe919;" glyph-name="fb-like" d="M1010.859 429.17c6.633 13.776 11.134 29.804 12.593 46.701l0.036 0.516c0.301 3.456 0.472 7.477 0.472 11.539 0 73.561-56.253 133.984-128.089 140.598l-0.554 0.041c-25.993 4.994-55.887 7.85-86.449 7.85-19.453 0-38.635-1.157-57.482-3.407l2.278 0.221c-14.655-3.303-31.486-5.195-48.759-5.195-4.16 0-8.295 0.11-12.401 0.327l0.574-0.024c1.724 10.891 2.929 23.812 3.344 36.933l0.013 0.5c1.422 89.372-7.794 181.476-82.66 247.922-26.613 28.542-64.433 46.335-106.408 46.335-20.585 0-40.17-4.279-57.915-11.996l0.939 0.364c-54.714-22.869-92.462-75.952-92.462-137.851 0-0.797 0.006-1.592 0.019-2.386l-0.001 0.12c-0.768-11.968-1.205-25.949-1.205-40.033 0-15.659 0.541-31.192 1.605-46.58l-0.115 2.077c0.074-2.233 0.117-4.859 0.117-7.494 0-49.475-14.913-95.467-40.489-133.726l0.551 0.875c-42.676 12.596-91.707 19.843-142.431 19.843-33.069 0-65.418-3.080-96.777-8.97l3.232 0.505c-46.526-5.833-82.162-45.146-82.162-92.782 0-3.488 0.191-6.932 0.563-10.321l-0.037 0.418v-71.168c-0.341-123.221-0.74-246.5 0.512-369.778-0.202-2.396-0.317-5.185-0.317-8.001 0-55.8 45.235-101.035 101.035-101.035 4.867 0 9.654 0.344 14.338 1.009l-0.538-0.063c14.848 0 29.696 0 44.544 0 22.414 0 44.942 0.512 63.545 0 8.113-1.752 17.432-2.756 26.987-2.756 39.914 0 75.737 17.514 100.204 45.276l0.127 0.146c85.763-31.206 184.762-49.309 287.972-49.436h0.057c25.486 0 51.2 1.195 76.060 3.47 0.979-0.008 2.136-0.013 3.295-0.013 49.516 0 97.044 8.506 141.205 24.137l-2.96-0.913c54.378 15.118 93.622 64.191 93.622 122.43 0 7.88-0.718 15.592-2.093 23.074l0.119-0.779c-0.446 1.784-0.702 3.831-0.702 5.939 0 5.344 1.645 10.304 4.455 14.401l-0.056-0.087c16.524 19.834 26.555 45.584 26.555 73.677 0 8.828-0.991 17.425-2.867 25.685l0.148-0.774c-0.655 2.686-1.030 5.769-1.030 8.941 0 11.293 4.762 21.474 12.388 28.644l0.020 0.019c20.109 19.488 32.59 46.746 32.59 76.918 0 16.261-3.625 31.675-10.111 45.479l0.277-0.655c-2.768 6.153-4.38 13.338-4.38 20.9 0 8.139 1.868 15.841 5.198 22.702l-0.136-0.31zM249.401 375.637v-315.733h-24.804c-34.987 0-67.413 0-99.897 0-0.468 0.039-1.014 0.062-1.564 0.062s-1.096-0.022-1.635-0.066l0.071 0.005h-0.569c-0.181 1.432-0.285 3.088-0.285 4.769 0 0.024 0 0.047 0 0.071v-0.004q0.796 205.426 0 410.852c0 3.925 0.398 6.201 0 6.884 0.853 0.098 1.842 0.154 2.844 0.154s1.991-0.056 2.964-0.165l-0.12 0.011h8.021c13.576 2.75 29.182 4.323 45.155 4.323 21.235 0 41.819-2.781 61.41-7.999l-1.662 0.377c10.069-8.932 10.069-48.583 10.069-103.538zM856.292 217.714c1.85-2.808 2.951-6.253 2.951-9.954 0-6.381-3.272-11.997-8.23-15.262l-0.069-0.042c-19.652-12.082-32.559-33.465-32.559-57.864 0-10.186 2.25-19.847 6.279-28.513l-0.174 0.417c3.093-4.942 4.927-10.946 4.927-17.378 0-2.428-0.261-4.795-0.758-7.075l0.040 0.219c-1.764-3.3-8.533-9.671-34.588-14.905-43.353-8.833-93.184-13.889-144.196-13.889-41.033 0-81.302 3.271-120.56 9.567l4.319-0.571c-169.7 24.86-169.7 24.86-166.798 156.16 0.512 21.447 1.024 45.511 0.967 73.614v3.243c-1.933 13.646-3.036 29.408-3.036 45.427 0 76.939 25.456 147.933 68.406 205.018l-0.63-0.874c28.639 47.655 45.579 105.167 45.579 166.635 0 13.268-0.789 26.352-2.323 39.207l0.151-1.553c-0.569 10.126-0.341 20.252 0 30.436v19.911c-0.23 1.587-0.362 3.419-0.362 5.281 0 15.742 9.389 29.291 22.872 35.353l0.245 0.098c2.666 1.142 5.762 1.845 9.011 1.933l0.034 0.001c7.566 0 18.489-4.324 33.052-23.666 24.302-34.328 38.846-77.061 38.846-123.191 0-21.982-3.303-43.193-9.439-63.163l0.402 1.521-1.536-6.94c-14.734-65.422-21.504-95.232-1.195-116.224s52.565-15.758 124.7-3.413c33.248 6.131 71.507 9.638 110.584 9.638 20.654 0 41.079-0.979 61.231-2.894l-2.571 0.197c27.591-2.674 34.987-5.689 38.4-18.603 1.438-3.554 2.273-7.675 2.273-11.991 0-11.691-6.122-21.951-15.335-27.751l-0.136-0.080c-15.003-9.053-25.287-24.616-26.949-42.676l-0.016-0.218c-0.004-0.269-0.006-0.587-0.006-0.906 0-20.893 10.038-39.442 25.555-51.086l0.165-0.119c9.785-8.59 12.971-15.076 12.743-17.977-1.797-5.043-5.146-9.164-9.462-11.891l-0.095-0.056c-6.909-2.756-12.877-6.181-18.271-10.316l0.181 0.133c-17.959-13.517-29.451-34.793-29.451-58.753 0-16.687 5.574-32.072 14.961-44.395l-0.131 0.179z" />
<glyph unicode="&#xe91a;" glyph-name="fb-share" horiz-adv-x="1076" d="M1044.252 528.725l-365.966 387.243c-17.153 25.844-46.13 42.65-79.032 42.65-10.848 0-21.269-1.827-30.973-5.19l0.664 0.2c-34.366-15.339-57.885-49.21-57.885-88.575 0-6.236 0.59-12.334 1.718-18.241l-0.096 0.604v-145.977c-77.614-10.93-147.581-35.706-210.151-71.859l2.791 1.487c-161.735-102.002-256.455-260.722-297.813-498.119-4.916-19.563-7.737-42.022-7.737-65.139 0-18.043 1.719-35.685 5.001-52.771l-0.279 1.743c4.874-39.739 34.155-71.461 72.198-79.927l0.62-0.116c3.388-0.471 7.301-0.74 11.278-0.74 0.035 0 0.070 0 0.105 0h-0.006c0.24-0.002 0.525-0.004 0.809-0.004 35.78 0 66.738 20.645 81.613 50.673l0.238 0.531c6.485 9.899 12.572 20.025 18.716 30.094 11.297 19.417 21.992 35.628 33.469 51.229l-1.099-1.565c69.367 95.519 179.134 158.054 303.695 162.343l0.661 0.018v-28.046c0.284-36.693 0.455-71.396 0-102.798-0.701-4.267-1.102-9.185-1.102-14.197 0-36.642 21.424-68.281 52.429-83.072l0.555-0.239c10.499-4.62 22.739-7.308 35.607-7.308 29.569 0 55.822 14.197 72.314 36.146l0.167 0.233q177.892 185.173 355.612 370.688c20.202 14.631 33.192 38.146 33.192 64.695 0 25.727-12.199 48.606-31.128 63.166l-0.188 0.139zM617.586 611.897c10.146 12.875 16.274 29.33 16.274 47.215 0 3.128-0.187 6.213-0.552 9.242l0.036-0.366c-0.455 34.987-0.341 70.030 0 109.568v9.216l304.242-320.455-289.735-300.544c0 29.468 0.398 58.88 0 88.235-1.195 65.536-26.34 91.022-92.217 93.013-7.365 0.388-15.989 0.609-24.664 0.609-164.254 0-309.995-79.266-401.056-201.633l-0.946-1.33c26.112 196.267 179.541 388.892 352.313 426.667 19.672 3.695 44.067 6.824 68.818 8.677l2.35 0.141c0.817-0.034 1.776-0.054 2.74-0.054 3.57 0 7.077 0.268 10.502 0.784l-0.385-0.048c21.509 3.17 39.884 14.579 52.135 30.858l0.146 0.203z" />
<glyph unicode="&#xe91b;" glyph-name="female" horiz-adv-x="694" d="M693.965 612.71c0.001 0.363 0.002 0.792 0.002 1.221 0 95.57-38.873 182.061-101.67 244.524l-0.015 0.015c-62.688 62.702-149.276 101.507-244.927 101.581h-0.014c-0.106 0-0.233 0-0.359 0-191.507 0-346.778-155.145-346.982-346.605v-0.019c0-0.046 0-0.102 0-0.157 0-170.563 123.12-312.369 285.335-341.394l2.102-0.312v-73.574h-109.21c-0.215 0.003-0.47 0.004-0.725 0.004-32.037 0-58.071-25.698-58.615-57.605l-0.001-0.051c0.571-31.937 26.595-57.607 58.615-57.607 0.327 0 0.654 0.003 0.979 0.008l-0.049-0.001h109.261v-89.242c0.684-31.905 26.709-57.507 58.714-57.507 0.364 0 0.728 0.003 1.091 0.010l-0.054-0.001c0.247-0.004 0.538-0.006 0.83-0.006 31.983 0 57.984 25.612 58.612 57.445l0.001 0.059v89.19h109.21c0.277-0.005 0.603-0.007 0.93-0.007 32.020 0 58.044 25.67 58.614 57.554l0.001 0.054c-0.543 31.931-26.555 57.608-58.565 57.608-0.345 0-0.689-0.003-1.032-0.009l0.052 0.001h-109.261v73.626c164.016 29.438 286.899 170.933 287.13 341.172v0.025zM102.4 613.274c0.146 134.969 109.593 244.327 244.582 244.327 0.090 0 0.18 0 0.27 0h-0.014c67.44-0.080 128.469-27.459 172.644-71.678l0.002-0.002c44.279-44.070 71.681-105.065 71.681-172.459 0-0.264 0-0.527-0.001-0.791v0.040c-0.117-134.963-109.552-244.327-244.531-244.327-0.090 0-0.18 0-0.27 0h0.014c-134.991 0.116-244.378 109.575-244.378 244.582 0 0.108 0 0.216 0 0.324v-0.017z" />
<glyph unicode="&#xe91c;" glyph-name="filters" horiz-adv-x="1094" d="M644.267-64c-9.894 0.018-19.214 2.456-27.405 6.755l0.325-0.156-194.901 100.409c-19.162 10.030-32.016 29.766-32.028 52.507v308.112l-376.889 459.833c-8.443 10.14-13.568 23.302-13.568 37.66 0 32.613 26.438 59.051 59.051 59.051 0.010 0 0.020 0 0.030 0h975.7c32.605-0.053 59.015-26.496 59.015-59.107 0-14.33-5.1-27.469-13.583-37.702l0.079 0.098-377.116-459.833v-408.576c0-0.017 0-0.037 0-0.057 0-32.613-26.438-59.051-59.051-59.051v0zM508.416 131.584l76.8-39.822v332.743c0.003 14.271 5.048 27.364 13.451 37.593l-0.082-0.103 311.353 379.62h-726.073l311.182-379.62c8.321-10.126 13.366-23.218 13.369-37.489v-0.001z" />
<glyph unicode="&#xe91d;" glyph-name="gender" horiz-adv-x="717" d="M234.261-12.435v71.322h-41.754c-26.571 0.102-48.071 21.665-48.071 48.25 0 0.079 0 0.158 0.001 0.236v-0.012c-0.001 0.094-0.001 0.204-0.001 0.315 0 26.522 21.399 48.046 47.873 48.248h41.952v76.832c-67.455 12.65-125.112 47.817-166.196 97.249l-0.372 0.46c-42.087 49.327-67.694 113.827-67.694 184.307 0 0.174 0 0.347 0 0.521v-0.027c-0.001 0.268-0.001 0.585-0.001 0.902 0 156.247 126.142 283.032 282.144 284.072l0.099 0.001c0.040 0 0.087 0 0.135 0 59.771 0 115.15-18.8 160.548-50.81l-0.88 0.589 107.162 112.762h-66.752c-26.65 0.127-48.205 21.761-48.205 48.429 0 0.063 0 0.126 0 0.189v-0.010c0 0.040 0 0.088 0 0.135 0 26.677 21.55 48.321 48.191 48.473h180.023c14.892-0.025 28.192-6.824 36.984-17.48l0.065-0.082c10.58-8.974 17.249-22.278 17.249-37.14 0-0.126 0-0.251-0.001-0.377v0.019-181.71c0-0.067 0.001-0.145 0.001-0.224 0-26.576-21.506-48.129-48.064-48.205h-0.007c-26.639 0.076-48.205 21.689-48.205 48.339 0 0.032 0 0.063 0 0.095v-0.005 74.458l-109.716-115.406c34.507-46.485 55.24-104.991 55.24-168.34 0-0.243 0-0.486-0.001-0.729v0.038c0-0.185 0.001-0.403 0.001-0.622 0-139.917-100.994-256.246-234.060-280.065l-1.725-0.256v-76.16h41.619c26.615-0.076 48.161-21.669 48.161-48.295 0-0.063 0-0.126 0-0.189v0.010c0-0.053 0-0.116 0-0.18 0-26.61-21.52-48.193-48.106-48.294h-41.674v-71.322c0.019-0.518 0.030-1.126 0.030-1.737 0-26.962-21.341-48.939-48.053-49.96l-0.093-0.003c-26.672 1.124-47.87 23.019-47.87 49.866 0 0.535 0.008 1.067 0.025 1.598l-0.002-0.078zM282.331 327.599c102.837 0.609 185.967 84.116 185.967 187.038 0 0.222 0 0.443-0.001 0.664v-0.034c0 0.061 0 0.134 0 0.207 0 45.288-15.977 86.844-42.601 119.339l0.265-0.333c-34.166 40.717-85.061 66.434-141.963 66.484h-0.009c-102.848-0.66-185.967-84.187-185.967-187.127 0-0.238 0-0.475 0.001-0.712v0.037c0-0.073 0-0.159 0-0.246 0-43.353 14.662-83.282 39.298-115.099l-0.321 0.432c34.158-43.167 86.536-70.622 145.327-70.65h0.005z" />
<glyph unicode="&#xe91e;" glyph-name="globe" d="M512 960c-282.77 0-512-229.23-512-512s229.23-512 512-512c282.77 0 512 229.23 512 512v0c0 282.77-229.23 512-512 512v0zM199.68 367.053c-0.336-0.007-0.732-0.011-1.129-0.011-12.711 0-24.486 4.011-34.128 10.836l0.185-0.124c-6.696 7.973-12.599 16.986-17.366 26.659l-0.349 0.784c-10.613 22.573-25.34 41.577-43.375 56.782l-0.248 0.203c7.694 219.936 187.791 395.32 408.874 395.418h0.009c7.424 0 14.643-0.717 21.965-1.126-0.197-1.080-0.31-2.324-0.31-3.593 0-5.693 2.266-10.857 5.946-14.639l-0.005 0.005 0.922-0.819c3.519-3.035 6.617-6.393 9.303-10.071l0.117-0.169c-0.461-1.075-4.352-7.731-26.317-18.79-35.84-18.278 64.461-104.397 95.078-104.397 83.712 0 149.197-18.739 149.197-42.65 0-8.755-2.714-11.469-3.789-12.442-10.24-10.24-46.080-9.677-77.517-9.165-8.294 0-16.845 0.307-25.6 0.307-2.276-0.199-4.925-0.312-7.601-0.312-14.827 0-28.841 3.48-41.271 9.668l0.538-0.243c-15.201 7.816-33.169 12.398-52.207 12.398-2.149 0-4.285-0.058-6.405-0.174l0.295 0.013c-2.896 0.145-6.288 0.228-9.7 0.228-51.127 0-97.908-18.604-133.943-49.412l0.283 0.236c-19.265-21.070-31.068-49.245-31.068-80.177 0-8.41 0.873-16.617 2.532-24.533l-0.136 0.774c0.512-6.298 1.075-12.339 1.075-17.818 0-41.984 42.957-64 85.35-64 6.137 0.492 13.286 0.773 20.502 0.773 38.854 0 75.807-8.14 109.247-22.807l-1.749 0.684c0.262-19.439 4.96-37.721 13.125-53.961l-0.325 0.713c5.014-9.336 8.128-20.362 8.547-32.074l0.004-0.131c0.086-0.718 0.134-1.549 0.134-2.392 0-5.78-2.297-11.024-6.028-14.868l0.005 0.005c-9.625-11.586-15.466-26.615-15.466-43.009 0-1.333 0.039-2.656 0.115-3.969l-0.008 0.181c5.84-38.928 23.122-73.050 48.262-99.673l-0.083 0.089c3.907-4.345 9.546-7.065 15.821-7.066v0c1.823 0.009 3.586 0.251 5.265 0.698l-0.145-0.033c12.544 3.226 122.88 33.536 122.88 105.984-0.133 1.241-0.21 2.681-0.21 4.138 0 14.042 7.066 26.433 17.836 33.813l0.14 0.091c14.993 10.563 24.723 27.727 24.934 47.174v0.033c12.803 36.168 32.798 67.010 58.43 92.121l0.040 0.039c3.442 3.77 5.55 8.808 5.55 14.34 0 6.268-2.707 11.903-7.017 15.801l-0.018 0.016-1.229 1.024c-32.542 25.329-58.761 57.198-76.962 93.761l-0.709 1.573c10.764-5.763 20.025-12.575 28.189-20.508l-0.029 0.028c6.467-6.378 15.354-10.316 25.16-10.316 0.821 0 1.636 0.028 2.444 0.082l-0.109-0.006c16.34 3.929 30.63 11.028 42.831 20.657l-0.233-0.177c8.148-30.5 12.827-65.516 12.827-101.625 0-225.877-183.109-408.986-408.986-408.986-117.654 0-223.705 49.68-298.319 129.207l-0.204 0.22v45.056c1.009 18.677 8.241 35.492 19.641 48.583l-0.083-0.097c13.308 15.695 21.825 35.827 23.079 57.903l0.012 0.261c0 40.653-36.71 44.8-56.474 47.002z" />
<glyph unicode="&#xe91f;" glyph-name="graph" horiz-adv-x="1134" d="M1095.629 21.094h-123.546v580.966c0 28.277-22.923 51.2-51.2 51.2v0h-190.874v264.397c-1.444 23.388-20.491 41.882-43.978 42.444l-0.054 0.001h-238.387c-24.051-0.585-43.396-19.93-43.98-43.926l-0.001-0.055v-544.051h-188.57c0 0 0 0 0 0-29.344 0-53.138-23.759-53.197-53.089v-297.785h-123.443c-21.208 0-38.4-17.192-38.4-38.4v0-8.294c0-21.208 17.192-38.4 38.4-38.4v0h1057.229c21.208 0 38.4 17.192 38.4 38.4v0 8.294c-0.058 21.164-17.228 38.298-38.4 38.298 0 0 0 0 0 0v0zM887.142 568.115l1.587-547.021h-158.003v547.021zM645.069 875.008l0.563-309.043v-544.87h-156.979v853.811zM246.938 287.232l156.314 1.434 0.358-52.531v-215.040h-156.672z" />
<glyph unicode="&#xe920;" glyph-name="grid" d="M390.087 521.159h-341.333c0 0-0.001 0-0.001 0-26.826 0-48.592 21.666-48.753 48.454v341.348c0 26.926 21.828 48.754 48.754 48.754v0h341.333c26.926 0 48.754-21.828 48.754-48.754v0-341.333c-0.161-26.803-21.927-48.469-48.753-48.469 0 0-0.001 0-0.001 0v0zM97.508 618.667h243.826v243.826h-243.826zM975.246 521.159h-341.333c-26.926 0-48.754 21.828-48.754 48.754v0 341.333c0 26.926 21.828 48.754 48.754 48.754v0h341.333c26.926 0 48.754-21.828 48.754-48.754v0-341.333c0-26.926-21.828-48.754-48.754-48.754v0zM682.667 618.667h243.826v243.826h-243.826zM975.246-64h-341.333c-26.933 0.032-48.754 21.873-48.754 48.811 0 0 0 0 0 0v0 341.333c0 26.926 21.828 48.754 48.754 48.754v0h341.333c26.926 0 48.754-21.828 48.754-48.754v0-341.333c0-26.937-21.821-48.778-48.751-48.811h-0.003zM682.667 33.564h243.826v243.769h-243.826zM390.087-64h-341.333c-26.933 0.032-48.754 21.873-48.754 48.811 0 0 0 0 0 0v0 341.333c0 26.926 21.828 48.754 48.754 48.754v0h341.333c26.926 0 48.754-21.828 48.754-48.754v0-341.333c0-26.937-21.821-48.778-48.751-48.811h-0.003zM97.508 33.564h243.826v243.769h-243.826z" />
<glyph unicode="&#xe921;" glyph-name="hamburger-menu" horiz-adv-x="855" d="M765.156 779.321h-674.645c-49.893 0-90.34 40.446-90.34 90.34v0c0 49.893 40.446 90.34 90.34 90.34v0h674.645c49.893 0 90.34-40.446 90.34-90.34v0c0-49.893-40.446-90.34-90.34-90.34v0zM765.156-64h-674.645c-49.893 0-90.34 40.446-90.34 90.34 0 0.020 0 0.040 0 0.060v-0.003c0 49.893 40.446 90.34 90.34 90.34v0h674.645c49.893 0 90.34-40.446 90.34-90.34v0c0-0.017 0-0.037 0-0.057 0-49.893-40.446-90.34-90.34-90.34v0zM765.156 357.66h-674.645c-49.893 0-90.34 40.446-90.34 90.34v0c0 0.017 0 0.037 0 0.057 0 49.893 40.446 90.34 90.34 90.34h674.645c49.893 0 90.34-40.446 90.34-90.34 0-0.020 0-0.040 0-0.060v0.003c0-49.893-40.446-90.34-90.34-90.34v0z" />
<glyph unicode="&#xe922;" glyph-name="help" d="M512 960c-282.77 0-512-229.23-512-512s229.23-512 512-512c282.77 0 512 229.23 512 512v0c0 282.77-229.23 512-512 512v0zM512.512 128c-0.076 0-0.166-0.001-0.256-0.001-35.347 0-64.001 28.654-64.001 64.001 0 35.256 28.508 63.855 63.731 64h0.526c35.346 0 64-28.654 64-64s-28.654-64-64-64v0zM524.083 348.16c-4.791-1.688-10.316-2.663-16.068-2.663-0.039 0-0.078 0-0.117 0h0.006c-0.011 0-0.024 0-0.037 0-28.277 0-51.2 22.923-51.2 51.2 0 22.503 14.517 41.615 34.697 48.482l0.361 0.107c30.72 10.24 118.579 52.122 118.579 105.011 0 0.080 0 0.175 0 0.27 0 56.554-45.846 102.4-102.4 102.4-44.394 0-82.19-28.25-96.391-67.754l-0.224-0.714c-7.222-20.098-26.116-34.212-48.307-34.212-28.283 0-51.211 22.928-51.211 51.211 0 6.092 1.064 11.936 3.016 17.355l-0.112-0.357c28.851 80.436 104.442 136.936 193.229 136.936 113.108 0 204.8-91.692 204.8-204.8 0-0.136 0-0.271 0-0.407v0.021c0-135.219-169.318-195.533-188.621-201.984z" />
<glyph unicode="&#xe923;" glyph-name="historical-data" horiz-adv-x="1176" d="M1080.067 745.768c-94.24 130.293-245.764 214.115-416.872 214.231h-0.019c-0.211 0-0.46 0-0.71 0-111.371 0-214.381-35.797-298.152-96.513l1.478 1.020c-95.015-68.205-164.796-166.3-195.892-280.352l-0.829-3.566-61.443 119.251c-9.656 18.456-28.667 30.834-50.57 30.834-9.587 0-18.619-2.371-26.544-6.56l0.31 0.149c-18.456-9.656-30.834-28.667-30.834-50.57 0-9.587 2.371-18.619 6.56-26.544l-0.149 0.31 116.383-225.291c7.117-13.573 19.16-23.75 33.698-28.258l0.403-0.108c4.918-1.517 10.572-2.396 16.431-2.407h0.005c10.151 0.014 19.679 2.67 27.936 7.317l-0.287-0.148 204.298 113.823c17.548 9.914 29.201 28.443 29.201 49.695 0 10.161-2.664 19.7-7.332 27.956l0.147-0.283c-9.911 17.56-28.447 29.223-49.707 29.223-10.177 0-19.729-2.672-27.994-7.353l0.283 0.147-62.672-34.92c27.744 80.462 78.185 147.156 143.632 194.331l1.169 0.802c63.994 46.413 144.095 74.244 230.696 74.244 0.17 0 0.34 0 0.51 0h-0.027c133.147-0.071 251.048-65.286 323.565-165.498l0.803-1.166c46.444-64.003 74.295-144.124 74.295-230.751 0-0.151 0-0.301 0-0.452v0.023c-0.083-133.156-65.318-251.058-165.548-323.564l-1.168-0.804c-63.949-46.412-144.007-74.244-230.564-74.244-0.198 0-0.396 0-0.594 0h0.030c-0.043 0-0.093 0-0.143 0-68.276 0-132.568 17.054-188.85 47.134l2.155-1.052c-7.684 4.124-16.813 6.546-26.507 6.546-21.681 0-40.532-12.118-50.148-29.951l-0.149-0.302c-4.117-7.679-6.535-16.8-6.535-26.485 0-21.697 12.136-40.559 29.99-50.169l0.303-0.149c69.564-37.378 152.204-59.355 239.974-59.395h0.012c0.23 0 0.502-0.001 0.774-0.001 111.333 0 214.306 35.798 298.034 96.512l-1.475-1.019c130.274 94.256 214.088 245.77 214.231 416.868v0.023c0 0.159 0 0.348 0 0.536 0 111.46-35.836 214.55-96.615 298.376l1.020-1.477zM666.555 713.101c-0.015 0-0.033 0-0.051 0-31.389 0-56.835-25.446-56.835-56.835 0-0.018 0-0.036 0-0.054v0.003-212.030c0.001-15.441 6.153-29.445 16.141-39.694l-0.012 0.012 140.346-144.084c10.333-10.587 24.744-17.154 40.689-17.154 0.096 0 0.192 0 0.288 0.001h-0.015c0.067 0 0.147 0 0.226 0 15.37 0 29.301 6.156 39.464 16.137l-0.008-0.008c10.616 10.345 17.201 24.782 17.201 40.757 0 15.441-6.152 29.444-16.138 39.694l0.012-0.012-124.217 127.494v188.886c0 0.015 0 0.034 0 0.052 0 31.389-25.446 56.835-56.835 56.835-0.090 0-0.18 0-0.27-0.001h0.014z" />
<glyph unicode="&#xe924;" glyph-name="influencers-spotting" d="M512 857.6c226.216 0 409.6-183.384 409.6-409.6v0c0-226.216-183.384-409.6-409.6-409.6v0c-226.216 0-409.6 183.384-409.6 409.6v0c0.233 226.122 183.478 409.367 409.578 409.6h0.022zM512 960c-282.77 0-512-229.23-512-512v0c0-282.77 229.23-512 512-512v0c282.77 0 512 229.23 512 512v0c0 282.77-229.23 512-512 512v0zM665.6 448.051c0-84.831-68.769-153.6-153.6-153.6s-153.6 68.769-153.6 153.6c0 84.831 68.769 153.6 153.6 153.6s153.6-68.769 153.6-153.6zM512 959.949v0c28.277 0 51.2-22.923 51.2-51.2v0-153.6c0-28.277-22.923-51.2-51.2-51.2v0 0c-28.277 0-51.2 22.923-51.2 51.2v0 153.6c0 28.277 22.923 51.2 51.2 51.2v0zM512 192v0c28.277 0 51.2-22.923 51.2-51.2v0-153.6c0-28.277-22.923-51.2-51.2-51.2v0 0c-28.277 0-51.2 22.923-51.2 51.2v0 153.6c0 28.277 22.923 51.2 51.2 51.2v0zM1023.949 448.051v0c0-28.277-22.923-51.2-51.2-51.2v0h-153.6c-28.277 0-51.2 22.923-51.2 51.2v0 0c0 28.277 22.923 51.2 51.2 51.2v0h153.6c28.277 0 51.2-22.923 51.2-51.2v0zM256 448.051v0c0-28.277-22.923-51.2-51.2-51.2v0h-153.6c-28.277 0-51.2 22.923-51.2 51.2v0 0c0 28.277 22.923 51.2 51.2 51.2v0h153.6c28.277 0 51.2-22.923 51.2-51.2v0z" />
<glyph unicode="&#xe925;" glyph-name="insta-comment" d="M1021.645 19.456l-57.293 203.469c-0.256 0.94-0.403 2.020-0.403 3.134 0 2.402 0.684 4.645 1.867 6.544l-0.030-0.052c31.398 64.14 49.758 139.577 49.758 219.303 0 280.649-227.511 508.16-508.16 508.16-18.518 0-36.804-0.99-54.809-2.921l2.235 0.194c-138.732-14.663-258.968-83.75-340.645-185.192l-0.756-0.971c-72.186-87.13-115.983-200.060-115.983-323.22 0-280.762 227.603-508.365 508.365-508.365 89.084 0 172.815 22.914 245.623 63.169l-2.613-1.325c1.661 0.883 3.633 1.402 5.725 1.402 1.509 0 2.956-0.27 4.294-0.764l-0.086 0.028 179.2-62.515c6.255-2.227 13.471-3.52 20.986-3.533h0.006c0 0 0 0 0 0 5.663 0 11.147 0.766 16.354 2.201l-0.431-0.101c17.206 4.44 31.337 15.298 39.976 29.807l0.165 0.299c5.694 9.605 9.060 21.172 9.060 33.525 0 6.308-0.878 12.412-2.517 18.195l0.114-0.469zM857.19 191.846l32.922-116.89-94.464 33.024c-12.239 4.485-26.37 7.080-41.107 7.080-21.695 0-42.076-5.622-59.767-15.489l0.624 0.32c-54.335-29.693-119.025-47.155-187.793-47.155-219.542 0-397.517 177.974-397.517 397.517 0 219.486 177.882 397.425 397.346 397.517h0.009q16.435 0 32.666-1.331c204.008-19.211 362.384-189.629 362.384-397.037 0-60.875-13.643-118.564-38.039-170.176l1.031 2.426c-8.298-16.154-13.162-35.247-13.162-55.476 0-12.231 1.778-24.047 5.090-35.203l-0.223 0.874z" />
<glyph unicode="&#xe926;" glyph-name="insta-fill" d="M652.134 470.426c-8.961 61.092-56.668 108.799-117.006 117.669l-0.754 0.091c-6.155 0.978-13.252 1.536-20.48 1.536s-14.325-0.559-21.251-1.635l0.771 0.099c-67.748-10.382-119.036-68.25-119.036-138.096 0-77.111 62.511-139.622 139.622-139.622s139.622 62.511 139.622 139.622c0 7.176-0.541 14.225-1.585 21.109l0.096-0.773zM744.704 960h-465.408c-154.174-0.146-279.121-125.074-279.296-279.228v-465.476c0.175-154.181 125.115-279.121 279.279-279.296h465.425c154.181 0.175 279.121 125.115 279.296 279.279v465.476c-0.175 154.17-125.121 279.099-279.282 279.245h-0.014zM700.928 311.398c-36.064-48.53-89.796-82.18-151.509-91.44l-1.272-0.157c-10.29-1.592-22.163-2.504-34.248-2.509h-0.005c-128.552 0.031-232.751 104.25-232.751 232.806 0 128.575 104.231 232.806 232.806 232.806s232.806-104.231 232.806-232.806c0-52.242-17.207-100.465-46.264-139.31l0.436 0.609zM768.461 657.459c-0.068 0-0.149-0.001-0.23-0.001-25.704 0-46.541 20.837-46.541 46.541 0 25.623 20.706 46.41 46.299 46.541h0.473c25.704 0 46.541-20.837 46.541-46.541s-20.837-46.541-46.541-46.541v0z" />
<glyph unicode="&#xe927;" glyph-name="insta-like" horiz-adv-x="1231" d="M1181.714 787.826c-60.287 104.013-171.086 172.855-297.965 172.855-109.011 0-206.153-50.818-269.028-130.056l-0.543-0.709c-5.723 6.153-11.015 11.445-16.184 16.984-63.039 70.334-154.17 114.384-255.59 114.384-189.295 0-342.749-153.454-342.749-342.749 0-8.723 0.326-17.371 0.966-25.93l-0.069 1.141c7.884-110.869 53.653-209.754 124.286-285.032l-0.232 0.249c126.607-144.38 275.958-265.006 443.162-357.247l8.441-4.27c10.869-7.16 24.195-11.428 38.516-11.445h0.005c0.143-0.001 0.312-0.002 0.482-0.002 14.048 0 27.068 4.399 37.758 11.895l-0.211-0.14c156.264 87.825 290.589 191.469 408.007 311.696l0.337 0.347c58.45 58.613 105.918 128.213 139.035 205.427l1.634 4.283c18.133 41.084 28.689 88.991 28.689 139.364 0 65.988-18.114 127.745-49.642 180.57l0.893-1.614zM1122.394 605.991v-0.985c-0.372-59.924-18.976-115.43-50.538-161.334l0.633 0.975c-49.658-76.26-108.172-141.506-175.255-196.719l-1.473-1.177c-78.911-67.603-166.323-130.763-258.757-186.432l-8.734-4.879c-12.861-7.938-15.261-8.676-23.076-3.754-156.674 89.935-290.314 199.6-403.349 327.859l-1.488 1.722c-37.637 43.232-66.985 94.781-84.89 151.416l-0.828 3.037c-7.711 22.513-12.162 48.452-12.162 75.43 0 5.937 0.216 11.824 0.639 17.653l-0.046-0.78c9.153 125.992 113.385 224.803 240.799 225.279h0.048c5.538 0 11.199 0 16.861-0.615 80.496-8.842 149.359-52.221 192.322-114.777l0.589-0.908c21.106-27.198 37.844-46.459 60.366-46.459s39.998 19.876 62.458 48.859c42.972 61.689 110.072 104.007 187.334 113.284l1.27 0.124c7.010 0.733 15.145 1.151 23.378 1.151 4.548 0 9.065-0.128 13.55-0.379l-0.622 0.028c123.811-7.268 221.465-109.448 221.465-234.437 0-4.636-0.134-9.241-0.399-13.811l0.029 0.631z" />
<glyph unicode="&#xe928;" glyph-name="insta-share" d="M1010.233 942.194c-10.523 11.007-25.323 17.849-41.721 17.849-9.699 0-18.839-2.394-26.861-6.622l0.315 0.151-892.814-297.87c-27.65-3.548-48.801-26.937-48.801-55.266 0-26.747 18.855-49.091 43.999-54.464l0.365-0.065 93.241-39.822c94.094-40.505 188.245-80.896 283.591-120.832 13.136-5.219 23.271-15.595 28.051-28.562l0.109-0.338c35.783-85.333 72.249-170.098 108.772-255.033l52.281-121.856c6.685-23.584 26.935-40.997 51.583-43.387l0.243-0.019h1.991c28.398 1.313 51.475 22.497 55.709 49.902l0.042 0.33 297.017 890.88c4.248 7.898 6.744 17.282 6.744 27.249 0 14.442-5.24 27.661-13.923 37.858l0.068-0.082zM752.64 777.899l-293.148-293.035-256 109.966zM847.872 708.21l-189.44-568.491-62.066 144.384c-17.067 39.196-33.564 78.336-50.574 117.476-0.796 1.82-1.365 3.3-1.707 3.982z" />
<glyph unicode="&#xe929;" glyph-name="instagram" d="M744.704 960h-465.408c-154.174-0.146-279.121-125.074-279.296-279.228v-465.476c0.175-154.181 125.115-279.121 279.279-279.296h465.425c154.181 0.175 279.121 125.115 279.296 279.279v465.476c-0.175 154.17-125.121 279.099-279.282 279.245h-0.014zM930.918 215.296c-0.116-102.786-83.424-186.076-186.206-186.163h-465.416c-102.79 0.087-186.098 83.377-186.214 186.152v465.47c0.116 102.786 83.424 186.076 186.206 186.163h465.416c102.79-0.087 186.098-83.377 186.214-186.152v-0.011zM548.147 680.346c-10.346 1.629-22.277 2.56-34.426 2.56-128.547 0-232.755-104.208-232.755-232.755s104.208-232.755 232.755-232.755c0.061 0 0.122 0 0.183 0h-0.010c12.090 0.004 23.962 0.916 35.559 2.671l-1.306-0.162c112.969 17.279 198.501 113.761 198.501 230.221s-85.532 212.942-197.205 230.057l-1.296 0.163zM626.176 366.95c-25.718-34.336-66.303-56.32-112.024-56.32-77.083 0-139.571 62.488-139.571 139.571 0 77.046 62.429 139.512 139.461 139.571h0.006c0.014 0 0.032 0 0.049 0 7.211 0 14.291-0.558 21.2-1.635l-0.768 0.099c61.092-8.961 108.799-56.668 117.669-117.006l0.091-0.754c0.977-6.181 1.535-13.309 1.535-20.567 0-31.315-10.386-60.205-27.9-83.412l0.254 0.351zM768.461 750.541h-0.461c-25.746-0.131-46.566-21.032-46.566-46.796 0-25.845 20.952-46.797 46.797-46.797s46.797 20.952 46.797 46.797c0 25.764-20.821 46.665-46.554 46.796h-0.012z" />
<glyph unicode="&#xe92a;" glyph-name="kebab-menu" horiz-adv-x="223" d="M222.618 448c0-61.474-49.835-111.309-111.309-111.309s-111.309 49.835-111.309 111.309c0 61.474 49.835 111.309 111.309 111.309s111.309-49.835 111.309-111.309zM222.618 47.309c0-61.474-49.835-111.309-111.309-111.309s-111.309 49.835-111.309 111.309c0 61.474 49.835 111.309 111.309 111.309s111.309-49.835 111.309-111.309zM222.618 848.691c0-61.474-49.835-111.309-111.309-111.309s-111.309 49.835-111.309 111.309c0 61.474 49.835 111.309 111.309 111.309s111.309-49.835 111.309-111.309z" />
<glyph unicode="&#xe92b;" glyph-name="keyword-search" d="M457.728 44.595c-252.746 0.029-457.626 204.927-457.626 457.677 0 252.768 204.909 457.677 457.677 457.677 252.75 0 457.648-204.88 457.677-457.623v-0.003c-0.291-252.679-205.049-457.437-457.7-457.728h-0.028zM457.728 859.75c-197.43 0-357.478-160.049-357.478-357.478s160.049-357.478 357.478-357.478c197.43 0 357.478 160.049 357.478 357.478 0 0.018 0 0.036 0 0.054v-0.003c-0.378 197.226-160.232 356.99-357.456 357.222h-0.023zM966.656-64c-15.818 0.007-30.136 6.424-40.499 16.793l-186.112 186.215c-10.985 10.458-17.817 25.193-17.817 41.523 0 31.642 25.651 57.293 57.293 57.293 16.33 0 31.064-6.832 41.5-17.793l0.022-0.024 186.163-186.214c10.36-10.367 16.768-24.685 16.768-40.499 0-31.642-25.651-57.293-57.293-57.293-0.009 0-0.018 0-0.027 0h0.001zM465.254 72.090c-27.683 0-50.125 22.442-50.125 50.125v57.293c0 27.683 22.442 50.125 50.125 50.125s50.125-22.442 50.125-50.125v-57.242c0-0.015 0-0.033 0-0.051 0-27.683-22.442-50.125-50.125-50.125 0 0 0 0 0 0v0zM136.090 451.584h-57.293c-27.683 0-50.125 22.442-50.125 50.125s22.442 50.125 50.125 50.125h57.293c27.683 0 50.125-22.442 50.125-50.125s-22.442-50.125-50.125-50.125v0zM465.254 787.866c-27.683 0-50.125 22.442-50.125 50.125v0 57.395c0 27.683 22.442 50.125 50.125 50.125s50.125-22.442 50.125-50.125v-57.293c0-0.030 0-0.066 0-0.102 0-27.683-22.442-50.125-50.125-50.125 0 0 0 0 0 0v0zM837.837 451.584h-57.293c-27.683 0-50.125 22.442-50.125 50.125s22.442 50.125 50.125 50.125h57.293c27.683 0 50.125-22.442 50.125-50.125s-22.442-50.125-50.125-50.125v0z" />
<glyph unicode="&#xe92c;" glyph-name="keyword" d="M938.61 960h-853.333c0 0 0 0-0.001 0-47.128 0-85.333-38.205-85.333-85.333 0-0.12 0-0.24 0.001-0.36v0.018-190.919c-0.001-0.118-0.001-0.258-0.001-0.398 0-47.128 38.205-85.333 85.333-85.333 0 0 0.001 0 0.001 0v0c0 0 0.001 0 0.001 0 47.128 0 85.333 38.205 85.333 85.333 0 0.14 0 0.28-0.001 0.42v-0.022 105.188h256v-681.131h-127.943c0 0-0.001 0-0.001 0-47.128 0-85.333-38.205-85.333-85.333 0-0.14 0-0.28 0.001-0.42v0.022c-0.001-0.118-0.001-0.258-0.001-0.398 0-47.128 38.205-85.333 85.333-85.333 0 0 0.001 0 0.001 0h426.667c0 0 0.001 0 0.001 0 47.128 0 85.333 38.205 85.333 85.333 0 0.14 0 0.28-0.001 0.42v-0.022c0.001 0.118 0.001 0.258 0.001 0.398 0 47.128-38.205 85.333-85.333 85.333 0 0-0.001 0-0.001 0h-128v681.131h256v-105.188c-0.001-0.118-0.001-0.258-0.001-0.398 0-47.128 38.205-85.333 85.333-85.333 0 0 0.001 0 0.001 0v0c0 0 0.001 0 0.001 0 47.128 0 85.333 38.205 85.333 85.333 0 0.14 0 0.28-0.001 0.42v-0.022 190.919c0 0.101 0.001 0.221 0.001 0.341 0 47.128-38.205 85.333-85.333 85.333-0.020 0-0.041 0-0.061 0h0.003z" />
<glyph unicode="&#xe92d;" glyph-name="list" horiz-adv-x="1358" d="M1288.133 378.35h-895.295c-0.081 0-0.177-0.001-0.272-0.001-38.516 0-69.762 31.127-69.955 69.598v0.018c0.154 38.519 31.415 69.684 69.955 69.684 0.096 0 0.191 0 0.287-0.001h895.28c0.101 0.001 0.22 0.001 0.34 0.001 38.527 0 69.772-31.174 69.887-69.674v-0.011c-0.154-38.481-31.384-69.617-69.887-69.617-0.12 0-0.239 0-0.358 0.001h0.018zM105.748 343.508c-0.142-0.001-0.31-0.001-0.479-0.001-57.854 0-104.809 46.669-105.27 104.415v0.044c0.116 57.715 46.93 104.458 104.661 104.458 0.072 0 0.143 0 0.215 0h0.668c0.121 0.001 0.265 0.001 0.408 0.001 57.81 0 104.702-46.749 104.932-104.505v-0.022c-0.308-57.719-47.17-104.39-104.932-104.39-0.072 0-0.144 0-0.217 0h0.011zM1288.133 785.858h-895.295c-0.081 0-0.177-0.001-0.272-0.001-38.516 0-69.762 31.127-69.955 69.598v0.018c0.154 38.519 31.415 69.684 69.955 69.684 0.096 0 0.191 0 0.287-0.001h895.28c0.101 0.001 0.22 0.001 0.34 0.001 38.527 0 69.772-31.174 69.887-69.674v-0.011c-0.154-38.481-31.384-69.617-69.887-69.617-0.12 0-0.239 0-0.358 0.001h0.018zM105.748 751.016c-0.142-0.001-0.31-0.001-0.479-0.001-57.854 0-104.809 46.669-105.27 104.415v0.044c0.116 57.715 46.93 104.458 104.661 104.458 0.072 0 0.143 0 0.215 0h0.668c0.121 0.001 0.265 0.001 0.408 0.001 57.81 0 104.702-46.749 104.932-104.505v-0.022c-0.308-57.719-47.17-104.39-104.932-104.39-0.072 0-0.144 0-0.217 0h0.011zM1288.133-29.158h-895.295c-0.081 0-0.177-0.001-0.272-0.001-38.516 0-69.762 31.127-69.955 69.598v0.018c0.154 38.519 31.415 69.684 69.955 69.684 0.096 0 0.191 0 0.287-0.001h895.28c0.101 0.001 0.22 0.001 0.34 0.001 38.527 0 69.772-31.174 69.887-69.674v-0.011c-0.154-38.481-31.384-69.617-69.887-69.617-0.12 0-0.239 0-0.358 0.001h0.018zM105.748-64c-0.142-0.001-0.31-0.001-0.479-0.001-57.854 0-104.809 46.669-105.27 104.415v0.044c0.116 57.715 46.93 104.458 104.661 104.458 0.072 0 0.143 0 0.215 0h0.668c0.121 0.001 0.265 0.001 0.408 0.001 57.81 0 104.702-46.749 104.932-104.505v-0.022c-0.308-57.719-47.17-104.39-104.932-104.39-0.072 0-0.144 0-0.217 0h0.011z" />
<glyph unicode="&#xe92e;" glyph-name="location" d="M535.142-64c-2.555 0.010-5.064 0.159-7.532 0.438l0.313-0.029c-31.051 3.126-56.165 25.3-63.634 54.534l-0.11 0.506-81.92 326.963-326.963 81.92c-29.729 7.616-51.897 32.706-55.065 63.431l-0.026 0.313c-0.226 2.16-0.356 4.667-0.356 7.204 0 29.022 16.897 54.097 41.39 65.924l0.437 0.19 877.722 415.744c9.166 4.443 19.937 7.040 31.314 7.040 20.203 0 38.493-8.188 51.733-21.427v0c13.233-13.247 21.416-31.539 21.416-51.743 0-11.372-2.593-22.139-7.22-31.741l0.19 0.438-415.744-877.67c-11.938-24.965-36.948-41.926-65.931-42.035h-0.015zM289.382 492.544l171.315-42.854c26.253-6.674 46.522-26.944 53.088-52.692l0.109-0.505 42.854-171.315 240.64 507.904z" />
<glyph unicode="&#xe92f;" glyph-name="lock-01" horiz-adv-x="819" d="M153.6 550.4v153.6c0 141.385 114.615 256 256 256s256-114.615 256-256v0-153.6h51.2c56.554 0 102.4-45.846 102.4-102.4v0-409.6c0-56.554-45.846-102.4-102.4-102.4v0h-614.4c-56.554 0-102.4 45.846-102.4 102.4v0 409.6c0 56.554 45.846 102.4 102.4 102.4v0zM102.4 448v-409.6h614.4v409.6zM256 550.4h307.2v153.6c0 84.831-68.769 153.6-153.6 153.6s-153.6-68.769-153.6-153.6v0zM341.35 320h128v-170.65h-128v170.65z" />
<glyph unicode="&#xe930;" glyph-name="lock-02" horiz-adv-x="819" d="M153.6 550.4v153.6c0 141.385 114.615 256 256 256s256-114.615 256-256v0-153.6h51.2c56.554 0 102.4-45.846 102.4-102.4v0-409.6c0-56.554-45.846-102.4-102.4-102.4v0h-614.4c-56.554 0-102.4 45.846-102.4 102.4v0 409.6c0 56.554 45.846 102.4 102.4 102.4v0h51.2zM102.4 448v-409.6h614.4v409.6zM256 550.4h307.2v153.6c0 84.831-68.769 153.6-153.6 153.6s-153.6-68.769-153.6-153.6v0 0z" />
<glyph unicode="&#xe931;" glyph-name="logout" d="M1011.598 542.037l-147.911 148.935c-7.157 8.169-17.371 13.506-28.838 14.216l-0.119 0.006c-0.991 0.088-2.143 0.138-3.308 0.138-10.548 0-20.138-4.101-27.263-10.795l0.021 0.020c-8.703-7.853-14.149-19.171-14.149-31.761 0-10.855 4.048-20.765 10.718-28.302l-0.039 0.045c1.081-1.195 2.276-2.332 2.958-2.958l76.629-77.198h-274.66c-23.309-0.129-42.155-19.055-42.155-42.382 0 0 0 0 0-0.001v0c0-0.017 0-0.038 0-0.058 0-23.37 18.864-42.334 42.196-42.495h274.504l-76.004-76.516c-8.859-7.865-14.413-19.282-14.413-31.997 0-10.692 3.928-20.467 10.419-27.96l-0.045 0.053c7.073-8.264 17.258-13.688 28.719-14.443l0.124-0.007c0.451-0.028 0.977-0.043 1.508-0.043s1.057 0.016 1.58 0.047l-0.072-0.003c10.67 0.005 20.407 3.995 27.805 10.562l-0.043-0.038c1.221 1.078 2.336 2.192 3.378 3.373l0.035 0.041 147.911 148.878c1.28 1.199 2.469 2.443 3.588 3.748l0.053 0.063 8.533 18.375c0.522 2.503 0.821 5.378 0.821 8.324 0 11.768-4.771 22.422-12.483 30.133v0zM616.22 367.73c-23.309-0.129-42.155-19.055-42.155-42.382 0-0.040 0-0.080 0-0.121v0.006-137.614c0.005-0.227 0.008-0.494 0.008-0.762 0-20.844-16.535-37.827-37.204-38.547l-0.066-0.002h-116.053v632.604c0.002 0.204 0.002 0.444 0.002 0.685 0 40.998-25.511 76.037-61.524 90.111l-0.658 0.226-1.991 0.626h180.224c20.801-0.563 37.448-17.559 37.448-38.444 0-0.385-0.006-0.768-0.017-1.15l0.001 0.056v-137.045c-0.010-0.345-0.016-0.75-0.016-1.157 0-23.267 18.5-42.212 41.592-42.93l0.066-0.002h0.569c23.273 0.537 41.935 19.531 41.935 42.883 0 0.284-0.003 0.567-0.008 0.85l0.001-0.042v137.102c0.018 0.792 0.028 1.725 0.028 2.66 0 67.657-53.93 122.718-121.147 124.54l-0.168 0.004h-445.611c-50.811-1.324-91.497-42.829-91.497-93.837 0-0.671 0.007-1.34 0.021-2.007l-0.002 0.1v-749.113c-0.001-0.197-0.002-0.43-0.002-0.664 0-41.019 25.537-76.074 61.58-90.133l0.658-0.226 238.364-83.513c8.418-2.886 18.116-4.551 28.203-4.551 0.085 0 0.17 0 0.254 0h0.271c50.812 1.323 91.498 42.829 91.498 93.837 0 0.691-0.007 1.379-0.022 2.066l0.002-0.102v29.070h116.565c67.247 1.92 121.029 56.892 121.029 124.425 0 0.897-0.009 1.792-0.028 2.684l0.002-0.133v137.216c0.001 0.118 0.002 0.258 0.002 0.399 0 23.316-18.854 42.229-42.147 42.325h-0.009zM336.555 781.084v-749.454c-0.249-4.481-3.943-8.020-8.464-8.020-0.487 0-0.963 0.041-1.428 0.12l0.050-0.007-236.715 82.944c-3.334 1.358-5.649 4.557-5.689 8.301v749.516c-0.002 0.068-0.003 0.148-0.003 0.228 0 4.297 3.452 7.788 7.734 7.85h0.006c0.325 0.053 0.699 0.083 1.081 0.083s0.756-0.030 1.121-0.089l-0.040 0.005 236.43-82.83c3.486-1.329 5.917-4.644 5.917-8.527 0-0.042 0-0.085-0.001-0.127v0.006z" />
<glyph unicode="&#xe932;" glyph-name="mail" horiz-adv-x="1248" d="M1072 960h-896c-96.993-0.542-175.467-79.061-175.936-176.019v-672.045c0.577-96.934 79.002-175.359 175.881-175.936h896.055c97.001 0.578 175.467 79.112 175.936 176.083v672.045c-0.613 96.906-79.024 175.295-175.881 175.872h-0.055zM128.448 656.64l458.304-328.192c10.379-7.487 23.353-11.974 37.376-11.974s26.997 4.487 37.566 12.104l-0.19-0.13 458.304 328.192v-544c-0.108-26.399-21.425-47.783-47.787-48h-895.701c-26.399 0.108-47.783 21.425-48 47.787v0.021zM624.128 459.52l-487.744 349.312c8.313 13.701 23.029 22.791 39.891 23.103l0.045 0.001h895.36c16.928-0.303 31.667-9.394 39.881-22.893l0.119-0.211z" />
<glyph unicode="&#xe933;" glyph-name="male" d="M1023.261 908.063c-0.504 3.88-1.301 7.361-2.392 10.71l0.117-0.414-1.536 4.608c-2.813 6.177-6.24 11.498-10.315 16.246l0.076-0.090c-3.449 4.018-7.316 7.524-11.576 10.506l-0.199 0.132c-5.007 3.173-10.779 5.843-16.899 7.717l-0.508 0.134c-4.861 1.464-10.453 2.333-16.239 2.389h-287.53c-0.446 0.012-0.971 0.019-1.498 0.019-32.737 0-59.375-26.113-60.221-58.646l-0.002-0.078c-0.012-0.447-0.019-0.972-0.019-1.5 0-32.717 26.081-59.343 58.587-60.22l0.081-0.002h145.059l-200.465-200.465c-63.341 46.584-142.885 74.55-228.961 74.55-128.678 0-242.759-62.5-313.541-158.799l-0.757-1.080c-46.584-63.341-74.55-142.885-74.55-228.961 0-128.678 62.5-242.759 158.799-313.541l1.080-0.757c63.151-46.438 142.406-74.384 228.18-74.577h0.046c15.512 0.018 30.796 0.906 45.83 2.618l-1.857-0.172c195.358 22.455 345.655 186.881 345.655 386.411 0 15.217-0.874 30.229-2.575 44.99l0.169-1.8c-8.098 70.593-33.976 133.92-73.001 186.98l0.756-1.077 200.465 200.465v-142.214c-0.013-0.463-0.020-1.008-0.020-1.555 0-32.738 26.114-59.376 58.648-60.221l0.078-0.002c0.447-0.012 0.972-0.019 1.5-0.019 32.717 0 59.343 26.081 60.22 58.587l0.002 0.081v292.962zM199.214 135.214c-48.554 48.583-78.583 115.684-78.583 189.799s30.029 141.216 78.584 189.801l-0.001-0.001c48.555 48.562 115.619 78.616 189.703 78.673h0.011c148.146-0.065 268.216-120.175 268.216-268.33 0-0.060 0-0.12 0-0.18v0.010c-0.032-148.118-120.097-268.184-268.213-268.216h-0.003c-0.314-0.001-0.684-0.002-1.056-0.002-73.803 0-140.601 29.986-188.878 78.44l-0.008 0.008z" />
<glyph unicode="&#xe934;" glyph-name="maximise" d="M865.621-64h-151.552c-31.67 0-57.344 25.674-57.344 57.344 0 0.020 0 0.040 0 0.060v-0.003c0 0.017 0 0.037 0 0.057 0 31.67 25.674 57.344 57.344 57.344 0 0 0 0 0 0h151.552c24.085 0.032 43.601 19.549 43.634 43.631v151.498c0 31.702 25.699 57.401 57.401 57.401v0c31.67 0 57.344-25.674 57.344-57.344 0-0.020 0-0.040 0-0.060v0.003-151.495c-0.097-87.442-70.941-158.306-158.366-158.436h-0.013zM309.988-64h-151.552c-87.462 0.097-158.339 70.973-158.436 158.426v151.504c0 31.702 25.699 57.401 57.401 57.401v0c31.702 0 57.401-25.699 57.401-57.401v0-151.495c0.032-24.085 19.549-43.601 43.631-43.634h151.555c31.677-0.032 57.344-25.719 57.344-57.401v0c0-31.682-25.667-57.368-57.341-57.401h-0.003zM966.656 592.725c-0.017 0-0.037 0-0.057 0-31.67 0-57.344 25.674-57.344 57.344 0 0 0 0 0 0v0 151.552c-0.032 24.085-19.549 43.601-43.631 43.634h-151.555c-31.67 0-57.344 25.674-57.344 57.344 0 0.020 0 0.040 0 0.060v-0.003c0 31.67 25.674 57.344 57.344 57.344v0h151.552c87.431-0.097 158.281-70.947 158.379-158.369v-151.561c0-31.67-25.674-57.344-57.344-57.344v0zM57.401 592.725c-31.682 0-57.368 25.667-57.401 57.341v151.555c0.129 87.438 70.993 158.282 158.426 158.379h151.561c31.67 0 57.344-25.674 57.344-57.344v0c0-31.682-25.667-57.368-57.341-57.401h-151.555c-24.085-0.032-43.601-19.549-43.634-43.631v-151.555c0-31.67-25.674-57.344-57.344-57.344-0.020 0-0.040 0-0.060 0h0.003z" />
<glyph unicode="&#xe935;" glyph-name="meatball-menu" horiz-adv-x="4710" d="M2867.106 448c0-282.77-229.23-512-512-512s-512 229.23-512 512c0 282.77 229.23 512 512 512s512-229.23 512-512zM1024 448c0-282.77-229.23-512-512-512s-512 229.23-512 512c0 282.77 229.23 512 512 512s512-229.23 512-512zM4710.212 448c0-282.77-229.23-512-512-512s-512 229.23-512 512c0 282.77 229.23 512 512 512s512-229.23 512-512z" />
<glyph unicode="&#xe936;" glyph-name="minimise" d="M714.297-64c-31.419 0-56.889 25.47-56.889 56.889v0 151.723c0.097 87.222 70.762 157.908 157.968 158.037h151.735c31.419 0 56.889-25.47 56.889-56.889v0c0-31.419-25.47-56.889-56.889-56.889v0h-151.723c-24.406-0.065-44.17-19.849-44.203-44.257v-151.726c0-31.419-25.47-56.889-56.889-56.889v0zM309.76-64c-31.419 0-56.889 25.47-56.889 56.889v0 151.723c-0.032 24.431-19.829 44.227-44.256 44.26h-151.726c-31.419 0-56.889 25.47-56.889 56.889v0c0 31.419 25.47 56.889 56.889 56.889v0h151.723c87.243-0.097 157.94-70.795 158.037-158.028v-151.732c0-31.419-25.47-56.889-56.889-56.889-0.020 0-0.040 0-0.060 0h0.003zM967.111 593.465h-151.723c-87.211 0.097-157.883 70.769-157.98 157.971v151.675c0 31.419 25.47 56.889 56.889 56.889v0c31.419 0 56.889-25.47 56.889-56.889v0-151.438c0.032-24.399 19.803-44.17 44.2-44.203h151.726c31.419 0 56.889-25.47 56.889-56.889v0c0-0.068 0-0.148 0-0.228 0-31.419-25.47-56.889-56.889-56.889 0 0 0 0 0 0v0zM208.668 593.465h-151.78c-31.419 0-56.889 25.47-56.889 56.889v0c0 31.419 25.47 56.889 56.889 56.889v0h151.723c24.399 0.032 44.17 19.803 44.203 44.2v151.669c0 31.419 25.47 56.889 56.889 56.889v0c31.419 0 56.889-25.47 56.889-56.889v0-151.723c-0.162-87.154-70.77-157.762-157.908-157.924h-0.015z" />
<glyph unicode="&#xe937;" glyph-name="minus" horiz-adv-x="5802" d="M2389.011-64h-1877.172c-282.681 0-511.839 229.158-511.839 511.839v0c0 282.746 229.119 511.978 511.822 512.161h4778.039c282.72-0.184 511.839-229.416 511.839-512.161 0 0 0-0.001 0-0.001v0.001c0-282.681-229.158-511.839-511.839-511.839v0h-2900.85z" />
<glyph unicode="&#xe938;" glyph-name="mobile" horiz-adv-x="791" d="M682.667 960h-574.065c-60.088 0-108.799-48.711-108.799-108.799v0-806.797c0-60.088 48.711-108.799 108.799-108.799h574.065c60.088 0 108.799 48.711 108.799 108.799v0 806.995c-0.113 60.003-48.781 108.602-108.799 108.602 0 0 0 0 0 0v0zM698.195 44.602c-0.028-8.555-6.97-15.479-15.529-15.479 0 0 0 0 0 0h-574.065c-8.549 0-15.479 6.93-15.479 15.479v0 806.797c0 0 0 0 0 0 0 8.559 6.924 15.5 15.476 15.529h574.068c8.565-0.028 15.501-6.964 15.529-15.526v-0.003zM418.927 246.326h-31.057c-25.701 0-46.536-20.835-46.536-46.536v0c0-25.701 20.835-46.536 46.536-46.536v0h31.057c25.701 0 46.536 20.835 46.536 46.536v0c0 25.701-20.835 46.536-46.536 46.536v0z" />
<glyph unicode="&#xe939;" glyph-name="moon" d="M995.021 456.653c-8.040 4.611-17.676 7.331-27.946 7.331-12.724 0-24.473-4.174-33.953-11.227l0.152 0.108c-48.819-36.386-110.324-58.255-176.936-58.255-164.487 0-297.83 133.343-297.83 297.83 0 66.613 21.869 128.117 58.818 177.727l-0.563-0.791c6.897 9.296 11.041 20.994 11.041 33.661 0 10.205-2.69 19.782-7.399 28.060l0.147-0.281c-10.076 17.411-28.614 28.936-49.843 28.936-1.739 0-3.461-0.077-5.161-0.229l0.22 0.016c-262.363-24.815-466.003-244.012-466.003-510.771s203.641-485.956 463.946-510.614l2.057-0.157q24.115-2.253 48.077-2.253c266.325 0.54 484.977 203.931 509.691 463.856l0.159 2.064c0.17 1.65 0.267 3.565 0.267 5.502 0 21.128-11.54 39.561-28.661 49.34l-0.279 0.147zM768 141.978c-68.769-57.702-158.237-92.753-255.892-92.753-220.56 0-399.36 178.8-399.36 399.36 0 167.495 103.114 310.907 249.325 370.219l2.676 0.959c-12.765-37.99-20.131-81.736-20.131-127.204 0-227.517 184.439-411.955 411.955-411.955 45.424 0 89.132 7.352 129.997 20.931l-2.909-0.838c-25.786-63.5-65.266-116.809-115.015-158.198l-0.645-0.522z" />
<glyph unicode="&#xe93a;" glyph-name="neutral-1" horiz-adv-x="6144" d="M5601.963-64h-5059.925c-282.77 0-512 229.23-512 512s229.23 512 512 512v0h5059.925c282.77 0 512-229.23 512-512s-229.23-512-512-512v0z" />
<glyph unicode="&#xe93b;" glyph-name="neutral-circle" d="M512.025-64c-282.734 0.029-511.923 229.237-511.923 511.974 0 282.756 229.219 511.974 511.974 511.974s511.974-229.219 511.974-511.974v0c-0.348-282.634-229.388-511.656-511.996-511.974h-0.030zM512.025 854.065c-224.25 0-406.040-181.79-406.040-406.040s181.79-406.040 406.040-406.040c224.232 0 406.011 181.761 406.040 405.986v0.003c-0.232 224.167-181.878 405.83-406.015 406.091h-0.025zM653.255 395.033h-282.458c-0.49-0.016-1.066-0.026-1.644-0.026-29.267 0-52.993 23.726-52.993 52.993s23.726 52.993 52.993 52.993c0.578 0 1.154-0.009 1.728-0.028l-0.084 0.002h282.458c0.49 0.016 1.066 0.026 1.644 0.026 29.267 0 52.993-23.726 52.993-52.993s-23.726-52.993-52.993-52.993c-0.578 0-1.154 0.009-1.728 0.028l0.084-0.002z" />
<glyph unicode="&#xe93c;" glyph-name="neutral" d="M512-64c-282.77 0-512 229.23-512 512v0c0 282.77 229.23 512 512 512v0c282.77 0 512-229.23 512-512v0 0c-0.32-282.641-229.359-511.68-511.969-512h-0.031zM512 857.6c-226.216 0-409.6-183.384-409.6-409.6v0c0-226.216 183.384-409.6 409.6-409.6v0c226.216 0 409.6 183.384 409.6 409.6v0 0c-0.233 226.122-183.478 409.367-409.578 409.6h-0.022zM374.323 534.682c-0.061 0-0.133 0-0.206 0-28.339 0-51.332 22.886-51.506 51.184v0.017c0 0.061 0 0.133 0 0.206 0 28.339 22.886 51.332 51.184 51.506h0.427c28.425-0.029 51.456-23.078 51.456-51.507 0-0.036 0-0.072 0-0.108v0.006c-0.116-28.305-23.045-51.216-51.345-51.302h-0.008zM650.65 534.682c-0.076 0-0.167-0.001-0.257-0.001-28.339 0-51.332 22.886-51.506 51.184v0.017c0 0.061 0 0.134 0 0.206 0 28.349 22.88 51.354 51.181 51.557h0.48c0.030 0 0.066 0 0.102 0 28.429 0 51.478-23.031 51.507-51.453v-0.003c0-0.015 0-0.033 0-0.051 0-28.429-23.031-51.478-51.453-51.507h-0.003zM697.344 258.406h-370.688c-0.076 0-0.167-0.001-0.257-0.001-28.277 0-51.2 22.923-51.2 51.2 0 0.126 0 0.252 0.001 0.378v-0.019c0.029 28.407 23.049 51.427 51.453 51.456h370.691c28.425-0.029 51.456-23.078 51.456-51.507 0-0.036 0-0.072 0-0.108v0.006c0-0.061 0-0.133 0-0.205 0-28.277-22.923-51.2-51.2-51.2-0.090 0-0.18 0-0.27 0.001h0.014z" />
<glyph unicode="&#xe93d;" glyph-name="news" d="M864 702.003c0 0.015 0 0.033 0 0.051 0 22.056-17.88 39.936-39.936 39.936h-465.92c-22.098 0-40.013-17.914-40.013-40.013s17.914-40.013 40.013-40.013v0h465.92c0.046 0 0.1 0 0.154 0 22.030 0 39.9 17.816 39.987 39.826v0.008zM866.048 328.243c0 22.084-17.903 39.987-39.987 39.987v0h-156.058c-21.488-0.793-38.607-18.404-38.607-40.013s17.119-39.22 38.535-40.011l0.072-0.002h156.058c22.084 0 39.987 17.903 39.987 39.987v0zM552.038 328.243c-0.116 21.996-17.974 39.782-39.987 39.782-0.018 0-0.036 0-0.055 0h-154.007c-0.427 0.016-0.928 0.026-1.432 0.026-22.113 0-40.038-17.926-40.038-40.038s17.926-40.038 40.038-40.038c0.503 0 1.005 0.009 1.504 0.028l-0.072-0.002h154.010c0.015 0 0.033 0 0.051 0 22.066 0 39.958 17.874 39.987 39.933v0.003zM552.038 168.192c0 22.084-17.903 39.987-39.987 39.987v0h-154.010c-0.427 0.016-0.928 0.026-1.432 0.026-22.113 0-40.038-17.926-40.038-40.038s17.926-40.038 40.038-40.038c0.503 0 1.005 0.009 1.504 0.028l-0.072-0.002h153.958c0 0 0 0 0 0 22.077 0 39.98 17.867 40.038 39.93v0.006zM784.026 168.192c0 22.084-17.903 39.987-39.987 39.987v0h-74.035c-21.488-0.793-38.607-18.404-38.607-40.013s17.119-39.22 38.535-40.011l0.072-0.002h74.035c22.084 0 39.987 17.903 39.987 39.987v0zM825.907 448.205h-289.894c-21.488 0.793-38.607 18.404-38.607 40.013s17.119 39.22 38.535 40.011l0.072 0.002h290.048c21.488-0.793 38.607-18.404 38.607-40.013s-17.119-39.22-38.535-40.011l-0.072-0.002zM318.003 492.186c0-27.627 22.396-50.022 50.022-50.022s50.022 22.396 50.022 50.022c0 27.627-22.396 50.022-50.022 50.022v0c-0.015 0-0.033 0-0.051 0-27.598 0-49.971-22.373-49.971-49.971 0-0.018 0-0.036 0-0.054v0.003zM784.026 960h-385.997c-132.498-0.116-239.88-107.481-240.026-239.961v-108.046c-90.936-19.91-158.004-99.764-158.004-195.282 0-0.25 0-0.5 0.001-0.75v0.039-239.974c0.146-132.504 107.522-239.88 240.012-240.026h544.014c132.482 0.175 239.829 107.54 239.974 240.012v544.014c-0.146 132.476-107.499 239.829-239.961 239.974h-0.014zM944.026 176.026c-0.058-88.352-71.652-159.964-159.992-160.051h-544.008c-88.348 0.087-159.942 71.699-160 160.046v239.98c-0.010 0.563-0.015 1.228-0.015 1.894 0 50.897 32.108 94.295 77.174 111.043l0.819 0.267v-361.216c0.793-21.488 18.404-38.607 40.013-38.607s39.22 17.119 40.011 38.535l0.002 0.072v552.038c0.087 88.341 71.663 159.935 159.989 160.051h386.008c88.348-0.087 159.942-71.699 160-160.046v-0.006z" />
<glyph unicode="&#xe93e;" glyph-name="other-gender" horiz-adv-x="694" d="M693.965 612.71c0.001 0.363 0.002 0.792 0.002 1.221 0 95.57-38.873 182.061-101.67 244.524l-0.015 0.015c-62.688 62.702-149.276 101.507-244.927 101.581h-0.014c-0.106 0-0.233 0-0.359 0-191.507 0-346.778-155.145-346.982-346.605v-0.019c0-0.046 0-0.102 0-0.157 0-170.563 123.12-312.369 285.335-341.394l2.102-0.312v-106.394c-40.45-19.755-67.943-60.361-68.505-107.445l-0.001-0.075c1.891-67.521 57.079-121.537 124.882-121.537 1.096 0 2.189 0.014 3.279 0.042l-0.161-0.003h0.461c0.806-0.019 1.755-0.029 2.707-0.029 67.761 0 122.912 53.993 124.777 121.303l0.004 0.172c-0.523 47.118-27.934 87.711-67.591 107.205l-0.71 0.315v106.445c164.107 29.325 287.106 170.83 287.386 341.115v0.030zM346.778 368.486c-134.991 0.117-244.378 109.575-244.378 244.582 0 0.072 0 0.144 0 0.216v-0.011c0.146 134.969 109.593 244.327 244.582 244.327 0.090 0 0.18 0 0.27 0h-0.014c67.44-0.080 128.469-27.459 172.644-71.678l0.002-0.002c44.279-44.070 71.681-105.065 71.681-172.459 0-0.264 0-0.527-0.001-0.791v0.040c-0.175-134.919-109.588-244.224-244.531-244.224-0.090 0-0.18 0-0.27 0h0.014z" />
<glyph unicode="&#xe93f;" glyph-name="other" d="M512-64c-282.77 0-512 229.23-512 512v0c0 282.77 229.23 512 512 512v0c282.77 0 512-229.23 512-512v0 0c-0.349-282.629-229.37-511.65-511.966-512h-0.034zM512 857.6c-226.216 0-409.6-183.384-409.6-409.6v0c0-226.216 183.384-409.6 409.6-409.6v0c226.216 0 409.6 183.384 409.6 409.6v0 0c-0.204 226.134-183.467 409.396-409.581 409.6h-0.019zM375.501 529.92c-0.061 0-0.133 0-0.205 0-30.382 0-55.026 24.572-55.142 54.927v0.011c-0.001 0.091-0.001 0.199-0.001 0.307 0 30.344 24.555 54.953 54.879 55.040h0.469c30.454 0 55.142-24.688 55.142-55.142v0c-0.029-30.443-24.7-55.113-55.14-55.142h-0.003zM649.574 529.92c-0.061 0-0.133 0-0.206 0-30.375 0-55.019 24.536-55.193 54.87v0.017c0 0.076-0.001 0.166-0.001 0.257 0 30.365 24.543 54.997 54.873 55.142h0.526c30.454 0 55.142-24.688 55.142-55.142v0c-0.029-30.443-24.7-55.113-55.14-55.142h-0.003z" />
<glyph unicode="&#xe940;" glyph-name="pen" d="M1021.042 639.204l-316.7 316.757c-2.527 2.5-6.004 4.045-9.842 4.045s-7.315-1.545-9.843-4.046l-118.897-118.954c-11.995-9.623-19.848-23.983-20.702-40.198l-0.006-0.136c0.401-8.835 3.080-16.969 7.458-23.926l-0.119 0.203c-11.348-6.587-24.727-12.995-38.617-18.376l-2.001-0.682c-52.778-20.261-115.071-37.141-179.477-47.752l-5.696-0.775c-33.678-5.973-68.267-10.923-105.643-15.189-19.461-2.168-35.006-16.615-38.807-35.327l-0.048-0.286q-18.432-69.006-37.376-137.614l-17.067-62.919q-61.44-225.792-123.164-451.243c0-0.796-0.398-1.707-0.74-3.47-2.139-2.48-3.464-5.716-3.527-9.26v-18.9c-0.002-0.089-0.004-0.194-0.004-0.3 0-2.225 0.57-4.317 1.573-6.138l-0.033 0.066c6.258-13.36 17.729-23.399 31.723-27.611l0.363-0.094c2.916-0.667 6.27-1.060 9.713-1.081h0.015c7.187 0.349 13.948 1.634 20.338 3.738l-0.541-0.154 2.958 0.967q188.416 51.541 377.003 102.798l275.399 75.036c18.986 3.626 33.47 19.114 35.539 38.32l0.017 0.193c3.868 32.427 7.509 58.994 11.378 83.684 11.038 72.921 27.319 137.733 49.047 199.989l-2.341-7.705c7.351 21.411 15.711 39.711 25.597 57.027l-0.85-1.617c6.167-4.24 13.664-6.986 21.761-7.558l0.141-0.008c0.908-0.066 1.966-0.104 3.034-0.104 11.186 0 21.407 4.134 29.218 10.957l-0.052-0.045c2.277 1.934 4.263 4.101 5.957 6.491l0.073 0.109 44.316 44.316 39.083 38.912c0.955 0.846 1.813 1.758 2.583 2.743l0.034 0.045 36.636 36.636c2.573 2.476 4.181 5.94 4.21 9.779v0.005c0 0.012 0 0.025 0 0.039 0 3.277-1.16 6.284-3.091 8.632l0.019-0.024zM423.708 329.5v-2.105c0.141-1.043 0.222-2.248 0.222-3.473 0-13.804-10.264-25.211-23.577-27.004l-0.14-0.015c-1.068-0.163-2.301-0.256-3.556-0.256s-2.487 0.093-3.692 0.272l0.136-0.017h-2.389c-0.955-0.119-2.060-0.187-3.181-0.187-6.392 0-12.266 2.214-16.898 5.918l0.054-0.042c-5.516 4.325-9.278 10.67-10.17 17.903l-0.013 0.131c-0.15 1.289-0.235 2.782-0.235 4.295s0.085 3.006 0.252 4.475l-0.017-0.18c-0.039 0.596-0.061 1.293-0.061 1.994 0 8.105 2.974 15.516 7.89 21.201l-0.035-0.041c6.010 4.925 13.775 7.909 22.237 7.909 1.003 0 1.997-0.042 2.979-0.124l-0.128 0.009c0.967 0.122 2.085 0.191 3.22 0.191 13.874 0 25.326-10.368 27.031-23.779l0.014-0.135c0.223-1.455 0.35-3.134 0.35-4.842 0-0.738-0.024-1.471-0.071-2.198l0.005 0.099zM346.795 218.453c13.303-6.241 28.89-9.883 45.327-9.883 20.097 0 38.922 5.445 55.081 14.939l-0.511-0.278c39.091 19.797 65.42 59.674 65.42 105.701 0 19.109-4.538 37.157-12.596 53.127l0.31-0.677c-14.287 28.138-38.651 49.43-68.227 59.376l-0.836 0.244c-11.578 4.349-24.959 6.867-38.929 6.867-36.787 0-69.496-17.459-90.295-44.542l-0.199-0.27c-18.084-19.162-29.199-45.070-29.199-73.574 0-17.318 4.103-33.677 11.39-48.159l-0.281 0.617-152.917-152.576 51.2 186.539c26.283 96.37 52.452 192.796 77.995 290.133 0.579 0.189 1.271 0.348 1.982 0.448l0.066 0.008c108.256 12.522 206.92 37.202 300.091 72.966l-8.365-2.822c23.657 9.451 43.856 19.914 62.872 32.065l-1.489-0.89 156.956-157.127q-10.012-16.156-18.432-33.166c-24.257-51.313-44.403-111.148-57.438-173.592l-0.93-5.323c-9.183-37.736-17.846-85.863-23.986-134.776l-0.704-6.877h-0.398l-473.6-128.683z" />
<glyph unicode="&#xe941;" glyph-name="phone" d="M763.506 423.481c-33.451 0-68.836-25.998-108.089-79.644-126.054 17.732-226.894 108.618-259.025 227.703l-0.502 2.185c62.293 49.152 95.516 91.932 98.702 127.26-3.382 59.527-29.441 112.383-69.593 150.552l-0.096 0.090c-45.532 56.523-110.429 95.837-184.482 107.859l-1.715 0.23c-92.103 0-200.533-136.533-221.867-207.929-54.727-182.67 21.22-359.026 253.952-589.71 153.6-152.292 290.702-226.361 419.1-226.361v0c55.229 0.712 107.475 12.702 154.793 33.762l-2.502-0.994c53.476 21.845 181.646 109.34 181.646 195.982 0.398 101.888-158.094 259.015-260.324 259.015zM238.876 857.145c44.699-13.878 82.241-39.926 109.913-74.262l0.337-0.433c19.515-18.605 34.37-41.925 42.747-68.14l0.317-1.15c-24.077-29.069-51.459-54.174-81.886-75.184l-1.342-0.876c-13.041-9.401-21.431-24.549-21.431-41.656 0-2.908 0.242-5.76 0.708-8.535l-0.042 0.3c32.402-192.405 193.138-338.643 389.792-348.406l0.978-0.039c0.615-0.026 1.337-0.042 2.063-0.042 17.906 0 33.666 9.192 42.817 23.116l0.119 0.194c14.014 21.735 29.494 40.614 46.867 57.564l0.066 0.064c50.005-10.866 150.244-112.811 150.244-154.852-28.862-43.995-68.837-78.542-115.992-100.106l-1.711-0.701c-105.7-43.236-234.496-52.281-460.174 171.463-253.952 251.676-257.65 387.47-227.84 487.083 24.8 58.547 68.019 105.278 122.274 133.897l1.459 0.702z" />
<glyph unicode="&#xe942;" glyph-name="photos" d="M666.112 452.38h0.853c0.018 0 0.038 0 0.059 0 82.874 0 150.106 66.973 150.526 149.748v0.040c-0.25 83.038-67.094 150.381-149.916 151.437l-0.1 0.001h-0.569c-82.128-1.389-148.172-68.293-148.172-150.622 0-82.029 65.564-148.744 147.146-150.602l0.173-0.003zM706.901 563.371c-10.146-10.225-24.204-16.555-39.741-16.555-0.028 0-0.057 0-0.085 0h0.004c-30.863 0.282-55.837 25.097-56.376 55.871l-0.001 0.051c0 0.068 0 0.148 0 0.228 0 30.951 25.042 56.052 55.97 56.149h0.009c31.009-0.085 56.113-25.242 56.113-56.263 0-15.443-6.222-29.432-16.295-39.599l0.004 0.004zM891.051 960h-758.044c-73.398-0.097-132.877-59.555-133.006-132.937v-758.057c0.129-73.405 59.601-132.877 132.994-133.006h758.056c73.394 0.129 132.852 59.608 132.949 132.997v758.053c-0.097 73.387-59.563 132.852-132.94 132.949h-0.009zM105.984 827.051c0 0 0 0 0 0 0 15.061 12.193 27.274 27.247 27.307h757.82c15.057-0.032 27.25-12.246 27.25-27.307 0 0 0 0 0 0v0-602.283l-72.42 57.742c-19.849 18.13-46.382 29.237-75.51 29.237-27.204 0-52.145-9.688-71.562-25.802l0.185 0.149-116.85-84.651c-1.041-1.172-2.241-2.173-3.572-2.977l-0.069-0.039c-2.815-1.894-6.282-3.023-10.012-3.023-1.35 0-2.666 0.148-3.932 0.429l0.12-0.022c-5.448 1.379-9.931 4.786-12.691 9.351l-0.052 0.092-113.323 113.323c-1.764 2.048-3.641 3.982-5.689 5.689-20.23 20.447-48.295 33.109-79.316 33.109-0.015 0-0.031 0-0.046 0h-0.339c-0.147 0.001-0.321 0.001-0.494 0.001-30.509 0-58.14-12.323-78.188-32.262l0.005 0.005-168.846-142.677z" />
<glyph unicode="&#xe943;" glyph-name="pin" horiz-adv-x="857" d="M428.646-64c-11.070 0.004-21.353 3.37-29.886 9.132l0.19-0.121c-16.333 10.854-398.95 269.568-398.95 586.342 0 236.735 191.912 428.646 428.646 428.646s428.646-191.912 428.646-428.646v0c0-316.774-382.618-575.488-398.95-586.342-8.343-5.641-18.626-9.007-29.695-9.011h-0.001zM428.646 852.838c-177.469-0.204-321.281-144.016-321.485-321.466v-0.019c0-213.914 236.698-411.699 321.485-475.648 84.787 63.949 321.485 261.734 321.485 475.648-0.204 177.469-144.016 321.281-321.466 321.485h-0.019zM428.646 406.323c-0.015 0-0.033 0-0.051 0-74.991 0-135.782 60.792-135.782 135.782s60.792 135.782 135.782 135.782c74.991 0 135.782-60.792 135.782-135.782 0-0.018 0-0.036 0-0.054v0.003c-0.087-74.927-60.804-135.644-135.723-135.731h-0.009zM428.646 570.675c-0.015 0-0.033 0-0.051 0-15.807 0-28.621-12.814-28.621-28.621s12.814-28.621 28.621-28.621c15.807 0 28.621 12.814 28.621 28.621v0c0 0 0 0 0 0 0 15.789-12.785 28.592-28.567 28.621h-0.003z" />
<glyph unicode="&#xe944;" glyph-name="play" horiz-adv-x="819" d="M793.6 494.643c15.529-9.931 25.676-27.085 25.676-46.609 0-11.645-3.609-22.446-9.77-31.347l0.12 0.183c-4.327-6.145-9.657-11.263-15.802-15.225l-0.224-0.135-703.949-455.987c-8.978-5.836-19.962-9.307-31.755-9.307-19.873 0-37.445 9.854-48.095 24.943l-0.124 0.185c-5.936 8.604-9.506 19.238-9.574 30.703v911.889c0.315 31.175 25.661 56.326 56.88 56.326 0.289 0 0.577-0.002 0.865-0.006l-0.044 0.001c0.016 0 0.034 0 0.052 0 11.873 0 22.925-3.514 32.173-9.559l-0.225 0.138z" />
<glyph unicode="&#xe945;" glyph-name="point" d="M511.949-64c-282.629 0.349-511.65 229.37-512 511.966v0.034c0.32 282.641 229.359 511.68 511.969 512h0.031c282.641-0.32 511.68-229.359 512-511.969v-0.031c-0.349-282.629-229.37-511.65-511.966-512h-0.034zM511.949 857.6c-226.099-0.291-409.309-183.501-409.6-409.572v-0.028c0.291-226.099 183.501-409.309 409.572-409.6h0.028c226.11 0.262 409.338 183.489 409.6 409.574v0.026c-0.262 226.11-183.489 409.338-409.574 409.6h-0.026zM511.949 704v0c141.385 0 256-114.615 256-256v0 0c0-141.385-114.615-256-256-256v0 0c-141.385 0-256 114.615-256 256v0 0c0 141.385 114.615 256 256 256v0zM511.949 192c-141.314 0.175-255.825 114.685-256 255.983v0.017c0.175 141.314 114.685 255.825 255.983 256h0.017c141.385 0 256-114.615 256-256v0c0-141.385-114.615-256-256-256v0z" />
<glyph unicode="&#xe946;" glyph-name="profile" horiz-adv-x="922" d="M852.019-64c-0.091 0-0.2-0.001-0.308-0.001-38.151 0-69.099 30.84-69.273 68.95v98.065c0 0.107 0.001 0.233 0.001 0.359 0 69.888-56.554 126.567-126.394 126.771h-390.931c-69.664-0.349-126.003-56.903-126.003-126.616 0-0.037 0-0.073 0-0.11v0.006-98.458c-0.174-38.127-31.122-68.967-69.273-68.967-0.108 0-0.216 0-0.325 0.001h0.017c-0.091 0-0.199-0.001-0.308-0.001-38.141 0-69.077 30.847-69.222 68.953v98.062c0.174 146.184 118.545 264.662 264.671 265.011h391.764c146.426-0.204 265.055-118.923 265.114-265.364v-97.696c-0.145-38.121-31.081-68.967-69.222-68.967-0.108 0-0.216 0-0.324 0.001h0.017zM456.243 434.586c-144.098 0.784-260.609 117.779-260.609 261.987 0 0.289 0 0.578 0.001 0.867v-0.045c-0.001 0.229-0.001 0.5-0.001 0.772 0 144.208 116.511 261.203 260.534 261.986h0.075c144.098-0.784 260.609-117.779 260.609-261.987 0-0.271 0-0.543-0.001-0.814v0.042c0.001-0.244 0.001-0.533 0.001-0.823 0-144.208-116.511-261.203-260.534-261.986h-0.075zM456.243 822.323c-67.332-1.061-121.507-55.893-121.507-123.378 0-0.545 0.004-1.090 0.011-1.633l-0.001 0.083c-0.006-0.461-0.010-1.005-0.010-1.55 0-67.485 54.175-122.316 121.408-123.376l0.1-0.001c67.326 1.032 121.508 55.852 121.508 123.327 0 0.563-0.004 1.125-0.011 1.686l0.001-0.085c0.005 0.43 0.008 0.938 0.008 1.447 0 67.474-54.181 122.294-121.409 123.326l-0.097 0.001z" />
<glyph unicode="&#xe947;" glyph-name="settings" d="M928.685 427.077v42.178l65.481 55.351c18.201 15.529 29.667 38.488 29.667 64.124 0 16.522-4.762 31.931-12.989 44.931l0.204-0.345-86.514 142.696c-15.662 25.469-43.334 42.225-74.928 42.344h-0.294c-10.202-0.704-19.656-2.219-28.807-4.501l1.132 0.239-82.75-27.233c-10.183 6.54-22.521 13.553-35.219 19.957l-2.475 1.132-17.436 83.414c-8.674 39.338-43.242 68.333-84.582 68.333-0.796 0-1.59-0.011-2.381-0.032l0.117 0.002h-171.146c-0.849 0.030-1.847 0.047-2.848 0.047-41.333 0-75.873-29.078-84.282-67.893l-0.103-0.568-17.27-83.027c-13.008-6.365-25.683-13.395-37.971-20.978l-82.141 28.838c-6.375 1.736-13.695 2.733-21.248 2.733-1.969 0-3.923-0.068-5.858-0.201l-0.016 0.014c-31.657-0.066-59.383-16.836-74.838-41.962l-0.218-0.381-86.348-142.751c-7.592-12.333-12.090-27.275-12.090-43.268 0-25.553 11.483-48.425 29.569-63.736l0.122-0.101 64.706-57.621v-42.233l-64.318-55.351c-18.605-15.571-30.353-38.803-30.353-64.779 0-16.293 4.622-31.507 12.627-44.401l-0.208 0.359 86.293-142.696c15.638-25.469 43.294-42.228 74.873-42.344h0.017c9.89 0.029 19.406 1.585 28.339 4.446l-0.664-0.183 83.027 27.067c10.252-6.596 22.592-13.593 35.307-19.952l2.387-1.081 17.214-83.304c8.709-39.259 43.158-68.206 84.394-68.359h175.149c0.461-0.009 1.006-0.014 1.551-0.014 41.651 0 76.532 28.988 85.567 67.89l0.116 0.593 17.325 83.027c13.008 6.365 25.738 13.395 38.082 21.034l82.695-27.288c7.984-2.643 17.175-4.18 26.722-4.207h1.231c31.69 0.092 59.426 16.929 74.837 42.125l0.219 0.385 83.525 142.585c7.581 12.326 12.071 27.257 12.071 43.237 0 25.57-11.498 48.455-29.605 63.766l-0.123 0.101zM202.198 385.564l-1.439 7.86c-3.090 16.026-4.857 34.458-4.857 53.303s1.768 37.277 5.146 55.139l-0.289-1.835 1.439 7.694-96.865 85.739 74.835 123.378 122.548-40.296 5.867 4.871c27.036 22.421 58.582 40.612 92.918 52.953l2.176 0.683 7.417 2.602 25.296 124.596h150.5l25.296-123.046 7.196-2.657c36.425-13.482 67.897-31.68 95.642-54.278l-0.604 0.477 5.535-4.65 122.769 38.746 74.78-123.378-96.81-83.027 1.439-7.805c3.116-16.035 4.899-34.475 4.899-53.331s-1.783-37.296-5.189-55.16l0.29 1.829-1.439-7.749 96.865-85.629-74.724-123.378-122.548 40.351-5.867-4.871c-27.066-22.434-58.65-40.626-93.028-52.954l-2.176-0.681-7.362-2.602-25.351-124.707h-150.113l-25.351 123.212-7.251 2.657c-36.411 13.445-67.869 31.647-95.575 54.27l0.592-0.469-5.535 4.65-122.825-38.746-74.78 123.323zM511.613 240.266h4.483c56.877 0.527 108.134 24.159 144.921 61.948l0.044 0.046c36.321 36.933 58.745 87.63 58.745 143.565 0 0.921-0.006 1.84-0.018 2.757l0.001-0.139c-0.157 114.887-93.281 207.971-208.167 208.066h-0.009c-114.896-0.094-208.019-93.179-208.176-208.051v-0.015c0.126-114.922 93.254-208.050 208.164-208.176h0.012zM395.928 448.443v5.535c0.675 31.070 13.915 58.921 34.823 78.775l0.049 0.046c19.77 19.249 46.807 31.12 76.616 31.12 1.359 0 2.712-0.025 4.060-0.074l-0.195 0.006h6.144c31.081-0.671 58.938-13.935 78.772-34.876l0.048-0.051c19.255-20.094 31.11-47.412 31.11-77.499 0-1.263-0.021-2.52-0.062-3.773l0.005 0.182v-5.535c-2.32-61.175-52.472-109.887-114.002-109.887-0.65 0-1.299 0.005-1.946 0.016l0.098-0.001h-5.535c-61.106 1.614-110.027 51.534-110.027 112.88 0 1.103 0.016 2.202 0.047 3.298l-0.004-0.161z" />
<glyph unicode="&#xe948;" glyph-name="share" horiz-adv-x="1152" d="M1152 591.232c0.001-0.123 0.002-0.267 0.002-0.413 0-11.181-4.662-21.272-12.148-28.438l-0.014-0.014-329.088-327.68c-7.43-7.347-17.65-11.885-28.93-11.885-22.586 0-40.922 18.195-41.15 40.728v163.862h-144q-63.232 0-112.768-3.904c-37.326-2.925-71.187-7.802-104.314-14.681l5.306 0.921c-32.199-6.157-60.797-15.574-87.622-28.146l2.246 0.946c-25.918-12.512-48.248-27.332-68.276-44.732l0.372 0.316c-20.708-17.945-37.84-39.367-50.624-63.45l-0.576-1.19c-13.393-25.555-24.155-55.188-30.763-86.356l-0.405-2.284c-7.188-32.83-11.305-70.541-11.305-109.214 0-2.33 0.015-4.656 0.045-6.979l-0.004 0.353q0-35.2 3.264-78.784c0.279-5.572 0.85-10.747 1.71-15.823l-0.11 0.783c0.841-4.997 1.394-10.853 1.533-16.812l0.003-0.148c0.008-0.229 0.013-0.497 0.013-0.767 0-5.72-2.061-10.958-5.481-15.012l0.029 0.035c-3.445-3.947-8.484-6.427-14.103-6.427-0.352 0-0.702 0.010-1.049 0.029l0.048-0.002c-7.674 0.342-14.294 4.552-17.992 10.716l-0.056 0.1c-3.074 4.097-5.852 8.741-8.123 13.667l-0.197 0.477c-2.496 5.504-5.376 11.904-8.576 19.2s-5.504 12.8-6.4 15.744c-43.778 83.637-73.009 181.51-81.546 285.248l-0.182 2.752c-0.156 5.020-0.245 10.923-0.245 16.848 0 70.399 12.546 137.868 35.524 200.293l-1.295-4.020q104.128 257.856 562.432 257.92h144v163.84c-0.001 0.104-0.002 0.226-0.002 0.349 0 11.18 4.662 21.272 12.147 28.437l0.014 0.014c7.355 7.482 17.585 12.119 28.898 12.119 10.994 0 20.964-4.379 28.263-11.488l-0.009 0.009 0.704-0.64 329.024-327.68c7.538-7.184 12.225-17.3 12.225-28.511 0-0.101 0-0.203-0.001-0.304v0.016z" />
<glyph unicode="&#xe949;" glyph-name="shield" horiz-adv-x="923" d="M921.889 710.306c-1.618 17.069-11.91 31.411-26.367 38.698l-0.277 0.126-411.589 205.795c-6.369 3.192-13.878 5.061-21.823 5.061s-15.454-1.869-22.11-5.19l0.287 0.13-412.046-205.744c-14.735-7.46-25.021-21.831-26.629-38.731l-0.015-0.195c-1.776-22.635-38.875-556.432 440.517-769.89 5.788-2.755 12.579-4.365 19.745-4.365 0.035 0 0.069 0 0.104 0h-0.005c0.025 0 0.055 0 0.085 0 7.131 0 13.891 1.59 19.945 4.435l-0.287-0.121c489.746 217.823 441.025 764.257 440.467 769.992zM796.484 447.619c-46.377-181.636-168.589-328.237-330.062-406.58l-3.675-1.609-3.806-1.827v403.114c0 2.803-2.272 5.075-5.075 5.075v0h-328.257l-0.508 1.979c-17.909 63.061-28.207 135.484-28.207 210.312 0 5.282 0.051 10.552 0.153 15.809l-0.012-0.787v1.472l367.132 183.515v-402.099c0-2.803 2.272-5.075 5.075-5.075v0h328.054z" />
<glyph unicode="&#xe94a;" glyph-name="slider" horiz-adv-x="938" d="M802.382 606.537c-6.308 0.891-13.595 1.4-21 1.4-68.232 0-126.376-43.193-148.582-103.727l-0.352-1.098c-125.927 0-336.294 0-461.635 0h-38.557c-25.783 0-51.566 0-77.291 0-26.265-0.002-48.226-18.427-53.667-43.056l-0.068-0.365c-0.782-3.493-1.23-7.504-1.23-11.62 0-26.601 18.717-48.83 43.7-54.237l0.366-0.066c4.683-0.902 10.068-1.418 15.574-1.418 1.221 0 2.435 0.025 3.643 0.076l-0.173-0.006h568.987l0.293-0.879c22.742-60.992 80.486-103.646 148.193-103.66h0.001c0.028 0 0.061 0 0.094 0 7.593 0 15.061 0.532 22.369 1.562l-0.841-0.097c63.686 10.251 114.232 56.886 130.075 117.548l0.247 1.113c3.186 11.958 5.016 25.687 5.016 39.843 0 79.742-58.068 145.921-134.226 158.559l-0.936 0.128zM829.748 447.268c-0.207-13.542-5.891-25.718-14.928-34.442l-0.014-0.014c-8.497-8.565-20.271-13.867-33.284-13.867-0.659 0-1.316 0.014-1.968 0.041l0.093-0.003h-0.762c-13.306 0.135-25.288 5.698-33.856 14.577l-0.014 0.014c-8.459 8.74-13.672 20.665-13.672 33.808 0 0.475 0.007 0.948 0.020 1.42l-0.002-0.069c0.461 26.747 22.237 48.256 49.044 48.285h0.765c26.792-0.426 48.348-22.246 48.348-49.099 0-0.229-0.002-0.457-0.005-0.685v0.035zM879.615 151.348c-113.856 0-311.507 0.352-430.051 0-9.145 26.178-24.24 48.315-43.73 65.608l-0.16 0.139c-27.185 24.228-63.227 39.032-102.727 39.032-3.379 0-6.733-0.108-10.059-0.322l0.454 0.023c-43.167-2.678-81.2-22.656-107.601-53.018l-0.161-0.189c-11.172-14.704-21.964-31.314-31.52-48.699l-1.060-2.105h-96.218c-0.59 0.023-1.282 0.037-1.977 0.037-23.502 0-43.465-15.155-50.65-36.225l-0.112-0.377c-2.107-5.572-3.327-12.014-3.327-18.741 0-0.787 0.017-1.57 0.050-2.349l-0.004 0.111c0.523-15.222 7.172-28.795 17.544-38.408l0.035-0.032c9.696-9.057 22.759-14.618 37.12-14.618 0.609 0 1.215 0.010 1.819 0.030l-0.088-0.002c24.435 0 48.929 0 73.658 0h23.967c16.455-46.327 52.814-81.955 98.512-97.073l1.104-0.317c14.367-4.821 30.911-7.608 48.104-7.618h0.005c25.919 0.032 50.344 6.399 71.819 17.636l-0.857-0.408c35.572 18.385 62.624 49.090 75.842 86.344l0.336 1.085h427.765c1.038-0.068 2.25-0.107 3.471-0.107 23.938 0 44.379 14.967 52.478 36.053l0.13 0.385c2.198 5.728 3.472 12.354 3.472 19.277 0 1.341-0.048 2.67-0.142 3.987l0.010-0.177c-1.865 28.611-25.528 51.111-54.446 51.111-0.986 0-1.967-0.026-2.94-0.078l0.136 0.006zM352.701 96.090c-0.060-13.57-5.655-25.821-14.641-34.623l-0.008-0.008c-7.826-8.75-19.15-14.232-31.755-14.232-1.074 0-2.139 0.040-3.193 0.118l0.141-0.008h-4.395c-11.984 0.988-22.58 6.247-30.405 14.231l-0.008 0.008c-8.63 8.754-13.959 20.782-13.959 34.054 0 0.388 0.005 0.776 0.014 1.162l-0.001-0.057c0.199 26.968 22.107 48.754 49.104 48.754 0 0 0.001 0 0.001 0h0.293c27.015-0.265 48.812-22.226 48.812-49.279 0-0.042 0-0.084 0-0.126v0.007zM446.458 151.172v0zM56.547 745.063h74.361c48.519 0 97.038 0 148.077 0 16.123-45.577 51.423-80.819 95.941-96.525l1.097-0.337c14.85-5.215 31.972-8.239 49.797-8.262h0.011c67.632 0.369 125.107 43.448 146.853 103.621l0.345 1.094h311.859c15.232 0.892 28.683 7.845 38.098 18.46l0.050 0.057c8.65 9.694 13.936 22.551 13.936 36.643 0 1.21-0.039 2.41-0.116 3.6l0.008-0.162c-1.599 29.069-25.561 52.035-54.887 52.035-0.893 0-1.781-0.021-2.664-0.063l0.125 0.005c-72.603 0-226.54 0-306.057 0-16.433 46.113-52.562 81.607-97.985 96.834l-1.104 0.321c-14.267 4.738-30.691 7.472-47.754 7.472-67.704 0-125.356-43.036-147.093-103.245l-0.343-1.089h-126.747c-31.233 0-62.465 0-92.643 0-0.974 0.061-2.113 0.096-3.259 0.096-16.231 0-30.837-6.953-41.003-18.044l-0.037-0.041c-8.975-9.783-14.476-22.881-14.476-37.263 0-0.167 0.001-0.333 0.002-0.499v0.025c0.016-15.293 6.316-29.112 16.455-39.016l0.011-0.010c10.191-9.654 23.962-15.618 39.126-15.704h0.017zM473.941 798.973c0.001-0.106 0.001-0.231 0.001-0.357 0-13.258-5.35-25.267-14.009-33.984l0.003 0.003c-8.712-8.781-20.765-14.236-34.092-14.298h-0.012c-25.981 0.249-47.039 20.979-47.814 46.807l-0.002 0.072c-0.005 0.248-0.007 0.54-0.007 0.833 0 26.116 20.861 47.36 46.828 47.978l0.057 0.001h0.879c0.042 0 0.091 0 0.14 0 12.888 0 24.58-5.117 33.156-13.431l-0.012 0.012c8.876-8.51 14.452-20.403 14.649-33.599v-0.036zM568.576 855.285h-1.231z" />
</font>
</defs>
</svg>
