<svg xmlns="http://www.w3.org/2000/svg" width="130" height="37" viewBox="0 0 130 37">
  <g id="Cognitic_New_Logo" data-name="Cognitic New Logo" transform="translate(10)">
    <g id="Group_3082" data-name="Group 3082" transform="translate(40 8.078)">
      <path id="Path_33864" data-name="Path 33864" d="M0,34.468C0,28.039,3.486,24.41,9.555,24.41c4.562,0,7.473,2.586,7.794,7.079l-4.85.718c-.248-2.48-1.04-3.629-3.049-3.629-2.334,0-3.771,1.295-3.771,5.317,0,4.168,1.258,5.82,3.7,5.82,2.119,0,3.162-1.079,3.483-3.413l4.562.864c-.609,4.562-3.807,6.787-8.406,6.787C2.983,43.951,0,40.252,0,34.468Z" transform="translate(-50 -24.407)" fill="#fff"/>
      <path id="Path_33865" data-name="Path 33865" d="M57.17,34.253c0-6.178,3.268-9.843,9.628-9.843,6.214,0,9.015,3.592,9.015,9.449,0,6.36-3.053,10.095-9.519,10.095C60.223,43.951,57.17,40.719,57.17,34.253Zm13-.215c0-4.023-1.076-5.532-3.519-5.532-2.549,0-3.807,1.689-3.807,5.605,0,4.168,1.079,5.82,3.7,5.82C68.99,39.928,70.175,38.312,70.175,34.038Z" transform="translate(-88.242 -24.407)" fill="#fff"/>
      <path id="Path_33866" data-name="Path 33866" d="M199.341,43.513h-5.423V31.661c0-1.9-.828-2.874-2.48-2.874a5.491,5.491,0,0,0-3.665,1.473V43.513H182.35V24.8h4.814l.288,1.867a8.448,8.448,0,0,1,5.963-2.265c4.132,0,5.926,2.013,5.926,6.324Z" transform="translate(-171.956 -24.4)" fill="#fff"/>
      <path id="Path_33867" data-name="Path 33867" d="M248.283,25.6V44.316H242.86V25.6Z" transform="translate(-212.427 -25.203)" fill="#fff"/>
      <path id="Path_33869" data-name="Path 33869" d="M321.553,25.6V44.316H316.13V25.6Z" transform="translate(-261.425 -25.203)" fill="#fff"/>
      <path id="Path_33870" data-name="Path 33870" d="M339.91,34.468c0-6.43,3.486-10.058,9.555-10.058,4.562,0,7.473,2.586,7.794,7.079l-4.85.718c-.252-2.48-1.043-3.629-3.053-3.629-2.334,0-3.771,1.295-3.771,5.317,0,4.168,1.258,5.82,3.7,5.82,2.119,0,3.162-1.079,3.486-3.413l4.562.864c-.609,4.562-3.807,6.787-8.406,6.787C342.893,43.951,339.91,40.252,339.91,34.468Z" transform="translate(-277.332 -24.407)" fill="#fff"/>
      <path id="Path_3_1_" d="M131.408,41.623a4,4,0,0,1-1.967,2.016,7.117,7.117,0,0,1-3.288.723,8.514,8.514,0,0,1-3.99-.843,7.353,7.353,0,0,1-2.609-2.213,9.116,9.116,0,0,1-1.44-3.172,15.167,15.167,0,0,1-.447-3.682,12.133,12.133,0,0,1,.662-4.1,9.854,9.854,0,0,1,1.791-3.172,8.013,8.013,0,0,1,2.649-2.036,7.454,7.454,0,0,1,3.271-.723,5.9,5.9,0,0,1,5.373,2.9l.166-2.393h4.9V44.4a9.467,9.467,0,0,1-.738,3.859,7.854,7.854,0,0,1-2.023,2.782,8.863,8.863,0,0,1-3.036,1.7,12.261,12.261,0,0,1-7.436.02,8.768,8.768,0,0,1-2.94-1.6,7.388,7.388,0,0,1-1.93-2.526,7.818,7.818,0,0,1-.7-3.369h4.711a3.339,3.339,0,0,0,1.149,2.722,4.6,4.6,0,0,0,3.056.96,5.334,5.334,0,0,0,3.427-1.116,3.671,3.671,0,0,0,1.4-3.036Zm-4.165-1.256a3.908,3.908,0,0,0,3.1-1.43,5.791,5.791,0,0,0,1.225-3.9q0-6.188-4.321-6.191t-4.321,5.878a6.4,6.4,0,0,0,1.225,4.115,3.812,3.812,0,0,0,3.1,1.526" transform="translate(-128.696 -24.412)" fill="#fff"/>
      <circle id="Ellipse_1002" data-name="Ellipse 1002" cx="3.185" cy="3.185" r="3.185" transform="translate(30.138 -8.078)" fill="#fff"/>
      <circle id="Ellipse_1003" data-name="Ellipse 1003" cx="3.185" cy="3.185" r="3.185" transform="translate(54.232 -8.078)" fill="#fff"/>
    </g>
    <g id="Group_3083" data-name="Group 3083" transform="translate(77.835)">
      <path id="Path_33868" data-name="Path 33868" d="M284.873,29.78V40.719a5.716,5.716,0,0,0,2.049,4.337A5.9,5.9,0,0,0,289.26,46.4l.1.245c-.069.248-1.755.894-3.946.894-3.986,0-5.963-1.867-5.963-6.069V29.78Z" transform="translate(-274.898 -19.92)" fill="#fff"/>
      <path id="Path_33871" data-name="Path 33871" d="M284.9,6.387V1.09h-5.38V6.42A5.715,5.715,0,0,0,284.9,6.387Z" transform="translate(-274.946 -0.729)" fill="#fff"/>
      <path id="Path_33872" data-name="Path 33872" d="M280.4,27.209V22.18s-7.188,3.407-14.2,0v5.029Z" transform="translate(-266.035 -14.794)" fill="#fff"/>
    </g>
  </g>
</svg>
