<svg xmlns="http://www.w3.org/2000/svg" width="20.616" height="20.5" viewBox="0 0 20.616 20.5">
  <g id="icn_Settings" transform="translate(-2.577 -1.343)" opacity="0.6">
    <path id="Path_33527" data-name="Path 33527" d="M19.974,12.138v-1.1l1.413-1.2a1.406,1.406,0,0,0,.28-1.826L19.93,5.147a1.48,1.48,0,0,0-1.273-.716,1.508,1.508,0,0,0-.471.072L16.4,5.09a8.411,8.411,0,0,0-.963-.537L15.06,2.747a1.463,1.463,0,0,0-1.472-1.153H10.146A1.463,1.463,0,0,0,8.674,2.747L8.3,4.553a8.51,8.51,0,0,0-.971.537L5.577,4.474a1.51,1.51,0,0,0-.472-.043,1.48,1.48,0,0,0-1.273.716L2.1,8.012a1.407,1.407,0,0,0,.3,1.8l1.391,1.239v1.1L2.4,13.349a1.407,1.407,0,0,0-.3,1.826L3.832,18.04a1.48,1.48,0,0,0,1.273.716,1.508,1.508,0,0,0,.471-.072L7.364,18.1a8.411,8.411,0,0,0,.963.537L8.7,20.44a1.463,1.463,0,0,0,1.472,1.153h3.473a1.463,1.463,0,0,0,1.472-1.153l.375-1.805a8.51,8.51,0,0,0,.971-.537l1.781.588a1.508,1.508,0,0,0,.471.072,1.48,1.48,0,0,0,1.273-.716l1.677-2.865a1.407,1.407,0,0,0-.3-1.8Zm-1.317,5.186-2.524-.831a6.563,6.563,0,0,1-1.994,1.125l-.522,2.571H10.145l-.523-2.543a6.933,6.933,0,0,1-1.986-1.125l-2.53.8L3.369,14.459l2-1.719a6.21,6.21,0,0,1,0-2.242l-2-1.77L5.106,5.863l2.524.831A6.563,6.563,0,0,1,9.623,5.569L10.145,3h3.473L14.14,5.54a6.933,6.933,0,0,1,1.986,1.125l2.53-.8,1.736,2.865-2,1.719a6.21,6.21,0,0,1,0,2.242l2,1.77Z" transform="translate(1 0)" fill="#fff" stroke="#fff" stroke-width="0.5"/>
    <path id="Path_33528" data-name="Path 33528" d="M11.708,15.6a3.9,3.9,0,1,1,3.9-3.9,3.857,3.857,0,0,1-3.9,3.9Zm0-6.493a2.539,2.539,0,0,0-2.6,2.6,2.539,2.539,0,0,0,2.6,2.6,2.539,2.539,0,0,0,2.6-2.6,2.539,2.539,0,0,0-2.6-2.6Z" transform="translate(1.173 -0.115)" fill="#fff" stroke="#fff" stroke-width="0.5"/>
  </g>
</svg>
