<svg id="icn_Analytics" xmlns="http://www.w3.org/2000/svg" xmlns:xlink="http://www.w3.org/1999/xlink" width="20" height="20" viewBox="0 0 20 20">
  <defs>
    <clipPath id="clip-path">
      <rect id="Rectangle_1422" data-name="Rectangle 1422" width="20" height="20" fill="none"/>
    </clipPath>
  </defs>
  <g id="Group_2653" data-name="Group 2653" clip-path="url(#clip-path)">
    <path id="Path_33492" data-name="Path 33492" d="M2.52,16.92,7.193,9.037l6.438,5.674L16.92,2.521" transform="translate(0.28 0.28)" fill="none" stroke="#fff" stroke-linecap="round" stroke-linejoin="round" stroke-width="1.5"/>
    <path id="Path_33493" data-name="Path 33493" d="M6.923,10.548A1.967,1.967,0,1,1,8.889,8.582a1.969,1.969,0,0,1-1.967,1.967" transform="translate(0.551 0.735)" fill="#2a3ff2"/>
    <path id="Path_33494" data-name="Path 33494" d="M7.006,7.533A1.133,1.133,0,1,1,5.873,8.666,1.135,1.135,0,0,1,7.006,7.533m0-1.667a2.8,2.8,0,1,0,2.8,2.8,2.8,2.8,0,0,0-2.8-2.8" transform="translate(0.467 0.652)" fill="#fff"/>
    <path id="Path_33495" data-name="Path 33495" d="M2.717,17.643a1.967,1.967,0,1,1,1.967-1.967,1.969,1.969,0,0,1-1.967,1.967" transform="translate(0.083 1.523)" fill="#2a3ff2"/>
    <path id="Path_33496" data-name="Path 33496" d="M2.8,14.627a1.133,1.133,0,1,1-1.133,1.134A1.135,1.135,0,0,1,2.8,14.627m0-1.667a2.8,2.8,0,1,0,2.8,2.8,2.8,2.8,0,0,0-2.8-2.8" transform="translate(0 1.44)" fill="#fff"/>
    <path id="Path_33497" data-name="Path 33497" d="M12.718,15.656a1.967,1.967,0,1,1,1.968-1.968,1.969,1.969,0,0,1-1.968,1.968" transform="translate(1.194 1.303)" fill="#2a3ff2"/>
    <path id="Path_33498" data-name="Path 33498" d="M12.8,12.64a1.133,1.133,0,1,1-1.134,1.133A1.137,1.137,0,0,1,12.8,12.64m0-1.667a2.8,2.8,0,1,0,2.8,2.8,2.8,2.8,0,0,0-2.8-2.8" transform="translate(1.111 1.219)" fill="#fff"/>
    <path id="Path_33499" data-name="Path 33499" d="M15.678,4.683a1.967,1.967,0,1,1,1.966-1.967,1.969,1.969,0,0,1-1.966,1.967" transform="translate(1.523 0.083)" fill="#2a3ff2"/>
    <path id="Path_33500" data-name="Path 33500" d="M15.761,1.667A1.133,1.133,0,1,1,14.626,2.8a1.135,1.135,0,0,1,1.136-1.133m0-1.667a2.8,2.8,0,1,0,2.8,2.8,2.8,2.8,0,0,0-2.8-2.8" transform="translate(1.44)" fill="#fff"/>
  </g>
</svg>
