<svg xmlns="http://www.w3.org/2000/svg" xmlns:xlink="http://www.w3.org/1999/xlink" width="20" height="20" viewBox="0 0 20 20">
  <defs>
    <clipPath id="clip-path">
      <rect id="Rectangle_1444" data-name="Rectangle 1444" width="20" height="20" fill="#fff"/>
    </clipPath>
  </defs>
  <g id="icn_Competitive" transform="translate(0 0)" opacity="0.6">
    <g id="Group_2700" data-name="Group 2700" transform="translate(0 0)" clip-path="url(#clip-path)">
      <path id="Path_33571" data-name="Path 33571" d="M17.366,13.849V5.937a3.316,3.316,0,0,0-3.313-3.313H10.845l1.17-1.17a.852.852,0,1,0-1.2-1.205L8.187,2.873a.856.856,0,0,0,0,1.207L10.811,6.7a.874.874,0,0,0,1.2,0,.854.854,0,0,0,0-1.205l-1.17-1.169h3.208a1.611,1.611,0,0,1,1.609,1.61v7.91a2.822,2.822,0,1,0,1.7,0m.264,2.675a1.117,1.117,0,1,1-1.117-1.118,1.119,1.119,0,0,1,1.117,1.118" transform="translate(0.665 0)" fill="#fff"/>
      <path id="Path_33572" data-name="Path 33572" d="M8.483,13.238a.852.852,0,0,0-1.2,1.207l1.17,1.169H5.239a1.611,1.611,0,0,1-1.609-1.609V6.11A2.816,2.816,0,1,0,0,3.412a2.8,2.8,0,0,0,.823,2,2.747,2.747,0,0,0,1.1.674v7.923a3.316,3.316,0,0,0,3.313,3.312H8.449l-1.17,1.17a.852.852,0,0,0,1.205,1.205l2.625-2.625a.855.855,0,0,0,0-1.205ZM3.938,3.421a1.1,1.1,0,0,1-.329.788,1.143,1.143,0,0,1-1.579,0,1.117,1.117,0,1,1,1.908-.787" transform="translate(0 0.058)" fill="#fff"/>
    </g>
  </g>
</svg>
