<svg xmlns="http://www.w3.org/2000/svg" width="20" height="20" viewBox="0 0 20 20">
  <g id="icn_Social" transform="translate(-2 -2)" opacity="0.6">
    <g id="Ellipse_1004" data-name="Ellipse 1004" transform="translate(2 2)" fill="none" stroke="#fff" stroke-linecap="round" stroke-linejoin="round" stroke-width="1.8">
      <circle cx="10" cy="10" r="10" stroke="none"/>
      <circle cx="10" cy="10" r="9.1" fill="none"/>
    </g>
    <line id="Line_1117" data-name="Line 1117" x2="18" transform="translate(3 12)" fill="none" stroke="#fff" stroke-linecap="round" stroke-linejoin="round" stroke-width="1.8"/>
    <g id="Path_33877" data-name="Path 33877" fill="none" stroke-linecap="round" stroke-linejoin="round">
      <path d="M12,2a15.3,15.3,0,0,1,4,10,15.3,15.3,0,0,1-4,10A15.3,15.3,0,0,1,8,12,15.3,15.3,0,0,1,12,2Z" stroke="none"/>
      <path d="M 11.99999809265137 4.926792144775391 C 10.62904453277588 7.021488189697266 9.86025333404541 9.468453407287598 9.800441741943359 12 C 9.86025333404541 14.5315465927124 10.62904453277588 16.97851181030273 11.99999809265137 19.07320785522461 C 13.37095165252686 16.97851181030273 14.13974285125732 14.5315465927124 14.19955444335938 12 C 14.13974285125732 9.468453407287598 13.37095165252686 7.021488189697266 11.99999809265137 4.926792144775391 M 11.99999809265137 2 C 14.50127792358398 4.738349914550781 15.92274856567383 8.292030334472656 15.99999809265137 12 C 15.92274856567383 15.70796012878418 14.50127792358398 19.26165008544922 11.99999809265137 22 C 9.49871826171875 19.26165008544922 8.077247619628906 15.70796966552734 7.999998092651367 12 C 8.077247619628906 8.292030334472656 9.49871826171875 4.738349914550781 11.99999809265137 2 Z" stroke="none" fill="#fff"/>
    </g>
  </g>
</svg>
