<?xml version="1.0" encoding="utf-8"?>
<!-- Generator: Adobe Illustrator 25.2.1, SVG Export Plug-In . SVG Version: 6.00 Build 0)  -->
<svg version="1.1" id="Layer_1" xmlns="http://www.w3.org/2000/svg" xmlns:xlink="http://www.w3.org/1999/xlink" x="0px" y="0px"
	 viewBox="0 0 15 15" style="enable-background:new 0 0 15 15;" xml:space="preserve">
<style type="text/css">
	.st0{fill:#FFFFFF;}
</style>
<g id="Plus" transform="translate(-1856.264 -355.999)">
	<path id="Union_3" class="st0" d="M1862.4,369.7v-4.9h-4.9c-0.7,0-1.3-0.6-1.3-1.3c0-0.7,0.6-1.3,1.3-1.3h4.9v-4.9
		c0-0.7,0.6-1.3,1.3-1.3s1.3,0.6,1.3,1.3v4.9h4.9c0.7,0,1.3,0.6,1.3,1.3c0,0.7-0.6,1.3-1.3,1.3h-4.9v4.9c0,0.7-0.6,1.3-1.3,1.3
		S1862.4,370.4,1862.4,369.7L1862.4,369.7z"/>
</g>
</svg>
