<svg id="Group_2701" data-name="Group 2701" xmlns="http://www.w3.org/2000/svg" xmlns:xlink="http://www.w3.org/1999/xlink" width="81.481" height="21.315" viewBox="0 0 81.481 21.315">
  <defs>
    <clipPath id="clip-path">
      <rect id="Rectangle_1063" data-name="Rectangle 1063" width="81.481" height="21.315" fill="#fff"/>
    </clipPath>
  </defs>
  <g id="Group_2700" data-name="Group 2700" transform="translate(0 0)" clip-path="url(#clip-path)">
    <path id="Path_33699" data-name="Path 33699" d="M24.671,0a2.035,2.035,0,0,0-2.035,2.035V19.28a2.036,2.036,0,0,0,4.072,0V2.035A2.037,2.037,0,0,0,24.671,0" transform="translate(3.406 -0.001)" fill="#fff"/>
    <path id="Path_33700" data-name="Path 33700" d="M21.09,18.255,12.469,1.063A2.023,2.023,0,0,0,11.261.084,1.96,1.96,0,0,0,10.669,0h-.008a2.061,2.061,0,0,0-.583.084,2.028,2.028,0,0,0-1.21.983L.248,18.255a2.036,2.036,0,0,0,2.369,2.922,2.024,2.024,0,0,0,1.21-.983L10.669,6.552,17.514,20.2a2.035,2.035,0,0,0,3.578-1.941Z" transform="translate(0 -0.001)" fill="#fff"/>
    <path id="Path_33701" data-name="Path 33701" d="M40.507.006l-.044,0L40.4,0H33.213a2.035,2.035,0,0,0-2.035,2.035V19.279h0a2.035,2.035,0,0,0,2.035,2.035H40.4c.023,0,.045,0,.067,0l.039,0A10.654,10.654,0,0,0,47.931,3.123,10.594,10.594,0,0,0,40.507.006m4.526,15.289a6.507,6.507,0,0,1-4.519,1.919v.031H35.248V4.071h5.266V4.1a6.558,6.558,0,0,1,4.519,11.193" transform="translate(4.691 0)" fill="#fff"/>
    <path id="Path_33702" data-name="Path 33702" d="M71.577,0a2.021,2.021,0,0,0-1.439.6L62.954,7.778,55.771.6A2.035,2.035,0,0,0,52.3,2.035V19.28a2.035,2.035,0,1,0,4.07,0V6.949L61.515,12.1a2.036,2.036,0,0,0,2.878,0L69.541,6.95V19.28a2.035,2.035,0,1,0,4.07,0V2.035A2.035,2.035,0,0,0,71.577,0" transform="translate(7.869 -0.001)" fill="#fff"/>
  </g>
</svg>
