<svg xmlns="http://www.w3.org/2000/svg" xmlns:xlink="http://www.w3.org/1999/xlink" width="37.839" height="42" viewBox="0 0 37.839 42"><defs><style>.a{fill:#303f9f;stroke:rgba(0,0,0,0);}.b{clip-path:url(#a);}</style><clipPath id="a"><rect class="a" width="37.839" height="42" transform="translate(0 0)"/></clipPath></defs><g class="b" transform="translate(0 0)"><path class="a" d="M1.047,8.715a1.805,1.805,0,0,0-.991,1.441c-.075.936-1.609,22.9,18.124,31.684a1.766,1.766,0,0,0,1.469,0C39.909,32.833,37.79,10.4,37.767,10.169l0-.013a1.8,1.8,0,0,0-.991-1.441L19.72.19A1.828,1.828,0,0,0,18.1.19ZM19.232,3.675v17H33.088l-.1.4a25.879,25.879,0,0,1-13.94,17.043l-.458.22V21.3H4.836l-.064-.237A33.342,33.342,0,0,1,3.6,11.685l0-.194.175-.085Z" transform="translate(0 0)"/></g></svg>