<svg xmlns="http://www.w3.org/2000/svg" xmlns:xlink="http://www.w3.org/1999/xlink" width="459" height="240" viewBox="0 0 459 240"><defs><style>.a,.c{fill:#fff;}.b{fill:#3b4ec4;}.c{font-size:26px;font-family:Montserrat-SemiBold, Montserrat;font-weight:600;}.d{fill:#041962;}.d,.f{opacity:0.3;}.e{fill:#943ba4;}.f{fill:#530162;}.g{filter:url(#c);}.h{filter:url(#a);}</style><filter id="a" x="0" y="0" width="337" height="143" filterUnits="userSpaceOnUse"><feOffset dx="2" dy="2" input="SourceAlpha"/><feGaussianBlur stdDeviation="10" result="b"/><feFlood flood-opacity="0.02"/><feComposite operator="in" in2="b"/><feComposite in="SourceGraphic"/></filter><filter id="c" x="122" y="97" width="337" height="143" filterUnits="userSpaceOnUse"><feOffset dx="2" dy="2" input="SourceAlpha"/><feGaussianBlur stdDeviation="10" result="d"/><feFlood flood-opacity="0.02"/><feComposite operator="in" in2="d"/><feComposite in="SourceGraphic"/></filter></defs><g transform="translate(-637.671 -364.363)"><g class="h" transform="matrix(1, 0, 0, 1, 637.67, 364.36)"><rect class="a" width="277" height="83" rx="14" transform="translate(28 28)"/></g><g class="g" transform="matrix(1, 0, 0, 1, 637.67, 364.36)"><rect class="a" width="277" height="83" rx="14" transform="translate(150 125)"/></g><g transform="translate(684.09 409.328)"><rect class="b" width="48.188" height="48.204" rx="24.094" transform="translate(0 0)"/><text class="c" transform="translate(17.58 32.034)"><tspan x="0" y="0">?</tspan></text><rect class="b" width="100" height="6" transform="translate(58.58 12.034)"/><rect class="d" width="170" height="4" rx="2" transform="translate(58.58 27.034)"/><rect class="d" width="131" height="3" rx="1.5" transform="translate(58.58 35.034)"/></g><g transform="translate(805.313 506.457)"><rect class="e" width="48.188" height="48.204" rx="24.094" transform="translate(0 0)"/><text class="c" transform="translate(17.359 31.906)"><tspan x="0" y="0">?</tspan></text><rect class="e" width="99" height="6" transform="translate(58.359 11.906)"/><rect class="f" width="171" height="4" rx="2" transform="translate(58.359 26.906)"/><rect class="f" width="130" height="4" rx="2" transform="translate(58.359 34.906)"/></g><path class="b" d="M11.853,10.93V26.667a6.6,6.6,0,0,0,6.59,6.59h6.382L22.5,35.585a1.695,1.695,0,1,0,2.4,2.4l5.221-5.221a1.7,1.7,0,0,0,0-2.4l-5.221-5.219a1.739,1.739,0,0,0-2.4,0,1.7,1.7,0,0,0,0,2.4l2.328,2.326H18.443a3.2,3.2,0,0,1-3.2-3.2V10.933a5.613,5.613,0,1,0-3.39,0m-.525-5.321a2.221,2.221,0,1,1,2.221,2.224,2.225,2.225,0,0,1-2.221-2.224" transform="translate(735.133 490.861)"/><path class="e" d="M26.692,27.547V11.81A6.6,6.6,0,0,0,20.1,5.22H13.721l2.328-2.328a1.695,1.695,0,1,0-2.4-2.4L8.433,5.715a1.7,1.7,0,0,0,0,2.4l5.221,5.219a1.739,1.739,0,0,0,2.4,0,1.7,1.7,0,0,0,0-2.4L13.721,8.608H20.1a3.2,3.2,0,0,1,3.2,3.2V27.545a5.613,5.613,0,1,0,3.39,0m.525,5.321A2.221,2.221,0,1,1,25,30.644a2.225,2.225,0,0,1,2.221,2.223" transform="translate(956.496 435.144)"/></g></svg>