<svg xmlns="http://www.w3.org/2000/svg" width="30" height="29.999" viewBox="0 0 30 29.999"><defs><style>.a{fill:#19c482;}</style></defs><path class="a" d="M22.969,30.006H7.031A7.039,7.039,0,0,1,0,22.975V15.944A5.849,5.849,0,0,1,4.629,10.2V7.038A7.039,7.039,0,0,1,11.66.007H22.969A7.039,7.039,0,0,1,30,7.038V22.975A7.039,7.039,0,0,1,22.969,30.006ZM4.629,12.628a3.47,3.47,0,0,0-2.285,3.316v7.031a4.693,4.693,0,0,0,4.687,4.687H22.969a4.693,4.693,0,0,0,4.687-4.687V7.038a4.693,4.693,0,0,0-4.687-4.687H11.66A4.693,4.693,0,0,0,6.973,7.038V23.209a1.172,1.172,0,0,1-2.344,0ZM25.312,7.565A1.172,1.172,0,0,0,24.14,6.394H10.488a1.172,1.172,0,0,0,0,2.344H24.14A1.172,1.172,0,0,0,25.312,7.565Zm.059,10.957A1.172,1.172,0,0,0,24.2,17.35h-4.57a1.172,1.172,0,0,0,0,2.344H24.2A1.172,1.172,0,0,0,25.371,18.522Zm-9.2,0A1.172,1.172,0,0,0,15,17.35H10.488a1.172,1.172,0,0,0,0,2.344H15A1.172,1.172,0,0,0,16.172,18.522Zm0,4.687A1.172,1.172,0,0,0,15,22.038H10.488a1.172,1.172,0,0,0,0,2.344H15A1.172,1.172,0,0,0,16.172,23.21Zm6.8,0A1.172,1.172,0,0,0,21.8,22.038H19.629a1.172,1.172,0,0,0,0,2.344H21.8A1.172,1.172,0,0,0,22.969,23.21Zm1.23-8.2H15.7a1.172,1.172,0,0,1,0-2.344h8.5A1.172,1.172,0,0,1,24.2,15.007ZM9.317,13.718a1.465,1.465,0,1,0,1.465-1.465A1.465,1.465,0,0,0,9.317,13.718Z" transform="translate(0 -0.007)"/></svg>