<svg xmlns="http://www.w3.org/2000/svg" width="182.015" height="179.874" viewBox="0 0 182.015 179.874"><defs><style>.a{fill:#f4f5fa;}.b{fill:#ced4e3;}.c{fill:#3b4ec4;}.d{fill:#fff;}.e{fill:#943ba4;}</style></defs><g transform="translate(-8.147 -98.374)"><g transform="translate(10.901 149.286)"><g transform="translate(0 0)"><path class="a" d="M192.155,237.286v21.719a4.668,4.668,0,0,1-4.671,4.671H20.321a4.668,4.668,0,0,1-4.671-4.671V237.286a4.573,4.573,0,0,1,.235-1.458l23.65-71.839a4.662,4.662,0,0,1,4.436-3.209H163.834a4.662,4.662,0,0,1,4.436,3.209l23.65,71.839A4.573,4.573,0,0,1,192.155,237.286Z" transform="translate(-15.649 -160.78)"/><path class="a" d="M439.882,237.286v21.719a4.668,4.668,0,0,1-4.671,4.671H407.13c-.1-33.109.415-87.753.565-102.9h3.866A4.662,4.662,0,0,1,416,163.989l23.65,71.839a4.573,4.573,0,0,1,.235,1.458Z" transform="translate(-263.377 -160.78)"/><path class="a" d="M15.648,237.286v21.719a4.668,4.668,0,0,0,4.671,4.671H48.4c.1-33.109-.415-87.753-.565-102.9H43.969a4.662,4.662,0,0,0-4.436,3.209l-23.65,71.839a4.573,4.573,0,0,0-.235,1.458Z" transform="translate(-15.648 -160.78)"/><path class="b" d="M204.588,284.243l-14.4-43.745a4.67,4.67,0,0,0-4.436-3.21H82.41a4.67,4.67,0,0,0-4.436,3.21l-14.4,43.745a4.664,4.664,0,0,0-.234,1.46v21.719a4.67,4.67,0,0,0,4.67,4.67H200.153a4.67,4.67,0,0,0,4.67-4.67V285.7a4.673,4.673,0,0,0-.235-1.46Z" transform="translate(-45.827 -209.196)"/><path class="c" d="M192.154,373.37v40.524a4.67,4.67,0,0,1-4.67,4.67H20.317a4.67,4.67,0,0,1-4.67-4.67V373.37a4.67,4.67,0,0,1,4.67-4.67H54.8a4.67,4.67,0,0,1,4.2,2.621l6.775,13.873a4.67,4.67,0,0,0,4.2,2.621h67.874a4.67,4.67,0,0,0,4.2-2.621l6.775-13.873a4.67,4.67,0,0,1,4.2-2.621h34.479a4.67,4.67,0,0,1,4.669,4.67Z" transform="translate(-15.647 -292.355)"/></g></g><g transform="translate(8.147 146.531)"><path d="M13.655,252.156V237.047a1.918,1.918,0,0,1,1.916-1.916H50.05a1.927,1.927,0,0,1,1.721,1.075l6.775,13.873a7.469,7.469,0,0,0,6.671,4.166h67.875a7.47,7.47,0,0,0,6.671-4.166l6.775-13.873a1.928,1.928,0,0,1,1.721-1.075h34.479a1.918,1.918,0,0,1,1.916,1.916v40.524a1.918,1.918,0,0,1-1.916,1.916H15.571a1.918,1.918,0,0,1-1.916-1.916V265.752M80.377,153.278H39.221a7.41,7.41,0,0,0-7.051,5.1L8.519,230.219a7.406,7.406,0,0,0-.372,2.321v45.031a7.432,7.432,0,0,0,7.424,7.424H182.738a7.432,7.432,0,0,0,7.424-7.424V232.54a7.414,7.414,0,0,0-.372-2.321h0l-12.613-38.31L172.927,179l-6.788-20.618a7.41,7.41,0,0,0-7.051-5.1H117.932m54.013,40.352,11.879,36.082a7.409,7.409,0,0,0-1.086-.089H172.082l-14.068-42.731V158.785h1.073a1.912,1.912,0,0,1,1.82,1.317l6.788,20.618m-15.188-21.935v22.78a7.457,7.457,0,0,0-1.682-.194H47.484a7.437,7.437,0,0,0-1.682.194v-22.78ZM14.485,229.712,37.4,160.1a1.912,1.912,0,0,1,1.82-1.317h1.073v28.107l-14.068,42.73H15.571A7.413,7.413,0,0,0,14.485,229.712Zm119.091-42.833h17.249a1.912,1.912,0,0,1,1.82,1.317l13.639,41.427H148.259a7.47,7.47,0,0,0-6.671,4.166h0l-6.776,13.873a1.927,1.927,0,0,1-1.721,1.075H65.217a1.928,1.928,0,0,1-1.721-1.075L56.72,233.789a7.47,7.47,0,0,0-6.671-4.166H32.026L45.664,188.2a1.912,1.912,0,0,1,1.82-1.317H64.732" transform="translate(-8.147 -153.278)"/><path class="d" d="M49.166,466.755H59.244a2.241,2.241,0,1,0,0-4.362H49.166a2.241,2.241,0,1,0,0,4.362Z" transform="translate(-32.362 -349.764)"/><path class="d" d="M49.166,443.326H59.244a2.241,2.241,0,1,0,0-4.362H49.166a2.241,2.241,0,1,0,0,4.362Z" transform="translate(-32.362 -334.938)"/></g><rect class="e" width="8.17" height="23.42" rx="4.085" transform="translate(95.071 98.374)"/><rect class="c" width="8.17" height="23.42" rx="4.085" transform="translate(140.491 112.358) rotate(45)"/><rect class="c" width="8.17" height="24.42" rx="4.085" transform="translate(51.334 117.428) rotate(-45)"/></g></svg>