<svg xmlns="http://www.w3.org/2000/svg" width="12.487" height="26" viewBox="0 0 12.487 26"><defs><style>.a{fill:#fff;}</style></defs><path class="a" d="M32.628,10.688H30.565c-.408,0-.491-.085-.491-.493q0-1.972,0-3.941c0-.387.1-.487.478-.487.682,0,1.363,0,2.041,0,.065-.085.035-.173.035-.254,0-1.05-.015-2.1.005-3.149a4.8,4.8,0,0,1,1.412-3.558A5.282,5.282,0,0,1,37-2.531a10.334,10.334,0,0,1,1.582-.1c1.177,0,2.354,0,3.531,0,.332,0,.448.117.447.445q0,2.085,0,4.171c0,.386-.1.487-.482.489q-1.3,0-2.609,0a.808.808,0,0,0-.906.914q0,1.049,0,2.1a.434.434,0,0,0,.038.269h1.469c.7,0,1.4,0,2.1,0a.362.362,0,0,1,.391.444c-.128,1.185-.225,2.376-.4,3.555-.028.185-.051.371-.084.556-.057.315-.126.373-.439.373-.93,0-1.86,0-2.79,0a.505.505,0,0,0-.275.026.587.587,0,0,0-.027.3q0,5.912,0,11.824c0,.458-.073.529-.536.529H33.11c-.383,0-.482-.1-.482-.483v-12.2Z" transform="translate(-30.072 2.631)"/></svg>