<svg xmlns="http://www.w3.org/2000/svg" width="27.632" height="23.598" viewBox="0 0 27.632 23.598">
  <g id="icn_Hide" transform="translate(-2.38 -4.29)">
    <path id="Path_33712" data-name="Path 33712" d="M23.941,19.086a5.818,5.818,0,0,0,.369-2.059,5.887,5.887,0,0,0-5.887-5.887,5.827,5.827,0,0,0-2.034.369l1.382,1.424a4.1,4.1,0,0,1,.635-.051,4.179,4.179,0,0,1,4.188,4.145,4.11,4.11,0,0,1-.051.635Z" transform="translate(-1.988 -0.972)" fill="#6e83b1"/>
    <path id="Path_33713" data-name="Path 33713" d="M31.3,16.111C28.41,10.765,23.339,7.53,17.727,7.53a14.434,14.434,0,0,0-4.5.729l1.382,1.39a12.683,12.683,0,0,1,3.115-.4A13.7,13.7,0,0,1,29.569,16.48a15.232,15.232,0,0,1-3.75,4.376l1.219,1.219a17.1,17.1,0,0,0,4.291-5.149l.223-.412Z" transform="translate(-1.539 -0.46)" fill="#6e83b1"/>
    <path id="Path_33714" data-name="Path 33714" d="M4.517,5.569,8.344,9.4A16.751,16.751,0,0,0,2.6,15.652l-.223.4.223.412c2.892,5.346,7.963,8.581,13.575,8.581A14.525,14.525,0,0,0,22.5,23.6l4.293,4.289L28.3,26.6,5.984,4.29Zm8.367,8.367,5.707,5.707a4.128,4.128,0,0,1-2.145.618,4.179,4.179,0,0,1-4.179-4.2,4.128,4.128,0,0,1,.618-2.12Zm-1.244-1.244a5.878,5.878,0,0,0,8.2,8.2l1.373,1.373a12.8,12.8,0,0,1-5.029,1.03A13.7,13.7,0,0,1,4.337,16.055a14.837,14.837,0,0,1,5.252-5.406Z" fill="#6e83b1"/>
  </g>
</svg>
