<svg id="icn_Administrator" xmlns="http://www.w3.org/2000/svg" xmlns:xlink="http://www.w3.org/1999/xlink" width="15.31" height="19" viewBox="0 0 15.31 19">
  <defs>
    <clipPath id="clip-path">
      <rect id="Rectangle_1438" data-name="Rectangle 1438" width="15.31" height="19" fill="#293378"/>
    </clipPath>
  </defs>
  <g id="Group_2689" data-name="Group 2689" clip-path="url(#clip-path)">
    <path id="Path_33556" data-name="Path 33556" d="M15.155,17.17H13.139c0-.471.011-.933,0-1.393a6.01,6.01,0,0,0-.1-1.305,3.049,3.049,0,0,0-1.994-2.126A9.973,9.973,0,0,0,6.82,11.8a8.191,8.191,0,0,0-2.761.538A2.988,2.988,0,0,0,2,14.759a18.21,18.21,0,0,0-.075,1.875c-.006.17,0,.341,0,.53H0c0-.711,0-1.421,0-2.13A4.433,4.433,0,0,1,.29,13.5a5.06,5.06,0,0,1,2.915-2.981,9.813,9.813,0,0,1,3.451-.733,12.255,12.255,0,0,1,4.745.546,5.262,5.262,0,0,1,3.23,2.759,4.954,4.954,0,0,1,.464,1.936c.025.652.039,1.3.059,1.956v.185" transform="translate(0 1.83)" fill="#293378"/>
    <path id="Path_33558" data-name="Path 33558" d="M7.148,0a4.86,4.86,0,1,0,4.86,4.86A4.86,4.86,0,0,0,7.148,0m0,7.7A2.844,2.844,0,1,1,9.992,4.86,2.844,2.844,0,0,1,7.148,7.7" transform="translate(0.429)" fill="#293378"/>
  </g>
  <path id="Path_33717" data-name="Path 33717" d="M508.92,358.9l2.835,3,2.458-3Z" transform="translate(-504 -346)" fill="#293378"/>
  <path id="Path_33718" data-name="Path 33718" d="M513.624,365l-1.365-3.732-.543.518-.559-.518L509.741,365Z" transform="translate(-504 -346)" fill="#293378"/>
</svg>
