<svg xmlns="http://www.w3.org/2000/svg" width="21.505" height="23.501" viewBox="0 0 21.505 23.501">
  <g id="icn_Basic" transform="translate(-839.726 -3505.06)">
    <g id="Group_3187" data-name="Group 3187" transform="translate(839.981 3505.31)">
      <path id="Path_33861" data-name="Path 33861" d="M854.611,3651.721H841.039a1.685,1.685,0,0,1-.369-.025.86.86,0,0,1,.18-1.7c.9-.009,1.8,0,2.7,0,2.935,0,7.869,0,10.8.005a.3.3,0,0,0,.347-.253,3.252,3.252,0,0,1,3.518-2.162,3.314,3.314,0,0,1,.031,6.537,3.24,3.24,0,0,1-3.531-2.1C854.688,3651.933,854.655,3651.841,854.611,3651.721Zm3.133.708a1.572,1.572,0,1,0-1.547-1.574A1.552,1.552,0,0,0,857.744,3652.429Z" transform="translate(-840.005 -3638.858)" fill="#313d8b" stroke="#313d8c" stroke-width="0.5"/>
      <path id="Path_33862" data-name="Path 33862" d="M843.533,3794.6c-.869,0-1.726.005-2.582,0a.861.861,0,0,1-.845-1.152.844.844,0,0,1,.818-.57c.769,0,1.537,0,2.306,0,.1,0,.193,0,.231-.055a9.448,9.448,0,0,1,.818-1.3,3.192,3.192,0,0,1,5.414,1.093.321.321,0,0,0,.367.268c2.686-.008,7.372-.007,10.058,0a.857.857,0,0,1,.861,1.156.87.87,0,0,1-.876.568h-6.373c-1.237,0-2.474,0-3.711,0a.263.263,0,0,0-.3.213,3.211,3.211,0,0,1-6.112,0Zm3.144.709a1.573,1.573,0,1,0-1.562-1.562A1.556,1.556,0,0,0,846.677,3795.313Z" transform="translate(-840.049 -3774.035)" fill="#313d8b" stroke="#313d8c" stroke-width="0.5"/>
      <path id="Path_33863" data-name="Path 33863" d="M843.505,3507.742c.866,0,1.732,0,2.6,0a.276.276,0,0,0,.321-.221,3.207,3.207,0,0,1,6.1,0,.275.275,0,0,0,.319.222c1.733-.005,5.465-.005,7.2,0a.863.863,0,1,1,0,1.723c-1.715,0-5.43,0-7.145,0a.338.338,0,0,0-.392.274,3.2,3.2,0,0,1-6.058,0,.342.342,0,0,0-.39-.279c-1.733.009-3.465,0-5.2,0a.862.862,0,0,1-.642-1.444.858.858,0,0,1,.69-.281C841.772,3507.744,842.639,3507.742,843.505,3507.742Zm7.516.877a1.547,1.547,0,1,0-1.551,1.575A1.557,1.557,0,0,0,851.021,3508.619Z" transform="translate(-839.981 -3505.311)" fill="#313d8b" stroke="#313d8c" stroke-width="0.5"/>
    </g>
  </g>
</svg>
