<svg xmlns="http://www.w3.org/2000/svg" width="20" height="20" viewBox="0 0 20 20">
  <g id="icn_Neutral" transform="translate(-151.42 -87.462)" opacity="0.6">
    <g id="Group_2925" data-name="Group 2925">
      <g id="Group_2924" data-name="Group 2924">
        <path id="Path_33785" data-name="Path 33785" d="M161.42,107.462a10,10,0,1,1,10-10A10.011,10.011,0,0,1,161.42,107.462Zm0-18a8,8,0,1,0,8,8A8.009,8.009,0,0,0,161.42,89.462Z" fill="#041962"/>
      </g>
    </g>
    <g id="Group_2927" data-name="Group 2927">
      <g id="Group_2926" data-name="Group 2926">
        <path id="Path_33786" data-name="Path 33786" d="M158.729,95.762a1,1,0,0,1-.008-2h.008a1,1,0,0,1,0,2Z" fill="#041962"/>
      </g>
    </g>
    <g id="Group_2929" data-name="Group 2929">
      <g id="Group_2928" data-name="Group 2928">
        <path id="Path_33787" data-name="Path 33787" d="M164.129,95.762a1,1,0,1,1-.009-2h.009a1,1,0,0,1,0,2Z" fill="#041962"/>
      </g>
    </g>
    <g id="Group_2930" data-name="Group 2930">
      <path id="Path_33788" data-name="Path 33788" d="M165.018,101.162h-7.2a1,1,0,0,1,0-2h7.2a1,1,0,1,1,0,2Z" fill="#041962"/>
    </g>
  </g>
</svg>
