<svg xmlns="http://www.w3.org/2000/svg" width="28" height="28.001" viewBox="0 0 28 28.001"><defs><style>.a{fill:#fff;stroke-linecap:round;stroke-linejoin:round;}.b,.c{stroke:none;}.c{fill:#2b2a00;}</style></defs><g class="a" transform="translate(18.822 -14.428)"><path class="b" d="M -4.820724487304688 41.67937088012695 C -6.078484535217285 41.67937088012695 -7.347614765167236 41.29096221923828 -8.592854499816895 40.52492141723633 C -9.916044235229492 39.71103286743164 -11.35727500915527 39.30679321289062 -12.99895477294922 39.2890739440918 C -14.05460453033447 39.27841186523438 -14.36147499084473 38.90786361694336 -14.51459503173828 38.31345367431641 C -14.6980447769165 37.60099411010742 -15.39006423950195 37.40091323852539 -15.61747455596924 37.33516311645508 C -16.41966438293457 37.10787200927734 -16.98243522644043 36.8535041809082 -17.44605445861816 36.50925445556641 C -17.86921501159668 36.19415283203125 -18.09697532653809 35.78961181640625 -18.07010459899902 35.39997100830078 C -18.0440845489502 35.02276229858398 -17.78616523742676 34.68120193481445 -17.34383392333984 34.43821334838867 C -16.27118492126465 33.85029220581055 -15.1455545425415 33.19154357910156 -14.21633434295654 32.18272399902344 C -13.77530479431152 31.70232200622559 -13.38446426391602 31.13805198669434 -13.02061462402344 30.45677185058594 C -12.79843425750732 30.03676223754883 -12.56636428833008 29.24564170837402 -13.49263477325439 28.63672256469727 C -13.61236476898193 28.55800247192383 -13.73322486877441 28.48090171813965 -13.85406494140625 28.40384292602539 C -14.28796482086182 28.12715339660645 -14.69780445098877 27.86580276489258 -15.03385448455811 27.53718185424805 C -15.51558494567871 27.06562232971191 -15.74839496612549 26.46178245544434 -15.67231464385986 25.88075256347656 C -15.60028457641602 25.33072280883789 -15.26300430297852 24.85963249206543 -14.72257423400879 24.55427169799805 C -14.51173496246338 24.43512344360352 -14.28372478485107 24.37721252441406 -14.02549457550049 24.37721252441406 C -13.80575466156006 24.37721252441406 -13.56406497955322 24.42046165466309 -13.30714511871338 24.50576210021973 L -12.27673435211182 24.84785270690918 L -12.32146453857422 23.7630729675293 C -12.38709449768066 22.17108345031738 -12.2266149520874 20.85795211791992 -11.83086490631104 19.74864196777344 C -11.38823509216309 18.5079517364502 -10.64822483062744 17.5087718963623 -9.568534851074219 16.69400215148926 C -8.23453426361084 15.68845272064209 -6.677994728088379 15.1784725189209 -4.942454814910889 15.1784725189209 C -4.796884536743164 15.1784725189209 -4.648034572601318 15.18211269378662 -4.500054836273193 15.18929290771484 C -2.156484603881836 15.30324268341064 -0.3481847047805786 16.1320629119873 1.028085350990295 17.72312164306641 C 2.448595285415649 19.36491203308105 2.735445261001587 21.31484222412109 2.729135274887085 23.73756217956543 L 2.726675271987915 24.68428230285645 L 3.648845195770264 24.47006225585938 C 3.873635292053223 24.41784286499023 4.077375411987305 24.39245223999023 4.271705150604248 24.39245223999023 C 4.549865245819092 24.39245223999023 4.806955337524414 24.44644165039062 5.057665348052979 24.55748176574707 C 5.565475463867188 24.78329277038574 5.916475296020508 25.2385425567627 6.019655227661133 25.80608177185059 C 6.131035327911377 26.41865348815918 5.930075168609619 27.04794311523438 5.482085227966309 27.48943328857422 C 5.062055110931396 27.90395164489746 4.536155223846436 28.233642578125 4.030365467071533 28.52823257446289 C 3.547525405883789 28.80901336669922 2.831945419311523 29.45505332946777 3.469305276870728 30.62421226501465 C 4.278555393218994 32.10235214233398 5.535985469818115 33.26580429077148 7.427155494689941 34.28683090209961 C 7.483845233917236 34.31746292114258 7.541345119476318 34.34755325317383 7.598915100097656 34.37765121459961 C 7.867505073547363 34.51810073852539 8.099474906921387 34.6393928527832 8.21064567565918 34.80922317504883 C 8.602974891662598 35.40469360351562 8.450244903564453 36.06319427490234 7.813265323638916 36.52962112426758 C 7.366575241088867 36.85609436035156 6.821215152740479 37.10334396362305 6.09750509262085 37.30733108520508 C 5.424045085906982 37.49865341186523 4.984435081481934 37.89413070678711 4.7520751953125 38.51679229736328 C 4.503995418548584 39.17549133300781 4.038585186004639 39.3043327331543 2.852455377578735 39.33597183227539 C 1.50885534286499 39.37333297729492 0.2783252894878387 39.74516296386719 -0.910284698009491 40.47271347045898 C -2.218134641647339 41.27341079711914 -3.533784627914429 41.67937088012695 -4.820724487304688 41.67937088012695 Z"/><path class="c" d="M -4.942440032958984 15.92847442626953 L -4.942423820495605 15.92847442626953 C -6.511463642120361 15.92850112915039 -7.916133880615234 16.38765335083008 -9.116753578186035 17.29266357421875 C -10.94167327880859 18.6698112487793 -11.69892406463623 20.65582275390625 -11.57209396362305 23.73217391967773 C -11.55180358886719 24.22452163696289 -11.77461433410645 24.69543075561523 -12.16816329956055 24.99196243286133 C -12.43176364898682 25.19057846069336 -12.74936580657959 25.29397773742676 -13.07095146179199 25.29397773742676 C -13.22948741912842 25.29397773742676 -13.38905239105225 25.26882362365723 -13.5434741973877 25.21755218505859 C -13.72402381896973 25.1576042175293 -13.88619422912598 25.12721252441406 -14.02548408508301 25.12721252441406 C -14.15273380279541 25.12721252441406 -14.25697326660156 25.15263366699219 -14.35362434387207 25.20724105834961 C -14.68856430053711 25.39650344848633 -14.88740348815918 25.66306304931641 -14.92866325378418 25.97812271118164 C -14.97384357452393 26.32315254211426 -14.82086372375488 26.69615173339844 -14.50948333740234 27.00095176696777 C -14.22901344299316 27.27523231506348 -13.85100364685059 27.51627349853516 -13.45081329345703 27.7714729309082 C -13.32702350616455 27.85041236877441 -13.20322418212891 27.92941284179688 -13.08064365386963 28.01001167297363 C -12.0725040435791 28.67275238037109 -11.7949333190918 29.74366188049316 -12.35624408721924 30.80482292175293 C -12.35717391967773 30.80658340454102 -12.35811424255371 30.8083324432373 -12.35904407501221 30.81009292602539 C -12.75303363800049 31.54780197143555 -13.1795539855957 32.16239166259766 -13.6646842956543 32.69085311889648 C -14.67080307006836 33.78313446044922 -15.85613441467285 34.47807312011719 -16.98272323608398 35.09556198120117 C -17.18136405944824 35.20468139648438 -17.31448364257812 35.34442138671875 -17.32187271118164 35.45157241821289 C -17.32838439941406 35.54593276977539 -17.24728393554688 35.72217178344727 -16.99896430969238 35.90708160400391 C -16.61165428161621 36.19466400146484 -16.12372398376465 36.41220092773438 -15.41691398620605 36.61245346069336 C -15.4143238067627 36.61318206787109 -15.4117431640625 36.61392211914062 -15.40916442871094 36.61466979980469 C -14.3093433380127 36.93265533447266 -13.92066383361816 37.61233520507812 -13.78830337524414 38.12636184692383 C -13.72090339660645 38.38799285888672 -13.68378353118896 38.53211212158203 -12.99085426330566 38.53911209106445 C -11.20932388305664 38.55834197998047 -9.642213821411133 38.99894332885742 -8.199883460998535 39.88611221313477 C -7.074584007263184 40.57837295532227 -5.937673568725586 40.92937469482422 -4.820723533630371 40.92937469482422 C -3.674013614654541 40.92937469482422 -2.490133762359619 40.56053161621094 -1.301834106445312 39.83303070068359 C 0.001616477966308594 39.03519439697266 1.353396415710449 38.62737274169922 2.832466125488281 38.58621978759766 C 3.935565948486328 38.55681228637695 3.974136352539062 38.45439147949219 4.049406051635742 38.25454330444336 C 4.366586685180664 37.40464019775391 4.98621654510498 36.84336090087891 5.894036293029785 36.58546447753906 C 6.529036521911621 36.40647125244141 6.99843692779541 36.19618988037109 7.370165824890137 35.92450332641602 C 7.801901817321777 35.60836410522461 7.674473762512207 35.36170959472656 7.596146583557129 35.23990631103516 C 7.537346839904785 35.19181060791016 7.36652660369873 35.10248565673828 7.251416206359863 35.04229354858398 C 7.190815925598145 35.01060485839844 7.130295753479004 34.97891235351562 7.070857048034668 34.94679260253906 C 5.046586036682129 33.85390472412109 3.693336486816406 32.59519195556641 2.810795783996582 30.98319244384766 C 2.143566131591797 29.75923347473145 2.46657657623291 28.57001304626465 3.65290641784668 27.88014221191406 C 4.188285827636719 27.56832313537598 4.614585876464844 27.29183197021484 4.955646514892578 26.95525169372559 C 5.226816177368164 26.68801307678223 5.348726272583008 26.30857276916504 5.281756401062012 25.94024276733398 C 5.24760627746582 25.75240325927734 5.133356094360352 25.41194343566895 4.753935813903809 25.24323272705078 C 4.598706245422363 25.17447280883789 4.445476531982422 25.14245223999023 4.271766662597656 25.14245223999023 C 4.137125968933105 25.14246368408203 3.984645843505859 25.16202163696289 3.818546295166016 25.20061111450195 C 3.706153869628906 25.22671890258789 3.592350959777832 25.23952674865723 3.479187965393066 25.23952674865723 C 3.14299201965332 25.23952674865723 2.812780380249023 25.12640762329102 2.544636726379395 24.912841796875 C 2.186236381530762 24.62739181518555 1.977946281433105 24.19379425048828 1.979146003723145 23.73561096191406 C 1.985006332397461 21.48127365112305 1.729065895080566 19.67956161499023 0.460845947265625 18.21378326416016 C -0.7740535736083984 16.7861442565918 -2.408723831176758 16.04186248779297 -4.53636360168457 15.93841171264648 C -4.6723952293396 15.93181228637695 -4.809018135070801 15.92847442626953 -4.942440032958984 15.92847442626953 M -4.942458152770996 14.42847442626953 C -4.783669471740723 14.42847442626953 -4.62418270111084 14.43239212036133 -4.463723659515381 14.4401741027832 C -2.096113681793213 14.55529403686523 -0.0193939208984375 15.36575317382812 1.595315933227539 17.23246383666992 C 3.213126182556152 19.10229110717773 3.485356330871582 21.34701156616211 3.47913646697998 23.7395133972168 C 3.757101058959961 23.67494201660156 4.02004337310791 23.64245986938477 4.271706581115723 23.6424560546875 C 4.656641006469727 23.64244842529297 5.015254020690918 23.71842193603516 5.361406326293945 23.87174224853516 C 6.963665962219238 24.58420181274414 7.296566963195801 26.75425338745117 6.008536338806152 28.02362251281738 C 5.534076690673828 28.49185180664062 4.974066734313965 28.84653282165527 4.40782642364502 29.17632293701172 C 3.902256011962891 29.47032165527344 3.864926338195801 29.78299331665039 4.127816200256348 30.26523208618164 C 4.970955848693848 31.80527305603027 6.282317161560059 32.81641387939453 7.783465385437012 33.62687301635742 C 8.169245719909668 33.83532333374023 8.584595680236816 34.01110076904297 8.838156700134277 34.39845275878906 C 9.451066017150879 35.32869338989258 9.22083568572998 36.42849349975586 8.256365776062012 37.13473510742188 C 7.666796684265137 37.56563186645508 6.996336936950684 37.83320236206055 6.300986289978027 38.02920532226562 C 5.89030647277832 38.1458740234375 5.61496639251709 38.34965515136719 5.454736709594727 38.77900314331055 C 4.998956680297852 39.98925018310547 3.922475814819336 40.05769348144531 2.872456550598145 40.085693359375 C 1.641976356506348 40.11992263793945 0.5359563827514648 40.46681213378906 -0.5187435150146484 41.11239242553711 C -1.942358016967773 41.98396301269531 -3.381251811981201 42.42937469482422 -4.820724487304688 42.42937469482422 C -6.212503433227539 42.42937469482422 -7.604796886444092 42.01330184936523 -8.985834121704102 41.16372299194336 C -10.24275398254395 40.39059448242188 -11.56501388549805 40.05459213256836 -13.00704383850098 40.03902435302734 C -14.08507347106934 40.02814483642578 -14.93754386901855 39.67813110351562 -15.24088382720947 38.50054168701172 C -15.30777359008789 38.24076080322266 -15.56755352020264 38.13031005859375 -15.82578372955322 38.0556526184082 C -16.56158447265625 37.84719085693359 -17.27093315124512 37.57341003417969 -17.89316368103027 37.11141204833984 C -19.19675445556641 36.14071273803711 -19.12364387512207 34.56023406982422 -17.7049446105957 33.7808723449707 C -16.63780403137207 33.19597244262695 -15.60333442687988 32.58151245117188 -14.76797389984131 31.67460250854492 C -14.33241367340088 31.20014190673828 -13.98707389831543 30.67435264587402 -13.68217372894287 30.10345268249512 C -13.46905326843262 29.70055198669434 -13.56861400604248 29.48432350158691 -13.90462303161621 29.2634334564209 C -14.47241401672363 28.89009284973145 -15.06509399414062 28.55563354492188 -15.55822372436523 28.07340240478516 C -16.88358306884766 26.77603340148926 -16.69380378723145 24.8066520690918 -15.09153366088867 23.90130233764648 C -14.77273750305176 23.72114562988281 -14.41676902770996 23.6272087097168 -14.02548789978027 23.6272087097168 C -13.72751426696777 23.6272087097168 -13.40909481048584 23.6816520690918 -13.07082366943359 23.79396438598633 C -13.19838333129883 20.69988250732422 -12.53725433349609 17.99471282958984 -10.02030372619629 16.09533309936523 C -8.508045196533203 14.95540618896484 -6.783356666564941 14.42850875854492 -4.942458152770996 14.42847442626953 Z"/></g></svg>