<svg id="icn_MyProfile" xmlns="http://www.w3.org/2000/svg" xmlns:xlink="http://www.w3.org/1999/xlink" width="19.339" height="24" viewBox="0 0 19.339 24">
  <defs>
    <clipPath id="clip-path">
      <rect id="Rectangle_1438" data-name="Rectangle 1438" width="19.339" height="24" fill="#313d8b"/>
    </clipPath>
  </defs>
  <g id="Group_2689" data-name="Group 2689" clip-path="url(#clip-path)">
    <path id="Path_33556" data-name="Path 33556" d="M19.143,19.119H16.6c0-.6.013-1.179,0-1.76a7.592,7.592,0,0,0-.123-1.648,3.852,3.852,0,0,0-2.518-2.685,12.6,12.6,0,0,0-5.336-.689,10.346,10.346,0,0,0-3.488.679,3.774,3.774,0,0,0-2.6,3.057,23,23,0,0,0-.094,2.368c-.007.215,0,.431,0,.669H0c0-.9,0-1.8,0-2.691a5.6,5.6,0,0,1,.366-1.935,6.392,6.392,0,0,1,3.682-3.765A12.4,12.4,0,0,1,8.408,9.8a15.48,15.48,0,0,1,5.994.69,6.647,6.647,0,0,1,4.08,3.485,6.258,6.258,0,0,1,.587,2.445c.032.824.05,1.647.075,2.471v.234" transform="translate(0 4.881)" fill="#313d8b"/>
    <path id="Path_33558" data-name="Path 33558" d="M8.427,0a6.139,6.139,0,1,0,6.139,6.139A6.14,6.14,0,0,0,8.427,0m0,9.732A3.593,3.593,0,1,1,12.02,6.139,3.592,3.592,0,0,1,8.427,9.732" transform="translate(1.144)" fill="#313d8b"/>
  </g>
</svg>
