<svg xmlns="http://www.w3.org/2000/svg" width="9.167" height="15.005" viewBox="0 0 9.167 15.005">
  <g id="angle-right" transform="translate(12.348 -13.644) rotate(180)">
    <path id="Path_9" data-name="Path 9" d="M8.533-20.993a.444.444,0,0,0-.14-.323L2.878-26.831l5.515-5.515a.444.444,0,0,0,.14-.323.444.444,0,0,0-.14-.323l-.7-.7a.444.444,0,0,0-.323-.14.444.444,0,0,0-.323.14l-6.54,6.54a.444.444,0,0,0-.14.323.444.444,0,0,0,.14.323l6.54,6.54a.444.444,0,0,0,.323.14.444.444,0,0,0,.323-.14l.7-.7A.444.444,0,0,0,8.533-20.993Z" transform="translate(3.315 5.684)" fill="#fff" stroke="#fff" stroke-width="1"/>
  </g>
</svg>
