<svg id="icn_MyDashboard" xmlns="http://www.w3.org/2000/svg" xmlns:xlink="http://www.w3.org/1999/xlink" width="22" height="22" viewBox="0 0 22 22">
  <defs>
    <clipPath id="clip-path">
      <rect id="Rectangle_1452" data-name="Rectangle 1452" width="22" height="22" fill="#313d8b"/>
    </clipPath>
  </defs>
  <g id="Group_2705" data-name="Group 2705" clip-path="url(#clip-path)">
    <path id="Path_33574" data-name="Path 33574" d="M20.917,6.25H14.806V2.583h6.111ZM8.694,11.139H2.583V2.583H8.694Zm12.222,9.778H14.806V12.361h6.111Zm-12.222,0H2.583V17.25H8.694ZM21.528.75H14.194a1.226,1.226,0,0,0-1.222,1.222V6.861a1.225,1.225,0,0,0,1.222,1.222h7.333A1.225,1.225,0,0,0,22.75,6.861V1.972A1.226,1.226,0,0,0,21.528.75M9.306.75H1.972A1.226,1.226,0,0,0,.75,1.972V11.75a1.225,1.225,0,0,0,1.222,1.222H9.306a1.225,1.225,0,0,0,1.222-1.222V1.972A1.226,1.226,0,0,0,9.306.75m12.222,9.778H14.194a1.226,1.226,0,0,0-1.222,1.222v9.778a1.225,1.225,0,0,0,1.222,1.222h7.333a1.225,1.225,0,0,0,1.222-1.222V11.75a1.226,1.226,0,0,0-1.222-1.222M9.306,15.417H1.972A1.226,1.226,0,0,0,.75,16.639v4.889A1.225,1.225,0,0,0,1.972,22.75H9.306a1.225,1.225,0,0,0,1.222-1.222V16.639a1.226,1.226,0,0,0-1.222-1.222" transform="translate(-0.75 -0.75)" fill="#313d8b"/>
  </g>
</svg>
