<svg xmlns="http://www.w3.org/2000/svg" xmlns:xlink="http://www.w3.org/1999/xlink" width="26" height="26" viewBox="0 0 26 26"><defs><style>.a{fill:#fff;}.b{clip-path:url(#a);}</style><clipPath id="a"><rect class="a" width="26" height="26" rx="5"/></clipPath></defs><g class="b"><path class="a" d="M4.747,0A4.737,4.737,0,0,0,0,4.747v16.5A4.737,4.737,0,0,0,4.747,26h8.945V15.835H11.005V12.176h2.687V9.049c0-2.456,1.588-4.712,5.246-4.712a22.166,22.166,0,0,1,2.576.142L21.429,7.9s-1.117-.011-2.336-.011c-1.319,0-1.53.608-1.53,1.617v2.672h3.972l-.173,3.659h-3.8V26h3.69A4.737,4.737,0,0,0,26,21.253V4.747A4.737,4.737,0,0,0,21.253,0Z"/></g></svg>