<svg xmlns="http://www.w3.org/2000/svg" width="29.871" height="41.995" viewBox="0 0 29.871 41.995"><defs><style>.a{fill:#303f9f;}</style></defs><g transform="translate(-66.988 10.002)"><path class="a" d="M9.756,39.875V36.95H8.018a1.99,1.99,0,1,1,0-3.98H9.756V29.82a11.787,11.787,0,0,1-6.937-4.006A11.577,11.577,0,0,1,0,18.236a11.77,11.77,0,0,1,18.42-9.627l4.465-4.624H20.1a2,2,0,0,1-2.01-1.993A2.005,2.005,0,0,1,20.1,0h7.5a2.018,2.018,0,0,1,1.545.721,1.984,1.984,0,0,1,.725,1.537V9.709a2.007,2.007,0,0,1-4.014,0V6.657l-4.568,4.733a11.556,11.556,0,0,1,2.3,6.932,11.722,11.722,0,0,1-9.824,11.523V32.97H15.5a1.99,1.99,0,1,1,0,3.98H13.764v2.925a2.064,2.064,0,0,1-2,2.12A2.064,2.064,0,0,1,9.756,39.875Zm2-13.944a7.731,7.731,0,0,0,7.748-7.7,7.648,7.648,0,0,0-1.764-4.888A7.758,7.758,0,0,0,4.08,18.321a7.631,7.631,0,0,0,1.625,4.711A7.753,7.753,0,0,0,11.76,25.932Z" transform="translate(66.99 -10.002)"/></g></svg>