<svg xmlns="http://www.w3.org/2000/svg" width="25.28" height="23.876" viewBox="0 0 25.28 23.876"><defs><style>.a,.b,.d{fill:none;}.a{stroke:#fff;stroke-width:2px;}.c,.e{stroke:none;}.e{fill:#fff;}</style></defs><g transform="matrix(0.966, -0.259, 0.259, 0.966, -91.781, 11.817)"><g class="a" transform="translate(93.932 31.598)"><rect class="c" width="2.646" height="6.056" rx="1.323"/><rect class="d" x="1" y="1" width="0.646" height="4.056" rx="0.323"/></g><g class="a" transform="translate(88.654 23.754)"><path class="c" d="M3,0H5.292a0,0,0,0,1,0,0V7.056a0,0,0,0,1,0,0H3a3,3,0,0,1-3-3V3A3,3,0,0,1,3,0Z"/><path class="d" d="M3,1h.292a1,1,0,0,1,1,1V5.056a1,1,0,0,1-1,1H3a2,2,0,0,1-2-2V3A2,2,0,0,1,3,1Z"/></g><g class="a" transform="translate(92.171 21.115)"><path class="c" d="M3,0H6.174a0,0,0,0,1,0,0V12.348a0,0,0,0,1,0,0H3a3,3,0,0,1-3-3V3A3,3,0,0,1,3,0Z"/><path class="d" d="M3,1H4.174a1,1,0,0,1,1,1v8.348a1,1,0,0,1-1,1H3a2,2,0,0,1-2-2V3A2,2,0,0,1,3,1Z"/></g><g class="b" transform="translate(96.542 17.654)"><path class="c" d="M0,3.5,11.538,0C13.45,0,15,1.174,15,2.622v13.11c0,1.448-1.55,2.622-3.462,2.622L0,15.732Z"/><path class="e" d="M 11.7949275970459 2.012075424194336 L 2 4.979816436767578 L 2 14.13554000854492 L 11.73266315460205 16.34719848632812 C 12.57762145996094 16.28664016723633 13 15.84264755249023 13 15.73204708099365 L 13 2.622006416320801 C 13 2.514161109924316 12.59831809997559 2.089315414428711 11.7949275970459 2.012075424194336 M 11.53845977783203 -3.814697265625e-06 C 13.45022010803223 -3.814697265625e-06 15 1.173906326293945 15 2.622006416320801 L 15 15.73204708099365 C 15 17.18013763427734 13.45022010803223 18.35405731201172 11.53845977783203 18.35405731201172 L 0 15.73204708099365 L 0 3.496006965637207 L 11.53845977783203 -3.814697265625e-06 Z"/></g></g></svg>