<svg xmlns="http://www.w3.org/2000/svg" width="24.526" height="24.512" viewBox="0 0 24.526 24.512">
  <path id="icn_Support" d="M21.986,9.125h-.052a7.723,7.723,0,0,0-15.343,0H6.54a4.29,4.29,0,1,0,0,8.581H8.257V9.983a6.007,6.007,0,0,1,12.013,0v8.581a3.432,3.432,0,0,1-2.72,3.355,3.432,3.432,0,1,0,.043,1.716,5.149,5.149,0,0,0,4.393-5.071v-.858a4.29,4.29,0,0,0,0-8.581Zm-18.02,4.29A2.574,2.574,0,0,1,6.54,10.841v5.149a2.574,2.574,0,0,1-2.574-2.574Zm10.3,11.155a1.716,1.716,0,1,1,1.716-1.716A1.716,1.716,0,0,1,14.263,24.57Zm7.723-8.581V10.841a2.574,2.574,0,0,1,0,5.149Z" transform="translate(-2 -2.042)" fill="#313d8b" stroke="#313d8b" stroke-width="0.5"/>
</svg>
