<svg xmlns="http://www.w3.org/2000/svg" width="20" height="20" viewBox="0 0 20 20"><defs><style>.a{opacity:0.6;}.b{fill:#fff;}</style></defs><g class="a" transform="translate(-173.765 -111.541)"><path class="b" d="M184.766,114.542a8,8,0,1,1-8,8,8.009,8.009,0,0,1,8-8m0-2a10,10,0,1,0,10,10,10,10,0,0,0-10-10Z" transform="translate(-1.001 -1.001)"/><circle class="b" cx="3" cy="3" r="3" transform="translate(180.765 118.541)"/><rect class="b" width="2" height="5" rx="1" transform="translate(182.765 111.542)"/><rect class="b" width="2" height="5" rx="1" transform="translate(182.765 126.542)"/><rect class="b" width="2" height="5" rx="1" transform="translate(193.765 120.541) rotate(90)"/><rect class="b" width="2" height="5" rx="1" transform="translate(178.765 120.541) rotate(90)"/></g></svg>