<svg xmlns="http://www.w3.org/2000/svg" xmlns:xlink="http://www.w3.org/1999/xlink" width="31.167" height="22" viewBox="0 0 31.167 22"><defs><style>.a{fill:#fff;}.b{clip-path:url(#a);}</style><clipPath id="a"><rect class="a" width="31.167" height="22"/></clipPath></defs><g class="b"><path class="a" d="M15.708,22c-2.938.015-5.683-.01-8.423-.167a23.761,23.761,0,0,1-3.274-.335A4.288,4.288,0,0,1,.4,17.676a38.521,38.521,0,0,1-.383-4.988C-.028,10.6,0,8.523.159,6.444a15.761,15.761,0,0,1,.392-2.82A4.088,4.088,0,0,1,3.906.535,26.758,26.758,0,0,1,8.3.131c2.194-.1,4.39-.123,6.586-.129,3.108-.01,6.214.038,9.315.218a21.219,21.219,0,0,1,3.24.353A3.851,3.851,0,0,1,30.58,3.759a29.156,29.156,0,0,1,.511,4.594,52.072,52.072,0,0,1-.143,7.537,14.914,14.914,0,0,1-.383,2.5,4.066,4.066,0,0,1-3.326,3.077,27.154,27.154,0,0,1-4.358.4c-2.455.117-4.911.14-7.173.128m-3.1-15.883v9.775L20.383,11C17.767,9.356,15.2,7.743,12.605,6.113" transform="translate(0 0.001)"/></g></svg>