<svg xmlns="http://www.w3.org/2000/svg" xmlns:xlink="http://www.w3.org/1999/xlink" width="30" height="30" viewBox="0 0 30 30"><defs><style>.a{fill:#fff;}.b{clip-path:url(#a);}</style><clipPath id="a"><rect class="a" width="30" height="30" transform="translate(0 0)"/></clipPath></defs><g transform="translate(0 0.001)"><g class="b" transform="translate(0 0)"><path class="a" d="M22.05,20.727V8.887a4.964,4.964,0,0,0-4.958-4.958h-4.8l1.752-1.752a1.275,1.275,0,1,0-1.8-1.8L8.31,4.3a1.281,1.281,0,0,0,0,1.806l3.928,3.927a1.309,1.309,0,0,0,1.8,0,1.278,1.278,0,0,0,0-1.8L12.29,6.477h4.8A2.411,2.411,0,0,1,19.5,8.887V20.726a4.224,4.224,0,1,0,2.551,0m.4,4a1.671,1.671,0,1,1-1.671-1.673,1.674,1.674,0,0,1,1.671,1.673" transform="translate(4.939 0.001)"/><path class="a" d="M12.7,19.516a1.276,1.276,0,0,0-1.8,1.806l1.752,1.75h-4.8a2.411,2.411,0,0,1-2.408-2.408V8.848A4.215,4.215,0,1,0,0,4.809,4.19,4.19,0,0,0,1.232,7.8,4.111,4.111,0,0,0,2.884,8.805V20.664a4.963,4.963,0,0,0,4.958,4.957h4.8l-1.752,1.752a1.276,1.276,0,0,0,1.8,1.8l3.928-3.928a1.279,1.279,0,0,0,0-1.8ZM5.893,4.823A1.653,1.653,0,0,1,5.4,6,1.711,1.711,0,0,1,3.038,6,1.672,1.672,0,1,1,5.893,4.823" transform="translate(0 0.384)"/></g></g></svg>