<svg xmlns="http://www.w3.org/2000/svg" width="32" height="32" viewBox="0 0 32 32"><defs><style>.a{opacity:0.9;}.b{fill:#ffb100;}.c{fill:#fff;stroke:#fff;stroke-linecap:round;stroke-linejoin:round;}.d{fill:#ffb818;}</style></defs><g class="a" transform="translate(-568 -260)"><rect class="b" width="32" height="32" rx="8" transform="translate(568 260)"/><g transform="translate(576.816 267.773)"><g transform="translate(-0.001 0)"><g transform="translate(0)"><path class="c" d="M-86.439,65.8a25.954,25.954,0,0,0,.739-3.027,6.9,6.9,0,0,0,.137-2.189,4.575,4.575,0,0,0-.293-.839,8.346,8.346,0,0,1,.3-6.833,8.219,8.219,0,0,1,6.169-4.567,8.207,8.207,0,0,1,6.742,1.716,8.12,8.12,0,0,1,3.052,5.2,8.253,8.253,0,0,1-1.414,6.315,8.259,8.259,0,0,1-5.647,3.5,8.292,8.292,0,0,1-4.92-.709.626.626,0,0,0-.591,0,16.771,16.771,0,0,1-4.1,1.4C-86.311,65.784-86.36,65.789-86.439,65.8Z" transform="translate(85.892 -48.779)"/></g></g></g><g transform="translate(580 272.5)"><g transform="translate(0 0)"><path class="d" d="M-77.026-.366v-.771a2.156,2.156,0,0,0,2.038-1.516,2.208,2.208,0,0,1-.9-.339,2.193,2.193,0,0,1-.838-2.6,2.194,2.194,0,0,1,2.233-1.4,2.179,2.179,0,0,1,1.957,1.807,3.9,3.9,0,0,1-.232,1.834,3.739,3.739,0,0,1-.424.874A4.577,4.577,0,0,1-74.508-1.13a4.462,4.462,0,0,1-2.129.746A3.059,3.059,0,0,1-77.026-.366Z" transform="translate(77.026 7.007)"/><path class="d" d="M-82.692-.358v-.77a2.151,2.151,0,0,0,2.034-1.511,2.885,2.885,0,0,1-.556-.163,2.1,2.1,0,0,1-1.273-1.532,2.178,2.178,0,0,1,1.664-2.6,2.044,2.044,0,0,1,.933-.01,2.2,2.2,0,0,1,1.374.972A2.391,2.391,0,0,1-78.208-4.3a4.659,4.659,0,0,1-.444,1.455,4.622,4.622,0,0,1-1.083,1.39,3.878,3.878,0,0,1-.7.51,4.5,4.5,0,0,1-1.6.544A3.7,3.7,0,0,1-82.692-.358Z" transform="translate(88.364 6.998)"/></g></g></g></svg>