<svg xmlns="http://www.w3.org/2000/svg" xmlns:xlink="http://www.w3.org/1999/xlink" width="32" height="32" viewBox="0 0 32 32"><defs><style>.a,.c{fill:none;}.b{clip-path:url(#a);}.c{stroke:#fff;stroke-linecap:round;stroke-linejoin:round;stroke-width:2px;}.d{fill:#3ebbf2;}.e{fill:#fff;}</style><clipPath id="a"><rect class="a" width="32" height="32" transform="translate(-0.174 -0.174)"/></clipPath></defs><g transform="translate(0.76 0.76)"><g class="b" transform="translate(-0.586 -0.586)"><path class="c" d="M2.52,24.283,9.583,12.369l9.729,8.576,4.97-18.424" transform="translate(2.425 2.425)"/><path class="d" d="M7.928,12.559A2.972,2.972,0,1,1,10.9,9.587a2.975,2.975,0,0,1-2.972,2.972" transform="translate(4.079 5.206)"/><path class="e" d="M8.438,8.385A1.713,1.713,0,1,1,6.725,10.1,1.716,1.716,0,0,1,8.438,8.385m0-2.519A4.232,4.232,0,1,0,12.669,10.1,4.231,4.231,0,0,0,8.438,5.866" transform="translate(3.57 4.697)"/><path class="d" d="M3.722,19.654a2.972,2.972,0,1,1,2.972-2.972,2.975,2.975,0,0,1-2.972,2.972" transform="translate(1.223 10.025)"/><path class="e" d="M4.232,15.479a1.713,1.713,0,1,1-1.713,1.714,1.716,1.716,0,0,1,1.713-1.714m0-2.519a4.232,4.232,0,1,0,4.232,4.233A4.232,4.232,0,0,0,4.232,12.96" transform="translate(0.713 9.515)"/><path class="d" d="M13.724,17.667A2.972,2.972,0,1,1,16.7,14.693a2.976,2.976,0,0,1-2.974,2.974" transform="translate(8.014 8.675)"/><path class="e" d="M14.233,13.492A1.713,1.713,0,1,1,12.519,15.2a1.718,1.718,0,0,1,1.714-1.713m0-2.519A4.232,4.232,0,1,0,18.466,15.2a4.231,4.231,0,0,0-4.233-4.232" transform="translate(7.505 8.166)"/><path class="d" d="M16.684,6.694a2.972,2.972,0,1,1,2.97-2.972,2.976,2.976,0,0,1-2.97,2.972" transform="translate(10.024 1.223)"/><path class="e" d="M17.193,2.519a1.713,1.713,0,1,1-1.716,1.713,1.715,1.715,0,0,1,1.716-1.713m0-2.519a4.232,4.232,0,1,0,4.23,4.232A4.232,4.232,0,0,0,17.193,0" transform="translate(9.515 0.713)"/></g></g></svg>