<svg xmlns="http://www.w3.org/2000/svg" width="22.613" height="24.361" viewBox="0 0 22.613 24.361">
  <g id="icn_Upgrade" transform="translate(-3.211 -2.04)">
    <path id="Path_33707" data-name="Path 33707" d="M20.343,27H11.828a1.715,1.715,0,0,0-1.7,1.727v1.727a1.715,1.715,0,0,0,1.7,1.727h8.515a1.715,1.715,0,0,0,1.7-1.727V28.727A1.715,1.715,0,0,0,20.343,27Zm0,3.455H11.828V28.727h8.515Z" transform="translate(-1.568 -5.932)" fill="#313d8b" stroke="#313d8b" stroke-width="0.3"/>
    <path id="Path_33708" data-name="Path 33708" d="M25.41,12.755,15.124,2.5a.859.859,0,0,0-1.212,0L3.626,12.755a.854.854,0,0,0,.606,1.458H8.518v3.418a1.713,1.713,0,0,0,1.714,1.709H18.8a1.714,1.714,0,0,0,1.714-1.709V14.213H24.8a.854.854,0,0,0,.606-1.458ZM18.8,12.5v5.127H10.232V12.5H6.3l8.217-8.191L22.735,12.5Z" fill="#313d8b" stroke="#313d8b" stroke-width="0.3"/>
  </g>
</svg>
