<svg xmlns="http://www.w3.org/2000/svg" width="26" height="26" viewBox="0 0 26 26"><defs><style>.a{fill:#fff;fill-rule:evenodd;}</style></defs><g transform="translate(29.823 1.004)"><g transform="translate(-29.823 -1.004)"><path class="a" d="M63.623-24.338c-3.531,0-3.973.016-5.36.078a9.556,9.556,0,0,0-3.155.6,6.629,6.629,0,0,0-3.8,3.8,9.583,9.583,0,0,0-.6,3.155c-.064,1.387-.078,1.829-.078,5.36s.014,3.973.078,5.36a9.59,9.59,0,0,0,.6,3.155,6.632,6.632,0,0,0,3.8,3.8,9.59,9.59,0,0,0,3.155.6c1.387.062,1.829.078,5.36.078s3.973-.016,5.36-.078a9.55,9.55,0,0,0,3.155-.6,6.629,6.629,0,0,0,3.8-3.8,9.556,9.556,0,0,0,.6-3.155c.062-1.387.078-1.829.078-5.36s-.016-3.973-.078-5.36a9.55,9.55,0,0,0-.6-3.155,6.625,6.625,0,0,0-3.8-3.8,9.55,9.55,0,0,0-3.155-.6c-1.387-.062-1.829-.078-5.36-.078M63.618-7.009a4.333,4.333,0,0,1-4.333-4.333,4.333,4.333,0,0,1,4.333-4.333,4.332,4.332,0,0,1,4.333,4.333,4.332,4.332,0,0,1-4.333,4.333h0m0-11.008a6.675,6.675,0,0,0-6.676,6.675,6.675,6.675,0,0,0,6.676,6.675,6.675,6.675,0,0,0,6.675-6.675,6.675,6.675,0,0,0-6.675-6.675h0M72.836-19a1.56,1.56,0,0,1-1.56,1.56A1.56,1.56,0,0,1,69.716-19a1.56,1.56,0,0,1,1.56-1.56A1.56,1.56,0,0,1,72.836-19h0" transform="translate(-50.623 24.338)"/></g></g></svg>