<svg xmlns="http://www.w3.org/2000/svg" xmlns:xlink="http://www.w3.org/1999/xlink" width="22" height="22" viewBox="0 0 22 22">
  <defs>
    <clipPath id="clip-path">
      <rect id="Rectangle_1459" data-name="Rectangle 1459" width="22" height="22" fill="#041962"/>
    </clipPath>
  </defs>
  <g id="icn_Research" opacity="0.6">
    <g id="Group_2719" data-name="Group 2719" clip-path="url(#clip-path)">
      <path id="Path_33589" data-name="Path 33589" d="M11,0A11,11,0,1,0,22,11,11,11,0,0,0,11,0m8.723,9.9H12.1V2.278A8.8,8.8,0,0,1,19.723,9.9M2.2,11A8.8,8.8,0,0,1,9.9,2.278V19.723A8.8,8.8,0,0,1,2.2,11m9.9,8.723V12.1h7.623A8.8,8.8,0,0,1,12.1,19.723" fill="#041962"/>
      <path id="Path_33590" data-name="Path 33590" d="M16.518,7.975A7.231,7.231,0,0,0,12.4,3.855V7.975Z" transform="translate(1.24 0.385)" fill="#041962"/>
    </g>
  </g>
</svg>
