<svg xmlns="http://www.w3.org/2000/svg" width="16" height="15.999" viewBox="0 0 16 15.999"><defs><style>.a{fill:#041962;}</style></defs><path class="a" d="M112.466,41.38a.915.915,0,0,0-.036-.161l-.024-.073a1.054,1.054,0,0,0-.159-.252.965.965,0,0,0-.187-.166,1.086,1.086,0,0,0-.271-.121.945.945,0,0,0-.254-.037h-4.487a.941.941,0,1,0,0,1.881h2.219l-3.132,3.132a6.076,6.076,0,1,0-3.591,10.986,6.175,6.175,0,0,0,.687-.039,6.075,6.075,0,0,0,4.234-9.617l3.132-3.132V46a.941.941,0,1,0,1.881,0V41.472Zm-.3.048ZM99.592,53.456a4.194,4.194,0,0,1,2.961-7.16h0a4.193,4.193,0,0,1,0,8.386h0A4.165,4.165,0,0,1,99.592,53.456Z" transform="translate(-96.478 -40.571)"/></svg>