<svg xmlns="http://www.w3.org/2000/svg" width="20" height="20" viewBox="0 0 20 20">
  <g id="icn_Negative" transform="translate(-123.42 -78.477)" opacity="0.6">
    <g id="Group_2919" data-name="Group 2919">
      <path id="Path_33781" data-name="Path 33781" d="M133.42,98.477a10,10,0,1,1,10-10A10.011,10.011,0,0,1,133.42,98.477Zm0-18a8,8,0,1,0,8,8A8.009,8.009,0,0,0,133.42,80.477Z" fill="#041962"/>
    </g>
    <g id="Group_2920" data-name="Group 2920">
      <path id="Path_33782" data-name="Path 33782" d="M133.42,89.278a5.864,5.864,0,0,1,4.4,2.2,1,1,0,0,1-1.6,1.2,3.5,3.5,0,0,0-5.609,0,1,1,0,0,1-1.6-1.206A5.868,5.868,0,0,1,133.42,89.278Z" fill="#041962"/>
    </g>
    <g id="Group_2921" data-name="Group 2921">
      <path id="Path_33783" data-name="Path 33783" d="M130.729,86.777a1,1,0,0,1-.008-2h.008a1,1,0,0,1,0,2Z" fill="#041962"/>
    </g>
    <g id="Group_2922" data-name="Group 2922">
      <path id="Path_33784" data-name="Path 33784" d="M136.129,86.777a1,1,0,1,1-.009-2h.009a1,1,0,0,1,0,2Z" fill="#041962"/>
    </g>
  </g>
</svg>
