<svg xmlns="http://www.w3.org/2000/svg" xmlns:xlink="http://www.w3.org/1999/xlink" width="26" height="26" viewBox="0 0 26 26"><defs><style>.a{fill:#fff;}.b{clip-path:url(#a);}</style><clipPath id="a"><rect class="a" width="26" height="26" rx="5"/></clipPath></defs><g class="b"><path class="a" d="M21.667,8.159a7.536,7.536,0,0,1-2.048.576,3.457,3.457,0,0,0,1.574-1.98,7.053,7.053,0,0,1-2.269.863A3.379,3.379,0,0,0,16.334,6.5a3.554,3.554,0,0,0-3.555,3.555,3.265,3.265,0,0,0,.085.813,10.068,10.068,0,0,1-4.1-1.1A10.057,10.057,0,0,1,5.518,7.143a3.519,3.519,0,0,0-.491,1.794A3.353,3.353,0,0,0,6.568,11.9a4.188,4.188,0,0,1-1.693-.44v.034a3.38,3.38,0,0,0,.846,2.26A3.552,3.552,0,0,0,7.8,14.98a3.3,3.3,0,0,1-.863.136,4.75,4.75,0,0,1-.66-.068,3.613,3.613,0,0,0,1.261,1.761A3.377,3.377,0,0,0,9.6,17.52a7.025,7.025,0,0,1-4.418,1.523,6.859,6.859,0,0,1-.846-.051,9.973,9.973,0,0,0,5.451,1.591,10.359,10.359,0,0,0,3.555-.6,9.155,9.155,0,0,0,2.844-1.608,10.673,10.673,0,0,0,2.04-2.319,10.232,10.232,0,0,0,1.684-5.594q0-.3-.017-.457a6.906,6.906,0,0,0,1.777-1.845ZM26,4.875v16.25A4.882,4.882,0,0,1,21.125,26H4.875A4.7,4.7,0,0,1,1.43,24.57,4.692,4.692,0,0,1,0,21.125V4.875A4.7,4.7,0,0,1,1.43,1.43,4.692,4.692,0,0,1,4.875,0h16.25A4.7,4.7,0,0,1,24.57,1.43,4.692,4.692,0,0,1,26,4.875Z"/></g></svg>