<svg xmlns="http://www.w3.org/2000/svg" width="27.137" height="21.322" viewBox="0 0 27.137 21.322"><defs><style>.a{fill:#fff;}</style></defs><g transform="translate(29.822 0.004)"><g transform="translate(-29.822 -0.004)"><path class="a" d="M-26.074,12.477a7.016,7.016,0,0,1-1.768-1.515,5.325,5.325,0,0,1-1.239-3.293.588.588,0,0,1,.32-.621.628.628,0,0,1,.714.109c.118.093.255.167.407.264.023-.137-.068-.2-.114-.272a5.3,5.3,0,0,1-.209-5.834c.293-.52.739-.546,1.136-.088A14.042,14.042,0,0,0-17.54,6.111c.11.013.22.028.33.04a.559.559,0,0,0,.077-.009A6.64,6.64,0,0,1-17,4.441,5.31,5.31,0,0,1-12.964.285a5.872,5.872,0,0,1,5.626,1.1.438.438,0,0,0,.448.088A12.791,12.791,0,0,0-4.3.465a.592.592,0,0,1,.673.024.53.53,0,0,1,.209.633,4.819,4.819,0,0,1-.653,1.3c-.053.077-.138.141-.145.267a2.886,2.886,0,0,0,.647-.208.61.61,0,0,1,.748.135.553.553,0,0,1,0,.71,10.058,10.058,0,0,1-2.3,2.333.461.461,0,0,0-.206.462,11.924,11.924,0,0,1-1.064,5.585,15.731,15.731,0,0,1-9.24,8.687A15.621,15.621,0,0,1-26.45,20.3a20.932,20.932,0,0,1-2.9-1.275c-.4-.215-.537-.441-.44-.75.092-.293.357-.414.813-.376a10.727,10.727,0,0,0,5.62-1.018,1.042,1.042,0,0,0,.36-.217c-.271-.085-.531-.159-.783-.251a6.27,6.27,0,0,1-3.559-3.108.588.588,0,0,1,.028-.736.654.654,0,0,1,.734-.144A.849.849,0,0,0-26.074,12.477Z" transform="translate(29.822 0.004)"/></g></g></svg>