<svg xmlns="http://www.w3.org/2000/svg" xmlns:xlink="http://www.w3.org/1999/xlink" width="19" height="22" viewBox="0 0 19 22">
  <defs>
    <clipPath id="clip-path">
      <rect id="Rectangle_1454" data-name="Rectangle 1454" width="19" height="22" fill="#041962"/>
    </clipPath>
  </defs>
  <g id="icn_Auditing" opacity="0.6">
    <g id="Group_2709" data-name="Group 2709" clip-path="url(#clip-path)">
      <path id="Path_33577" data-name="Path 33577" d="M19.249,8.181c0,1.077-.007,2.154,0,3.23a8.651,8.651,0,0,1-3.9,7.469,33.709,33.709,0,0,1-5.52,3.06.422.422,0,0,1-.386.021,30.952,30.952,0,0,1-5.964-3.405A8.451,8.451,0,0,1,.011,11.7c-.02-2.465,0-4.933,0-7.4,0-.765.33-1.1,1.1-1.145A13.888,13.888,0,0,0,6.953,1.349C7.578,1,8.183.631,8.774.232a1.685,1.685,0,0,1,1.708,0,17.875,17.875,0,0,0,5.007,2.455,12.483,12.483,0,0,0,2.681.467A.989.989,0,0,1,19.247,4.28c0,1.3,0,2.6,0,3.9M1.941,5v6.848a5.263,5.263,0,0,0,.193,1.44A6.422,6.422,0,0,0,4.9,17.151c1.511.952,3.08,1.8,4.626,2.694.1.057.164.02.244-.026,1.4-.794,2.816-1.569,4.188-2.418a6.641,6.641,0,0,0,1.187-.81,6.823,6.823,0,0,0,2.2-5.037c.006-1.989,0-3.977,0-5.967V5.007a17.147,17.147,0,0,1-7.7-3.057A17.2,17.2,0,0,1,1.941,5" transform="translate(0 0)" fill="#041962"/>
      <path id="Path_33578" data-name="Path 33578" d="M7.575,10.33a1.881,1.881,0,0,1,.148-.2c1.066-1.066,2.13-2.134,3.2-3.2a.91.91,0,0,1,1.55.388.843.843,0,0,1-.226.857Q10.215,10.2,8.174,12.22a.888.888,0,0,1-1.265-.006q-1.045-1.021-2.071-2.058a.89.89,0,0,1,0-1.258A.9.9,0,0,1,6.12,8.877c.477.461.938.934,1.455,1.453" transform="translate(1.488 1.795)" fill="#041962"/>
    </g>
  </g>
</svg>
