<svg xmlns="http://www.w3.org/2000/svg" width="19.378" height="17.45" viewBox="0 0 19.378 17.45"><defs><style>.a{fill:#fff;stroke:#fff;stroke-width:0.5px;}</style></defs><g transform="translate(0.25 0.25)"><path class="a" d="M18.056,8.622V8.438a5.893,5.893,0,0,0-5.99-5.759,6,6,0,0,0-5.5,3.513,5.56,5.56,0,0,0-3.339,9.456,5.5,5.5,0,0,0,3.906,1.612h.443V16.109H7.131a4.407,4.407,0,0,1-.143-8.788h.384L7.5,6.958a4.832,4.832,0,0,1,4.585-3.11,4.744,4.744,0,0,1,4.843,4.607,4.484,4.484,0,0,1,0,.461l-.046.415.373.173A3.458,3.458,0,0,1,15.8,16.109H14.426v1.152H15.8a4.61,4.61,0,0,0,2.253-8.638Z" transform="translate(-1.6 -2.678)"/><path class="a" d="M18.063,18.878a.557.557,0,0,0,.4-.953L15.679,15.14l-2.785,2.785a.557.557,0,0,0,.785.785l1.443-1.421v6.824a.557.557,0,0,0,1.114,0V17.29l1.432,1.432A.557.557,0,0,0,18.063,18.878Z" transform="translate(-6.278 -7.721)"/></g></svg>