<svg xmlns="http://www.w3.org/2000/svg" width="33" height="32.143" viewBox="0 0 33 32.143"><defs><style>.a{fill:none;stroke:#3b4ec4;stroke-linecap:round;stroke-linejoin:round;stroke-width:3px;}.b{fill:#3b4ec4;}</style></defs><g transform="translate(-19 -20)"><path class="a" d="M34,17.571a14.366,14.366,0,0,1-1.543,6.514,14.571,14.571,0,0,1-13.029,8.057A14.366,14.366,0,0,1,12.914,30.6L4,31.286l2.4-7.2a14.366,14.366,0,0,1-1.543-6.514A14.571,14.571,0,0,1,12.914,4.543,14.366,14.366,0,0,1,19.429,3h.857A14.537,14.537,0,0,1,34,16.714Z" transform="translate(16.5 18.5)"/><circle class="b" cx="1.5" cy="1.5" r="1.5" transform="translate(28.809 34.974)"/><circle class="b" cx="1.5" cy="1.5" r="1.5" transform="translate(34.796 34.974)"/><circle class="b" cx="1.5" cy="1.5" r="1.5" transform="translate(40.784 34.974)"/></g></svg>