<svg xmlns="http://www.w3.org/2000/svg" xmlns:xlink="http://www.w3.org/1999/xlink" width="26" height="26" viewBox="0 0 26 26"><defs><style>.a{fill:#fff;}.b{clip-path:url(#a);}</style><clipPath id="a"><rect class="a" width="26" height="26" rx="5"/></clipPath></defs><g class="b"><g transform="translate(0.022 0)"><path class="a" d="M30.193,11.97a9.412,9.412,0,0,0-.6-3.194,6.645,6.645,0,0,0-3.8-3.8,9.522,9.522,0,0,0-3.151-.605c-1.387-.062-1.826-.08-5.347-.08s-3.972,0-5.348.08A9.522,9.522,0,0,0,8.8,4.981,6.641,6.641,0,0,0,5,8.776a9.447,9.447,0,0,0-.6,3.149c-.062,1.388-.081,1.828-.081,5.348s0,3.97.081,5.348A9.5,9.5,0,0,0,5,25.772a6.645,6.645,0,0,0,3.8,3.794,9.49,9.49,0,0,0,3.149.649c1.388.062,1.828.081,5.348.081s3.972,0,5.348-.081a9.5,9.5,0,0,0,3.151-.6,6.653,6.653,0,0,0,3.8-3.8,9.468,9.468,0,0,0,.6-3.152c.062-1.387.081-1.826.081-5.348s0-3.967-.084-5.347Zm-12.9,11.96a6.663,6.663,0,1,1,6.664-6.663,6.661,6.661,0,0,1-6.664,6.663Zm6.929-12.02a1.553,1.553,0,1,1,1.552-1.554A1.552,1.552,0,0,1,24.217,11.91Z" transform="translate(-4.319 -4.295)"/><path class="a" d="M21.616,17.266a4.329,4.329,0,1,1-4.329-4.329,4.329,4.329,0,0,1,4.329,4.329Z" transform="translate(-4.319 -4.295)"/></g></g></svg>