<svg id="icn_Manage" xmlns="http://www.w3.org/2000/svg" xmlns:xlink="http://www.w3.org/1999/xlink" width="28.756" height="23" viewBox="0 0 28.756 23">
  <defs>
    <clipPath id="clip-path">
      <rect id="Rectangle_1438" data-name="Rectangle 1438" width="28.756" height="23" fill="#aeb0b5"/>
    </clipPath>
  </defs>
  <g id="Group_2689" data-name="Group 2689" clip-path="url(#clip-path)">
    <path id="Path_33556" data-name="Path 33556" d="M18.345,18.729H15.9c0-.571.013-1.13,0-1.686a7.276,7.276,0,0,0-.118-1.58,3.691,3.691,0,0,0-2.414-2.573,12.073,12.073,0,0,0-5.113-.66,9.915,9.915,0,0,0-3.342.651,3.617,3.617,0,0,0-2.49,2.93,22.044,22.044,0,0,0-.091,2.27c-.007.206,0,.413,0,.641H0C0,17.861,0,17,0,16.143a5.366,5.366,0,0,1,.351-1.854A6.125,6.125,0,0,1,3.88,10.681a11.879,11.879,0,0,1,4.177-.887,14.835,14.835,0,0,1,5.744.661,6.37,6.37,0,0,1,3.91,3.339,6,6,0,0,1,.562,2.343c.03.789.047,1.578.072,2.368v.224" transform="translate(0 4.271)" fill="#aeb0b5"/>
    <path id="Path_33557" data-name="Path 33557" d="M13.932,13.624a7.452,7.452,0,0,0-.993-2.173,8.679,8.679,0,0,1,1.39-.172,11.473,11.473,0,0,1,5.033.7,5.443,5.443,0,0,1,3.466,3.737,16.66,16.66,0,0,1,.267,2.358H20.824c-.032-.375-.049-.98-.1-1.348a3.085,3.085,0,0,0-2.046-2.556,9.4,9.4,0,0,0-4.192-.579l-.558.03" transform="translate(5.661 4.923)" fill="#aeb0b5"/>
    <path id="Path_33558" data-name="Path 33558" d="M8.172,0a5.884,5.884,0,1,0,5.884,5.884A5.884,5.884,0,0,0,8.172,0m0,9.326a3.443,3.443,0,1,1,3.443-3.443A3.442,3.442,0,0,1,8.172,9.326" transform="translate(1.001)" fill="#aeb0b5"/>
    <path id="Path_33559" data-name="Path 33559" d="M15.935,3.111a4.312,4.312,0,1,0,4.313,4.313,4.312,4.312,0,0,0-4.312-4.313m0,6.5a2.191,2.191,0,1,1,2.191-2.191,2.19,2.19,0,0,1-2.191,2.191" transform="translate(5.085 1.361)" fill="#aeb0b5"/>
  </g>
</svg>
