<svg xmlns="http://www.w3.org/2000/svg" xmlns:xlink="http://www.w3.org/1999/xlink" width="84" height="84" viewBox="0 0 84 84">
  <defs>
    <clipPath id="clip-Artboard_4">
      <rect width="84" height="84"/>
    </clipPath>
  </defs>
  <g id="Artboard_4" data-name="Artboard – 4" clip-path="url(#clip-Artboard_4)">
    <g id="Group_2828" data-name="Group 2828" transform="translate(-485 -1148)">
      <rect id="_6b8c904841536fdfa321802e479f101d" data-name="6b8c904841536fdfa321802e479f101d" width="72" height="72" rx="36" transform="translate(491 1154)" fill="#0139ba"/>
      <g id="icn_Smile" transform="translate(509 1172)">
        <g id="Group_2825" data-name="Group 2825" transform="translate(0)">
          <g id="Group_2824" data-name="Group 2824">
            <path id="Path_33733" data-name="Path 33733" d="M119.539,224.2a.79.79,0,0,0-1.116.062,8.79,8.79,0,0,1-13.045,0,.79.79,0,0,0-1.177,1.054,10.37,10.37,0,0,0,15.4,0A.791.791,0,0,0,119.539,224.2Z" transform="translate(-93.901 -202.118)" fill="#fff" stroke="#fff" stroke-width="1.5"/>
            <path id="Path_33734" data-name="Path 33734" d="M18,0A18,18,0,1,0,36,18,18.021,18.021,0,0,0,18,0Zm0,34.435A16.435,16.435,0,1,1,34.435,18,16.453,16.453,0,0,1,18,34.435Z" transform="translate(0)" fill="#fff" stroke="#fff" stroke-width="1.5"/>
            <g id="Ellipse_978" data-name="Ellipse 978" transform="translate(10 12)" fill="#fff" stroke="#fff" stroke-width="1.5">
              <circle cx="2" cy="2" r="2" stroke="none"/>
              <circle cx="2" cy="2" r="1.25" fill="none"/>
            </g>
            <g id="Ellipse_979" data-name="Ellipse 979" transform="translate(22 12)" fill="#fff" stroke="#fff" stroke-width="1.5">
              <circle cx="2" cy="2" r="2" stroke="none"/>
              <circle cx="2" cy="2" r="1.25" fill="none"/>
            </g>
          </g>
        </g>
      </g>
    </g>
  </g>
</svg>
