<svg xmlns="http://www.w3.org/2000/svg" xmlns:xlink="http://www.w3.org/1999/xlink" width="84" height="84" viewBox="0 0 84 84">
  <defs>
    <clipPath id="clip-path">
      <rect id="Rectangle_1462" data-name="Rectangle 1462" width="34" height="27.674" fill="#fff"/>
    </clipPath>
    <clipPath id="clip-Artboard_1">
      <rect width="84" height="84"/>
    </clipPath>
  </defs>
  <g id="Artboard_1" data-name="Artboard – 1" clip-path="url(#clip-Artboard_1)">
    <g id="Group_2829" data-name="Group 2829" transform="translate(-736 -573)">
      <rect id="_6b8c904841536fdfa321802e479f101d" data-name="6b8c904841536fdfa321802e479f101d" width="72" height="72" rx="36" transform="translate(742 579)" fill="#016cba"/>
      <g id="icn_Tweet" transform="translate(761 601)">
        <g id="Group_2725" data-name="Group 2725" transform="translate(0 0)" clip-path="url(#clip-path)">
          <path id="Path_33593" data-name="Path 33593" d="M24.21,3.3a4.881,4.881,0,0,1,3.111,1.214,3.093,3.093,0,0,0,1.957.709,3.173,3.173,0,0,0,.927-.139l.221-.065a2.608,2.608,0,0,0,.247.515c-.165.139-.337.277-.517.415A3.111,3.111,0,0,0,28.9,8.7a13,13,0,0,1-1.122,5.962,17.233,17.233,0,0,1-10.135,9.721A15.816,15.816,0,0,1,12.089,25.4a17.1,17.1,0,0,1-3.252-.321c.386-.153.77-.32,1.149-.5a3.475,3.475,0,0,0,1.192-.835,2.548,2.548,0,0,0-1.093-4.15l-.349-.111c-.182-.058-.36-.112-.537-.175a5.68,5.68,0,0,1-1.768-1.03,2.549,2.549,0,0,0-.617-3.755,6.264,6.264,0,0,1-1.593-1.375,4.867,4.867,0,0,1-.473-.705A2.557,2.557,0,0,0,6,10.642a2.835,2.835,0,0,0-.546-2.2,4.921,4.921,0,0,1-.789-2.309,20.018,20.018,0,0,0,11.167,4.949l.148.019.286.034a2.783,2.783,0,0,0,.292.017,2.386,2.386,0,0,0,.413-.034A2.551,2.551,0,0,0,19.2,8.465a6.167,6.167,0,0,1,.114-1.533,4.219,4.219,0,0,1,3.31-3.375A5.425,5.425,0,0,1,24.21,3.3m9.761.277h0M5.309,3.669h0m29.3,2.611h0M24.21.75a7.9,7.9,0,0,0-2.338.369,6.723,6.723,0,0,0-5.059,5.3,8.782,8.782,0,0,0-.165,2.169.893.893,0,0,1-.088.014l-.008,0-.413-.049A17.494,17.494,0,0,1,4.5,2.319a.986.986,0,0,0-.717-.413.853.853,0,0,0-.707.525,6.874,6.874,0,0,0,.264,7.444c.058.094.172.172.143.347a6.035,6.035,0,0,1-.51-.338.88.88,0,0,0-.551-.224.763.763,0,0,0-.745.877,6.859,6.859,0,0,0,1.552,4.2,8.876,8.876,0,0,0,2.215,1.935.826.826,0,0,1-.206.027,1.429,1.429,0,0,1-.427-.09,1.338,1.338,0,0,0-.377-.063.69.69,0,0,0-.542.245.766.766,0,0,0-.036.94,7.9,7.9,0,0,0,4.457,3.963c.318.117.643.211.983.321a1.311,1.311,0,0,1-.451.275,13.232,13.232,0,0,1-5.829,1.353c-.4,0-.8-.017-1.212-.053-.07-.007-.136-.01-.2-.01-.451,0-.719.16-.821.488-.122.4.046.685.551.959a26.1,26.1,0,0,0,3.636,1.627,21.193,21.193,0,0,0,7.113,1.3,18.243,18.243,0,0,0,6.448-1.178A19.859,19.859,0,0,0,30.112,15.69a15.452,15.452,0,0,0,1.333-7.125.6.6,0,0,1,.258-.59A12.625,12.625,0,0,0,34.59,5a.71.71,0,0,0-.005-.9.685.685,0,0,0-.542-.258,1.065,1.065,0,0,0-.394.085,3.384,3.384,0,0,1-.811.265c.008-.16.117-.241.184-.34a6.113,6.113,0,0,0,.816-1.661.68.68,0,0,0-.262-.808.7.7,0,0,0-.425-.148.856.856,0,0,0-.418.119,15.909,15.909,0,0,1-3.252,1.29.682.682,0,0,1-.2.034.557.557,0,0,1-.359-.146A7.4,7.4,0,0,0,24.21.75" transform="translate(-0.75 -0.75)" fill="#fff"/>
        </g>
      </g>
    </g>
  </g>
</svg>
