<svg xmlns="http://www.w3.org/2000/svg" xmlns:xlink="http://www.w3.org/1999/xlink" width="15.583" height="22" viewBox="0 0 15.583 22">
  <defs>
    <clipPath id="clip-path">
      <rect id="Rectangle_1456" data-name="Rectangle 1456" width="15.583" height="22" fill="#aeb0b5"/>
    </clipPath>
  </defs>
  <g id="Innovation" opacity="0.6">
    <g id="Group_2713" data-name="Group 2713" clip-path="url(#clip-path)">
      <path id="Path_33582" data-name="Path 33582" d="M7.626,15.479c-1.264,0-2.527-.016-3.791.009a.8.8,0,0,1-.848-.472c-.666-1.26-1.4-2.485-2.075-3.738A7.593,7.593,0,0,1,2.781,1.807a7.819,7.819,0,0,1,9.646-.278,7.476,7.476,0,0,1,2.433,9.264c-.752,1.547-1.8,2.955-2.7,4.433-.171.282-.413.253-.668.253q-1.934,0-3.868,0m.057-1.84c.954,0,1.907,0,2.86,0,.249,0,.512.06.684-.226a30.2,30.2,0,0,0,2.245-3.633,5.86,5.86,0,0,0-2.143-7.031,6.2,6.2,0,0,0-7.575.377A5.854,5.854,0,0,0,2.382,10.4c.5.915,1.056,1.8,1.545,2.72a.848.848,0,0,0,.9.53c.952-.036,1.907-.011,2.86-.011" transform="translate(0 0)" fill="#041962"/>
      <path id="Path_33583" data-name="Path 33583" d="M7.271,17.577c-.824,0-1.651-.037-2.472.011-.8.047-.957-.454-1.014-1.044-.077-.79.266-1.342.892-1.353q2.664-.046,5.33,0c.73.014.925.579.92,1.179s-.218,1.129-.953,1.147c-.9.024-1.8.006-2.7.006Z" transform="translate(0.436 1.517)" fill="#041962"/>
      <path id="Path_33584" data-name="Path 33584" d="M4.52,18.232H9.964c0,1.123-.917,1.85-2.392,1.935-1.756.1-2.913-.6-3.052-1.935" transform="translate(0.522 1.823)" fill="#041962"/>
      <line id="Line_1015" data-name="Line 1015" y1="6.065" transform="translate(7.791 7.685)" fill="none" stroke="#041962" stroke-linecap="round" stroke-linejoin="round" stroke-width="1.5"/>
      <line id="Line_1016" data-name="Line 1016" x2="4.462" transform="translate(5.578 7.685)" fill="none" stroke="#041962" stroke-linecap="round" stroke-linejoin="round" stroke-width="1.5"/>
    </g>
  </g>
</svg>
