<svg xmlns="http://www.w3.org/2000/svg" width="129.96" height="36" viewBox="0 0 129.96 36"><defs><style>.a{fill:#fff;}</style></defs><g transform="translate(-295.006 -37)"><path class="a" d="M-388.432,314.952a4.423,4.423,0,0,1,1.6-.288,3.889,3.889,0,0,1,2.582.89A3.69,3.69,0,0,1-383,317.861h4.821a8.09,8.09,0,0,0-.757-2.82,7.041,7.041,0,0,0-1.79-2.309,7.927,7.927,0,0,0-2.659-1.467,10.884,10.884,0,0,0-3.393-.5,11.014,11.014,0,0,0-3.668.581,7.258,7.258,0,0,0-2.792,1.752,7.947,7.947,0,0,0-1.794,3.026,13.762,13.762,0,0,0-.642,4.441,14.32,14.32,0,0,0,.642,4.5,9.065,9.065,0,0,0,1.8,3.209,7.271,7.271,0,0,0,2.751,1.926,9.552,9.552,0,0,0,3.545.642,9.442,9.442,0,0,0,3.233-.542,8.829,8.829,0,0,0,2.65-1.507,8.167,8.167,0,0,0,1.911-2.317,7.992,7.992,0,0,0,.917-2.811h-4.806a3.444,3.444,0,0,1-1.273,2.37,4.243,4.243,0,0,1-2.676.867,3.456,3.456,0,0,1-2.788-1.611,8.143,8.143,0,0,1-1.18-4.844,9.87,9.87,0,0,1,.323-2.713,5.068,5.068,0,0,1,.882-1.8,3.209,3.209,0,0,1,1.317-.981Z" transform="translate(690.685 -266.49)"/><path class="a" d="M-353.116,313.489a8.733,8.733,0,0,0-3.035-2.01,10.806,10.806,0,0,0-4.035-.717,11.075,11.075,0,0,0-4.1.717,8.761,8.761,0,0,0-3.075,2.03,8.87,8.87,0,0,0-1.953,3.173,12,12,0,0,0-.68,4.126,12.2,12.2,0,0,0,.66,4.084,8.777,8.777,0,0,0,1.915,3.172,8.722,8.722,0,0,0,3.075,2.049,11.063,11.063,0,0,0,4.156.734,10.827,10.827,0,0,0,4.018-.717,8.543,8.543,0,0,0,3.055-2.029,9.044,9.044,0,0,0,1.935-3.153,11.983,11.983,0,0,0,.68-4.141,12.151,12.151,0,0,0-.68-4.161,8.829,8.829,0,0,0-1.934-3.153Zm-7.073,13.414c-3.235,0-4.876-2.052-4.876-6.1,0-4.021,1.641-6.06,4.876-6.06s4.876,2.039,4.876,6.06C-355.312,324.85-356.953,326.9-360.189,326.9Z" transform="translate(683.7 -266.49)"/><path class="a" d="M-332.691,310.76a7.5,7.5,0,0,0-3.238.713,7.99,7.99,0,0,0-2.625,2.007,9.8,9.8,0,0,0-1.783,3.14,12.05,12.05,0,0,0-.66,4.064,15.129,15.129,0,0,0,.448,3.668,8.971,8.971,0,0,0,1.431,3.133,7.3,7.3,0,0,0,2.581,2.176,8.582,8.582,0,0,0,3.962.825,7.142,7.142,0,0,0,3.254-.71,3.888,3.888,0,0,0,1.908-1.942l.345-.813V331.1a3.881,3.881,0,0,1-1.489,3.2,5.62,5.62,0,0,1-3.584,1.164,4.887,4.887,0,0,1-3.209-1.009,3.5,3.5,0,0,1-1.226-2.7h-4.417a7.618,7.618,0,0,0,.691,3.137,7.312,7.312,0,0,0,1.907,2.485,8.759,8.759,0,0,0,2.921,1.585,11.8,11.8,0,0,0,3.693.564,11.784,11.784,0,0,0,3.731-.583,8.883,8.883,0,0,0,3.018-1.682,7.759,7.759,0,0,0,2.005-2.739,9.324,9.324,0,0,0,.734-3.815V311.274h-4.768v2.857l-.332-.535a5.848,5.848,0,0,0-5.294-2.836Zm5.783,10.515a6.005,6.005,0,0,1-1.284,4.044,4.156,4.156,0,0,1-3.274,1.5,4.055,4.055,0,0,1-3.277-1.607,6.6,6.6,0,0,1-1.284-4.257c0-4.048,1.535-6.1,4.561-6.1s4.56,2.158,4.56,6.419Z" transform="translate(675.729 -266.526)"/><path class="a" d="M-296.538,312.367a5.3,5.3,0,0,0-1.967-1.2,7.574,7.574,0,0,0-2.505-.4,7.66,7.66,0,0,0-3.779.825,6.086,6.086,0,0,0-2.338,2.436l-.337.616v-3.363H-312v19.053h4.768V319.379c0-3.078,1.4-4.64,4.166-4.64a3.62,3.62,0,0,1,2.7.845,4.62,4.62,0,0,1,.8,3.163v11.383h4.81V317.053a7.145,7.145,0,0,0-.48-2.714,5.809,5.809,0,0,0-1.3-1.971Z" transform="translate(667.801 -266.488)"/><path class="a" d="M-284.845,330.478h4.768V311.3h-4.768v19.176Z" transform="translate(660.392 -266.635)"/><path class="a" d="M-270.125,300.732h-4.692v19.751a10.056,10.056,0,0,0,.426,2.947,6.3,6.3,0,0,0,1.363,2.418,6.715,6.715,0,0,0,2.4,1.651,9.214,9.214,0,0,0,3.562.617,8.846,8.846,0,0,0,3.462-.617,6.617,6.617,0,0,0,2.384-1.671,6.739,6.739,0,0,0,1.384-2.423,9.344,9.344,0,0,0,.446-2.885v-5.345h-4.416v4.876a4.835,4.835,0,0,1-.766,2.91,2.819,2.819,0,0,1-2.413,1.059,2.731,2.731,0,0,1-2.417-1.084,5.219,5.219,0,0,1-.723-2.963v-8.152H-259.4V308.55h-10.729v-7.815Z" transform="translate(657.636 -263.732)"/><path class="a" d="M-250.429,330.967h4.768v-19.5h-4.768Z" transform="translate(650.947 -266.65)"/><path class="a" d="M-233.637,314.952a4.424,4.424,0,0,1,1.6-.288,3.89,3.89,0,0,1,2.582.89,3.69,3.69,0,0,1,1.243,2.306h4.82a8.082,8.082,0,0,0-.756-2.82,7.046,7.046,0,0,0-1.79-2.309,7.923,7.923,0,0,0-2.659-1.467,10.894,10.894,0,0,0-3.393-.5,11.007,11.007,0,0,0-3.668.581,7.25,7.25,0,0,0-2.793,1.752,7.947,7.947,0,0,0-1.794,3.026,13.754,13.754,0,0,0-.642,4.441,14.319,14.319,0,0,0,.642,4.5,9.069,9.069,0,0,0,1.8,3.209,7.289,7.289,0,0,0,2.751,1.926,9.554,9.554,0,0,0,3.545.642,9.443,9.443,0,0,0,3.233-.542,8.832,8.832,0,0,0,2.649-1.507,8.169,8.169,0,0,0,1.911-2.317,7.977,7.977,0,0,0,.917-2.811h-4.808a3.444,3.444,0,0,1-1.273,2.37,4.244,4.244,0,0,1-2.676.867,3.455,3.455,0,0,1-2.788-1.611,8.143,8.143,0,0,1-1.18-4.844,9.84,9.84,0,0,1,.324-2.713,5.044,5.044,0,0,1,.881-1.8,3.2,3.2,0,0,1,1.317-.981Z" transform="translate(648.354 -266.49)"/><path class="a" d="M-282.372,300.732h-.177a2.3,2.3,0,0,0-2.293,2.3,2.3,2.3,0,0,0,2.293,2.3h.177a2.3,2.3,0,0,0,2.3-2.3A2.3,2.3,0,0,0-282.372,300.732Z" transform="translate(660.392 -263.732)"/><path class="a" d="M-250.429,305.326h4.768v-4.594h-4.768Z" transform="translate(650.947 -263.732)"/></g></svg>