<svg xmlns="http://www.w3.org/2000/svg" width="129.96" height="36" viewBox="0 0 129.96 36"><defs><style>.a{fill:#1a3191;}.b{fill:#642995;}</style></defs><g transform="translate(-295.006 -37)"><path class="a" d="M-388.448,314.943a4.415,4.415,0,0,1,1.6-.287,3.881,3.881,0,0,1,2.576.888,3.682,3.682,0,0,1,1.24,2.3h4.81a8.072,8.072,0,0,0-.755-2.814,7.025,7.025,0,0,0-1.786-2.3,7.91,7.91,0,0,0-2.653-1.464,10.86,10.86,0,0,0-3.385-.5,10.989,10.989,0,0,0-3.66.58,7.241,7.241,0,0,0-2.786,1.748,7.93,7.93,0,0,0-1.79,3.019,13.731,13.731,0,0,0-.641,4.431,14.288,14.288,0,0,0,.641,4.491,9.045,9.045,0,0,0,1.794,3.2,7.256,7.256,0,0,0,2.745,1.921,9.532,9.532,0,0,0,3.537.641,9.422,9.422,0,0,0,3.226-.541,8.809,8.809,0,0,0,2.644-1.5,8.149,8.149,0,0,0,1.907-2.312,7.974,7.974,0,0,0,.915-2.8h-4.8a3.437,3.437,0,0,1-1.27,2.364,4.234,4.234,0,0,1-2.67.865,3.448,3.448,0,0,1-2.781-1.608,8.125,8.125,0,0,1-1.178-4.833,9.848,9.848,0,0,1,.322-2.707,5.057,5.057,0,0,1,.88-1.8,3.2,3.2,0,0,1,1.314-.979Z" transform="translate(690.685 -266.47)"/><path class="a" d="M-353.153,313.483a8.714,8.714,0,0,0-3.028-2.006,10.782,10.782,0,0,0-4.026-.715,11.051,11.051,0,0,0-4.088.716,8.742,8.742,0,0,0-3.068,2.026,8.851,8.851,0,0,0-1.949,3.166,11.974,11.974,0,0,0-.679,4.117,12.178,12.178,0,0,0,.659,4.075,8.757,8.757,0,0,0,1.91,3.165,8.7,8.7,0,0,0,3.068,2.044,11.04,11.04,0,0,0,4.147.732,10.8,10.8,0,0,0,4.009-.716,8.524,8.524,0,0,0,3.048-2.025,9.025,9.025,0,0,0,1.93-3.147,11.958,11.958,0,0,0,.678-4.132,12.125,12.125,0,0,0-.678-4.152,8.81,8.81,0,0,0-1.93-3.146Zm-7.057,13.384c-3.228,0-4.866-2.048-4.866-6.086,0-4.012,1.638-6.047,4.866-6.047s4.866,2.035,4.866,6.047C-355.344,324.819-356.981,326.867-360.21,326.867Z" transform="translate(683.658 -266.47)"/><path class="a" d="M-332.709,310.76a7.486,7.486,0,0,0-3.231.711,7.972,7.972,0,0,0-2.62,2,9.783,9.783,0,0,0-1.779,3.133,12.022,12.022,0,0,0-.659,4.055,15.093,15.093,0,0,0,.447,3.66,8.95,8.95,0,0,0,1.428,3.126,7.278,7.278,0,0,0,2.576,2.171,8.563,8.563,0,0,0,3.954.823,7.126,7.126,0,0,0,3.247-.708,3.879,3.879,0,0,0,1.9-1.938l.344-.812v4.072a3.872,3.872,0,0,1-1.486,3.192,5.608,5.608,0,0,1-3.577,1.161,4.876,4.876,0,0,1-3.2-1.006,3.488,3.488,0,0,1-1.223-2.7h-4.407a7.6,7.6,0,0,0,.69,3.13,7.3,7.3,0,0,0,1.9,2.48,8.74,8.74,0,0,0,2.914,1.582,11.77,11.77,0,0,0,3.684.563,11.759,11.759,0,0,0,3.723-.582,8.864,8.864,0,0,0,3.011-1.678,7.743,7.743,0,0,0,2-2.733,9.3,9.3,0,0,0,.732-3.806V311.273h-4.758v2.851l-.331-.533a5.835,5.835,0,0,0-5.282-2.83Zm5.771,10.492a5.992,5.992,0,0,1-1.281,4.035,4.146,4.146,0,0,1-3.266,1.5,4.046,4.046,0,0,1-3.27-1.6,6.587,6.587,0,0,1-1.281-4.247c0-4.039,1.532-6.086,4.551-6.086s4.55,2.153,4.55,6.4Z" transform="translate(675.744 -266.463)"/><path class="a" d="M-296.572,312.363a5.289,5.289,0,0,0-1.963-1.2,7.557,7.557,0,0,0-2.5-.4,7.643,7.643,0,0,0-3.771.823,6.073,6.073,0,0,0-2.333,2.431l-.337.615v-3.356H-312v19.011h4.758V319.36c0-3.072,1.4-4.63,4.157-4.63a3.612,3.612,0,0,1,2.69.844,4.61,4.61,0,0,1,.8,3.156v11.358h4.8V317.039a7.13,7.13,0,0,0-.479-2.708,5.8,5.8,0,0,0-1.3-1.967Z" transform="translate(667.821 -266.469)"/><path class="a" d="M-284.845,330.435h4.758V311.3h-4.758v19.134Z" transform="translate(660.399 -266.616)"/><path class="a" d="M-270.135,300.732h-4.682v19.707a10.035,10.035,0,0,0,.425,2.941,6.29,6.29,0,0,0,1.36,2.413,6.7,6.7,0,0,0,2.4,1.647,9.193,9.193,0,0,0,3.554.616,8.827,8.827,0,0,0,3.454-.616,6.6,6.6,0,0,0,2.379-1.667,6.723,6.723,0,0,0,1.381-2.417,9.323,9.323,0,0,0,.445-2.878v-5.333h-4.406v4.865a4.824,4.824,0,0,1-.764,2.9A2.813,2.813,0,0,1-267,323.968a2.725,2.725,0,0,1-2.412-1.082,5.207,5.207,0,0,1-.721-2.956V311.8h10.7v-3.264h-10.705v-7.8Z" transform="translate(657.662 -263.732)"/><path class="a" d="M-250.429,331h4.758V311.466h-4.758Z" transform="translate(651.001 -266.667)"/><path class="a" d="M-233.653,314.943a4.414,4.414,0,0,1,1.6-.287,3.881,3.881,0,0,1,2.576.888,3.682,3.682,0,0,1,1.24,2.3h4.809a8.064,8.064,0,0,0-.754-2.814,7.031,7.031,0,0,0-1.786-2.3,7.906,7.906,0,0,0-2.653-1.464,10.871,10.871,0,0,0-3.385-.5,10.982,10.982,0,0,0-3.66.58,7.234,7.234,0,0,0-2.787,1.748,7.93,7.93,0,0,0-1.79,3.019,13.724,13.724,0,0,0-.641,4.431,14.286,14.286,0,0,0,.641,4.491,9.049,9.049,0,0,0,1.793,3.2,7.272,7.272,0,0,0,2.745,1.921,9.534,9.534,0,0,0,3.537.64,9.423,9.423,0,0,0,3.226-.541,8.812,8.812,0,0,0,2.643-1.5,8.151,8.151,0,0,0,1.907-2.312,7.96,7.96,0,0,0,.915-2.8h-4.8a3.437,3.437,0,0,1-1.27,2.364,4.234,4.234,0,0,1-2.67.865,3.447,3.447,0,0,1-2.781-1.608,8.125,8.125,0,0,1-1.178-4.833,9.817,9.817,0,0,1,.323-2.707,5.032,5.032,0,0,1,.879-1.8,3.2,3.2,0,0,1,1.314-.979Z" transform="translate(648.393 -266.47)"/><path class="b" d="M-282.377,300.732h-.177a2.3,2.3,0,0,0-2.287,2.292,2.294,2.294,0,0,0,2.287,2.292h.177a2.3,2.3,0,0,0,2.292-2.292A2.3,2.3,0,0,0-282.377,300.732Z" transform="translate(660.399 -263.732)"/><path class="b" d="M-250.429,305.316h4.758v-4.584h-4.758Z" transform="translate(651.001 -263.732)"/></g></svg>