<svg xmlns="http://www.w3.org/2000/svg" width="60" height="48" viewBox="0 0 60 48"><defs><style>.a{fill:#fff;}.b{fill:#84b740;}.c{fill:#259bd6;}.d{fill:#27292d;}</style></defs><g transform="translate(-2.149)"><g transform="translate(0)"><g transform="translate(0)"><rect class="a" width="60" height="48" rx="4" transform="translate(2.149)"/><g transform="translate(7.149 15)"><rect class="b" width="21.653" height="7.213" transform="translate(0 9.843)"/><rect class="c" width="21.653" height="7.22"/><path class="d" d="M619.609,139.759l-.1.019a3.157,3.157,0,0,1-.7.09c-.566,0-1.234-.289-1.234-1.652,0-.7.116-1.633,1.17-1.633h.006a3.167,3.167,0,0,1,.771.148l.084.026v3Zm.174-6.8-.174.032v2.52l-.154-.045-.045-.013a3.549,3.549,0,0,0-.958-.167c-2.109,0-2.552,1.594-2.552,2.932a2.6,2.6,0,0,0,2.822,2.887,5.721,5.721,0,0,0,1.884-.264.832.832,0,0,0,.707-.913V132.7c-.5.09-1.022.18-1.53.264" transform="translate(-576.492 -124.169)"/><path class="d" d="M718.232,177.045l-.09.026-.321.084a3.351,3.351,0,0,1-.778.122c-.5,0-.791-.244-.791-.662,0-.27.122-.726.932-.726h1.048Zm-.739-4.545a7.115,7.115,0,0,0-2.147.373l-.54.161.18,1.222.527-.174a6.2,6.2,0,0,1,1.755-.3c.231,0,.939,0,.939.765v.334h-.984c-1.794,0-2.623.572-2.623,1.8,0,1.048.765,1.678,2.051,1.678a6.631,6.631,0,0,0,1.427-.193l.026-.006.026.006.161.026c.5.09,1.022.18,1.53.276v-4.012c0-1.3-.784-1.961-2.327-1.961" transform="translate(-668.846 -161.41)"/><path class="d" d="M523.932,177.045l-.09.026-.322.084a3.3,3.3,0,0,1-.778.122c-.495,0-.791-.244-.791-.662,0-.27.122-.726.926-.726h1.048l.006,1.157ZM523.2,172.5a7.082,7.082,0,0,0-2.147.373l-.54.161.18,1.222.527-.174a6.2,6.2,0,0,1,1.755-.3c.231,0,.939,0,.939.765v.334h-.984c-1.794,0-2.63.572-2.63,1.8,0,1.048.765,1.678,2.057,1.678a6.63,6.63,0,0,0,1.427-.193l.026-.006.026.006.154.026c.508.09,1.022.18,1.53.283v-4.012c.006-1.312-.778-1.967-2.321-1.967" transform="translate(-486.987 -161.41)"/><path class="d" d="M383.731,172.606a4.338,4.338,0,0,0-1.742.386l-.064.032-.058-.045a2.637,2.637,0,0,0-1.562-.379,6.39,6.39,0,0,0-1.845.276c-.547.167-.759.431-.759.926v4.584h1.71v-4.237l.084-.026a2.177,2.177,0,0,1,.752-.135.676.676,0,0,1,.746.778v3.626h1.684v-3.7a1.245,1.245,0,0,0-.051-.373l-.058-.109.116-.051a2.027,2.027,0,0,1,.836-.174.681.681,0,0,1,.746.778v3.626h1.678V174.6c0-1.344-.72-1.993-2.212-1.993" transform="translate(-353.524 -161.503)"/><path class="d" d="M591.868,4.706a5.834,5.834,0,0,1-1-.09l-.1-.019V2.122a1.214,1.214,0,0,0-.045-.354l-.051-.1.109-.045c.026-.013.051-.019.084-.032l.019-.013.116-.039a.163.163,0,0,1,.045-.013,3.992,3.992,0,0,1,.881-.1h.006c1.048,0,1.17.932,1.17,1.633-.006,1.363-.682,1.652-1.241,1.652M591.862,0h-.045a3.029,3.029,0,0,0-2.353.8,1.609,1.609,0,0,0-.309.958h0V4.308a.753.753,0,0,1-.051.321l-.058.109H585.94V2.964h-.006a2.645,2.645,0,0,0-2.745-2.9h-1.562c-.064.456-.116.778-.18,1.234H583c.816,0,1.247.694,1.247,1.762V4.848l-.109-.058a1.179,1.179,0,0,0-.366-.051h-2.687c-.051.341-.116.784-.187,1.228h8.261c.283-.058.611-.109.894-.154a4.653,4.653,0,0,0,1.729.315,2.821,2.821,0,0,0,2.957-3.054A2.835,2.835,0,0,0,591.862,0" transform="translate(-543.742)"/><path class="d" d="M387.241,7.748h.077c1.794,0,2.63-.591,2.63-2.051A1.878,1.878,0,0,0,387.9,3.813h-1.652a.712.712,0,0,1-.791-.759c0-.321.122-.72.932-.72H390c.077-.469.116-.765.186-1.234h-3.755c-1.749,0-2.63.733-2.63,1.954s.765,1.839,2.051,1.839H387.5a.78.78,0,0,1,.791.8.808.808,0,0,1-.926.829h-.276L381.8,6.513h-.964c-.816,0-1.389-.463-1.389-1.537V4.237c0-1.119.444-1.813,1.389-1.813h1.569c.071-.476.116-.778.18-1.228h-2.141A2.682,2.682,0,0,0,377.7,4.141h0v.836a2.537,2.537,0,0,0,2.745,2.765h1.562l2.867.006h2.366Z" transform="translate(-353.536 -1.029)"/></g></g></g></g></svg>