<svg xmlns="http://www.w3.org/2000/svg" width="60" height="48" viewBox="0 0 60 48"><defs><style>.a,.e{fill:#fff;}.b{fill:#c00;}.b,.c,.d,.e{fill-rule:evenodd;}.c{fill:#06c;}.d{fill:#006;}</style></defs><g transform="translate(-2.772)"><g transform="translate(0)"><g transform="translate(0)"><rect class="a" width="60" height="48" rx="4" transform="translate(2.772)"/><path class="b" d="M74.923,25.6A15.572,15.572,0,1,1,59.35,9.967,15.6,15.6,0,0,1,74.923,25.6" transform="translate(-16.095 -1.967)"/><path class="c" d="M41.457,35.527a15.519,15.519,0,0,1-1.186-1.656h5.519a15.537,15.537,0,0,0,.9-1.655H39.374a15.551,15.551,0,0,1-.659-1.655h8.63a15.8,15.8,0,0,0,.451-8.272H38.265a15.606,15.606,0,0,1,.452-1.655h8.627a15.751,15.751,0,0,0-.659-1.655h-7.31a15.842,15.842,0,0,1,.9-1.656h5.515A15.8,15.8,0,0,0,44.6,15.669H41.459a15.748,15.748,0,0,1,1.572-1.654A15.6,15.6,0,1,0,32.574,41.232,15.484,15.484,0,0,0,43.03,37.185,15.7,15.7,0,0,0,44.6,35.527H41.457" transform="translate(-10.23 -1.967)"/><path class="d" d="M48.562,33.576a7.541,7.541,0,0,1-1.989.262c-2.17,0-3.3-.994-3.3-2.892,0-2.217,1.439-3.848,3.392-3.848a2.328,2.328,0,0,1,2.618,2.347,6.119,6.119,0,0,1-.238,1.593h-3.86c-.137.927.537,1.334,1.684,1.334a5.132,5.132,0,0,0,2-.4l-.3,1.606ZM47.524,29.73c0-.14.215-1.135-.9-1.156-.617,0-1.059.412-1.238,1.156Z" transform="translate(-15.983 -5.719)"/><path class="d" d="M51.51,29.3c0,.819.459,1.385,1.5,1.806.8.328.924.423.924.716,0,.406-.352.593-1.136.588a6.445,6.445,0,0,1-1.758-.252l-.28,1.494a11.148,11.148,0,0,0,2.052.19c2.084,0,3.047-.685,3.047-2.166a1.787,1.787,0,0,0-1.391-1.8c-.827-.332-.924-.4-.924-.7,0-.353.328-.531.967-.531a12.669,12.669,0,0,1,1.422.1l.282-1.5a15.258,15.258,0,0,0-1.742-.129c-2.208,0-2.972,1-2.966,2.2" transform="translate(-17.625 -5.719)"/><path class="d" d="M40.4,33.731H38.782l.039-.681a2.594,2.594,0,0,1-2.044.787A1.692,1.692,0,0,1,35,32.07c0-1.585,1.258-2.5,3.421-2.5a7.39,7.39,0,0,1,.8.05,1.407,1.407,0,0,0,.076-.419c0-.434-.34-.594-1.25-.594a7.449,7.449,0,0,0-2.065.289l.277-1.454a8.815,8.815,0,0,1,2.327-.344c1.675,0,2.559.66,2.559,1.9a7.339,7.339,0,0,1-.158,1.285c-.065.422-.53,2.872-.578,3.45ZM38.98,30.839a3.833,3.833,0,0,0-.435-.026c-1.1,0-1.664.33-1.664.982a.636.636,0,0,0,.7.665,1.494,1.494,0,0,0,1.4-1.62Z" transform="translate(-14.171 -5.719)"/><path class="d" d="M60.839,33.235a5.022,5.022,0,0,1-1.393.21c-.992,0-1.534-.509-1.534-1.415a13.554,13.554,0,0,1,.266-1.72c.055-.321.914-5.007.914-5.007H61.02l-.291,1.55h.988l-.269,1.582h-.993s-.545,2.746-.545,2.956c0,.333.2.478.662.478a1.85,1.85,0,0,0,.523-.06l-.257,1.426" transform="translate(-19.189 -5.326)"/><path class="d" d="M70.445,27.095a3.619,3.619,0,0,0-3.157,1.559l.556-1.446c-1.025-.378-1.686.162-2.284.928,0,0-.1.127-.2.244V27.243H63.551c-.245,2.005-.679,4.039-1.017,6.049l-.082.437H64.4c.185-1.02.336-1.847.488-2.508.413-1.811,1.109-2.364,2.154-2.119a4.231,4.231,0,0,0-.373,1.79,2.731,2.731,0,0,0,3.05,2.943c2.194,0,3.783-1.176,3.783-3.859a2.78,2.78,0,0,0-3.054-2.881Zm-.567,5.167c-.687.011-1.1-.568-1.1-1.435,0-1.027.608-2.187,1.585-2.187.789,0,1.059.628,1.059,1.3,0,1.461-.6,2.326-1.54,2.326Z" transform="translate(-20.184 -5.716)"/><path class="d" d="M31.468,33.37H29.529l1.152-6.093L28.029,33.37H26.262l-.323-6.057L24.783,33.37H23.024l1.5-7.926h3.029l.252,4.418,1.919-4.418H33L31.468,33.37" transform="translate(-11.549 -5.356)"/><path class="e" d="M49.185,32.951a7.526,7.526,0,0,1-1.989.262c-2.17,0-3.3-.995-3.3-2.892,0-2.217,1.439-3.848,3.392-3.848a2.328,2.328,0,0,1,2.618,2.347,6.138,6.138,0,0,1-.238,1.593h-3.86c-.138.926.536,1.334,1.684,1.334a5.124,5.124,0,0,0,2-.4l-.3,1.607Zm-1.038-3.846c0-.14.215-1.135-.9-1.157-.617,0-1.059.412-1.238,1.157Z" transform="translate(-16.12 -5.582)"/><path class="e" d="M52.134,28.67c0,.819.459,1.385,1.5,1.806.8.328.924.423.924.716,0,.407-.353.593-1.135.589a6.45,6.45,0,0,1-1.758-.252l-.281,1.493a11.131,11.131,0,0,0,2.052.191c2.084,0,3.047-.685,3.047-2.167a1.787,1.787,0,0,0-1.392-1.8c-.827-.332-.925-.4-.925-.7,0-.353.328-.532.967-.532a12.689,12.689,0,0,1,1.422.1l.282-1.5a15.039,15.039,0,0,0-1.741-.129c-2.209,0-2.973,1-2.966,2.2" transform="translate(-17.761 -5.582)"/><path class="e" d="M41.025,33.106H39.4l.039-.681a2.6,2.6,0,0,1-2.044.787,1.692,1.692,0,0,1-1.78-1.768c0-1.585,1.258-2.5,3.421-2.5a7.709,7.709,0,0,1,.8.049,1.4,1.4,0,0,0,.076-.418c0-.435-.34-.594-1.25-.594a7.444,7.444,0,0,0-2.065.289l.276-1.454a8.815,8.815,0,0,1,2.328-.344c1.675,0,2.559.659,2.559,1.9a7.371,7.371,0,0,1-.158,1.285c-.066.422-.53,2.872-.578,3.45ZM39.6,30.214a3.622,3.622,0,0,0-.435-.027c-1.1,0-1.664.33-1.664.981a.637.637,0,0,0,.7.666,1.494,1.494,0,0,0,1.4-1.62Z" transform="translate(-14.308 -5.582)"/><path class="e" d="M61.462,32.61a5.016,5.016,0,0,1-1.393.21c-.992,0-1.533-.509-1.533-1.415a13.552,13.552,0,0,1,.266-1.72c.055-.321.914-5.007.914-5.007h1.927l-.291,1.55h.988l-.269,1.582h-.993s-.545,2.746-.545,2.955c0,.334.2.478.663.478a1.841,1.841,0,0,0,.523-.06l-.257,1.426" transform="translate(-19.326 -5.188)"/><path class="e" d="M73.223,29.313c0,1.462-.6,2.327-1.54,2.327-.687.01-1.1-.568-1.1-1.435,0-1.027.608-2.187,1.585-2.187.789,0,1.059.628,1.059,1.3Zm2.08.041a2.78,2.78,0,0,0-3.054-2.881,3.573,3.573,0,0,0-3.779,3.8,2.732,2.732,0,0,0,3.05,2.943c2.194,0,3.782-1.176,3.782-3.859Z" transform="translate(-21.503 -5.582)"/><path class="e" d="M64.174,26.642c-.245,2.006-.679,4.039-1.017,6.049l-.082.438h1.946c.7-3.881.937-4.987,2.407-4.6l.707-1.836c-1.026-.378-1.685.162-2.283.929a4.544,4.544,0,0,0,.131-.981h-1.81" transform="translate(-20.321 -5.604)"/><path class="e" d="M32.091,32.744H30.153L31.3,26.651l-2.653,6.093H26.885l-.323-6.058-1.156,6.058H23.647l1.5-7.926h3.03l.16,4.907,2.133-4.907h3.151l-1.528,7.926" transform="translate(-11.686 -5.22)"/></g></g></g></svg>