<svg xmlns="http://www.w3.org/2000/svg" width="60" height="48" viewBox="0 0 60 48"><defs><style>.a,.e{fill:#fff;}.b{fill:#c00;}.b,.c,.d,.e{fill-rule:evenodd;}.c{fill:#f90;}.d{fill:#006;}</style></defs><g transform="translate(-2.149)"><g transform="translate(0)"><g transform="translate(0)"><rect class="a" width="60" height="48" rx="4" transform="translate(2.149)"/><path class="b" d="M47.58,26.211A15.241,15.241,0,1,1,32.34,10.97,15.24,15.24,0,0,1,47.58,26.211" transform="translate(-9.95 -1.97)"/><path class="c" d="M58.636,10.97A15.187,15.187,0,0,0,48.4,14.915a15.535,15.535,0,0,0-1.538,1.613h3.079a15.639,15.639,0,0,1,1.162,1.614H45.7a15.313,15.313,0,0,0-.878,1.614h7.159a15.178,15.178,0,0,1,.645,1.613H44.18a15.172,15.172,0,0,0-.443,1.613h9.335a15.348,15.348,0,0,1-.442,8.069H44.18a15.4,15.4,0,0,0,.645,1.614h7.16a15.267,15.267,0,0,1-.879,1.614H45.7a15.364,15.364,0,0,0,1.162,1.613h3.078a15.23,15.23,0,0,1-1.54,1.614A15.241,15.241,0,1,0,58.636,10.97" transform="translate(-15.784 -1.97)"/><path class="d" d="M31.108,31.605a2.847,2.847,0,0,0-.369-.026c-.938,0-1.412.322-1.412.957a.577.577,0,0,0,.593.64c.674,0,1.16-.642,1.189-1.572Zm1.2,2.8H30.941l.032-.652a2.078,2.078,0,0,1-1.734.76A1.546,1.546,0,0,1,27.727,32.8c0-1.531,1.069-2.424,2.9-2.424a5.661,5.661,0,0,1,.675.048,1.553,1.553,0,0,0,.065-.408c0-.416-.288-.572-1.061-.572a5.517,5.517,0,0,0-1.751.283c.017-.1.23-1.414.23-1.414a6.576,6.576,0,0,1,1.98-.333c1.421,0,2.174.638,2.172,1.843a8.06,8.06,0,0,1-.134,1.246c-.144.91-.452,2.863-.494,3.338Z" transform="translate(-12.277 -5.695)"/><path class="d" d="M24.979,34.041H23.324l.948-5.942-2.117,5.942H21.028l-.139-5.909-1,5.909H18.344l1.294-7.731h2.379l.144,4.327,1.452-4.327h2.646l-1.28,7.731" transform="translate(-10.222 -5.33)"/><path class="d" d="M64.484,31.605a2.833,2.833,0,0,0-.368-.026c-.939,0-1.412.322-1.412.957a.577.577,0,0,0,.593.64c.674,0,1.16-.642,1.188-1.572Zm1.2,2.8H64.317l.031-.652a2.077,2.077,0,0,1-1.733.76A1.546,1.546,0,0,1,61.1,32.8c0-1.531,1.07-2.424,2.9-2.424a5.661,5.661,0,0,1,.674.048,1.543,1.543,0,0,0,.065-.408c0-.416-.288-.572-1.061-.572a5.528,5.528,0,0,0-1.752.283c.018-.1.231-1.414.231-1.414a6.573,6.573,0,0,1,1.979-.333c1.422,0,2.174.638,2.172,1.843a8,8,0,0,1-.134,1.246c-.143.91-.452,2.863-.493,3.338Z" transform="translate(-19.587 -5.695)"/><path class="d" d="M42.313,34.083a3.782,3.782,0,0,1-1.189.2,1.211,1.211,0,0,1-1.307-1.381,14.508,14.508,0,0,1,.227-1.676c.1-.587.718-4.29.718-4.29h1.644l-.192.952h.994L42.983,29.4h-1c-.191,1.2-.463,2.685-.467,2.882,0,.324.173.466.567.466a1.346,1.346,0,0,0,.446-.059l-.219,1.391" transform="translate(-14.925 -5.468)"/><path class="d" d="M48.211,34.26a5.594,5.594,0,0,1-1.687.255,2.5,2.5,0,0,1-2.8-2.8c0-2.149,1.221-3.731,2.879-3.731a2.1,2.1,0,0,1,2.222,2.275,6.723,6.723,0,0,1-.2,1.547H45.345c-.111.912.473,1.292,1.43,1.292a3.9,3.9,0,0,0,1.71-.4l-.274,1.563Zm-.924-3.727c.009-.131.174-1.122-.766-1.122-.523,0-.9.4-1.05,1.122Z" transform="translate(-15.781 -5.695)"/><path class="d" d="M34.693,30.107a1.835,1.835,0,0,0,1.26,1.755c.67.315.774.408.774.694,0,.391-.3.569-.95.569a4.648,4.648,0,0,1-1.483-.249l-.227,1.453a7.71,7.71,0,0,0,1.722.186c1.746,0,2.552-.665,2.552-2.1a1.722,1.722,0,0,0-1.166-1.752c-.693-.318-.774-.389-.774-.683,0-.34.275-.514.81-.514a9.14,9.14,0,0,1,1.189.094l.235-1.458a11.171,11.171,0,0,0-1.456-.122c-1.851,0-2.492.967-2.486,2.128" transform="translate(-13.666 -5.695)"/><path class="d" d="M57.686,27.655a3.147,3.147,0,0,1,1.479.417l.271-1.678a4.86,4.86,0,0,0-1.819-.654,3.3,3.3,0,0,0-2.7,1.456c-.961-.318-1.356.325-1.839.965l-.43.1a3.212,3.212,0,0,0,.053-.632h-1.52c-.207,1.946-.575,3.917-.863,5.864l-.075.423H51.9c.276-1.8.427-2.944.519-3.723l.623-.345c.094-.347.384-.464.969-.449a7.043,7.043,0,0,0-.118,1.289c0,2.057,1.111,3.338,2.892,3.338a5.163,5.163,0,0,0,1.463-.226l.29-1.762a3.22,3.22,0,0,1-1.405.4c-.962,0-1.544-.71-1.544-1.883,0-1.7.865-2.9,2.1-2.9" transform="translate(-17.208 -5.205)"/><path class="d" d="M75.514,26.31l-.368,2.233a2.068,2.068,0,0,0-1.579-1.026,2.563,2.563,0,0,0-2.092,1.565,13.616,13.616,0,0,1-1.409-.388V28.7a9.3,9.3,0,0,0,.073-.946h-1.52c-.206,1.946-.575,3.917-.862,5.864l-.076.423h1.656c.224-1.451.394-2.657.52-3.612.566-.512.849-.956,1.42-.928a5.389,5.389,0,0,0-.4,2.04c0,1.571.794,2.608,2,2.608a1.95,1.95,0,0,0,1.526-.694l-.078.585h1.566l1.26-7.73Zm-2.069,6.278c-.563,0-.848-.418-.848-1.239,0-1.236.533-2.112,1.283-2.112.569,0,.877.433.877,1.231,0,1.246-.542,2.12-1.312,2.12Z" transform="translate(-21.028 -5.33)"/><path class="e" d="M25.589,33.454H23.934l.948-5.942-2.116,5.942H21.638L21.5,27.546l-1,5.908H18.954l1.294-7.73h2.379l.066,4.785L24.3,25.724h2.57l-1.28,7.73" transform="translate(-10.356 -5.201)"/><path class="e" d="M31.718,31.019a2.751,2.751,0,0,0-.369-.026c-.938,0-1.412.321-1.412.956a.578.578,0,0,0,.593.641c.674,0,1.16-.642,1.188-1.572Zm1.2,2.8H31.551l.031-.651a2.078,2.078,0,0,1-1.734.76,1.547,1.547,0,0,1-1.511-1.718c0-1.531,1.069-2.423,2.9-2.423a5.53,5.53,0,0,1,.674.049,1.56,1.56,0,0,0,.065-.409c0-.416-.288-.571-1.061-.571a5.5,5.5,0,0,0-1.752.282c.018-.1.23-1.414.23-1.414a6.6,6.6,0,0,1,1.98-.333c1.421,0,2.173.639,2.172,1.844a8.049,8.049,0,0,1-.134,1.246c-.144.91-.452,2.864-.494,3.338Z" transform="translate(-12.411 -5.567)"/><path class="e" d="M61.068,25.878,60.8,27.555a3.16,3.16,0,0,0-1.478-.417c-1.235,0-2.1,1.194-2.1,2.9,0,1.173.582,1.882,1.544,1.882a3.2,3.2,0,0,0,1.405-.4l-.291,1.762a5.163,5.163,0,0,1-1.462.227c-1.782,0-2.891-1.281-2.891-3.338,0-2.764,1.534-4.695,3.727-4.695a5.727,5.727,0,0,1,1.818.4" transform="translate(-18.365 -5.147)"/><path class="e" d="M65.093,31.019a2.731,2.731,0,0,0-.368-.026c-.937,0-1.412.321-1.412.956a.578.578,0,0,0,.593.641c.674,0,1.16-.642,1.188-1.572Zm1.2,2.8H64.927l.031-.651a2.078,2.078,0,0,1-1.733.76,1.547,1.547,0,0,1-1.512-1.718c0-1.531,1.068-2.423,2.9-2.423a5.516,5.516,0,0,1,.674.049,1.553,1.553,0,0,0,.065-.409c0-.416-.287-.571-1.061-.571a5.5,5.5,0,0,0-1.751.282c.017-.1.23-1.414.23-1.414a6.593,6.593,0,0,1,1.98-.333c1.421,0,2.174.639,2.172,1.844a7.953,7.953,0,0,1-.134,1.246c-.143.91-.452,2.864-.494,3.338Z" transform="translate(-19.721 -5.567)"/><path class="e" d="M42.922,33.5a3.78,3.78,0,0,1-1.188.2,1.211,1.211,0,0,1-1.308-1.381,14.551,14.551,0,0,1,.227-1.676c.1-.588.717-4.29.717-4.29h1.645l-.192.951h.844l-.225,1.511H42.6c-.191,1.2-.463,2.685-.467,2.883,0,.325.174.466.567.466a1.324,1.324,0,0,0,.446-.059l-.22,1.392" transform="translate(-15.059 -5.339)"/><path class="e" d="M48.822,33.674a5.633,5.633,0,0,1-1.688.254,2.5,2.5,0,0,1-2.8-2.8c0-2.15,1.221-3.732,2.877-3.732a2.1,2.1,0,0,1,2.223,2.276,6.812,6.812,0,0,1-.2,1.546H45.955c-.111.912.473,1.293,1.429,1.293a3.9,3.9,0,0,0,1.711-.4l-.274,1.564ZM47.9,29.946c.009-.132.174-1.122-.765-1.122-.524,0-.9.4-1.051,1.122Z" transform="translate(-15.915 -5.567)"/><path class="e" d="M35.3,29.52a1.836,1.836,0,0,0,1.26,1.756c.67.315.774.408.774.694,0,.392-.3.569-.95.569a4.662,4.662,0,0,1-1.483-.247l-.227,1.451a7.661,7.661,0,0,0,1.721.187c1.746,0,2.553-.665,2.553-2.1a1.72,1.72,0,0,0-1.166-1.751c-.694-.319-.773-.39-.773-.684,0-.34.275-.515.81-.515a9.2,9.2,0,0,1,1.189.1l.236-1.458a11.263,11.263,0,0,0-1.456-.123c-1.851,0-2.492.967-2.486,2.128" transform="translate(-13.799 -5.567)"/><path class="e" d="M77.391,33.454H75.826l.078-.585a1.95,1.95,0,0,1-1.526.694c-1.2,0-2-1.036-2-2.609,0-2.091,1.233-3.854,2.692-3.854a1.867,1.867,0,0,1,1.58.857l.367-2.234h1.632l-1.26,7.73ZM74.95,32c.771,0,1.312-.873,1.312-2.118,0-.8-.308-1.233-.877-1.233-.75,0-1.283.876-1.283,2.113,0,.823.285,1.239.848,1.239Z" transform="translate(-22.058 -5.201)"/><path class="e" d="M69.228,27.553c-.207,1.946-.575,3.917-.863,5.864l-.075.423h1.655c.592-3.845.734-4.595,1.663-4.5a6.17,6.17,0,0,1,.628-1.823c-.693-.145-1.08.247-1.587.991a5.726,5.726,0,0,0,.1-.954h-1.52" transform="translate(-21.162 -5.587)"/><path class="e" d="M51.789,27.553c-.208,1.946-.576,3.917-.864,5.864l-.075.423h1.655c.592-3.845.734-4.595,1.661-4.5a6.209,6.209,0,0,1,.629-1.823c-.692-.145-1.08.247-1.586.991a5.7,5.7,0,0,0,.1-.954h-1.52" transform="translate(-17.342 -5.587)"/></g></g></g></svg>