<svg xmlns="http://www.w3.org/2000/svg" width="33.008" height="33" viewBox="0 0 33.008 33"><defs><style>.a{fill:none;stroke:#3b4ec4;stroke-linecap:round;stroke-linejoin:round;stroke-width:3px;}</style></defs><path class="a" d="M20.29,12.5v-6A4.537,4.537,0,0,0,15.718,2l-6.1,13.5V32H26.814a3.034,3.034,0,0,0,3.048-2.55l2.1-13.5a2.967,2.967,0,0,0-.714-2.419A3.07,3.07,0,0,0,28.917,12.5ZM9.621,32H5.048A3.024,3.024,0,0,1,2,29V18.5a3.024,3.024,0,0,1,3.048-3H9.621" transform="translate(-0.5 -0.5)"/></svg>