<svg xmlns="http://www.w3.org/2000/svg" width="60" height="48" viewBox="0 0 60 48"><defs><style>.a{fill:#fff;}.b{fill:#26337a;}.b,.c{fill-rule:evenodd;}.c{fill:#ec982d;}</style></defs><g transform="translate(-9.525)"><g transform="translate(0)"><rect class="a" width="60" height="48" rx="4" transform="translate(9.525)"/><path class="b" d="M41.49,35.369l2.4-14.9H47.73l-2.4,14.9H41.49" transform="translate(-9.259 -4.213)"/><path class="b" d="M61,20.766a9.489,9.489,0,0,0-3.439-.625c-3.795,0-6.466,2.022-6.488,4.916-.024,2.141,1.906,3.335,3.362,4.047,1.5.729,2,1.2,1.992,1.849-.01,1-1.194,1.455-2.3,1.455a7.688,7.688,0,0,1-3.616-.781l-.494-.237-.537,3.334a11.586,11.586,0,0,0,4.276.794c4.033,0,6.654-2,6.684-5.088.014-1.7-1.009-2.985-3.224-4.047-1.341-.691-2.165-1.148-2.155-1.848,0-.619.7-1.282,2.2-1.282a6.733,6.733,0,0,1,2.873.572l.345.17L61,20.766" transform="translate(-11.01 -4.141)"/><path class="b" d="M69.111,30.092c.318-.856,1.529-4.164,1.529-4.164-.022.039.316-.863.51-1.421l.259,1.285s.737,3.556.888,4.3Zm4.735-9.6H70.88a1.9,1.9,0,0,0-2.012,1.235l-5.7,13.652H67.2s.658-1.837.807-2.24l4.916.008c.115.52.467,2.232.467,2.232h3.563L73.846,20.492Z" transform="translate(-14.007 -4.218)"/><path class="b" d="M34.709,20.489,30.952,30.645l-.4-2.064a11.439,11.439,0,0,0-5.317-6.248L28.67,35.36l4.062,0,6.045-14.869H34.709" transform="translate(-5.699 -4.217)"/><path class="c" d="M26.34,20.476H20.15l-.051.309c4.816,1.234,8,4.212,9.326,7.793L28.08,21.733a1.612,1.612,0,0,0-1.74-1.257" transform="translate(-4.574 -4.214)"/></g></g></svg>