<svg xmlns="http://www.w3.org/2000/svg" width="221.183" height="227.795" viewBox="0 0 221.183 227.795"><defs><style>.a{fill:#fff;}.a,.b{stroke:#3b4ec4;stroke-linecap:round;stroke-linejoin:round;stroke-miterlimit:10;stroke-width:8px;}.b{fill:#c6ccf0;}.c{fill:#943ba4;}.d{fill:#3b4ec4;}</style></defs><g transform="translate(-497.996 -2057.21)"><path class="a" d="M0,32.576l25-25L125,0l8.318,115.076H114.379l-26.515,21.97L51.5,127.2,22.712,146.137,6.8,122.652Z" transform="translate(526.714 2077.915) rotate(-7)"/><path class="a" d="M0,0V52.093l126.51,8.493V14.722L108.6,8.767,80.288,27.179,48.579,11.891,17.437,24.914Z" transform="translate(541.307 2213.676) rotate(3)"/><path class="b" d="M0,25.364l.514,6.023h32.9L29.819,0,25,.365Z" transform="translate(527.593 2085.072) rotate(-7)"/><g transform="translate(559.459 2128.52) rotate(-7)"><g transform="translate(0 0)"><path class="c" d="M13.056,8.631l3.232-4a2.845,2.845,0,0,0-4.425-3.576l-3.232,4-4-3.233A2.845,2.845,0,0,0,1.056,6.249l4,3.232-3.232,4a2.844,2.844,0,1,0,4.424,3.575l3.233-4,4,3.232a2.844,2.844,0,1,0,3.576-4.425Z" transform="translate(0 5.701)"/><path class="c" d="M13.057,8.632l3.232-4a2.844,2.844,0,1,0-4.425-3.575l-3.232,4-4-3.231A2.845,2.845,0,1,0,1.057,6.25l4,3.231-3.232,4a2.844,2.844,0,1,0,4.425,3.575l3.232-4,4,3.232a2.845,2.845,0,0,0,3.576-4.425Z" transform="translate(64.068 0)"/></g><g transform="translate(19.591 35.054)"><path class="c" d="M32.613,12.353a2.877,2.877,0,0,1-1.823-.42L24.769,8.178l-5.576,5.046a2.874,2.874,0,0,1-3.262.414L8.549,9.763,4.722,12.984a2.873,2.873,0,0,1-3.7-4.395l5.3-4.465A2.869,2.869,0,0,1,9.51,3.779l7.315,3.84,5.7-5.153a2.874,2.874,0,0,1,3.448-.308l6.142,3.83L38.88.621A2.868,2.868,0,0,1,42,.331l6.173,3.246A2.872,2.872,0,0,1,45.5,8.66L40.984,6.285l-6.889,5.463A2.889,2.889,0,0,1,32.613,12.353Z" transform="translate(0 0)"/></g></g><rect class="c" width="9.365" height="22.551" rx="4.682" transform="matrix(-0.259, 0.966, -0.966, -0.259, 719.179, 2207.481)"/><rect class="c" width="9.365" height="22.551" rx="4.682" transform="translate(532.224 2184.815) rotate(146)"/><rect class="d" width="9.365" height="22.551" rx="4.682" transform="translate(696.105 2236.522) rotate(150)"/><rect class="d" width="9.365" height="22.551" rx="4.682" transform="matrix(-0.191, 0.982, -0.982, -0.191, 521.92, 2201.864)"/><rect class="d" width="9.365" height="22.551" rx="4.682" transform="matrix(0.5, 0.866, -0.866, 0.5, 706.612, 2171.726)"/></g></svg>