<svg xmlns="http://www.w3.org/2000/svg" width="34" height="34" viewBox="0 0 34 34"><defs><style>.a{fill:#e32759;}.b{fill:#fff;}</style></defs><g transform="translate(1.31 1)"><circle class="a" cx="17" cy="17" r="17" transform="translate(-1.31 -1)"/><g transform="translate(3.195 3.53)"><path class="b" d="M20.444,9.193a5.784,5.784,0,0,0-.372-1.966,4.093,4.093,0,0,0-2.34-2.336,5.878,5.878,0,0,0-1.942-.373c-.855-.038-1.125-.049-3.3-.049s-2.448,0-3.3.049a5.878,5.878,0,0,0-1.941.373,4.09,4.09,0,0,0-2.34,2.336,5.8,5.8,0,0,0-.372,1.938c-.039.854-.05,1.125-.05,3.291s0,2.443.05,3.291a5.838,5.838,0,0,0,.372,1.94,4.093,4.093,0,0,0,2.34,2.335,5.859,5.859,0,0,0,1.941.4c.855.038,1.127.05,3.3.05s2.448,0,3.3-.05a5.864,5.864,0,0,0,1.942-.371,4.1,4.1,0,0,0,2.34-2.336,5.817,5.817,0,0,0,.372-1.94c.039-.853.05-1.124.05-3.291s0-2.441-.052-3.29Zm-7.955,7.36a4.1,4.1,0,1,1,4.108-4.1,4.1,4.1,0,0,1-4.108,4.1Zm4.271-7.4a.956.956,0,1,1,.957-.956A.956.956,0,0,1,16.761,9.156Z" transform="translate(0)"/><path class="b" d="M18.491,15.966a2.5,2.5,0,1,1-2.5-2.5,2.5,2.5,0,0,1,2.5,2.5Z" transform="translate(-3.5 -3.514)"/></g></g></svg>