<svg xmlns="http://www.w3.org/2000/svg" width="34" height="34" viewBox="0 0 34 34"><defs><style>.a{fill:#00acee;}.b{fill:#fff;}</style></defs><g transform="translate(1.31 1)"><circle class="a" cx="17" cy="17" r="17" transform="translate(-1.31 -1)"/><path class="b" d="M17,3a7.993,7.993,0,0,1-2.284,1.091A3.3,3.3,0,0,0,11.1,3.2,3.2,3.2,0,0,0,9,6.228v.713A7.8,7.8,0,0,1,2.455,3.71s-2.909,6.42,3.636,9.273A8.587,8.587,0,0,1,1,14.41c6.545,3.567,14.545,0,14.545-8.2a3.15,3.15,0,0,0-.058-.592A5.481,5.481,0,0,0,17,3Z" transform="translate(6.691 7.01)"/></g></svg>