<svg xmlns="http://www.w3.org/2000/svg" width="20" height="20" viewBox="0 0 20 20">
  <g id="Group_3522" data-name="Group 3522" transform="translate(17824.199 21912)" opacity="0.5">
    <path id="Path_34017" data-name="Path 34017" d="M29.8,20a10,10,0,1,1,10-10,10.011,10.011,0,0,1-10,10m0-18a8,8,0,1,0,8,8,8.009,8.009,0,0,0-8-8" transform="translate(-17844 -21912)" fill="#070404"/>
    <path id="Path_34018" data-name="Path 34018" d="M27.723,13.769a1,1,0,0,1-1-1V7.231a1,1,0,1,1,2,0v5.538a1,1,0,0,1-1,1" transform="translate(-17844 -21912)" fill="#070404"/>
    <path id="Path_34019" data-name="Path 34019" d="M31.877,13.769a1,1,0,0,1-1-1V7.231a1,1,0,1,1,2,0v5.538a1,1,0,0,1-1,1" transform="translate(-17844 -21912)" fill="#070404"/>
  </g>
</svg>
