<svg xmlns="http://www.w3.org/2000/svg" width="20" height="20" viewBox="0 0 20 20">
  <g id="Group_3521" data-name="Group 3521" transform="translate(16250 24095.703)" opacity="0.5">
    <path id="Path_34014" data-name="Path 34014" d="M10,26.3a10,10,0,1,1,10-10,10,10,0,0,1-10,10m0-18a8,8,0,1,0,8,8,8,8,0,0,0-8-8" transform="translate(-16250 -24102)" fill="#070404"/>
    <path id="Path_34015" data-name="Path 34015" d="M7.332,14.7a1.077,1.077,0,0,1-.008-2.154h.008a1.077,1.077,0,1,1,0,2.154" transform="translate(-16250 -24102)" fill="#070404"/>
    <path id="Path_34016" data-name="Path 34016" d="M12.686,14.7a1.077,1.077,0,0,1-.01-2.154h.01a1.077,1.077,0,0,1,0,2.154" transform="translate(-16250 -24102)" fill="#070404"/>
  </g>
</svg>
