<svg xmlns="http://www.w3.org/2000/svg" width="26" height="26" viewBox="0 0 26 26">
  <g id="icn_Images" transform="translate(-55.367 -117.638)">
    <path id="Path_33940" data-name="Path 33940" d="M67.662,127.741h.018a3.236,3.236,0,0,0,3.237-3.22,3.265,3.265,0,0,0-3.225-3.255h-.012a3.237,3.237,0,0,0-.018,6.475Zm.877-2.386a1.2,1.2,0,0,1-.852.356,1.224,1.224,0,0,1-1.212-1.2h0a1.207,1.207,0,0,1,1.2-1.212h0a1.209,1.209,0,0,1,.857,2.06Z" transform="translate(4.872 1.948)" fill="#4f61e8"/>
    <path id="Path_33941" data-name="Path 33941" d="M77.991,117.638H58.744a3.381,3.381,0,0,0-3.377,3.376v19.247a3.382,3.382,0,0,0,3.377,3.377H77.991a3.381,3.381,0,0,0,3.376-3.377V121.014A3.38,3.38,0,0,0,77.991,117.638Zm-19.939,3.376a.693.693,0,0,1,.692-.693H77.991a.693.693,0,0,1,.692.693v15.292l-1.839-1.466a2.847,2.847,0,0,0-3.73-.091c-.976.708-1.953,1.416-2.963,2.149a.389.389,0,0,1-.092.077.458.458,0,0,1-.351.066.522.522,0,0,1-.324-.24c-.962-.963-1.925-1.927-2.877-2.877-.045-.052-.092-.1-.142-.152a2.833,2.833,0,0,0-2.015-.841h-.009a2.815,2.815,0,0,0-2,.819l-3.039,2.565-1.254,1.057Z" transform="translate(0 0)" fill="#4f61e8"/>
  </g>
</svg>
