<svg xmlns="http://www.w3.org/2000/svg" width="20" height="20" viewBox="0 0 20 20">
  <g id="Group_3523" data-name="Group 3523" transform="translate(16211.714 24075.969)" opacity="0.5">
    <path id="Path_34025" data-name="Path 34025" d="M48.286,46.032a10,10,0,1,1,10-10,10.011,10.011,0,0,1-10,10m0-18a8,8,0,1,0,8,8,8.009,8.009,0,0,0-8-8" transform="translate(-16250 -24102)" fill="#070404"/>
    <path id="Path_34026" data-name="Path 34026" d="M48.286,36.832a5.867,5.867,0,0,0-4.4,2.2,1,1,0,0,0,1.6,1.2,3.5,3.5,0,0,1,5.608,0,1,1,0,0,0,1.6-1.2,5.867,5.867,0,0,0-4.4-2.2" transform="translate(-16250 -24102)" fill="#070404"/>
    <path id="Path_34027" data-name="Path 34027" d="M45.6,34.332a1,1,0,0,1-.009-2H45.6a1,1,0,0,1,0,2" transform="translate(-16250 -24102)" fill="#070404"/>
    <path id="Path_34028" data-name="Path 34028" d="M50.995,34.332a1,1,0,0,1-.009-2h.009a1,1,0,0,1,0,2" transform="translate(-16250 -24102)" fill="#070404"/>
  </g>
</svg>
