<svg xmlns="http://www.w3.org/2000/svg" width="17.001" height="18" viewBox="0 0 17.001 18">
  <path id="Path_34020" data-name="Path 34020" d="M5.61,18a5.582,5.582,0,0,1-3.968-1.649,5.665,5.665,0,0,1,0-7.976L8.787,1.194a4.041,4.041,0,0,1,5.736,0,4.091,4.091,0,0,1,0,5.765L7.37,14.14a2.552,2.552,0,0,1-3.536,0,2.524,2.524,0,0,1,0-3.553l6.6-6.626a.939.939,0,0,1,1.335,0,.952.952,0,0,1,0,1.342l-6.6,6.626a.617.617,0,0,0,0,.868.624.624,0,0,0,.865,0l7.153-7.181a2.186,2.186,0,0,0,0-3.08,2.211,2.211,0,0,0-3.064,0L2.977,9.717a3.76,3.76,0,0,0,0,5.291,3.713,3.713,0,0,0,5.266,0l7.145-7.18a.941.941,0,0,1,1.336,0,.952.952,0,0,1,0,1.342L9.578,16.351A5.582,5.582,0,0,1,5.61,18" fill="#070404" opacity="0.5"/>
</svg>
