<svg xmlns="http://www.w3.org/2000/svg" width="20" height="20" viewBox="0 0 20 20">
  <g id="Group_3524" data-name="Group 3524" transform="translate(16245.375 24074.275)" opacity="0.5">
    <path id="Path_34017" data-name="Path 34017" d="M14.625,47.725a10,10,0,1,1,10-10,10,10,0,0,1-10,10m0-18a8,8,0,1,0,8,8,8,8,0,0,0-8-8" transform="translate(-16250 -24102)" fill="#070404"/>
    <path id="Path_34018" data-name="Path 34018" d="M11.936,36.032a1.006,1.006,0,1,1-.009-2.012h.009a1.006,1.006,0,0,1,0,2.012" transform="translate(-16250 -24102)" fill="#070404"/>
    <path id="Path_34019" data-name="Path 34019" d="M17.332,36.032a1.006,1.006,0,1,1-.009-2.012h.009a1.006,1.006,0,1,1,0,2.012Z" transform="translate(-16250 -24102)" fill="#070404"/>
    <path id="Path_34020" data-name="Path 34020" d="M18.245,41.428H11a1.006,1.006,0,0,1,0-2.012h7.241a1.006,1.006,0,0,1,0,2.012" transform="translate(-16250 -24102)" fill="#070404"/>
  </g>
</svg>
