<svg xmlns="http://www.w3.org/2000/svg" width="20" height="20" viewBox="0 0 20 20">
  <g id="icn_Light" transform="translate(-1778.604 3332)" opacity="0.5" style="isolation: isolate">
    <path id="Path_33982" data-name="Path 33982" d="M91.6,15.5A5.5,5.5,0,1,1,97.1,10a5.506,5.506,0,0,1-5.5,5.5m0-9A3.5,3.5,0,1,0,95.1,10a3.5,3.5,0,0,0-3.5-3.5" transform="translate(1697 -3332)" fill="#070404"/>
    <path id="Path_33983" data-name="Path 33983" d="M91.6,3.5a1,1,0,0,1-1-1V1a1,1,0,0,1,2,0V2.5a1,1,0,0,1-1,1" transform="translate(1697 -3332)" fill="#070404"/>
    <path id="Path_33984" data-name="Path 33984" d="M91.6,20a1,1,0,0,1-1-1V17.5a1,1,0,0,1,2,0V19a1,1,0,0,1-1,1" transform="translate(1697 -3332)" fill="#070404"/>
    <path id="Path_33985" data-name="Path 33985" d="M86.393,5.79a1,1,0,0,1-.707-.293L84.492,4.3a1,1,0,0,1,1.414-1.414L87.1,4.083a1,1,0,0,1-.707,1.707" transform="translate(1697 -3332)" fill="#070404"/>
    <path id="Path_33986" data-name="Path 33986" d="M98.29,17.686a1,1,0,0,1-.707-.293L96.389,16.2A1,1,0,0,1,97.8,14.785L99,15.979a1,1,0,0,1-.707,1.707" transform="translate(1697 -3332)" fill="#070404"/>
    <path id="Path_33987" data-name="Path 33987" d="M84.1,11H82.6a1,1,0,0,1,0-2h1.5a1,1,0,0,1,0,2" transform="translate(1697 -3332)" fill="#070404"/>
    <path id="Path_33988" data-name="Path 33988" d="M100.6,11H99.1a1,1,0,0,1,0-2h1.5a1,1,0,0,1,0,2" transform="translate(1697 -3332)" fill="#070404"/>
    <path id="Path_33989" data-name="Path 33989" d="M85.2,17.686a1,1,0,0,1-.707-1.707l1.194-1.194A1,1,0,0,1,87.1,16.2l-1.194,1.194a1,1,0,0,1-.707.293" transform="translate(1697 -3332)" fill="#070404"/>
    <path id="Path_33990" data-name="Path 33990" d="M97.1,5.79a1,1,0,0,1-.707-1.707l1.194-1.194A1,1,0,1,1,99,4.3L97.8,5.5a1,1,0,0,1-.707.293" transform="translate(1697 -3332)" fill="#070404"/>
  </g>
</svg>
