<svg xmlns="http://www.w3.org/2000/svg" width="20" height="20" viewBox="0 0 20 20">
  <g id="Group_3521" data-name="Group 3521" transform="translate(17844 21898)" opacity="0.5">
    <path id="Path_34020" data-name="Path 34020" d="M13.555,23.168l-4.2-2.8A1,1,0,0,0,7.8,21.2v5.6a1,1,0,0,0,1.555.832l4.2-2.8a1,1,0,0,0,0-1.664" transform="translate(-17844 -21912)" fill="#070404"/>
    <path id="Path_34021" data-name="Path 34021" d="M10,14A10,10,0,1,0,20,24,10.011,10.011,0,0,0,10,14m0,18a8,8,0,1,1,8-8,8.009,8.009,0,0,1-8,8" transform="translate(-17844 -21912)" fill="#070404"/>
  </g>
</svg>
