<svg xmlns="http://www.w3.org/2000/svg" width="18" height="18" viewBox="0 0 18 18">
  <g id="Group_3521" data-name="Group 3521" transform="translate(16008.5 19402)">
    <path id="Path_34021" data-name="Path 34021" d="M33.833,36.889a1,1,0,0,0-1,1v5.333a.778.778,0,0,1-.777.778H22.278a.779.779,0,0,1-.778-.778V33.445a.779.779,0,0,1,.778-.778h5.333a1,1,0,0,0,0-2H22.278A2.782,2.782,0,0,0,19.5,33.445v9.777A2.782,2.782,0,0,0,22.278,46h9.778a2.78,2.78,0,0,0,2.777-2.778V37.889a1,1,0,0,0-1-1" transform="translate(-16028 -19430)" fill="#070404" opacity="0.5"/>
    <path id="Path_34022" data-name="Path 34022" d="M37.423,28.618A1,1,0,0,0,36.5,28H31.167a1,1,0,0,0,0,2h2.919l-8.071,8.071a1,1,0,1,0,1.414,1.414L35.5,31.414v2.92a1,1,0,0,0,2,0V29a.991.991,0,0,0-.077-.382" transform="translate(-16028 -19430)" fill="#070404" opacity="0.5"/>
  </g>
</svg>
