<svg xmlns="http://www.w3.org/2000/svg" width="18" height="18" viewBox="0 0 18 18">
  <g id="icn_Minimise" transform="translate(-1728.238 3331)" opacity="0.5" style="isolation: isolate">
    <path id="Path_33980" data-name="Path 33980" d="M43.7,19a1.216,1.216,0,0,1-1.216-1.216v-2.6a2.95,2.95,0,0,1,2.946-2.946h2.6a1.216,1.216,0,0,1,0,2.433h-2.6a.513.513,0,0,0-.513.513v2.6A1.216,1.216,0,0,1,43.7,19m-6.918,0a1.215,1.215,0,0,1-1.216-1.216v-2.6a.514.514,0,0,0-.514-.513h-2.6a1.216,1.216,0,0,1,0-2.433h2.6a2.95,2.95,0,0,1,2.946,2.946v2.6A1.215,1.215,0,0,1,36.779,19M48.022,7.757h-2.6a2.95,2.95,0,0,1-2.946-2.946V2.216a1.217,1.217,0,0,1,2.433,0V4.811a.513.513,0,0,0,.513.513h2.6a1.217,1.217,0,0,1,0,2.433m-12.973,0h-2.6a1.217,1.217,0,0,1,0-2.433h2.6a.514.514,0,0,0,.514-.513V2.216a1.216,1.216,0,1,1,2.432,0V4.811a2.95,2.95,0,0,1-2.946,2.946" transform="translate(1697 -3332)" fill="#070404"/>
  </g>
</svg>
