<svg xmlns="http://www.w3.org/2000/svg" width="20" height="20" viewBox="0 0 20 20">
  <g id="Group_3522" data-name="Group 3522" transform="translate(16225.311 24102)" opacity="0.5">
    <path id="Path_34021" data-name="Path 34021" d="M34.689,20a10,10,0,1,1,10-10,10.011,10.011,0,0,1-10,10m0-18a8,8,0,1,0,8,8,8.009,8.009,0,0,0-8-8" transform="translate(-16250 -24102)" fill="#070404"/>
    <path id="Path_34022" data-name="Path 34022" d="M34.689,14.6a5.867,5.867,0,0,1-4.4-2.2,1,1,0,0,1,1.6-1.2,3.891,3.891,0,0,0,2.8,1.405,3.892,3.892,0,0,0,2.8-1.405,1,1,0,0,1,1.6,1.2,5.867,5.867,0,0,1-4.4,2.2" transform="translate(-16250 -24102)" fill="#070404"/>
    <path id="Path_34023" data-name="Path 34023" d="M32,8.3a1,1,0,0,1-.009-2H32a1,1,0,1,1,0,2" transform="translate(-16250 -24102)" fill="#070404"/>
    <path id="Path_34024" data-name="Path 34024" d="M37.4,8.3a1,1,0,0,1-.009-2H37.4a1,1,0,0,1,0,2" transform="translate(-16250 -24102)" fill="#070404"/>
  </g>
</svg>
