<svg xmlns="http://www.w3.org/2000/svg" width="18" height="18" viewBox="0 0 18 18">
  <g id="icn_Maximise" transform="translate(-1753.553 3331)" opacity="0.5" style="isolation: isolate">
    <path id="Path_33981" data-name="Path 33981" d="M71.607,19h-2.6a1.216,1.216,0,1,1,0-2.432h2.6a.514.514,0,0,0,.513-.514V13.46a1.216,1.216,0,0,1,2.433,0v2.594A2.949,2.949,0,0,1,71.607,19m-9.514,0H59.5a2.949,2.949,0,0,1-2.946-2.946V13.46a1.216,1.216,0,0,1,2.432,0v2.594a.514.514,0,0,0,.514.514h2.594a1.216,1.216,0,1,1,0,2.432M73.337,7.757A1.216,1.216,0,0,1,72.12,6.541V3.946a.513.513,0,0,0-.513-.513h-2.6a1.217,1.217,0,0,1,0-2.433h2.6a2.95,2.95,0,0,1,2.946,2.946V6.541a1.216,1.216,0,0,1-1.216,1.216m-15.568,0a1.215,1.215,0,0,1-1.216-1.216V3.946A2.949,2.949,0,0,1,59.5,1h2.594a1.217,1.217,0,0,1,0,2.433H59.5a.514.514,0,0,0-.514.513V6.541a1.215,1.215,0,0,1-1.216,1.216" transform="translate(1697 -3332)" fill="#070404"/>
  </g>
</svg>
