<svg xmlns="http://www.w3.org/2000/svg" width="29.627" height="32.365" viewBox="0 0 29.627 32.365">
  <g id="icn_Female" transform="translate(-2.187 -1.611)">
    <path id="Path_33974" data-name="Path 33974" d="M30,24.3a13.143,13.143,0,0,0-7.169-8.78L17,22.843l-5.829-7.327A13.139,13.139,0,0,0,4,24.3" transform="translate(0 7.866)" fill="none" stroke="#d530c7" stroke-linecap="round" stroke-linejoin="round" stroke-width="3"/>
    <path id="Path_33975" data-name="Path 33975" d="M7.759,8.113v1.936a11.434,11.434,0,0,1-1.665,6.339" transform="translate(1.328 3.172)" fill="none" stroke="#d530c7" stroke-linecap="round" stroke-linejoin="round" stroke-width="3"/>
    <path id="Path_33976" data-name="Path 33976" d="M16.891,8.113v1.936a11.449,11.449,0,0,0,1.664,6.339" transform="translate(8.024 3.172)" fill="none" stroke="#d530c7" stroke-linecap="round" stroke-linejoin="round" stroke-width="3"/>
    <path id="Path_33977" data-name="Path 33977" d="M7.127,10.562a10.567,10.567,0,0,0,7.937-3.68A10.567,10.567,0,0,0,23,10.562c3.05.021-1.21-4.675-1.21-4.675L17.845,2.531,15.3,2.021,9.949,3.695,7.742,6.61Z" transform="translate(1.933 1.146)" fill="#d530c7"/>
    <path id="Path_33978" data-name="Path 33978" d="M22.944,11.069A7.917,7.917,0,1,1,15,3.111h.032A7.954,7.954,0,0,1,22.944,11.069Z" transform="translate(1.973 0)" fill="none" stroke="#d530c7" stroke-linecap="round" stroke-linejoin="round" stroke-width="3"/>
  </g>
</svg>
