<svg xmlns="http://www.w3.org/2000/svg" width="24.042" height="19.607" viewBox="0 0 24.042 19.607">
  <g id="icn_Twiiter_Dropdown" transform="translate(30.835 1.009)">
    <g id="Group_2962" data-name="Group 2962" transform="translate(-29.822 -0.004)">
      <path id="Path_33806" data-name="Path 33806" d="M-26.784,10.3a5.718,5.718,0,0,1-1.433-1.251,4.443,4.443,0,0,1-1-2.718.488.488,0,0,1,.26-.513.5.5,0,0,1,.579.09c.1.077.207.138.33.218.019-.113-.055-.164-.092-.224a4.444,4.444,0,0,1-.169-4.816c.238-.429.6-.451.921-.073a11.323,11.323,0,0,0,7.53,4.032c.089.011.178.023.267.033a.445.445,0,0,0,.063-.008,5.578,5.578,0,0,1,.107-1.4A4.349,4.349,0,0,1-16.155.235a4.7,4.7,0,0,1,4.561.912.351.351,0,0,0,.363.073,10.26,10.26,0,0,0,2.1-.836A.473.473,0,0,1-8.582.4a.441.441,0,0,1,.169.523A4.007,4.007,0,0,1-8.942,2c-.043.064-.112.117-.118.22a2.31,2.31,0,0,0,.525-.172.488.488,0,0,1,.606.111.463.463,0,0,1,0,.586A8.233,8.233,0,0,1-9.793,4.672a.383.383,0,0,0-.167.382,10,10,0,0,1-.862,4.61,12.852,12.852,0,0,1-7.491,7.171,12.452,12.452,0,0,1-8.775-.077,16.815,16.815,0,0,1-2.353-1.053c-.327-.177-.436-.364-.356-.619s.289-.342.659-.31a8.561,8.561,0,0,0,4.556-.84.842.842,0,0,0,.292-.179c-.22-.07-.43-.131-.635-.207a5.113,5.113,0,0,1-2.885-2.565.492.492,0,0,1,.023-.607.523.523,0,0,1,.6-.119A.677.677,0,0,0-26.784,10.3Z" transform="translate(29.822 0.004)" fill="none" stroke="#1d9deb" stroke-linecap="round" stroke-linejoin="round" stroke-width="2"/>
    </g>
  </g>
</svg>
