<svg xmlns="http://www.w3.org/2000/svg" width="10.565" height="22" viewBox="0 0 10.565 22">
  <g id="icn_FB_Dropdown" transform="translate(-30.072 2.631)">
    <g id="Group_2964" data-name="Group 2964" transform="translate(30.072 -2.631)">
      <path id="Path_33809" data-name="Path 33809" d="M32.235,8.639H30.489c-.345,0-.416-.072-.416-.417q0-1.669,0-3.335c0-.328.082-.412.4-.412.577,0,1.154,0,1.727,0,.055-.072.03-.146.03-.215,0-.889-.013-1.776,0-2.665a4.062,4.062,0,0,1,1.195-3.011,4.469,4.469,0,0,1,2.5-1.131,8.744,8.744,0,0,1,1.339-.085c1,0,1.992,0,2.988,0,.281,0,.379.1.378.377q0,1.765,0,3.529c0,.327-.085.412-.408.413q-1.1,0-2.208,0a.683.683,0,0,0-.766.773q0,.887,0,1.776a.367.367,0,0,0,.032.227h1.243c.592,0,1.183,0,1.775,0a.306.306,0,0,1,.331.376c-.109,1-.191,2.01-.343,3.008-.024.156-.043.314-.071.471-.048.266-.106.315-.371.315-.787,0-1.574,0-2.361,0a.427.427,0,0,0-.233.022.5.5,0,0,0-.023.255q0,5,0,10.005c0,.387-.062.448-.453.448H32.643c-.324,0-.408-.083-.408-.409V8.639Z" transform="translate(-30.072 2.631)" fill="#3b4ec4"/>
    </g>
  </g>
</svg>
