<svg xmlns="http://www.w3.org/2000/svg" width="24.095" height="24.019" viewBox="0 0 24.095 24.019">
  <g id="icn_Snapchat_Dropdown" transform="translate(19.823 -13.428)">
    <g id="Group_2965" data-name="Group 2965" transform="translate(-18.822 14.428)">
      <path id="Path_33810" data-name="Path 33810" d="M-14.3,21.787c-.1-2.431.419-4.556,2.4-6.049a6.545,6.545,0,0,1,4.366-1.3A6.4,6.4,0,0,1-2.78,16.632,7.3,7.3,0,0,1-1.3,21.744a2.253,2.253,0,0,1,1.479.1A2.005,2.005,0,0,1,.687,25.11a6.164,6.164,0,0,1-1.258.906c-.4.231-.427.477-.22.856a6.72,6.72,0,0,0,2.872,2.641,2.043,2.043,0,0,1,.829.606,1.523,1.523,0,0,1-.457,2.15,4.738,4.738,0,0,1-1.536.7.9.9,0,0,0-.665.589c-.358.951-1.2,1-2.029,1.027a5.263,5.263,0,0,0-2.664.807,5.961,5.961,0,0,1-6.653.04,5.973,5.973,0,0,0-3.159-.884,1.582,1.582,0,0,1-1.755-1.209c-.053-.2-.257-.291-.46-.35a4.91,4.91,0,0,1-1.624-.742,1.47,1.47,0,0,1,.148-2.617,8.681,8.681,0,0,0,2.308-1.655,5.909,5.909,0,0,0,.853-1.234.427.427,0,0,0-.175-.66,8.255,8.255,0,0,1-1.3-.935,2,2,0,0,1,.367-3.278A1.9,1.9,0,0,1-14.3,21.787Z" transform="translate(18.822 -14.428)" fill="none" stroke="#2b2a00" stroke-linecap="round" stroke-linejoin="round" stroke-width="2"/>
    </g>
  </g>
</svg>
