<svg xmlns="http://www.w3.org/2000/svg" width="24" height="24" viewBox="0 0 24 24">
  <g id="icn_Insta_Dropdown" transform="translate(-75.378 11.541)">
    <path id="instagram" d="M87.378-10.541c-2.988,0-3.362.013-4.535.066a8.143,8.143,0,0,0-2.67.512,5.612,5.612,0,0,0-3.218,3.217,8.143,8.143,0,0,0-.511,2.67C76.39-2.9,76.378-2.529,76.378.459s.012,3.362.066,4.535a8.109,8.109,0,0,0,.511,2.67,5.609,5.609,0,0,0,3.218,3.218,8.086,8.086,0,0,0,2.67.512c1.174.053,1.548.066,4.535.066s3.362-.013,4.535-.066a8.081,8.081,0,0,0,2.67-.512A5.606,5.606,0,0,0,97.8,7.664a8.081,8.081,0,0,0,.512-2.67c.053-1.174.066-1.548.066-4.535s-.013-3.362-.066-4.535a8.086,8.086,0,0,0-.512-2.67,5.609,5.609,0,0,0-3.217-3.217,8.137,8.137,0,0,0-2.67-.512c-1.174-.053-1.548-.066-4.535-.066" fill="none" stroke="#e01e78" stroke-linecap="round" stroke-linejoin="round" stroke-width="2" fill-rule="evenodd"/>
    <path id="Path_33807" data-name="Path 33807" d="M94.344-5.992a1.64,1.64,0,0,1-1.64,1.64,1.64,1.64,0,0,1-1.64-1.64,1.639,1.639,0,0,1,1.64-1.64,1.639,1.639,0,0,1,1.64,1.64h0" transform="translate(0.814 0.591)" fill="#e01e78" fill-rule="evenodd"/>
    <path id="Path_33808" data-name="Path 33808" d="M86.374-5.044a4.5,4.5,0,0,0-4.5,4.5,4.5,4.5,0,0,0,4.5,4.5,4.5,4.5,0,0,0,4.5-4.5,4.5,4.5,0,0,0-4.5-4.5h0" transform="translate(0.999 0.999)" fill="none" stroke="#e01e78" stroke-linecap="round" stroke-linejoin="round" stroke-width="2" fill-rule="evenodd"/>
  </g>
</svg>
