<svg xmlns="http://www.w3.org/2000/svg" width="20" height="20" viewBox="0 0 20 20">
  <g id="icn_Insta" transform="translate(-1482 -116.638)">
    <path id="Image-2" d="M1492,116.638h0a10,10,0,0,1,10,10h0a10,10,0,0,1-10,10h0a10,10,0,0,1-10-10h0A10,10,0,0,1,1492,116.638Z" fill="#e01e78"/>
    <g id="icn_Insta-2" data-name="icn Insta">
      <g id="Group_2947-2" data-name="Group 2947-2">
        <path id="instagram" d="M1492,121.638c-1.357,0-1.528,0-2.061.03a3.659,3.659,0,0,0-1.215.232,2.549,2.549,0,0,0-1.462,1.462,3.7,3.7,0,0,0-.233,1.214c-.024.534-.03.7-.03,2.062s.006,1.527.03,2.061a3.7,3.7,0,0,0,.233,1.214,2.548,2.548,0,0,0,1.462,1.463,3.684,3.684,0,0,0,1.215.232c.533.025.7.03,2.061.03s1.528-.005,2.061-.03a3.659,3.659,0,0,0,1.215-.232,2.55,2.55,0,0,0,1.463-1.463,3.671,3.671,0,0,0,.232-1.214c.025-.534.03-.7.03-2.061s-.005-1.528-.03-2.062a3.676,3.676,0,0,0-.232-1.214,2.548,2.548,0,0,0-1.463-1.462,3.659,3.659,0,0,0-1.215-.232c-.533-.025-.7-.03-2.061-.03m0,6.665a1.666,1.666,0,0,1,0-3.333h0a1.666,1.666,0,0,1,1.666,1.666h0A1.666,1.666,0,0,1,1492,128.3h0m0-4.235a2.568,2.568,0,0,0-2.568,2.567h0A2.567,2.567,0,0,0,1492,129.2h0a2.567,2.567,0,0,0,2.567-2.567h0a2.567,2.567,0,0,0-2.566-2.568h0m3.546-.377a.6.6,0,0,1-.6.6h0a.6.6,0,0,1-.6-.6h0a.6.6,0,0,1,.6-.6h0a.6.6,0,0,1,.6.6h0" fill="#fff" fill-rule="evenodd"/>
      </g>
    </g>
  </g>
</svg>
