<svg xmlns="http://www.w3.org/2000/svg" width="20" height="20" viewBox="0 0 20 20">
  <g id="icn_News" transform="translate(-1533 -116.638)">
    <path id="Image-6" d="M1543,116.638h0a10,10,0,0,1,10,10h0a10,10,0,0,1-10,10h0a10,10,0,0,1-10-10h0A10,10,0,0,1,1543,116.638Z" fill="#19c482"/>
    <path id="Path_33943" data-name="Path 33943" d="M1545.656,121.639h-3.77a2.346,2.346,0,0,0-2.343,2.343v1.055a1.949,1.949,0,0,0-1.543,1.914v2.344a2.347,2.347,0,0,0,2.344,2.343h5.312a2.347,2.347,0,0,0,2.344-2.344v-5.313A2.346,2.346,0,0,0,1545.656,121.639Zm-6.113,8.99a1.559,1.559,0,0,1-.762-1.335v-2.343a1.156,1.156,0,0,1,.762-1.1Zm1.953-6.857h4.551a.391.391,0,0,1,.39.39h0a.391.391,0,0,1-.39.391h-4.55a.391.391,0,0,1,0-.782Zm4.937,2.5a.393.393,0,0,1-.367.367h-2.835a.391.391,0,0,1,0-.782h2.833a.391.391,0,0,1,.369.412v0Zm-5.327-.064a.489.489,0,1,1,.488.491.489.489,0,0,1-.488-.491Zm1.894,3.556h-1.5a.391.391,0,0,1,0-.782h1.5a.39.39,0,0,1,.389.392h0a.39.39,0,0,1-.389.392h0Zm0-1.563h-1.5a.391.391,0,0,1,0-.782h1.505a.391.391,0,0,1,.388.393h0a.39.39,0,0,1-.392.389Zm2.656,1.173a.391.391,0,0,1-.39.391h-.723a.391.391,0,0,1,0-.782h.722a.391.391,0,0,1,.391.391Zm.8-1.562a.391.391,0,0,1-.391.391h-1.523a.391.391,0,0,1,0-.782h1.523a.392.392,0,0,1,.391.391Z" fill="#fff"/>
  </g>
</svg>
