<svg xmlns="http://www.w3.org/2000/svg" width="20" height="20" viewBox="0 0 20 20">
  <g id="icn_TikTok" transform="translate(-1560 -116.638)">
    <path id="Image-5" d="M1570,116.638h0a10,10,0,0,1,10,10h0a10,10,0,0,1-10,10h0a10,10,0,0,1-10-10h0A10,10,0,0,1,1570,116.638Z"/>
    <g id="_2ZyTzv" data-name=" 2ZyTzv">
      <g id="Group_3378" data-name="Group 3378">
        <path id="Path_33935" data-name="Path 33935" d="M1569.361,127.238a5.533,5.533,0,0,0-.669-.023,1.413,1.413,0,0,0-.471,2.652,1.429,1.429,0,0,0,1.868-.524,1.282,1.282,0,0,0,.177-.688c.006-.857.015-1.714.017-2.572,0-1.434,0-2.868.005-4.3v-.126c.043,0,.079-.006.113-.006.475,0,.95-.005,1.425-.011.077,0,.1.024.1.1a2.5,2.5,0,0,0,.771,1.695,2.033,2.033,0,0,0,.775.463c.272.089.552.15.83.214.077.017.109.037.108.124,0,.487,0,.975,0,1.463a.591.591,0,0,1-.006.1,4.278,4.278,0,0,1-2.416-.795v.139c0,1.124,0,2.248-.006,3.372a3.011,3.011,0,0,1-.88,2.161,3.042,3.042,0,0,1-2.939.888,2.971,2.971,0,0,1-1.842-1.21,3.065,3.065,0,0,1-.452-2.8,3,3,0,0,1,1.112-1.547,2.951,2.951,0,0,1,1.466-.592,7.491,7.491,0,0,1,.807,0c.1,0,.121.051.119.143-.007.387-.01.772-.012,1.157C1569.361,126.889,1569.361,127.074,1569.361,127.238Z" fill="#fff"/>
      </g>
    </g>
  </g>
</svg>
