<svg xmlns="http://www.w3.org/2000/svg" width="20" height="20" viewBox="0 0 20 20">
  <g id="icn_FB" transform="translate(-1617 -116.638)">
    <path id="Image-3" d="M1627,116.638h0a10,10,0,0,1,10,10h0a10,10,0,0,1-10,10h0a10,10,0,0,1-10-10h0A10,10,0,0,1,1627,116.638Z" fill="#4065ad"/>
    <path id="Path_33888" data-name="Path 33888" d="M1625.841,126.76h-.795c-.156,0-.189-.032-.189-.189v-1.516c0-.149.037-.187.184-.187h.785c.025-.033.014-.066.014-.1,0-.4-.006-.807,0-1.214a1.843,1.843,0,0,1,.543-1.368,2.03,2.03,0,0,1,1.136-.515,3.986,3.986,0,0,1,.608-.038h1.357c.128,0,.172.045.172.171v1.6c0,.149-.038.188-.185.188h-1a.31.31,0,0,0-.348.267.3.3,0,0,0,0,.085v.807a.159.159,0,0,0,.014.1h1.372a.144.144,0,0,1,.153.132.132.132,0,0,1,0,.039c-.049.456-.086.914-.155,1.367-.011.072-.02.143-.033.215-.022.12-.048.142-.168.142h-1.072a.2.2,0,0,0-.1.01.22.22,0,0,0-.011.116v4.548c0,.176-.028.2-.206.2h-1.883c-.147,0-.185-.038-.185-.186Z" fill="#fff"/>
  </g>
</svg>
