<svg xmlns="http://www.w3.org/2000/svg" width="20" height="20" viewBox="0 0 20 20">
  <g id="icn_Twitter" transform="translate(-1588 -116.638)">
    <path id="Image" d="M1598,116.638h0a10,10,0,0,1,10,10h0a10,10,0,0,1-10,10h0a10,10,0,0,1-10-10h0A10,10,0,0,1,1598,116.638Z" fill="#1d9deb"/>
    <g id="icn_Twitter-2" data-name="icn Twitter">
      <g id="Group_2947" data-name="Group 2947">
        <path id="Path_33802" data-name="Path 33802" d="M1594.381,127.665a2.581,2.581,0,0,1-.652-.558,1.964,1.964,0,0,1-.456-1.214.215.215,0,0,1,.118-.229.233.233,0,0,1,.263.04c.043.034.094.061.15.1.008-.051-.025-.071-.043-.1a1.956,1.956,0,0,1-.077-2.15c.108-.191.273-.2.419-.032a5.172,5.172,0,0,0,3.423,1.8l.121.015h.029a2.435,2.435,0,0,1,.048-.626,1.956,1.956,0,0,1,1.488-1.535,2.163,2.163,0,0,1,2.072.407.16.16,0,0,0,.165.032,4.7,4.7,0,0,0,.957-.373.217.217,0,0,1,.248.009.193.193,0,0,1,.076.233,1.77,1.77,0,0,1-.241.48c-.019.029-.05.052-.053.1a1.1,1.1,0,0,0,.238-.076.224.224,0,0,1,.276.049.2.2,0,0,1,0,.261,3.674,3.674,0,0,1-.849.857.171.171,0,0,0-.076.171,4.391,4.391,0,0,1-.392,2.058,5.814,5.814,0,0,1-7.392,3.17,7.662,7.662,0,0,1-1.071-.47c-.149-.079-.2-.163-.162-.276s.131-.153.3-.139a3.949,3.949,0,0,0,2.072-.375.389.389,0,0,0,.137-.077c-.1-.032-.2-.059-.286-.092a2.312,2.312,0,0,1-1.311-1.143.214.214,0,0,1,.01-.271.242.242,0,0,1,.271-.053A.311.311,0,0,0,1594.381,127.665Z" fill="#fff"/>
      </g>
    </g>
  </g>
</svg>
