<svg xmlns="http://www.w3.org/2000/svg" width="20" height="20" viewBox="0 0 20 20">
  <g id="icn_Snapchat" transform="translate(-1507 -116.638)">
    <path id="Image-4" d="M1517,116.638h0a10,10,0,0,1,10,10h0a10,10,0,0,1-10,10h0a10,10,0,0,1-10-10h0A10,10,0,0,1,1517,116.638Z" fill="#f7f400"/>
    <g id="icn_Snapchat-2" data-name="icn Snapchat">
      <path id="Path_33948" data-name="Path 33948" d="M1517,131.994a3.165,3.165,0,0,1-1.674-.505,2.379,2.379,0,0,0-1.253-.348,1.061,1.061,0,0,1-1.113-.726,2.516,2.516,0,0,1-.841-.39,1.084,1.084,0,0,1-.474-.941,1.057,1.057,0,0,1,.582-.848,3.681,3.681,0,0,0,.958-.682,2.214,2.214,0,0,0,.278-.383l-.025-.016a3.058,3.058,0,0,1-.522-.389,1.327,1.327,0,0,1-.411-1.12,1.269,1.269,0,0,1,.651-.937,1.123,1.123,0,0,1,.538-.144,3.149,3.149,0,0,1,1.234-2.618,3.3,3.3,0,0,1,2.029-.667c.062,0,.125,0,.188.005a3.268,3.268,0,0,1,2.417,1.12,3.356,3.356,0,0,1,.753,2.167,1.314,1.314,0,0,1,.466.111,1.23,1.23,0,0,1,.706.906,1.3,1.3,0,0,1-.369,1.158,2.97,2.97,0,0,1-.578.428,2.7,2.7,0,0,0,1.131,1l.054.029a1.1,1.1,0,0,1,.452.366,1.045,1.045,0,0,1-.3,1.461,2.483,2.483,0,0,1-.812.375c-.052.014-.053.017-.065.048a1.192,1.192,0,0,1-1.247.7,2.036,2.036,0,0,0-1.034.315A3.293,3.293,0,0,1,1517,131.994Z" fill="#fff"/>
      <path id="Path_33949" data-name="Path 33949" d="M1516.957,121.637a2.943,2.943,0,0,0-1.814.6,3.008,3.008,0,0,0-1.089,2.749.866.866,0,0,0-.722.038.908.908,0,0,0-.166,1.49,3.663,3.663,0,0,0,.59.425.2.2,0,0,1,.08.3,2.7,2.7,0,0,1-.388.561,3.961,3.961,0,0,1-1.049.753.668.668,0,0,0-.067,1.189,2.216,2.216,0,0,0,.738.337c.092.027.185.066.209.159a.719.719,0,0,0,.8.55,2.71,2.71,0,0,1,1.436.4,2.711,2.711,0,0,0,3.024-.018,2.382,2.382,0,0,1,1.211-.367c.375-.01.759-.034.922-.466a.4.4,0,0,1,.3-.268,2.151,2.151,0,0,0,.7-.32.691.691,0,0,0,.208-.977.926.926,0,0,0-.376-.275,3.054,3.054,0,0,1-1.306-1.2c-.094-.172-.081-.284.1-.389a2.84,2.84,0,0,0,.572-.411.912.912,0,0,0-.231-1.483,1.02,1.02,0,0,0-.673-.047,3.315,3.315,0,0,0-.672-2.324,2.912,2.912,0,0,0-2.164-1c-.058,0-.115,0-.171,0m0-.714h0c.067,0,.137,0,.2.005a3.62,3.62,0,0,1,2.67,1.243,3.565,3.565,0,0,1,.82,2.092,1.613,1.613,0,0,1,.274.094,1.584,1.584,0,0,1,.912,1.168,1.655,1.655,0,0,1-.469,1.476,2.738,2.738,0,0,1-.321.27,2.808,2.808,0,0,0,.793.594l.05.026a1.442,1.442,0,0,1,.585.487,1.4,1.4,0,0,1-.384,1.945,2.7,2.7,0,0,1-.811.4,1.57,1.57,0,0,1-1.514.8,1.681,1.681,0,0,0-.858.262,3.634,3.634,0,0,1-1.909.576,3.532,3.532,0,0,1-1.862-.558,1.984,1.984,0,0,0-1.069-.3,1.421,1.421,0,0,1-1.372-.79,2.794,2.794,0,0,1-.791-.4,1.435,1.435,0,0,1-.617-1.253,1.407,1.407,0,0,1,.766-1.136,3.314,3.314,0,0,0,.867-.611.588.588,0,0,0,.04-.045,2.5,2.5,0,0,1-.3-.246,1.678,1.678,0,0,1-.515-1.421,1.622,1.622,0,0,1,.83-1.2,1.467,1.467,0,0,1,.374-.148,3.434,3.434,0,0,1,1.358-2.588A3.649,3.649,0,0,1,1516.957,120.923Z"/>
    </g>
  </g>
</svg>
