<?xml version="1.0" encoding="utf-8"?>
<!-- Generator: Adobe Illustrator 25.0.0, SVG Export Plug-In . SVG Version: 6.00 Build 0)  -->
<svg version="1.1" id="Layer_1" xmlns="http://www.w3.org/2000/svg" xmlns:xlink="http://www.w3.org/1999/xlink" x="0px" y="0px"
	 viewBox="0 0 350.4 51.12" style="enable-background:new 0 0 350.4 51.12;" xml:space="preserve">
<style type="text/css">
	.st0{fill:#334295;}
	.st1{fill:#9A59A0;}
</style>
<g>
	<g>
		<path class="st1" d="M189.3,37.76V11.84h17.24v2.09h-14.8v9.36h13.36v2.09h-13.36v10.3h15.16v2.09H189.3z"/>
		<path class="st1" d="M213.13,37.76h-2.16V19.11h2.16v2.59c0.86-0.91,1.76-1.66,2.68-2.23c0.92-0.58,2.03-0.86,3.33-0.86
			c1.15,0,2.22,0.2,3.2,0.59s1.81,1.09,2.48,2.07c0.46,0.67,0.73,1.36,0.81,2.07c0.08,0.71,0.13,1.45,0.13,2.21v12.2h-2.16V25.59
			c0-1.68-0.37-2.94-1.12-3.78c-0.74-0.84-1.98-1.26-3.71-1.26c-0.67,0-1.28,0.1-1.84,0.31c-0.55,0.2-1.05,0.47-1.49,0.81
			c-0.44,0.34-0.82,0.72-1.13,1.15c-0.31,0.43-0.55,0.89-0.72,1.37c-0.22,0.6-0.35,1.18-0.4,1.73c-0.05,0.55-0.07,1.15-0.07,1.8
			V37.76z"/>
		<path class="st1" d="M237.54,37.83c-0.26,0.05-0.61,0.13-1.04,0.25c-0.43,0.12-0.91,0.18-1.44,0.18c-1.08,0-1.9-0.27-2.47-0.81
			c-0.56-0.54-0.85-1.51-0.85-2.9V20.91h-2.63v-1.8h2.63v-5.18h2.16v5.18h3.49v1.8h-3.49v12.78c0,0.46,0.01,0.85,0.04,1.19
			c0.02,0.34,0.1,0.61,0.22,0.83c0.12,0.22,0.31,0.37,0.56,0.47c0.25,0.1,0.61,0.14,1.06,0.14c0.29,0,0.58-0.02,0.88-0.07
			c0.3-0.05,0.59-0.11,0.88-0.18V37.83z"/>
		<path class="st1" d="M242.32,28.94c0,1.01,0.13,1.96,0.4,2.86c0.26,0.9,0.65,1.68,1.17,2.34c0.52,0.66,1.17,1.19,1.96,1.58
			s1.7,0.59,2.74,0.59c1.42,0,2.63-0.37,3.64-1.12c1.01-0.74,1.68-1.8,2.02-3.17h2.41c-0.26,0.89-0.61,1.71-1.04,2.47
			c-0.43,0.76-0.97,1.42-1.62,1.98c-0.65,0.56-1.42,1-2.3,1.31c-0.89,0.31-1.92,0.47-3.1,0.47c-1.49,0-2.77-0.25-3.85-0.76
			s-1.97-1.19-2.66-2.07s-1.21-1.91-1.55-3.1s-0.5-2.47-0.5-3.83s0.2-2.65,0.59-3.85c0.4-1.2,0.96-2.25,1.69-3.15
			c0.73-0.9,1.62-1.61,2.68-2.12c1.06-0.52,2.26-0.77,3.6-0.77c2.57,0,4.58,0.88,6.05,2.65c1.46,1.76,2.18,4.33,2.16,7.69H242.32z
			 M254.49,27.14c0-0.91-0.13-1.77-0.38-2.57s-0.62-1.5-1.12-2.09c-0.49-0.59-1.11-1.06-1.85-1.4c-0.74-0.35-1.6-0.52-2.56-0.52
			c-0.96,0-1.81,0.18-2.54,0.54c-0.73,0.36-1.36,0.84-1.87,1.44c-0.52,0.6-0.93,1.3-1.24,2.09c-0.31,0.79-0.52,1.63-0.61,2.52
			H254.49z"/>
		<path class="st1" d="M263.28,37.76h-2.16V19.11h2.16v3.49h0.07c0.6-1.49,1.37-2.53,2.32-3.11c0.95-0.59,2.2-0.88,3.76-0.88v2.34
			c-1.22-0.02-2.23,0.17-3.02,0.58s-1.42,0.96-1.89,1.66c-0.47,0.7-0.79,1.52-0.97,2.47s-0.27,1.94-0.27,2.97V37.76z"/>
		<path class="st1" d="M275.41,45.11h-2.16V19.11h2.16v3.28h0.07c0.31-0.6,0.71-1.14,1.21-1.62c0.49-0.48,1.03-0.88,1.62-1.19
			c0.59-0.31,1.19-0.55,1.82-0.72c0.62-0.17,1.24-0.25,1.84-0.25c1.51,0,2.8,0.25,3.85,0.76c1.06,0.5,1.93,1.19,2.61,2.07
			c0.68,0.88,1.18,1.91,1.49,3.11c0.31,1.2,0.47,2.48,0.47,3.85c0,1.3-0.17,2.54-0.5,3.74c-0.34,1.2-0.85,2.25-1.53,3.15
			c-0.68,0.9-1.55,1.62-2.59,2.16c-1.04,0.54-2.27,0.81-3.69,0.81c-1.32,0-2.59-0.29-3.8-0.88c-1.21-0.59-2.17-1.46-2.86-2.61V45.11
			z M275.41,28.51c0,1.06,0.14,2.06,0.43,3.01c0.29,0.95,0.7,1.78,1.24,2.48c0.54,0.71,1.2,1.27,1.98,1.69
			c0.78,0.42,1.66,0.63,2.65,0.63c1.1,0,2.07-0.22,2.9-0.67c0.83-0.44,1.51-1.05,2.03-1.82c0.53-0.77,0.91-1.66,1.15-2.68
			c0.24-1.02,0.34-2.12,0.29-3.29c0-1.18-0.16-2.21-0.49-3.11c-0.32-0.9-0.77-1.66-1.35-2.29s-1.25-1.1-2.02-1.42
			c-0.77-0.32-1.61-0.49-2.52-0.49c-1.01,0-1.91,0.2-2.7,0.61c-0.79,0.41-1.45,0.97-1.98,1.67c-0.53,0.71-0.93,1.55-1.21,2.52
			C275.55,26.33,275.41,27.38,275.41,28.51z"/>
		<path class="st1" d="M297.26,37.76h-2.16V19.11h2.16v3.49h0.07c0.6-1.49,1.37-2.53,2.32-3.11c0.95-0.59,2.2-0.88,3.76-0.88v2.34
			c-1.22-0.02-2.23,0.17-3.02,0.58s-1.42,0.96-1.89,1.66c-0.47,0.7-0.79,1.52-0.97,2.47s-0.27,1.94-0.27,2.97V37.76z"/>
		<path class="st1" d="M307.2,15.05v-3.2h2.38v3.2H307.2z M307.3,37.76V19.11h2.16v18.65H307.3z"/>
		<path class="st1" d="M316.23,31.93c0.34,1.61,0.94,2.74,1.82,3.4c0.88,0.66,2.13,0.99,3.76,0.99c0.79,0,1.48-0.1,2.05-0.29
			c0.58-0.19,1.05-0.45,1.42-0.77c0.37-0.32,0.65-0.69,0.85-1.1c0.19-0.41,0.29-0.84,0.29-1.3c0-0.91-0.29-1.59-0.88-2.03
			c-0.59-0.44-1.33-0.79-2.21-1.04c-0.89-0.25-1.85-0.47-2.88-0.65c-1.03-0.18-1.99-0.45-2.88-0.81c-0.89-0.36-1.63-0.88-2.21-1.55
			c-0.59-0.67-0.88-1.62-0.88-2.84c0-1.56,0.57-2.84,1.71-3.83c1.14-1,2.75-1.49,4.84-1.49c2.02,0,3.65,0.45,4.91,1.35
			c1.26,0.9,2.02,2.41,2.29,4.52h-2.2c-0.19-1.44-0.74-2.45-1.64-3.04c-0.9-0.59-2.03-0.88-3.4-0.88c-1.37,0-2.41,0.29-3.13,0.88
			c-0.72,0.59-1.08,1.36-1.08,2.32c0,0.84,0.29,1.48,0.88,1.93c0.59,0.44,1.33,0.8,2.21,1.08c0.89,0.28,1.85,0.52,2.88,0.74
			c1.03,0.22,1.99,0.52,2.88,0.92c0.89,0.4,1.63,0.93,2.21,1.6c0.59,0.67,0.88,1.61,0.88,2.81c0,0.89-0.19,1.67-0.58,2.36
			c-0.38,0.68-0.91,1.25-1.58,1.71s-1.47,0.8-2.39,1.03c-0.92,0.23-1.94,0.34-3.04,0.34c-1.1,0-2.08-0.16-2.93-0.49
			c-0.85-0.32-1.58-0.77-2.18-1.35s-1.07-1.25-1.4-2.02c-0.34-0.77-0.53-1.6-0.58-2.48H316.23z"/>
		<path class="st1" d="M334.3,28.94c0,1.01,0.13,1.96,0.4,2.86c0.26,0.9,0.65,1.68,1.17,2.34c0.52,0.66,1.17,1.19,1.96,1.58
			s1.7,0.59,2.74,0.59c1.42,0,2.63-0.37,3.64-1.12c1.01-0.74,1.68-1.8,2.02-3.17h2.41c-0.26,0.89-0.61,1.71-1.04,2.47
			c-0.43,0.76-0.97,1.42-1.62,1.98c-0.65,0.56-1.42,1-2.3,1.31c-0.89,0.31-1.92,0.47-3.1,0.47c-1.49,0-2.77-0.25-3.85-0.76
			s-1.97-1.19-2.66-2.07s-1.21-1.91-1.55-3.1s-0.5-2.47-0.5-3.83s0.2-2.65,0.59-3.85c0.4-1.2,0.96-2.25,1.69-3.15
			c0.73-0.9,1.62-1.61,2.68-2.12c1.06-0.52,2.26-0.77,3.6-0.77c2.57,0,4.58,0.88,6.05,2.65c1.46,1.76,2.18,4.33,2.16,7.69H334.3z
			 M346.47,27.14c0-0.91-0.13-1.77-0.38-2.57s-0.62-1.5-1.12-2.09c-0.49-0.59-1.11-1.06-1.85-1.4c-0.74-0.35-1.6-0.52-2.56-0.52
			c-0.96,0-1.81,0.18-2.54,0.54c-0.73,0.36-1.36,0.84-1.87,1.44c-0.52,0.6-0.93,1.3-1.24,2.09c-0.31,0.79-0.52,1.63-0.61,2.52
			H346.47z"/>
	</g>
	<g>
		<g>
			<g>
				<path class="st0" d="M0,25.19c0-8.93,4.84-13.97,13.27-13.97c6.34,0,10.38,3.59,10.83,9.83l-6.73,1
					c-0.35-3.44-1.45-5.04-4.24-5.04c-3.24,0-5.24,1.8-5.24,7.38c0,5.79,1.75,8.08,5.14,8.08c2.94,0,4.39-1.5,4.84-4.74l6.34,1.2
					c-0.85,6.34-5.29,9.43-11.67,9.43C4.14,38.36,0,33.22,0,25.19z"/>
				<path class="st0" d="M26.29,24.89c0-8.58,4.54-13.67,13.37-13.67c8.63,0,12.52,4.99,12.52,13.12c0,8.83-4.24,14.02-13.22,14.02
					C30.53,38.36,26.29,33.87,26.29,24.89z M44.34,24.59c0-5.59-1.5-7.68-4.89-7.68c-3.54,0-5.29,2.34-5.29,7.78
					c0,5.79,1.5,8.08,5.14,8.08C42.7,32.77,44.34,30.53,44.34,24.59z"/>
				<path class="st0" d="M107.44,37.76h-7.53V21.3c0-2.64-1.15-3.99-3.44-3.99c-1.85,0-3.54,0.7-5.09,2.05v18.41h-7.53V11.77h6.68
					l0.4,2.59c2.25-2.1,5.04-3.14,8.28-3.14c5.74,0,8.23,2.79,8.23,8.78V37.76z"/>
				<path class="st0" d="M119.2,11.77v25.99h-7.53V11.77H119.2z"/>
				<path class="st0" d="M136.02,13.69v15.19c0,2.39,1.09,4.48,2.85,6.02c1.29,1.13,3.25,2.06,3.24,1.87l0.14,0.34
					c-0.1,0.34-2.44,1.24-5.48,1.24c-5.54,0-8.28-2.59-8.28-8.43V13.69H136.02z"/>
				<path class="st0" d="M152.88,11.77v25.99h-7.53V11.77H152.88z"/>
				<path class="st0" d="M156.29,25.19c0-8.93,4.84-13.97,13.27-13.97c6.34,0,10.38,3.59,10.83,9.83l-6.73,1
					c-0.35-3.44-1.45-5.04-4.24-5.04c-3.24,0-5.24,1.8-5.24,7.38c0,5.79,1.75,8.08,5.14,8.08c2.94,0,4.39-1.5,4.84-4.74l6.33,1.2
					c-0.85,6.34-5.29,9.43-11.67,9.43C160.43,38.36,156.29,33.22,156.29,25.19z"/>
				<path id="Path_3_2_" class="st0" d="M73.18,34.97c-0.54,1.23-1.51,2.22-2.73,2.78c-1.42,0.69-2.99,1.03-4.57,1
					c-1.91,0.06-3.81-0.34-5.54-1.16c-1.43-0.72-2.67-1.77-3.62-3.05c-0.94-1.32-1.62-2.8-2-4.38c-0.42-1.66-0.62-3.37-0.62-5.08
					c-0.02-1.92,0.29-3.83,0.92-5.65c0.55-1.6,1.39-3.09,2.49-4.38c1.02-1.18,2.27-2.14,3.68-2.81c1.42-0.67,2.97-1.01,4.54-1
					c3.04-0.15,5.91,1.39,7.46,4l0.23-3.3h6.8V38.8c0.04,1.83-0.31,3.64-1.03,5.32c-0.64,1.47-1.6,2.78-2.81,3.84
					c-1.24,1.05-2.67,1.85-4.22,2.35c-3.36,1.07-6.96,1.08-10.33,0.03c-1.49-0.47-2.88-1.22-4.08-2.21
					c-1.14-0.95-2.05-2.14-2.68-3.48c-0.67-1.46-1-3.05-0.97-4.65h6.54c-0.08,1.43,0.51,2.82,1.6,3.76c1.21,0.93,2.72,1.4,4.24,1.32
					c1.72,0.05,3.4-0.49,4.76-1.54c1.29-1,2.01-2.56,1.95-4.19L73.18,34.97z M67.4,33.23c1.66,0.03,3.24-0.69,4.3-1.97
					c1.21-1.52,1.81-3.44,1.7-5.38c0-5.69-2-8.54-6-8.54c-4,0-6,2.7-6,8.11c-0.11,2.03,0.49,4.04,1.7,5.68
					C64.12,32.47,65.71,33.25,67.4,33.23"/>
			</g>
			<path class="st1" d="M135.99,7.86l0-7.36h-7.47v7.4C128.52,7.9,131.83,9.96,135.99,7.86z"/>
			<circle class="st0" cx="115.68" cy="4.42" r="4.42"/>
			<circle class="st0" cx="149.12" cy="4.42" r="4.42"/>
		</g>
		<path class="st0" d="M142.11,17.18V10.2c0,0-9.98,4.73-19.72,0v6.99H142.11z"/>
	</g>
</g>
</svg>
