<?xml version="1.0" encoding="utf-8"?>
<!-- Generator: Adobe Illustrator 25.0.0, SVG Export Plug-In . SVG Version: 6.00 Build 0)  -->
<svg version="1.1" id="Layer_1" xmlns="http://www.w3.org/2000/svg" xmlns:xlink="http://www.w3.org/1999/xlink" x="0px" y="0px"
	 viewBox="0 0 228.98 49.94" style="enable-background:new 0 0 228.98 49.94;" xml:space="preserve">
<style type="text/css">
	.st0{fill:#334295;}
	.st1{fill:#9A59A0;}
</style>
<g>
	<g>
		<path class="st1" d="M182.25,29.95c0.09,1.12,0.34,2.07,0.75,2.85s0.93,1.42,1.58,1.91c0.64,0.49,1.38,0.85,2.22,1.07
			s1.74,0.33,2.69,0.33c1.12,0,2.09-0.14,2.91-0.42c0.82-0.28,1.48-0.66,2-1.14c0.51-0.48,0.89-1.03,1.14-1.66s0.37-1.29,0.37-2
			c0-0.98-0.22-1.77-0.67-2.38c-0.44-0.61-1.02-1.1-1.73-1.49c-0.71-0.39-1.53-0.69-2.45-0.93c-0.92-0.23-1.87-0.46-2.83-0.68
			c-0.97-0.22-1.91-0.48-2.83-0.79c-0.92-0.3-1.74-0.71-2.45-1.22s-1.29-1.17-1.73-1.98c-0.44-0.81-0.67-1.83-0.67-3.06
			c0-0.86,0.18-1.7,0.54-2.52c0.36-0.82,0.9-1.54,1.61-2.17c0.71-0.63,1.6-1.13,2.68-1.51c1.07-0.37,2.31-0.56,3.71-0.56
			c1.42,0,2.67,0.2,3.73,0.6c1.06,0.4,1.94,0.94,2.64,1.63c0.7,0.69,1.23,1.49,1.58,2.4c0.35,0.91,0.53,1.88,0.53,2.91h-2.28
			c0-0.96-0.17-1.79-0.51-2.49c-0.34-0.7-0.8-1.27-1.38-1.71c-0.58-0.44-1.25-0.77-2-0.98c-0.75-0.21-1.52-0.31-2.31-0.31
			c-1.21,0-2.23,0.17-3.06,0.51c-0.83,0.34-1.49,0.78-1.98,1.31c-0.49,0.54-0.83,1.13-1.01,1.79c-0.19,0.65-0.22,1.31-0.1,1.96
			c0.14,0.82,0.47,1.47,0.98,1.96c0.51,0.49,1.14,0.89,1.89,1.21s1.57,0.57,2.47,0.77c0.9,0.2,1.81,0.41,2.75,0.63
			c0.93,0.22,1.84,0.48,2.71,0.79c0.88,0.3,1.65,0.71,2.33,1.23c0.68,0.51,1.22,1.17,1.63,1.98c0.41,0.8,0.61,1.81,0.61,3.03
			c0,2.33-0.8,4.14-2.42,5.43c-1.61,1.28-3.87,1.92-6.79,1.92c-1.31,0-2.52-0.17-3.64-0.51c-1.12-0.34-2.09-0.85-2.91-1.54
			c-0.82-0.69-1.45-1.54-1.91-2.56s-0.68-2.21-0.68-3.59H182.25z"/>
		<path class="st1" d="M202.55,37.47v-25.2h3.64l8.26,22.23h0.07l8.12-22.23h3.6v25.2h-2.38V15h-0.07l-8.26,22.47h-2.24L205,15
			h-0.07v22.47H202.55z"/>
	</g>
	<g>
		<g>
			<g>
				<path class="st0" d="M0,24.61c0-8.72,4.73-13.65,12.96-13.65c6.19,0,10.14,3.51,10.57,9.6l-6.58,0.97
					c-0.34-3.36-1.41-4.92-4.14-4.92c-3.17,0-5.12,1.76-5.12,7.21c0,5.65,1.71,7.89,5.02,7.89c2.88,0,4.29-1.46,4.73-4.63l6.19,1.17
					c-0.83,6.19-5.17,9.21-11.4,9.21C4.04,37.47,0,32.45,0,24.61z"/>
				<path class="st0" d="M25.68,24.32c0-8.38,4.43-13.35,13.06-13.35c8.43,0,12.23,4.87,12.23,12.82c0,8.63-4.14,13.69-12.91,13.69
					C29.82,37.47,25.68,33.09,25.68,24.32z M43.32,24.02c0-5.46-1.46-7.5-4.78-7.5c-3.46,0-5.17,2.29-5.17,7.6
					c0,5.65,1.46,7.89,5.02,7.89C41.71,32.02,43.32,29.82,43.32,24.02z"/>
				<path class="st0" d="M104.95,36.89h-7.36V20.81c0-2.58-1.12-3.9-3.36-3.9c-1.8,0-3.46,0.68-4.97,2v17.98H81.9V11.5h6.53
					l0.39,2.53c2.19-2.05,4.92-3.07,8.09-3.07c5.6,0,8.04,2.73,8.04,8.58V36.89z"/>
				<path class="st0" d="M116.44,11.5v25.39h-7.36V11.5H116.44z"/>
				<path class="st0" d="M132.87,13.37v14.84c0,2.34,1.06,4.37,2.78,5.88c1.26,1.11,3.17,2.02,3.17,1.83l0.13,0.33
					c-0.09,0.34-2.38,1.21-5.35,1.21c-5.41,0-8.09-2.53-8.09-8.23V13.37H132.87z"/>
				<path class="st0" d="M149.35,11.5v25.39h-7.36V11.5H149.35z"/>
				<path class="st0" d="M152.67,24.61c0-8.72,4.73-13.65,12.96-13.65c6.19,0,10.14,3.51,10.57,9.6l-6.58,0.97
					c-0.34-3.36-1.41-4.92-4.14-4.92c-3.17,0-5.12,1.76-5.12,7.21c0,5.65,1.71,7.89,5.02,7.89c2.88,0,4.29-1.46,4.73-4.63l6.19,1.17
					c-0.83,6.19-5.17,9.21-11.4,9.21C156.71,37.47,152.67,32.45,152.67,24.61z"/>
				<path id="Path_3_3_" class="st0" d="M71.49,34.16c-0.53,1.2-1.48,2.17-2.67,2.72c-1.39,0.67-2.92,1.01-4.46,0.98
					c-1.87,0.06-3.73-0.33-5.41-1.14c-1.4-0.7-2.61-1.72-3.54-2.98c-0.92-1.29-1.59-2.74-1.95-4.28c-0.41-1.62-0.61-3.29-0.61-4.96
					c-0.02-1.88,0.28-3.74,0.9-5.52c0.54-1.56,1.36-3.01,2.43-4.28c0.99-1.16,2.22-2.09,3.59-2.75c1.39-0.65,2.9-0.99,4.44-0.98
					c2.97-0.15,5.77,1.36,7.29,3.91l0.22-3.22h6.64V37.9c0.04,1.79-0.31,3.56-1,5.2c-0.63,1.44-1.56,2.72-2.75,3.75
					c-1.21,1.03-2.61,1.81-4.12,2.3c-3.28,1.05-6.8,1.06-10.09,0.03c-1.46-0.46-2.81-1.19-3.99-2.16c-1.11-0.93-2-2.09-2.62-3.4
					c-0.65-1.42-0.98-2.98-0.95-4.54h6.39c-0.08,1.4,0.5,2.76,1.56,3.67c1.18,0.91,2.65,1.37,4.15,1.29
					c1.68,0.05,3.32-0.48,4.65-1.5c1.26-0.98,1.96-2.5,1.9-4.09L71.49,34.16z M65.84,32.46c1.62,0.03,3.17-0.68,4.2-1.93
					c1.18-1.49,1.77-3.36,1.66-5.25c0-5.56-1.95-8.34-5.86-8.34c-3.91,0-5.86,2.64-5.86,7.92c-0.11,1.99,0.48,3.95,1.66,5.54
					C62.63,31.72,64.19,32.48,65.84,32.46"/>
			</g>
			<path class="st1" d="M132.84,7.68l0-7.19h-7.3v7.23C125.54,7.72,128.78,9.73,132.84,7.68z"/>
			<circle class="st0" cx="113" cy="4.32" r="4.32"/>
			<circle class="st0" cx="145.67" cy="4.32" r="4.32"/>
		</g>
		<path class="st0" d="M138.82,16.79V9.96c0,0-9.75,4.62-19.26,0v6.82H138.82z"/>
	</g>
</g>
</svg>
