<?xml version="1.0" encoding="utf-8"?>
<!-- Generator: Adobe Illustrator 25.0.0, SVG Export Plug-In . SVG Version: 6.00 Build 0)  -->
<svg version="1.1" id="Layer_1" xmlns="http://www.w3.org/2000/svg" xmlns:xlink="http://www.w3.org/1999/xlink" x="0px" y="0px"
	 viewBox="0 0 268.54 49.94" style="enable-background:new 0 0 268.54 49.94;" xml:space="preserve">
<style type="text/css">
	.st0{fill:#334295;}
	.st1{fill:#9A59A0;}
</style>
<g>
	<g>
		<g>
			<path class="st1" d="M186.26,14.91h-0.07v21.98h-2.38v-25.2h2.7l14.56,22.02h0.07V11.69h2.38v25.2h-2.76L186.26,14.91z"/>
			<path class="st1" d="M210.13,28.31c0,0.98,0.13,1.91,0.38,2.78c0.26,0.88,0.64,1.63,1.14,2.27c0.5,0.64,1.14,1.16,1.91,1.54
				c0.77,0.39,1.66,0.58,2.66,0.58c1.38,0,2.55-0.36,3.54-1.08c0.98-0.72,1.63-1.75,1.96-3.08h2.34c-0.26,0.86-0.59,1.66-1.01,2.4
				c-0.42,0.73-0.95,1.38-1.58,1.92c-0.63,0.55-1.38,0.97-2.24,1.28c-0.86,0.3-1.87,0.46-3.01,0.46c-1.45,0-2.7-0.25-3.75-0.74
				c-1.05-0.49-1.91-1.16-2.59-2.01c-0.68-0.85-1.18-1.85-1.5-3.01c-0.33-1.15-0.49-2.4-0.49-3.73s0.19-2.58,0.58-3.75
				c0.38-1.17,0.93-2.19,1.65-3.06c0.71-0.88,1.58-1.56,2.61-2.06c1.03-0.5,2.19-0.75,3.5-0.75c2.5,0,4.46,0.86,5.88,2.57
				c1.42,1.71,2.12,4.21,2.1,7.47H210.13z M221.96,26.56c0-0.89-0.12-1.72-0.37-2.5c-0.25-0.78-0.61-1.46-1.08-2.03
				s-1.08-1.03-1.8-1.37c-0.72-0.34-1.55-0.51-2.48-0.51c-0.93,0-1.76,0.17-2.47,0.52s-1.32,0.82-1.82,1.4
				c-0.5,0.58-0.9,1.26-1.21,2.03c-0.3,0.77-0.5,1.59-0.59,2.45H221.96z"/>
			<path class="st1" d="M243.62,34.09l4.76-15.33h2.13l-5.88,18.13h-2.24l-3.96-15.23h-0.07l-4.02,15.23h-2.52l-5.53-18.13h2.1
				l4.69,15.47l4.2-15.47h2.35L243.62,34.09z"/>
			<path class="st1" d="M254.79,31.22c0.33,1.56,0.92,2.67,1.77,3.31c0.85,0.64,2.07,0.96,3.66,0.96c0.77,0,1.44-0.09,2-0.28
				c0.56-0.19,1.02-0.44,1.38-0.75c0.36-0.31,0.63-0.67,0.82-1.07c0.19-0.4,0.28-0.82,0.28-1.26c0-0.89-0.29-1.55-0.86-1.98
				c-0.57-0.43-1.29-0.77-2.15-1.02s-1.8-0.46-2.8-0.63c-1-0.18-1.94-0.44-2.8-0.79s-1.58-0.85-2.15-1.5
				c-0.57-0.65-0.86-1.58-0.86-2.77c0-1.52,0.55-2.76,1.66-3.73c1.11-0.97,2.68-1.45,4.71-1.45c1.96,0,3.55,0.44,4.78,1.31
				c1.22,0.88,1.96,2.34,2.22,4.39h-2.14c-0.19-1.4-0.72-2.39-1.59-2.96c-0.88-0.57-1.98-0.86-3.31-0.86s-2.35,0.29-3.04,0.86
				c-0.7,0.57-1.05,1.32-1.05,2.26c0,0.82,0.29,1.44,0.86,1.87c0.57,0.43,1.29,0.78,2.15,1.05c0.86,0.27,1.8,0.51,2.8,0.72
				c1,0.21,1.94,0.51,2.8,0.89c0.86,0.39,1.58,0.9,2.15,1.56c0.57,0.65,0.86,1.56,0.86,2.73c0,0.86-0.19,1.63-0.56,2.29
				c-0.37,0.67-0.89,1.22-1.54,1.66s-1.43,0.78-2.33,1c-0.9,0.22-1.88,0.33-2.96,0.33s-2.02-0.16-2.85-0.47s-1.53-0.75-2.12-1.31
				c-0.58-0.56-1.04-1.21-1.37-1.96c-0.33-0.75-0.51-1.55-0.56-2.42H254.79z"/>
		</g>
	</g>
	<g>
		<g>
			<g>
				<path class="st0" d="M0,24.61c0-8.72,4.73-13.65,12.96-13.65c6.19,0,10.14,3.51,10.57,9.6l-6.58,0.97
					c-0.34-3.36-1.41-4.92-4.14-4.92c-3.17,0-5.12,1.76-5.12,7.21c0,5.65,1.71,7.89,5.02,7.89c2.88,0,4.29-1.46,4.73-4.63l6.19,1.17
					c-0.83,6.19-5.17,9.21-11.4,9.21C4.04,37.47,0,32.45,0,24.61z"/>
				<path class="st0" d="M25.68,24.32c0-8.38,4.43-13.35,13.06-13.35c8.43,0,12.23,4.87,12.23,12.82c0,8.63-4.14,13.69-12.91,13.69
					C29.82,37.47,25.68,33.09,25.68,24.32z M43.32,24.02c0-5.46-1.46-7.5-4.78-7.5c-3.46,0-5.17,2.29-5.17,7.6
					c0,5.65,1.46,7.89,5.02,7.89C41.71,32.02,43.32,29.82,43.32,24.02z"/>
				<path class="st0" d="M104.95,36.89h-7.36V20.81c0-2.58-1.12-3.9-3.36-3.9c-1.8,0-3.46,0.68-4.97,2v17.98H81.9V11.5h6.53
					l0.39,2.53c2.19-2.05,4.92-3.07,8.09-3.07c5.6,0,8.04,2.73,8.04,8.58V36.89z"/>
				<path class="st0" d="M116.44,11.5v25.39h-7.36V11.5H116.44z"/>
				<path class="st0" d="M132.87,13.37v14.84c0,2.34,1.06,4.37,2.78,5.88c1.26,1.11,3.17,2.02,3.17,1.83l0.13,0.33
					c-0.09,0.34-2.38,1.21-5.35,1.21c-5.41,0-8.09-2.53-8.09-8.23V13.37H132.87z"/>
				<path class="st0" d="M149.35,11.5v25.39h-7.36V11.5H149.35z"/>
				<path class="st0" d="M152.67,24.61c0-8.72,4.73-13.65,12.96-13.65c6.19,0,10.14,3.51,10.57,9.6l-6.58,0.97
					c-0.34-3.36-1.41-4.92-4.14-4.92c-3.17,0-5.12,1.76-5.12,7.21c0,5.65,1.71,7.89,5.02,7.89c2.88,0,4.29-1.46,4.73-4.63l6.19,1.17
					c-0.83,6.19-5.17,9.21-11.4,9.21C156.71,37.47,152.67,32.45,152.67,24.61z"/>
				<path id="Path_3_4_" class="st0" d="M71.49,34.16c-0.53,1.2-1.48,2.17-2.67,2.72c-1.39,0.67-2.92,1.01-4.46,0.98
					c-1.87,0.06-3.73-0.33-5.41-1.14c-1.4-0.7-2.61-1.72-3.54-2.98c-0.92-1.29-1.59-2.74-1.95-4.28c-0.41-1.62-0.61-3.29-0.61-4.96
					c-0.02-1.88,0.28-3.74,0.9-5.52c0.54-1.56,1.36-3.01,2.43-4.28c0.99-1.16,2.22-2.09,3.59-2.75c1.39-0.65,2.9-0.99,4.44-0.98
					c2.97-0.15,5.77,1.36,7.29,3.91l0.22-3.22h6.64V37.9c0.04,1.79-0.31,3.56-1,5.2c-0.63,1.44-1.56,2.72-2.75,3.75
					c-1.21,1.03-2.61,1.81-4.12,2.3c-3.28,1.05-6.8,1.06-10.09,0.03c-1.46-0.46-2.81-1.19-3.99-2.16c-1.11-0.93-2-2.09-2.62-3.4
					c-0.65-1.42-0.98-2.98-0.95-4.54h6.39c-0.08,1.4,0.5,2.76,1.56,3.67c1.18,0.91,2.65,1.37,4.15,1.29
					c1.68,0.05,3.32-0.48,4.65-1.5c1.26-0.98,1.96-2.5,1.9-4.09L71.49,34.16z M65.84,32.46c1.62,0.03,3.17-0.68,4.2-1.93
					c1.18-1.49,1.77-3.36,1.66-5.25c0-5.56-1.95-8.34-5.86-8.34c-3.91,0-5.86,2.64-5.86,7.92c-0.11,1.99,0.48,3.95,1.66,5.54
					C62.63,31.72,64.19,32.48,65.84,32.46"/>
			</g>
			<path class="st1" d="M132.84,7.68l0-7.19h-7.3v7.23C125.54,7.72,128.78,9.73,132.84,7.68z"/>
			<circle class="st0" cx="113" cy="4.32" r="4.32"/>
			<circle class="st0" cx="145.67" cy="4.32" r="4.32"/>
		</g>
		<path class="st0" d="M138.82,16.79V9.96c0,0-9.75,4.62-19.26,0v6.82H138.82z"/>
	</g>
</g>
</svg>
