<?xml version="1.0" encoding="utf-8"?>
<!-- Generator: Adobe Illustrator 25.0.0, SVG Export Plug-In . SVG Version: 6.00 Build 0)  -->
<svg version="1.1" id="Layer_1" xmlns="http://www.w3.org/2000/svg" xmlns:xlink="http://www.w3.org/1999/xlink" x="0px" y="0px"
	 viewBox="0 0 392.53 111.19" style="enable-background:new 0 0 392.53 111.19;" xml:space="preserve">
<style type="text/css">
	.st0{fill:#334295;}
	.st1{fill:#9A59A0;}
</style>
<g>
	<g>
		<g>
			<path class="st0" d="M0,54.79c0-19.42,10.53-30.38,28.86-30.38c13.78,0,22.57,7.81,23.54,21.38l-14.65,2.17
				C37,40.47,34.61,37,28.54,37c-7.05,0-11.39,3.91-11.39,16.06c0,12.59,3.8,17.58,11.17,17.58c6.4,0,9.55-3.26,10.52-10.31
				l13.78,2.61c-1.84,13.78-11.5,20.5-25.39,20.5C9.01,83.43,0,72.26,0,54.79z"/>
			<path class="st0" d="M57.17,54.14c0-18.66,9.87-29.73,29.08-29.73c18.77,0,27.23,10.85,27.23,28.54
				c0,19.21-9.22,30.49-28.75,30.49C66.39,83.43,57.17,73.67,57.17,54.14z M96.45,53.49c0-12.15-3.25-16.71-10.63-16.71
				c-7.7,0-11.5,5.1-11.5,16.93c0,12.59,3.26,17.58,11.17,17.58C92.87,71.28,96.45,66.4,96.45,53.49z"/>
			<path class="st0" d="M233.67,82.13h-16.38v-35.8c0-5.75-2.5-8.68-7.49-8.68c-4.01,0-7.7,1.52-11.07,4.45v40.03h-16.38V25.6h14.54
				l0.87,5.64c4.88-4.56,10.96-6.84,18.01-6.84c12.48,0,17.9,6.08,17.9,19.1V82.13z"/>
			<path class="st0" d="M259.24,25.6v56.53h-16.38V25.6H259.24z"/>
			<path class="st0" d="M295.83,29.78v33.04c0,5.21,2.36,9.73,6.19,13.1c2.81,2.47,7.06,4.49,7.06,4.07l0.3,0.74
				c-0.21,0.75-5.3,2.7-11.92,2.7c-12.04,0-18.01-5.64-18.01-18.33V29.78H295.83z"/>
			<path class="st0" d="M332.51,25.6v56.53h-16.38V25.6H332.51z"/>
			<path class="st0" d="M339.91,54.79c0-19.42,10.53-30.38,28.86-30.38c13.78,0,22.57,7.81,23.54,21.38l-14.65,2.17
				c-0.76-7.49-3.15-10.96-9.22-10.96c-7.05,0-11.39,3.91-11.39,16.06c0,12.59,3.8,17.58,11.17,17.58c6.4,0,9.55-3.26,10.53-10.31
				l13.78,2.61c-1.84,13.78-11.5,20.5-25.39,20.5C348.92,83.43,339.91,72.26,339.91,54.79z"/>
			<path id="Path_3_1_" class="st0" d="M159.17,76.05c-1.18,2.67-3.29,4.82-5.94,6.05c-3.09,1.5-6.5,2.25-9.93,2.17
				c-4.16,0.14-8.3-0.73-12.05-2.53c-3.11-1.56-5.81-3.84-7.88-6.64c-2.05-2.86-3.53-6.1-4.35-9.52c-0.9-3.61-1.36-7.33-1.35-11.05
				c-0.05-4.18,0.63-8.34,2-12.29c1.19-3.48,3.03-6.71,5.41-9.52c2.21-2.57,4.93-4.66,8-6.11c3.09-1.46,6.46-2.2,9.88-2.17
				c6.6-0.33,12.85,3.02,16.23,8.7l0.5-7.18h14.79v58.43c0.08,3.97-0.68,7.92-2.23,11.58c-1.39,3.2-3.48,6.05-6.11,8.35
				c-2.69,2.29-5.81,4.03-9.17,5.11c-7.3,2.33-15.15,2.35-22.46,0.06c-3.24-1.02-6.25-2.65-8.88-4.81
				c-2.47-2.07-4.46-4.66-5.83-7.58c-1.45-3.17-2.18-6.62-2.12-10.11h14.23c-0.18,3.12,1.1,6.14,3.47,8.17
				c2.64,2.03,5.91,3.05,9.23,2.88c3.73,0.11,7.39-1.07,10.35-3.35c2.8-2.18,4.37-5.57,4.23-9.11L159.17,76.05z M146.59,72.28
				c3.61,0.07,7.05-1.51,9.35-4.29c2.62-3.32,3.94-7.48,3.7-11.7c0-12.38-4.35-18.58-13.05-18.58c-8.7,0-13.05,5.88-13.05,17.64
				c-0.23,4.42,1.07,8.78,3.7,12.35C139.45,70.62,142.92,72.33,146.59,72.28"/>
		</g>
		<path class="st1" d="M295.77,17.09v-16h-16.25v16.1C279.52,17.19,286.72,21.66,295.77,17.09z"/>
		<circle class="st0" cx="251.59" cy="9.62" r="9.62"/>
		<circle class="st0" cx="324.32" cy="9.62" r="9.62"/>
	</g>
	<path class="st0" d="M309.08,37.37V22.18c0,0-21.71,10.29-42.88,0v15.19H309.08z"/>
</g>
</svg>
