<svg xmlns="http://www.w3.org/2000/svg" width="24.001" height="24" viewBox="0 0 24.001 24"><defs><style>.a{fill:#6875a1;}</style></defs><path class="a" d="M18.375,24.007H5.625A5.631,5.631,0,0,1,0,18.382V12.757A4.679,4.679,0,0,1,3.7,8.163V5.632A5.631,5.631,0,0,1,9.328.007h9.047A5.631,5.631,0,0,1,24,5.632v12.75A5.631,5.631,0,0,1,18.375,24.007ZM3.7,10.1a2.776,2.776,0,0,0-1.828,2.653v5.625a3.754,3.754,0,0,0,3.75,3.75h12.75a3.754,3.754,0,0,0,3.75-3.75V5.632a3.754,3.754,0,0,0-3.75-3.75H9.328a3.754,3.754,0,0,0-3.75,3.75V18.569a.938.938,0,0,1-1.875,0ZM20.25,6.054a.937.937,0,0,0-.937-.937H8.391a.938.938,0,0,0,0,1.875H19.313A.937.937,0,0,0,20.25,6.054ZM20.3,14.82a.937.937,0,0,0-.937-.937H15.7a.938.938,0,0,0,0,1.875H19.36A.937.937,0,0,0,20.3,14.82Zm-7.359,0A.937.937,0,0,0,12,13.882H8.391a.938.938,0,0,0,0,1.875H12A.937.937,0,0,0,12.938,14.82Zm0,3.75A.937.937,0,0,0,12,17.632H8.391a.938.938,0,0,0,0,1.875H12A.937.937,0,0,0,12.938,18.57Zm5.438,0a.937.937,0,0,0-.937-.937H15.7a.938.938,0,0,0,0,1.875h1.734A.937.937,0,0,0,18.375,18.57Zm.984-6.563h-6.8a.938.938,0,0,1,0-1.875h6.8A.938.938,0,0,1,19.36,12.007ZM7.453,10.976A1.172,1.172,0,1,0,8.625,9.8,1.172,1.172,0,0,0,7.453,10.976Z" transform="translate(0 -0.007)"/></svg>