<svg xmlns="http://www.w3.org/2000/svg" width="19.739" height="22.5" viewBox="0 0 19.739 22.5"><defs><style>.a{fill:#6875a1;stroke:#6875a1;stroke-width:0.5px;}</style></defs><path class="a" d="M18.594,4.832A4.193,4.193,0,0,1,14.406.645.645.645,0,0,0,13.762,0H10.31a.644.644,0,0,0-.645.645V14.8A2.462,2.462,0,1,1,7.2,12.335a.644.644,0,0,0,.645-.645V8.238A.645.645,0,0,0,7.2,7.594a7.2,7.2,0,1,0,7.2,7.2V8.532a8.866,8.866,0,0,0,4.188,1.041.644.644,0,0,0,.645-.645V5.477A.645.645,0,0,0,18.594,4.832ZM17.95,8.258A7.575,7.575,0,0,1,14.138,6.85a.644.644,0,0,0-1.021.523V14.8A5.914,5.914,0,1,1,6.558,8.918V11.1a3.751,3.751,0,1,0,4.4,3.7V1.289h2.2A5.489,5.489,0,0,0,17.95,6.084Zm0,0" transform="translate(0.25 0.25)"/></svg>