<svg xmlns="http://www.w3.org/2000/svg" xmlns:xlink="http://www.w3.org/1999/xlink" width="22.504" height="18" viewBox="0 0 22.504 18"><defs><style>.a{fill:#fff;}.b{opacity:0.6;}.c{clip-path:url(#a);}</style><clipPath id="a"><rect class="a" width="22.504" height="18"/></clipPath></defs><g class="b"><g class="c"><path class="a" d="M14.357,16.78h-1.91c0-.447.01-.884,0-1.32a5.694,5.694,0,0,0-.092-1.236,2.889,2.889,0,0,0-1.889-2.014,9.448,9.448,0,0,0-4-.516,7.759,7.759,0,0,0-2.616.51A2.831,2.831,0,0,0,1.9,14.5a17.252,17.252,0,0,0-.071,1.776c-.006.161,0,.323,0,.5H0c0-.674,0-1.347,0-2.018A4.2,4.2,0,0,1,.275,13.3a4.794,4.794,0,0,1,2.762-2.824,9.3,9.3,0,0,1,3.269-.694,11.61,11.61,0,0,1,4.5.518,4.985,4.985,0,0,1,3.06,2.613,4.694,4.694,0,0,1,.44,1.834c.024.618.037,1.235.056,1.853v.176" transform="translate(0 1.22)"/><path class="a" d="M13.716,13.108a5.832,5.832,0,0,0-.777-1.7,6.792,6.792,0,0,1,1.088-.135,8.979,8.979,0,0,1,3.939.551,4.26,4.26,0,0,1,2.712,2.925,13.039,13.039,0,0,1,.209,1.845H19.11c-.025-.294-.038-.767-.075-1.055a2.414,2.414,0,0,0-1.6-2,7.357,7.357,0,0,0-3.281-.453l-.436.024" transform="translate(1.617 1.406)"/><path class="a" d="M6.893,0a4.6,4.6,0,1,0,4.6,4.6A4.6,4.6,0,0,0,6.893,0m0,7.3A2.694,2.694,0,1,1,9.587,4.6,2.694,2.694,0,0,1,6.893,7.3" transform="translate(0.286)"/><path class="a" d="M15,3.111a3.374,3.374,0,1,0,3.375,3.375A3.375,3.375,0,0,0,15,3.111M15,8.2a1.715,1.715,0,1,1,1.715-1.715A1.714,1.714,0,0,1,15,8.2" transform="translate(1.453 0.389)"/></g></g></svg>