<svg xmlns="http://www.w3.org/2000/svg" width="22" height="22" viewBox="0 0 22 22"><defs><style>.a{fill:#fff;}</style></defs><path class="a" d="M7.725,4.968V6.5H21.658V9.545l-1.627,5.408H7.263L5.43,1.125H1.125V2.661H4.153L5.987,16.489h15.12l2.018-6.708V4.968Z" transform="translate(-1.125 -1.125)"/><path class="a" d="M10.819,25.9a2.875,2.875,0,1,0,2.875,2.875A2.879,2.879,0,0,0,10.819,25.9Zm0,4.313a1.438,1.438,0,1,1,1.438-1.438,1.438,1.438,0,0,1-1.438,1.438Z" transform="translate(-3.467 -9.65)"/><path class="a" d="M26.569,25.9a2.875,2.875,0,1,0,2.875,2.875A2.879,2.879,0,0,0,26.569,25.9Zm0,4.313a1.438,1.438,0,1,1,1.438-1.438A1.438,1.438,0,0,1,26.569,30.212Z" transform="translate(-8.838 -9.65)"/></svg>