<svg xmlns="http://www.w3.org/2000/svg" width="80" height="80" viewBox="0 0 80 80"><defs><style>.a{fill:#3b4ec4;opacity:0.05;}.b{fill:none;stroke:#3b4ec4;stroke-linecap:round;stroke-linejoin:round;stroke-width:3px;}</style></defs><circle class="a" cx="40" cy="40" r="40"/><g transform="translate(-1023.531 -618)"><path class="b" d="M35.973,18.57a15.351,15.351,0,0,1-1.649,6.961A15.57,15.57,0,0,1,20.4,34.141a15.351,15.351,0,0,1-6.961-1.649L3,35.973,6.48,25.531A15.351,15.351,0,0,1,4.832,18.57a15.57,15.57,0,0,1,8.61-13.922A15.351,15.351,0,0,1,20.4,3h.916A15.534,15.534,0,0,1,35.973,17.655Z" transform="translate(1044.53 639)"/></g></svg>