<svg xmlns="http://www.w3.org/2000/svg" width="260" height="260" viewBox="0 0 260 260"><defs><style>.a{fill:#edf4ff;opacity:0.8;}.b{fill:#943ba4;}.c,.d{fill:#3b4ec4;}.d{stroke:#f0f5ff;stroke-width:6px;}.e{fill:#fff;}.f{stroke:none;}.g{fill:none;}</style></defs><g transform="translate(-971 -208)"><rect class="a" width="260" height="260" rx="130" transform="translate(971 208)"/><g transform="translate(1013 249.928)"><path class="b" d="M60.925,105.36c-.565.021-1.133.035-1.7.035a46.1,46.1,0,1,1,46.1-46.1c0,.444-.008.886-.02,1.327q2.53-.491,5.135-.754c0-.191.007-.382.007-.573a51.222,51.222,0,1,0-51.222,51.222c.333,0,.664-.006.995-.012Q60.454,107.9,60.925,105.36Z"/><path class="b" d="M85.773,116.629a35.832,35.832,0,1,1,30.822-31.072,55.591,55.591,0,0,1,5.3-1.867c.054-.861.085-1.727.085-2.6a40.96,40.96,0,1,0-40.96,40.96c.986,0,1.963-.037,2.932-.106A55.587,55.587,0,0,1,85.773,116.629Z" transform="translate(-21.794 -21.794)"/><path class="b" d="M128.875,131.2q1.756-1.865,3.676-3.565a27.2,27.2,0,0,0-9.471-7.018,18.528,18.528,0,0,0,6.609-8.117,17.723,17.723,0,0,0,1.071-10.234,18.392,18.392,0,0,0-4.717-9.231,18.187,18.187,0,0,0-24.833-1.329,17.783,17.783,0,0,0-6.379,12.654c-.412,6.853,2.461,12.2,7.861,16.261-9.909,4.885-15.21,12.727-15.779,23.8H92.12a20.82,20.82,0,0,1,20.228-20.685,20.142,20.142,0,0,1,13.2,4.278A22.185,22.185,0,0,1,128.875,131.2Zm-15.948-12.69a12.96,12.96,0,1,1,12.957-12.954A12.931,12.931,0,0,1,112.927,118.513Z" transform="translate(-53.651 -53.958)"/><path class="c" d="M461.669,205.078h0a2.564,2.564,0,0,0,2.034-3.083l-.052-.231a2.564,2.564,0,0,0-3.163-1.908h0a2.557,2.557,0,0,0-1.833,3.037q.026.116.053.232A2.557,2.557,0,0,0,461.669,205.078Z" transform="translate(-297.35 -134.82)"/><path class="c" d="M319.684,47.366a7.639,7.639,0,0,0,5.609-2.469A67.276,67.276,0,0,1,356,79.191a2.564,2.564,0,0,0,3.233,1.489l.011,0a2.558,2.558,0,0,0,1.524-3.357A72.437,72.437,0,0,0,327.318,40.18c.01-.166.049-.328.049-.5a7.684,7.684,0,1,0-7.683,7.683Zm0-10.244a2.561,2.561,0,1,1-2.561,2.561A2.565,2.565,0,0,1,319.684,37.122Z" transform="translate(-197.689 -20.762)"/><path class="b" d="M89.228,360.993a7.627,7.627,0,0,0-6.475,2.421A67.3,67.3,0,0,1,52.043,329.12a2.564,2.564,0,0,0-3.234-1.488l-.011,0a2.559,2.559,0,0,0-1.524,3.358,72.436,72.436,0,0,0,33.452,37.138c-.01.166-.049.328-.049.5a7.684,7.684,0,1,0,8.55-7.635Zm-.866,10.2a2.561,2.561,0,1,1,2.561-2.561A2.565,2.565,0,0,1,88.362,371.189Z" transform="translate(-35.567 -208.168)"/><path class="b" d="M40.322,300.819h0a2.564,2.564,0,0,0,2.034-3.083L42.3,297.5A2.564,2.564,0,0,0,39.14,295.6h0a2.558,2.558,0,0,0-1.833,3.037l.053.231A2.558,2.558,0,0,0,40.322,300.819Z" transform="translate(-28.871 -186.427)"/><g class="d" transform="translate(64.783 64.393)"><circle class="f" cx="51.222" cy="51.222" r="51.222"/><circle class="g" cx="51.222" cy="51.222" r="54.222"/></g><path class="e" d="M314.963,286.19a4.89,4.89,0,0,1-1.413,2.49L282.23,320a4.6,4.6,0,0,1-6.361,0l-13.324-13.324a4.906,4.906,0,0,1-1.412-2.492,4.509,4.509,0,0,1,4.425-5.361,4.424,4.424,0,0,1,3.35,1.489l10.143,10.143,28.14-28.137a4.909,4.909,0,0,1,2.492-1.413,4.511,4.511,0,0,1,5.282,5.284Z" transform="translate(-172.043 -185.436)"/></g></g></svg>