<svg xmlns="http://www.w3.org/2000/svg" xmlns:xlink="http://www.w3.org/1999/xlink" width="20" height="20" viewBox="0 0 20 20"><defs><style>.a,.d{fill:none;}.b{opacity:0.6;}.c{clip-path:url(#a);}.d{stroke:#fff;stroke-linecap:round;stroke-linejoin:round;stroke-width:2px;}.e{fill:#fff;}</style><clipPath id="a"><rect class="a" width="20" height="20"/></clipPath></defs><g class="b" transform="translate(-1)"><g class="c" transform="translate(1)"><path class="d" d="M4.61,10.483H14.826" transform="translate(0.28 0.28)"/><path class="e" d="M2.8,14.627a1.133,1.133,0,1,1-1.133,1.134A1.135,1.135,0,0,1,2.8,14.627m0-1.667a2.8,2.8,0,1,0,2.8,2.8,2.8,2.8,0,0,0-2.8-2.8" transform="translate(0 -4.96)"/><path class="e" d="M15.761,1.667A1.133,1.133,0,1,1,14.626,2.8a1.135,1.135,0,0,1,1.136-1.133m0-1.667a2.8,2.8,0,1,0,2.8,2.8,2.8,2.8,0,0,0-2.8-2.8" transform="translate(1.44 8)"/></g></g></svg>