<svg xmlns="http://www.w3.org/2000/svg" xmlns:xlink="http://www.w3.org/1999/xlink" width="20" height="20" viewBox="0 0 20 20"><defs><style>.a,.c{fill:none;}.b{clip-path:url(#a);}.c{stroke:#fff;stroke-linecap:round;stroke-linejoin:round;stroke-width:1.5px;}.d{fill:#293377;}.e{fill:#fff;}</style><clipPath id="a"><rect class="a" width="20" height="20"/></clipPath></defs><g class="b"><path class="c" d="M2.52,16.92,7.193,9.037l6.438,5.674L16.92,2.521" transform="translate(0.28 0.28)"/><path class="d" d="M6.923,10.548A1.967,1.967,0,1,1,8.889,8.582a1.969,1.969,0,0,1-1.967,1.967" transform="translate(0.551 0.735)"/><path class="e" d="M7.006,7.533A1.133,1.133,0,1,1,5.873,8.666,1.135,1.135,0,0,1,7.006,7.533m0-1.667a2.8,2.8,0,1,0,2.8,2.8,2.8,2.8,0,0,0-2.8-2.8" transform="translate(0.467 0.652)"/><path class="d" d="M2.717,17.643a1.967,1.967,0,1,1,1.967-1.967,1.969,1.969,0,0,1-1.967,1.967" transform="translate(0.083 1.523)"/><path class="e" d="M2.8,14.627a1.133,1.133,0,1,1-1.133,1.134A1.135,1.135,0,0,1,2.8,14.627m0-1.667a2.8,2.8,0,1,0,2.8,2.8,2.8,2.8,0,0,0-2.8-2.8" transform="translate(0 1.44)"/><path class="d" d="M12.718,15.656a1.967,1.967,0,1,1,1.968-1.968,1.969,1.969,0,0,1-1.968,1.968" transform="translate(1.194 1.303)"/><path class="e" d="M12.8,12.64a1.133,1.133,0,1,1-1.134,1.133A1.137,1.137,0,0,1,12.8,12.64m0-1.667a2.8,2.8,0,1,0,2.8,2.8,2.8,2.8,0,0,0-2.8-2.8" transform="translate(1.111 1.219)"/><path class="d" d="M15.678,4.683a1.967,1.967,0,1,1,1.966-1.967,1.969,1.969,0,0,1-1.966,1.967" transform="translate(1.523 0.083)"/><path class="e" d="M15.761,1.667A1.133,1.133,0,1,1,14.626,2.8a1.135,1.135,0,0,1,1.136-1.133m0-1.667a2.8,2.8,0,1,0,2.8,2.8,2.8,2.8,0,0,0-2.8-2.8" transform="translate(1.44)"/></g></svg>