<svg xmlns="http://www.w3.org/2000/svg" width="20.754" height="22.208" viewBox="0 0 20.754 22.208"><defs><style>.a{fill:#fff;stroke-width:0.3px;}.a,.b,.c{stroke:#fff;}.b,.c,.e{fill:none;}.c{stroke-width:1.5px;}.d{stroke:none;}</style></defs><g transform="translate(0.163 0.207)"><path class="a" d="M23.574,11.88l-9.429-9.4a.787.787,0,0,0-1.111,0L3.6,11.88a.783.783,0,0,0,.556,1.337H8.089v2.718A1.57,1.57,0,0,0,9.661,17.5h7.857a1.571,1.571,0,0,0,1.571-1.567V13.217h3.929a.783.783,0,0,0,.555-1.337Zm-6.055-.23v4.285H9.661V11.65h-3.6L13.59,4.141l7.532,7.509Z" transform="translate(-3.375 -2.25)"/><g class="b" transform="translate(4.699 17.251)"><rect class="d" width="11" height="4.75" rx="2"/><rect class="e" x="0.5" y="0.5" width="10" height="3.75" rx="1.5"/></g><g class="c" transform="translate(4.678 17.251)"><rect class="d" width="11" height="4.75" rx="1.5"/><rect class="e" x="0.75" y="0.75" width="9.5" height="3.25" rx="0.75"/></g></g></svg>