<svg xmlns="http://www.w3.org/2000/svg" width="19" height="20" viewBox="0 0 19 20"><defs><style>.a{opacity:0.6;}.b{fill:#fff;}</style></defs><g class="a" transform="translate(-5 -0.016)"><path class="b" d="M285.969,131.944l.006-.008c.01-.012.019-.025.028-.038l.015-.025.014-.024c.006-.011.011-.022.016-.034l.008-.018c.006-.014.011-.028.015-.042l0-.013q.008-.027.014-.054h0a.6.6,0,0,0-.163-.545l-2.993-2.993a.6.6,0,1,0-.847.847l1.972,1.972h-6.139a.6.6,0,1,0,0,1.2h6.137l-1.971,1.971a.6.6,0,1,0,.847.846l2.988-2.988A.619.619,0,0,0,285.969,131.944Z" transform="translate(-262.103 -122.832)"/><path class="b" d="M12.172,6.683a.612.612,0,0,0,.6-.625V2.308A2.247,2.247,0,0,0,10.576.016H1.6A1.634,1.634,0,0,0,0,1.683v15a1.678,1.678,0,0,0,1.087,1.585l4.8,1.671a1.582,1.582,0,0,0,.495.078,1.634,1.634,0,0,0,1.6-1.667v-.833h2.594a2.247,2.247,0,0,0,2.195-2.292v-3.75a.6.6,0,1,0-1.2,0v3.75a1.022,1.022,0,0,1-1,1.042H7.982V3.349A1.678,1.678,0,0,0,6.895,1.764l-1.433-.5h5.114a1.022,1.022,0,0,1,1,1.042v3.75A.612.612,0,0,0,12.172,6.683ZM1.726,1.284,6.507,2.948a.432.432,0,0,1,.277.4v15a.409.409,0,0,1-.4.417.416.416,0,0,1-.13-.018L1.474,17.084a.432.432,0,0,1-.277-.4v-15a.409.409,0,0,1,.4-.417A.416.416,0,0,1,1.726,1.284Z" transform="translate(5 0)"/></g></svg>