<svg xmlns="http://www.w3.org/2000/svg" xmlns:xlink="http://www.w3.org/1999/xlink" width="19.95" height="19.975" viewBox="0 0 19.95 19.975"><defs><style>.a,.e{fill:none;}.b{opacity:0.6;}.c{clip-path:url(#a);}.d{fill:#fff;}.e{stroke:#fff;stroke-linecap:round;stroke-linejoin:round;stroke-width:1.6px;}</style><clipPath id="a"><rect class="a" width="19.95" height="19.975" transform="translate(0 0)"/></clipPath></defs><g class="b" transform="translate(0 0)"><g class="c"><path class="d" d="M11.583,0l-.145,0V1.5a7,7,0,0,1,7.01,6.777c0,.076,0,.151,0,.227h1.5A8.6,8.6,0,0,0,11.583,0"/><path class="d" d="M11.3,3.952V5.535a2.841,2.841,0,0,1,3.121,3.121H16c-.087-2.951-1.753-4.617-4.7-4.7"/><path class="e" d="M8.126,5.582c.123-1.355-2.489-3.851-3.851-3.851-1.149,0-2.923,2.15-3.251,3.252C.228,7.664,1,10.652,5.559,15.208s7.329,4.448,9.712,3.466c.921-.38,2.817-1.821,2.817-2.818,0-1.391-2.545-3.936-3.936-3.936-.55,0-1.555,1.556-1.555,1.556a6.845,6.845,0,0,1-6.439-5.8S8.062,6.3,8.126,5.582Z"/></g></g></svg>