<svg xmlns="http://www.w3.org/2000/svg" xmlns:xlink="http://www.w3.org/1999/xlink" width="19.704" height="19.699" viewBox="0 0 19.704 19.699"><defs><style>.a{fill:#fff;}.b{opacity:0.6;}.c{clip-path:url(#a);}</style><clipPath id="a"><rect class="a" width="19.704" height="19.699" transform="translate(0 0)"/></clipPath></defs><g class="b" transform="translate(-1 0)"><g class="c" transform="translate(1)"><path class="a" d="M19.7,13.538V6.167A6.029,6.029,0,0,0,13.848,0l-.07,0H5.852A6.03,6.03,0,0,0,0,6.162V18.8a.879.879,0,0,0,.854.9h13a6.028,6.028,0,0,0,5.85-6.161M18,13.532A4.273,4.273,0,0,1,13.856,17.9H1.7V6.167A4.273,4.273,0,0,1,5.848,1.8h8A4.275,4.275,0,0,1,18,6.171Z"/><path class="a" d="M9.227,9.746a1.563,1.563,0,1,1-1.6-1.522h.045A1.563,1.563,0,0,1,9.231,9.746Z"/><path class="a" d="M14.436,9.746a1.563,1.563,0,1,1-1.6-1.522h.036a1.562,1.562,0,0,1,1.562,1.523Z"/></g></g></svg>