<svg xmlns="http://www.w3.org/2000/svg" width="260" height="260" viewBox="0 0 260 260"><defs><style>.a{fill:#edf4ff;opacity:0.8;}.b{fill:#943ba4;}.c{fill:#c6ccf0;}.d{fill:#3b4ec4;}</style></defs><g transform="translate(-970 -208)"><rect class="a" width="260" height="260" rx="130" transform="translate(970 208)"/><g transform="translate(1028.745 264.841)"><path class="b" d="M-167.291,256.618a4.231,4.231,0,0,1,4.214,4.239v63.129c-14.411,9.072-27.562,17.359-40.766,25.732a5.391,5.391,0,0,1-2.841.994,5.3,5.3,0,0,1-2.8-.974c-13.18-8.353-26.063-16.56-40.139-25.534V260.837a4.234,4.234,0,0,1,4.214-4.219h78.115m0-6.272h-78.115a10.481,10.481,0,0,0-10.454,10.481v65.863q21.514,13.717,43.051,27.39a11.367,11.367,0,0,0,6.124,1.941,11.446,11.446,0,0,0,6.169-1.961q21.81-13.831,43.678-27.565V260.857a10.481,10.481,0,0,0-10.454-10.511Z" transform="translate(278.312 -250.346)"/><g transform="translate(0 48.67)"><g transform="translate(0 0)"><path class="c" d="M-292.985,409.25l12.255-5.192v12.867Z" transform="translate(303.181 -396.446)"/><path class="c" d="M45.642,417.8V405.4l11.87,4.96Z" transform="translate(75.833 -397.348)"/><path class="d" d="M-180.456,396.9a7.715,7.715,0,0,0-5.171-7.626c-4.931-2.067-9.829-4.212-14.8-6.187-1.089-.432-1.668-.7-1.895-1.593v7.781c3.977,1.67,7.813,3.062,11.829,4.746l-11.829,7.431v.11l-6.25,4.086C-223,414.716-236.174,423-249.4,431.376a5.406,5.406,0,0,1-2.845.994,5.314,5.314,0,0,1-2.8-.975c-13.2-8.353-26.1-16.56-40.2-25.534l-6.25-4.244v-.14l-12.214-7.675c4.237-1.8,8.184-3.476,12.214-5.19V381a2.042,2.042,0,0,1-1.438,1.426c-4.744,1.948-9.448,3.991-14.165,6.005-4.487,1.921-6.776,5.259-6.77,10.234q.044,34.767.016,69.534a10.533,10.533,0,0,0,.306,2.935,10.489,10.489,0,0,0,10.214,7.507q30.7.015,61.393,0t61.393-.007a9.753,9.753,0,0,0,10.076-9.9Q-180.393,432.813-180.456,396.9Zm-5.786,70.429c0,.431-.017.824-.046,1.2l-34.739-34.862a2.953,2.953,0,0,0-4.187,0,2.979,2.979,0,0,0,0,4.2l34.743,34.866c-.344.026-.706.043-1.1.043H-312.38c-.215,0-.419-.005-.619-.013l34.772-34.9a2.979,2.979,0,0,0,0-4.2,2.953,2.953,0,0,0-4.187,0l-35.1,35.226c-.038-.4-.057-.839-.057-1.318V399.332c.717-.01,1.128.479,1.612.786q7.234,4.6,14.461,9.194,21.548,13.717,43.119,27.39a11.4,11.4,0,0,0,6.134,1.941,11.477,11.477,0,0,0,6.179-1.961q21.844-13.831,43.748-27.565h0l.209-.131,6.475-4.07h0q4.2-2.641,8.4-5.283c.227-.142.47-.264.99-.555Z" transform="translate(323.87 -381)"/></g></g><g transform="translate(51.762 33.433)"><g transform="translate(0)"><path class="b" d="M-151.937,363.077a2.522,2.522,0,0,1,.289-.451q9.447-9.458,18.9-18.907a3.82,3.82,0,0,1,4.057-1.049,3.755,3.755,0,0,1,2.717,3.076,3.836,3.836,0,0,1-1.146,3.561q-2.4,2.407-4.809,4.811-8.578,8.577-17.156,17.153a3.972,3.972,0,0,1-5.913-.007q-5.044-5.047-10.09-10.094a3.956,3.956,0,0,1,1.658-6.666,3.85,3.85,0,0,1,3.966,1.076q3.572,3.558,7.133,7.127C-152.238,362.8-152.145,362.881-151.937,363.077Z" transform="translate(166.299 -342.469)"/></g></g></g></g></svg>