<svg xmlns="http://www.w3.org/2000/svg" xmlns:xlink="http://www.w3.org/1999/xlink" width="30" height="30" viewBox="0 0 30 30"><defs><style>.a{fill:none;stroke:#eacf00;stroke-linecap:round;stroke-linejoin:round;stroke-width:2.5px;}.b{clip-path:url(#a);}</style><clipPath id="a"><rect class="a" width="30" height="30" transform="translate(0 0)"/></clipPath></defs><g transform="translate(-1.133 0.867)"><g class="b" transform="translate(1.133 -0.867)"><path class="a" d="M5.65,9.2c-.127-3.039.522-5.7,2.994-7.561A8.181,8.181,0,0,1,14.1.012a8,8,0,0,1,5.952,2.742C21.641,4.589,21.91,6.8,21.9,9.145a2.816,2.816,0,0,1,1.849.13,2.506,2.506,0,0,1,.636,4.078,7.673,7.673,0,0,1-1.574,1.132c-.495.287-.532.6-.272,1.069a8.4,8.4,0,0,0,3.589,3.3,2.565,2.565,0,0,1,1.036.756,1.9,1.9,0,0,1-.571,2.689,5.923,5.923,0,0,1-1.92.878,1.124,1.124,0,0,0-.833.736c-.446,1.189-1.5,1.256-2.535,1.283a6.583,6.583,0,0,0-3.331,1.008,7.452,7.452,0,0,1-8.316.05,7.466,7.466,0,0,0-3.949-1.1,1.98,1.98,0,0,1-2.194-1.511c-.064-.255-.321-.365-.574-.437a6.138,6.138,0,0,1-2.03-.927A1.837,1.837,0,0,1,1.1,19.007a10.891,10.891,0,0,0,2.884-2.07A7.273,7.273,0,0,0,5.046,15.4a.532.532,0,0,0-.217-.825A10.461,10.461,0,0,1,3.205,13.4a2.5,2.5,0,0,1,.458-4.1A2.381,2.381,0,0,1,5.65,9.2" transform="translate(1.251 1.25)"/></g></g></svg>