<svg xmlns="http://www.w3.org/2000/svg" width="161.016" height="196.072" viewBox="0 0 161.016 196.072"><defs><style>.a{fill:#e5d2ed;}.b{fill:#3b4ec4;}.c{fill:#943ba4;}</style></defs><g transform="translate(-1038 -227)"><g transform="translate(952.667 177.667)"><g transform="translate(118.036 90.497)"><path class="a" d="M204.525,109.769v13.77a6.887,6.887,0,0,1-6.885,6.885H159.774a6.887,6.887,0,0,1-6.885-6.885v-13.77h12.048a13.77,13.77,0,0,1,27.539,0Z" transform="translate(-152.889 -96)"/></g><g transform="translate(171.579 170.871)"><path class="b" d="M284.184,332.917l-20.689,3.649,3.649-20.689,51.12-51.12c2.692-2.692,5.831-3.9,8.517-1.218l8.517,8.517a6.877,6.877,0,0,1,0,9.735Z" transform="translate(-263.495 -262.032)"/></g><g transform="translate(85.333 105.988)"><path class="c" d="M154.25,251.926H104.266a18.949,18.949,0,0,1-18.933-18.933v-86.06A18.949,18.949,0,0,1,104.266,128H117.21v10.327H104.266a8.618,8.618,0,0,0-8.606,8.606v86.06a8.618,8.618,0,0,0,8.606,8.606H154.25Z" transform="translate(-85.333 -128)"/></g><g transform="translate(170.567 105.988)"><path class="c" d="M293.212,195.54H282.885V146.933a8.618,8.618,0,0,0-8.606-8.606H261.4V128h12.875a18.949,18.949,0,0,1,18.933,18.933Z" transform="translate(-261.404 -128)"/></g><g transform="translate(112.872 85.333)"><path class="c" d="M192.137,130.084H154.27a12.062,12.062,0,0,1-12.048-12.048v-13.77a5.165,5.165,0,0,1,5.164-5.163h7.6a18.935,18.935,0,0,1,36.434,0h7.6a5.165,5.165,0,0,1,5.163,5.163v13.77A12.062,12.062,0,0,1,192.137,130.084ZM152.55,109.43v8.606a1.721,1.721,0,0,0,1.721,1.721h37.866a1.722,1.722,0,0,0,1.721-1.721V109.43h-6.885a5.166,5.166,0,0,1-5.164-5.164,8.606,8.606,0,0,0-17.212,0,5.165,5.165,0,0,1-5.163,5.164Z" transform="translate(-142.222 -85.333)"/></g><g transform="translate(111.151 140.411)"><path class="c" d="M143.83,199.111h55.078a5.164,5.164,0,0,1,5.164,5.164h0a5.163,5.163,0,0,1-5.164,5.163H143.83a5.163,5.163,0,0,1-5.163-5.163h0A5.163,5.163,0,0,1,143.83,199.111Z" transform="translate(-138.667 -194.111)"/></g><g transform="translate(111.151 161.066)"><path class="c" d="M143.83,241.778h55.078a5.163,5.163,0,0,1,5.164,5.163h0a5.164,5.164,0,0,1-5.164,5.164H143.83a5.163,5.163,0,0,1-5.163-5.164h0A5.163,5.163,0,0,1,143.83,241.778Z" transform="translate(-138.667 -236.778)"/></g><g transform="translate(111.151 181.72)"><path class="c" d="M143.83,284.444h55.078a5.164,5.164,0,0,1,5.164,5.164h0a5.164,5.164,0,0,1-5.164,5.164H143.83a5.163,5.163,0,0,1-5.163-5.164h0A5.163,5.163,0,0,1,143.83,284.444Z" transform="translate(-138.667 -279.444)"/></g></g><g transform="translate(914.782 220.228)"><g transform="translate(261.858 77.862)"><path class="c" d="M392.543,189.913a11.188,11.188,0,1,1,11.188-11.188A11.2,11.2,0,0,1,392.543,189.913Zm0-14.917a3.729,3.729,0,1,0,3.729,3.729A3.74,3.74,0,0,0,392.543,175Z" transform="translate(-381.355 -167.538)"/></g><rect class="b" width="8" height="18" rx="3" transform="translate(177.218 6.772)"/><rect class="b" width="8" height="18" rx="3" transform="translate(219.218 31.772) rotate(90)"/><rect class="b" width="8" height="18" rx="3" transform="translate(162.218 31.772) rotate(90)"/></g></g></svg>