<svg xmlns="http://www.w3.org/2000/svg" width="26.734" height="30.5" viewBox="0 0 26.734 30.5"><defs><style>.a{stroke:#000;stroke-width:0.5px;}</style></defs><path class="a" d="M25.356,6.59A5.717,5.717,0,0,1,19.645.879.879.879,0,0,0,18.766,0H14.059a.879.879,0,0,0-.879.879v19.3A3.357,3.357,0,1,1,9.822,16.82a.879.879,0,0,0,.879-.879V11.234a.879.879,0,0,0-.879-.879,9.822,9.822,0,1,0,9.822,9.822V11.635a12.091,12.091,0,0,0,5.711,1.42.879.879,0,0,0,.879-.879V7.469A.879.879,0,0,0,25.356,6.59Zm-.879,4.671a10.33,10.33,0,0,1-5.2-1.919.879.879,0,0,0-1.392.713V20.178a8.065,8.065,0,1,1-8.944-8.017v2.977a5.116,5.116,0,1,0,5.994,5.04V1.758h3A7.485,7.485,0,0,0,24.477,8.3Zm0,0" transform="translate(0.25 0.25)"/></svg>