<svg id="Icon" xmlns="http://www.w3.org/2000/svg" width="80" height="80" viewBox="0 0 80 80">
  <circle id="bg" cx="40" cy="40" r="40" fill="#3b4ec4" opacity="0.05"/>
  <path id="thumbs-up" d="M23.948,14.6V7.4A5.444,5.444,0,0,0,18.461,2L11.145,18.2V38H31.776a3.641,3.641,0,0,0,3.658-3.06l2.524-16.2a3.561,3.561,0,0,0-.856-2.9A3.684,3.684,0,0,0,34.3,14.6ZM11.145,38H5.658A3.629,3.629,0,0,1,2,34.4V21.8a3.629,3.629,0,0,1,3.658-3.6h5.487" transform="translate(20.5 20.5)" fill="none" stroke="#3b4ec4" stroke-linecap="round" stroke-linejoin="round" stroke-width="3"/>
</svg>
