<svg xmlns="http://www.w3.org/2000/svg" width="42" height="40.886" viewBox="0 0 42 40.886"><defs><style>.a{fill:none;stroke:#3b4ec4;stroke-linecap:round;stroke-linejoin:round;stroke-width:3px;}.b{fill:#3b4ec4;}</style></defs><g transform="translate(-19 -20)"><path class="a" d="M43,21.943a18.675,18.675,0,0,1-2.006,8.469A18.943,18.943,0,0,1,24.057,40.886a18.675,18.675,0,0,1-8.469-2.006L4,39.771l3.12-9.36a18.675,18.675,0,0,1-2.006-8.469A18.943,18.943,0,0,1,15.589,5.006,18.675,18.675,0,0,1,24.057,3h1.114A18.9,18.9,0,0,1,43,20.829Z" transform="translate(16.5 18.5)"/><circle class="b" cx="2" cy="2" r="2" transform="translate(31 38)"/><circle class="b" cx="2" cy="2" r="2" transform="translate(39 38)"/><circle class="b" cx="2" cy="2" r="2" transform="translate(47 38)"/></g></svg>