<svg xmlns="http://www.w3.org/2000/svg" xmlns:xlink="http://www.w3.org/1999/xlink" width="75" height="75" viewBox="0 0 75 75"><defs><style>.a{fill:#c7c9d5;}.b{clip-path:url(#a);}</style><clipPath id="a"><rect class="a" width="75" height="75" rx="5" transform="translate(0)"/></clipPath></defs><g class="b"><g transform="translate(0.064 0)"><path class="a" d="M78.954,26.435a27.151,27.151,0,0,0-1.741-9.214A19.168,19.168,0,0,0,66.264,6.272a27.467,27.467,0,0,0-9.089-1.746c-4-.18-5.267-.23-15.423-.23s-11.456,0-15.426.23a27.467,27.467,0,0,0-9.084,1.746A19.157,19.157,0,0,0,6.293,17.221,27.251,27.251,0,0,0,4.552,26.3c-.18,4-.233,5.272-.233,15.426s0,11.451.233,15.426a27.407,27.407,0,0,0,1.741,9.092A19.168,19.168,0,0,0,17.245,77.191a27.375,27.375,0,0,0,9.084,1.871c4,.18,5.272.233,15.426.233s11.456,0,15.426-.233a27.4,27.4,0,0,0,9.089-1.741A19.19,19.19,0,0,0,77.218,66.373a27.31,27.31,0,0,0,1.741-9.092c.18-4,.233-5.267.233-15.426s-.008-11.443-.241-15.423Zm-37.224,34.5A19.221,19.221,0,1,1,60.951,41.715,19.215,19.215,0,0,1,41.729,60.934ZM61.718,26.26a4.481,4.481,0,1,1,4.477-4.482A4.477,4.477,0,0,1,61.718,26.26Z" transform="translate(-4.319 -4.295)"/><path class="a" d="M37.931,25.425A12.486,12.486,0,1,1,25.445,12.937,12.488,12.488,0,0,1,37.931,25.425Z" transform="translate(11.963 11.991)"/></g></g></svg>