<svg xmlns="http://www.w3.org/2000/svg" xmlns:xlink="http://www.w3.org/1999/xlink" width="75" height="75" viewBox="0 0 75 75"><defs><style>.a,.c{fill:#c7c9d5;}.b{clip-path:url(#a);}.c{stroke:#c7c9d5;stroke-linecap:round;stroke-linejoin:round;stroke-width:0.722px;}</style><clipPath id="a"><rect class="a" width="75" height="75" rx="5"/></clipPath></defs><g class="b"><path class="c" d="M66.106,52.677a1.306,1.306,0,0,0-1.137-1.395,13.367,13.367,0,0,1-6.095-2.995,15.811,15.811,0,0,1-4.132-5.63,2.948,2.948,0,0,1-.361-1.291q0-.776,1.007-1.342a9.211,9.211,0,0,1,2.195-.877,6.353,6.353,0,0,0,2.195-1.058A2.269,2.269,0,0,0,60.786,36.2a1.91,1.91,0,0,0-.956-1.626,3.518,3.518,0,0,0-1.988-.648,4.712,4.712,0,0,0-1.6.414,4.755,4.755,0,0,1-1.653.414,2.8,2.8,0,0,1-.619-.1q.258-3.255.258-5.938a14.657,14.657,0,0,0-.877-5.888,14.624,14.624,0,0,0-5.293-6.276,14.057,14.057,0,0,0-7.878-2.248q-10.227,0-14.2,8.521a14.5,14.5,0,0,0-.93,5.939q0,1.963.311,5.888a4.328,4.328,0,0,1-.776.1,4.906,4.906,0,0,1-1.626-.414,4.887,4.887,0,0,0-1.576-.414,3.269,3.269,0,0,0-1.937.646,1.98,1.98,0,0,0-.9,1.681,2.222,2.222,0,0,0,1.007,1.833,6.332,6.332,0,0,0,2.195,1.06,9.211,9.211,0,0,1,2.195.877q1.007.566,1.007,1.342a2.948,2.948,0,0,1-.361,1.291q-3.305,7.126-10.227,8.625a1.306,1.306,0,0,0-1.137,1.395q0,2.428,7.126,3.563a10.107,10.107,0,0,1,.311,1.342,4,4,0,0,0,.569,1.576,1.376,1.376,0,0,0,1.188.491,11.313,11.313,0,0,0,1.988-.258,11.313,11.313,0,0,1,1.988-.258,8.222,8.222,0,0,1,3.486.776,13.811,13.811,0,0,1,2.814,1.679,12.739,12.739,0,0,0,2.97,1.679,10.045,10.045,0,0,0,3.951.776,10.5,10.5,0,0,0,4.081-.776,12.1,12.1,0,0,0,2.97-1.679,13.16,13.16,0,0,1,2.79-1.679,8.222,8.222,0,0,1,3.486-.776,13.025,13.025,0,0,1,2.014.231,13.026,13.026,0,0,0,2.014.231,1.385,1.385,0,0,0,1.161-.491,3.8,3.8,0,0,0,.595-1.6q.209-1.111.258-1.265Q66.1,55.1,66.1,52.675Zm13.221-37.8V64.453A14.9,14.9,0,0,1,64.453,79.327H14.874A14.331,14.331,0,0,1,4.363,74.964,14.315,14.315,0,0,1,0,64.453V14.874A14.331,14.331,0,0,1,4.363,4.363,14.315,14.315,0,0,1,14.874,0H64.453A14.331,14.331,0,0,1,74.964,4.363,14.315,14.315,0,0,1,79.327,14.874Z" transform="translate(-2.249 -2.249)"/></g></svg>