<svg xmlns="http://www.w3.org/2000/svg" xmlns:xlink="http://www.w3.org/1999/xlink" width="75" height="75" viewBox="0 0 75 75"><defs><style>.a{fill:#c7c9d5;}.b{clip-path:url(#a);}</style><clipPath id="a"><rect class="a" width="75" height="75" rx="5"/></clipPath></defs><g class="b"><path class="a" d="M13.694,0A13.665,13.665,0,0,0,0,13.694V61.3A13.665,13.665,0,0,0,13.694,75H39.5V45.679H31.746V35.123H39.5V26.1c0-7.085,4.581-13.592,15.133-13.592a63.941,63.941,0,0,1,7.431.41l-.248,9.858s-3.223-.031-6.737-.031c-3.806,0-4.415,1.754-4.415,4.665v7.708H62.119l-.5,10.556H50.662V75H61.306A13.665,13.665,0,0,0,75,61.306V13.694A13.665,13.665,0,0,0,61.306,0Z"/></g></svg>