<svg xmlns="http://www.w3.org/2000/svg" xmlns:xlink="http://www.w3.org/1999/xlink" width="75" height="75" viewBox="0 0 75 75"><defs><style>.a{fill:#c7c9d5;}.b{clip-path:url(#a);}</style><clipPath id="a"><rect class="a" width="75" height="75" rx="5"/></clipPath></defs><g class="b"><path class="a" d="M62.375,23.488a21.694,21.694,0,0,1-5.9,1.657,9.951,9.951,0,0,0,4.533-5.7,20.3,20.3,0,0,1-6.531,2.485,9.727,9.727,0,0,0-7.456-3.216A10.233,10.233,0,0,0,36.791,28.946a9.4,9.4,0,0,0,.243,2.339,28.984,28.984,0,0,1-11.793-3.167,28.954,28.954,0,0,1-9.354-7.554,10.132,10.132,0,0,0-1.414,5.165,9.653,9.653,0,0,0,4.435,8.529,12.057,12.057,0,0,1-4.874-1.266v.1A9.731,9.731,0,0,0,16.471,39.6a10.225,10.225,0,0,0,5.994,3.53,9.486,9.486,0,0,1-2.485.391,13.676,13.676,0,0,1-1.9-.2,10.4,10.4,0,0,0,3.63,5.069,9.721,9.721,0,0,0,5.921,2.046,20.223,20.223,0,0,1-12.718,4.385,19.748,19.748,0,0,1-2.437-.146,28.71,28.71,0,0,0,15.691,4.58A29.822,29.822,0,0,0,38.4,57.526,26.356,26.356,0,0,0,46.59,52.9a30.726,30.726,0,0,0,5.872-6.676,29.456,29.456,0,0,0,4.847-16.105q0-.877-.048-1.316a19.882,19.882,0,0,0,5.117-5.312ZM74.85,14.034V60.816A14.056,14.056,0,0,1,60.816,74.85H14.034a13.523,13.523,0,0,1-9.918-4.117A13.507,13.507,0,0,1,0,60.816V14.034A13.523,13.523,0,0,1,4.117,4.117,13.507,13.507,0,0,1,14.034,0H60.816a13.523,13.523,0,0,1,9.918,4.117A13.507,13.507,0,0,1,74.85,14.034Z" transform="translate(0 0)"/></g></svg>