<svg xmlns="http://www.w3.org/2000/svg" xmlns:xlink="http://www.w3.org/1999/xlink" width="85.708" height="60.5" viewBox="0 0 85.708 60.5"><defs><style>.a{fill:#c7c9d5;}.b{clip-path:url(#a);}</style><clipPath id="a"><rect class="a" width="85.708" height="60.5"/></clipPath></defs><g class="b"><path class="a" d="M43.2,60.488c-8.078.041-15.628-.026-23.163-.461a65.342,65.342,0,0,1-9-.921c-5.591-1.1-9.025-4.774-9.92-10.5A105.932,105.932,0,0,1,.06,34.89C-.076,29.162.008,23.437.437,17.72A43.343,43.343,0,0,1,1.516,9.966c1.273-4.83,4.6-7.5,9.226-8.5A73.584,73.584,0,0,1,22.812.359C28.847.074,34.885.022,40.924,0c8.548-.026,17.088.1,25.617.6a58.351,58.351,0,0,1,8.911.97c4.725,1.015,7.594,3.987,8.643,8.765A80.177,80.177,0,0,1,85.5,22.969,143.2,143.2,0,0,1,85.108,43.7a41.011,41.011,0,0,1-1.053,6.882c-1.28,4.781-4.531,7.484-9.146,8.462a74.673,74.673,0,0,1-11.985,1.1c-6.75.322-13.5.386-19.726.352M34.665,16.81V43.692c7.15-4.5,14.219-8.937,21.388-13.445C48.859,25.728,41.8,21.292,34.665,16.81" transform="translate(-0.001 0.002)"/></g></svg>